<svg version="1.1" viewBox="0.0 0.0 960.0 720.0" fill="none" stroke="none" stroke-linecap="square" stroke-miterlimit="10" xmlns:xlink="http://www.w3.org/1999/xlink" xmlns="http://www.w3.org/2000/svg"><clipPath id="p.0"><path d="m0 0l960.0 0l0 720.0l-960.0 0l0 -720.0z" clip-rule="nonzero"/></clipPath><g clip-path="url(#p.0)"><path fill="#000000" fill-opacity="0.0" d="m0 0l960.0 0l0 720.0l-960.0 0z" fill-rule="evenodd"/><path fill="#000000" fill-opacity="0.0" d="m274.70602 251.76378l35.293976 -13.527557l23.530182 -44.11812l95.293976 -28.824142l8.233582 2.3543396l17.648285 -4.1181183l5.881897 6.469818l14.706055 -2.9422607l7.0577393 9.412079l43.53018 -12.351715l40.0 -6.469803l65.8819 5.2939606l13.530151 -0.5905609l21.175842 -3.5275574l21.178528 1.1758575l16.469788 6.469818l19.41211 30.587921l4.118103 24.118118l-17.648315 18.236221l4.7060547 4.706024l12.942261 -12.9422455l8.821472 -26.469818l-11.763733 -25.29396l-11.763794 -8.236221l21.175842 11.766403l10.587952 16.469818l3.5301514 20.587921l-25.884521 41.763794l-32.939636 38.824127l-35.293945 41.175873l-47.060364 41.766388l-148.23358 111.17584l-52.35434 61.763763l-17.64566 5.881897l-30.0 -98.23358l-4.7060547 -4.706024l-1.1758423 -10.0l-15.293976 -17.060364l-25.29657 2.9422607l-5.293976 -5.881897l-39.409454 16.469818l-8.236206 -5.881897l30.0 -33.53018l7.0577393 -2.9396362l0 -9.412079l11.766388 -9.412079l-16.472412 -42.35431l2.9422302 -8.233612l-7.648285 -28.824127l-12.939636 -8.236237l-5.2939453 -11.763763l1.1758423 -14.118134l4.118103 -5.2939453z" fill-rule="evenodd"/><path stroke="#ffffff" stroke-width="12.0" stroke-linejoin="round" stroke-linecap="butt" d="m274.70602 251.76378l35.293976 -13.527557l23.530182 -44.11812l95.293976 -28.824142l8.233582 2.3543396l17.648285 -4.1181183l5.881897 6.469818l14.706055 -2.9422607l7.0577393 9.412079l43.53018 -12.351715l40.0 -6.469803l65.8819 5.2939606l13.530151 -0.5905609l21.175842 -3.5275574l21.178528 1.1758575l16.469788 6.469818l19.41211 30.587921l4.118103 24.118118l-17.648315 18.236221l4.7060547 4.706024l12.942261 -12.9422455l8.821472 -26.469818l-11.763733 -25.29396l-11.763794 -8.236221l21.175842 11.766403l10.587952 16.469818l3.5301514 20.587921l-25.884521 41.763794l-32.939636 38.824127l-35.293945 41.175873l-47.060364 41.766388l-148.23358 111.17584l-52.35434 61.763763l-17.64566 5.881897l-30.0 -98.23358l-4.7060547 -4.706024l-1.1758423 -10.0l-15.293976 -17.060364l-25.29657 2.9422607l-5.293976 -5.881897l-39.409454 16.469818l-8.236206 -5.881897l30.0 -33.53018l7.0577393 -2.9396362l0 -9.412079l11.766388 -9.412079l-16.472412 -42.35431l2.9422302 -8.233612l-7.648285 -28.824127l-12.939636 -8.236237l-5.2939453 -11.763763l1.1758423 -14.118134l4.118103 -5.2939453z" fill-rule="evenodd"/><path fill="#000000" fill-opacity="0.0" d="m303.53018 431.7638l80.0 -39.41208l-4.706024 -11.763794l-33.53018 7.060364l-48.236237 14.70343" fill-rule="evenodd"/><path stroke="#ffffff" stroke-width="12.0" stroke-linejoin="round" stroke-linecap="butt" d="m303.53018 431.7638l80.0 -39.41208l-4.706024 -11.763794l-33.53018 7.060364l-48.236237 14.70343" fill-rule="evenodd"/><path fill="#000000" fill-opacity="0.0" d="m276.46982 264.70602l10.0 5.293976l25.293976 -3.530182l186.47241 -69.41208l-29.412048 -14.706039l-49.41208 -12.939621" fill-rule="evenodd"/><path stroke="#ffffff" stroke-width="12.0" stroke-linejoin="round" stroke-linecap="butt" d="m276.46982 264.70602l10.0 5.293976l25.293976 -3.530182l186.47241 -69.41208l-29.412048 -14.706039l-49.41208 -12.939621" fill-rule="evenodd"/><path fill="#000000" fill-opacity="0.0" d="m492.94226 194.70604l-7.648285 -19.412079" fill-rule="evenodd"/><path stroke="#ffffff" stroke-width="12.0" stroke-linejoin="round" stroke-linecap="butt" d="m492.94226 194.70604l-7.648285 -19.412079" fill-rule="evenodd"/><path fill="#000000" fill-opacity="0.0" d="m310.58792 384.70602l22.94226 -21.175842l168.23361 -62.94226l36.472412 -2.351715l-44.706024 27.05777l8.821533 27.05774l41.766388 -20.587921l-42.94226 28.824127l-120.58792 47.648285l-35.881897 5.881897" fill-rule="evenodd"/><path stroke="#ffffff" stroke-width="12.0" stroke-linejoin="round" stroke-linecap="butt" d="m310.58792 384.70602l22.94226 -21.175842l168.23361 -62.94226l36.472412 -2.351715l-44.706024 27.05777l8.821533 27.05774l41.766388 -20.587921l-42.94226 28.824127l-120.58792 47.648285l-35.881897 5.881897" fill-rule="evenodd"/><path fill="#000000" fill-opacity="0.0" d="m328.82416 367.8834l26.368744 -3.7652893l26.365936 6.2736206l11.303314 10.03894l1.2549744 21.332" fill-rule="evenodd"/><path stroke="#ffffff" stroke-width="12.0" stroke-linejoin="round" stroke-linecap="butt" d="m328.82416 367.8834l26.368744 -3.7652893l26.365936 6.2736206l11.303314 10.03894l1.2549744 21.332" fill-rule="evenodd"/><path fill="#000000" fill-opacity="0.0" d="m281.17584 299.41208l45.881897 -25.881897l114.706055 -42.354324l67.648285 -19.412079l20.587921 2.3543243l11.763794 16.469818l1.7664185 22.35434l-12.35437 17.05774l-25.881866 27.648285" fill-rule="evenodd"/><path stroke="#ffffff" stroke-width="12.0" stroke-linejoin="round" stroke-linecap="butt" d="m281.17584 299.41208l45.881897 -25.881897l114.706055 -42.354324l67.648285 -19.412079l20.587921 2.3543243l11.763794 16.469818l1.7664185 22.35434l-12.35437 17.05774l-25.881866 27.648285" fill-rule="evenodd"/><path fill="#000000" fill-opacity="0.0" d="m291.17584 343.53018l72.94226 -28.824158l1.763794 -5.8818665l101.17584 -37.060364l8.236237 2.9422302l50.58792 -18.236206l8.236206 -12.939636l-0.5878906 -12.942261l-10.587952 -17.05774" fill-rule="evenodd"/><path stroke="#ffffff" stroke-width="12.0" stroke-linejoin="round" stroke-linecap="butt" d="m291.17584 343.53018l72.94226 -28.824158l1.763794 -5.8818665l101.17584 -37.060364l8.236237 2.9422302l50.58792 -18.236206l8.236206 -12.939636l-0.5878906 -12.942261l-10.587952 -17.05774" fill-rule="evenodd"/><path fill="#000000" fill-opacity="0.0" d="m362.3517 310.0l-10.587921 -42.94226" fill-rule="evenodd"/><path stroke="#ffffff" stroke-width="12.0" stroke-linejoin="round" stroke-linecap="butt" d="m362.3517 310.0l-10.587921 -42.94226" fill-rule="evenodd"/><path fill="#000000" fill-opacity="0.0" d="m470.0 269.41208l-18.236206 -38.824158" fill-rule="evenodd"/><path stroke="#ffffff" stroke-width="12.0" stroke-linejoin="round" stroke-linecap="butt" d="m470.0 269.41208l-18.236206 -38.824158" fill-rule="evenodd"/><path fill="#000000" fill-opacity="0.0" d="m353.53018 451.7638l69.41208 -21.175873l78.82153 -32.351715l32.94226 -18.824127l49.41205 -22.94226l45.881897 -30.0l7.6483154 8.236206l-10.590576 30.0" fill-rule="evenodd"/><path stroke="#ffffff" stroke-width="12.0" stroke-linejoin="round" stroke-linecap="butt" d="m353.53018 451.7638l69.41208 -21.175873l78.82153 -32.351715l32.94226 -18.824127l49.41205 -22.94226l45.881897 -30.0l7.6483154 8.236206l-10.590576 30.0" fill-rule="evenodd"/><path fill="#000000" fill-opacity="0.0" d="m358.2362 462.3517l74.11551 -25.881897l83.53018 -34.118103l61.175842 -31.175873l42.35431 -28.824127l9.412109 11.766388" fill-rule="evenodd"/><path stroke="#ffffff" stroke-width="12.0" stroke-linejoin="round" stroke-linecap="butt" d="m358.2362 462.3517l74.11551 -25.881897l83.53018 -34.118103l61.175842 -31.175873l42.35431 -28.824127l9.412109 11.766388" fill-rule="evenodd"/><path fill="#000000" fill-opacity="0.0" d="m629.41205 327.05774l12.939636 -28.233582l52.94226 -31.766418l21.175842 -23.527557" fill-rule="evenodd"/><path stroke="#ffffff" stroke-width="12.0" stroke-linejoin="round" stroke-linecap="butt" d="m629.41205 327.05774l12.939636 -28.233582l52.94226 -31.766418l21.175842 -23.527557" fill-rule="evenodd"/><path fill="#000000" fill-opacity="0.0" d="m494.70602 197.05774l54.118134 -15.881882l11.763794 -9.412079l18.236206 -4.7060394l15.881897 7.060364l29.412048 -10.587921" fill-rule="evenodd"/><path stroke="#ffffff" stroke-width="12.0" stroke-linejoin="round" stroke-linecap="butt" d="m494.70602 197.05774l54.118134 -15.881882l11.763794 -9.412079l18.236206 -4.7060394l15.881897 7.060364l29.412048 -10.587921" fill-rule="evenodd"/><path fill="#000000" fill-opacity="0.0" d="m271.7638 265.8819l-24.115494 -8.233612l-34.11812 -52.942245l0 -10.0l30.587921 -10.0l85.293976 15.293961" fill-rule="evenodd"/><path stroke="#ffffff" stroke-width="12.0" stroke-linejoin="round" stroke-linecap="butt" d="m271.7638 265.8819l-24.115494 -8.233612l-34.11812 -52.942245l0 -10.0l30.587921 -10.0l85.293976 15.293961" fill-rule="evenodd"/><path fill="#000000" fill-opacity="0.0" d="m294.70602 191.17586l-5.2939453 -18.824158l11.763763 -3.5275574l48.824158 7.6456757l47.05774 -2.9396362" fill-rule="evenodd"/><path stroke="#ffffff" stroke-width="12.0" stroke-linejoin="round" stroke-linecap="butt" d="m294.70602 191.17586l-5.2939453 -18.824158l11.763763 -3.5275574l48.824158 7.6456757l47.05774 -2.9396362" fill-rule="evenodd"/><path fill="#000000" fill-opacity="0.0" d="m473.53018 168.82414l40.00003 -1.1758423" fill-rule="evenodd"/><path stroke="#ffffff" stroke-width="12.0" stroke-linejoin="round" stroke-linecap="butt" d="m473.53018 168.82414l40.00003 -1.1758423" fill-rule="evenodd"/><path fill="#000000" fill-opacity="0.0" d="m607.05774 174.1181l5.8845215 8.824158l-5.2939453 7.0577393l16.469788 37.6483l18.233582 15.293961l48.236267 -17.6483l11.763733 -12.942261l0.5905762 -12.3517l-8.236206 -4.7060394l-7.6483154 -14.706039" fill-rule="evenodd"/><path stroke="#ffffff" stroke-width="12.0" stroke-linejoin="round" stroke-linecap="butt" d="m607.05774 174.1181l5.8845215 8.824158l-5.2939453 7.0577393l16.469788 37.6483l18.233582 15.293961l48.236267 -17.6483l11.763733 -12.942261l0.5905762 -12.3517l-8.236206 -4.7060394l-7.6483154 -14.706039" fill-rule="evenodd"/><path fill="#000000" fill-opacity="0.0" d="m687.6483 183.53018l0.5878906 -10.0l-18.824158 -7.060364l-30.0 4.118103l-27.648254 9.412079" fill-rule="evenodd"/><path stroke="#ffffff" stroke-width="12.0" stroke-linejoin="round" stroke-linecap="butt" d="m687.6483 183.53018l0.5878906 -10.0l-18.824158 -7.060364l-30.0 4.118103l-27.648254 9.412079" fill-rule="evenodd"/><path fill="#000000" fill-opacity="0.0" d="m706.4698 201.76378l17.060425 -8.233597" fill-rule="evenodd"/><path stroke="#ffffff" stroke-width="12.0" stroke-linejoin="round" stroke-linecap="butt" d="m706.4698 201.76378l17.060425 -8.233597" fill-rule="evenodd"/><path fill="#000000" fill-opacity="0.0" d="m688.82416 175.29396l16.469788 -4.7060394" fill-rule="evenodd"/><path stroke="#ffffff" stroke-width="12.0" stroke-linejoin="round" stroke-linecap="butt" d="m688.82416 175.29396l16.469788 -4.7060394" fill-rule="evenodd"/><path fill="#000000" fill-opacity="0.0" d="m699.41205 222.3517l8.236267 14.706039" fill-rule="evenodd"/><path stroke="#ffffff" stroke-width="12.0" stroke-linejoin="round" stroke-linecap="butt" d="m699.41205 222.3517l8.236267 14.706039" fill-rule="evenodd"/><path fill="#000000" fill-opacity="0.0" d="m544.70605 332.3517l-4.7060547 -32.939636" fill-rule="evenodd"/><path stroke="#ffffff" stroke-width="12.0" stroke-linejoin="round" stroke-linecap="butt" d="m544.70605 332.3517l-4.7060547 -32.939636" fill-rule="evenodd"/></g></svg>