<svg version="1.1" viewBox="0.0 0.0 960.0 720.0" fill="none" stroke="none" stroke-linecap="square" stroke-miterlimit="10" xmlns:xlink="http://www.w3.org/1999/xlink" xmlns="http://www.w3.org/2000/svg"><clipPath id="p.0"><path d="m0 0l960.0 0l0 720.0l-960.0 0l0 -720.0z" clip-rule="nonzero"/></clipPath><g clip-path="url(#p.0)"><path fill="#000000" fill-opacity="0.0" d="m0 0l960.0 0l0 720.0l-960.0 0z" fill-rule="evenodd"/><path fill="#000000" fill-opacity="0.0" d="m298.66666 284.0l87.33334 -52.0l124.0 -21.333328l129.33331 -16.666672l92.0 -10.666672l49.333374 0.66667175l20.0 9.333328l5.333313 6.6666718l0 18.0l-21.333313 24.0l-34.0 28.0l-113.333374 81.33334l-41.333313 28.0l-134.66666 82.0l-106.0 -2.666687l-13.3333435 3.3333435l-6.6666565 50.666687l-53.333344 22.0l-9.3333435 -1.333374l-45.999985 -29.333313l-47.333344 2.0l-9.333328 -18.666656l37.33333 -24.0l0 -8.0l6.0 -6.666687l-4.0 -22.666656l-12.6666565 4.6666565l-8.0 -4.6666565l-4.0 -31.333344l4.6666565 -8.0l12.0 -4.0l-2.6666565 -24.0l-12.666672 -4.6666565l-26.0 10.6666565l-6.0 -4.0l5.3333282 -14.6666565l18.666672 -14.0l26.666672 -21.333344l22.666656 -25.333313l48.66667 -16.0z" fill-rule="evenodd"/><path stroke="#ffffff" stroke-width="12.0" stroke-linejoin="round" stroke-linecap="butt" d="m298.66666 284.0l87.33334 -52.0l124.0 -21.333328l129.33331 -16.666672l92.0 -10.666672l49.333374 0.66667175l20.0 9.333328l5.333313 6.6666718l0 18.0l-21.333313 24.0l-34.0 28.0l-113.333374 81.33334l-41.333313 28.0l-134.66666 82.0l-106.0 -2.666687l-13.3333435 3.3333435l-6.6666565 50.666687l-53.333344 22.0l-9.3333435 -1.333374l-45.999985 -29.333313l-47.333344 2.0l-9.333328 -18.666656l37.33333 -24.0l0 -8.0l6.0 -6.666687l-4.0 -22.666656l-12.6666565 4.6666565l-8.0 -4.6666565l-4.0 -31.333344l4.6666565 -8.0l12.0 -4.0l-2.6666565 -24.0l-12.666672 -4.6666565l-26.0 10.6666565l-6.0 -4.0l5.3333282 -14.6666565l18.666672 -14.0l26.666672 -21.333344l22.666656 -25.333313l48.66667 -16.0z" fill-rule="evenodd"/><path fill="#000000" fill-opacity="0.0" d="m190.66667 386.66666l-2.6666718 -31.333313" fill-rule="evenodd"/><path stroke="#ffffff" stroke-width="12.0" stroke-linejoin="round" stroke-linecap="butt" d="m190.66667 386.66666l-2.6666718 -31.333313" fill-rule="evenodd"/><path fill="#000000" fill-opacity="0.0" d="m210.66667 434.66666l-12.666672 10.666687l2.6666718 21.333313" fill-rule="evenodd"/><path stroke="#ffffff" stroke-width="12.0" stroke-linejoin="round" stroke-linecap="butt" d="m210.66667 434.66666l-12.666672 10.666687l2.6666718 21.333313" fill-rule="evenodd"/><path fill="#000000" fill-opacity="0.0" d="m185.33333 350.66666l185.33333 -62.666656l43.333344 -16.666656l119.33331 -34.66667l89.333374 -20.666672l78.666626 -16.666672l17.333374 2.0l43.333313 -7.3333282l34.0 -0.66667175" fill-rule="evenodd"/><path stroke="#ffffff" stroke-width="12.0" stroke-linejoin="round" stroke-linecap="butt" d="m185.33333 350.66666l185.33333 -62.666656l43.333344 -16.666656l119.33331 -34.66667l89.333374 -20.666672l78.666626 -16.666672l17.333374 2.0l43.333313 -7.3333282l34.0 -0.66667175" fill-rule="evenodd"/><path fill="#000000" fill-opacity="0.0" d="m206.66667 464.66666l11.333328 -2.6666565l9.333328 -16.666656l46.000015 -20.0l86.66666 -16.666687l17.333344 -9.333313l74.66666 -24.666687l102.0 -42.666656l10.666687 0l80.0 -37.333344l53.333313 -24.666656l36.0 -18.0l10.0 -11.333328l40.0 -26.0l12.666687 -20.666672" fill-rule="evenodd"/><path stroke="#ffffff" stroke-width="12.0" stroke-linejoin="round" stroke-linecap="butt" d="m206.66667 464.66666l11.333328 -2.6666565l9.333328 -16.666656l46.000015 -20.0l86.66666 -16.666687l17.333344 -9.333313l74.66666 -24.666687l102.0 -42.666656l10.666687 0l80.0 -37.333344l53.333313 -24.666656l36.0 -18.0l10.0 -11.333328l40.0 -26.0l12.666687 -20.666672" fill-rule="evenodd"/><path fill="#000000" fill-opacity="0.0" d="m452.0 373.99588l21.333344 -20.789154l7.333313 -22.939728l54.00003 -28.674652l-12.666687 -30.108398l-57.333344 14.337311l-22.0 -14.337311l-24.0 -2.1506042" fill-rule="evenodd"/><path stroke="#ffffff" stroke-width="12.0" stroke-linejoin="round" stroke-linecap="butt" d="m452.0 373.99588l21.333344 -20.789154l7.333313 -22.939728l54.00003 -28.674652l-12.666687 -30.108398l-57.333344 14.337311l-22.0 -14.337311l-24.0 -2.1506042" fill-rule="evenodd"/><path fill="#000000" fill-opacity="0.0" d="m398.66666 391.33334l-8.6666565 -18.0l-20.666656 6.6666565l-82.66669 10.6666565l-49.33333 12.666687l-4.6666565 -22.0l43.999985 -20.666687l72.0 -46.0l18.666687 -5.333313l-4.0 -15.3333435" fill-rule="evenodd"/><path stroke="#ffffff" stroke-width="12.0" stroke-linejoin="round" stroke-linecap="butt" d="m398.66666 391.33334l-8.6666565 -18.0l-20.666656 6.6666565l-82.66669 10.6666565l-49.33333 12.666687l-4.6666565 -22.0l43.999985 -20.666687l72.0 -46.0l18.666687 -5.333313l-4.0 -15.3333435" fill-rule="evenodd"/><path fill="#000000" fill-opacity="0.0" d="m419.33334 356.0l33.333313 -12.0l8.0 -26.0l-6.0 -22.0l-21.333313 -14.0l-34.666687 9.3333435" fill-rule="evenodd"/><path stroke="#ffffff" stroke-width="12.0" stroke-linejoin="round" stroke-linecap="butt" d="m419.33334 356.0l33.333313 -12.0l8.0 -26.0l-6.0 -22.0l-21.333313 -14.0l-34.666687 9.3333435" fill-rule="evenodd"/><path fill="#000000" fill-opacity="0.0" d="m658.0 226.66667l21.333313 33.33333" fill-rule="evenodd"/><path stroke="#ffffff" stroke-width="12.0" stroke-linejoin="round" stroke-linecap="butt" d="m658.0 226.66667l21.333313 33.33333" fill-rule="evenodd"/></g></svg>