<svg version="1.1" viewBox="0.0 0.0 960.0 720.0" fill="none" stroke="none" stroke-linecap="square" stroke-miterlimit="10" xmlns:xlink="http://www.w3.org/1999/xlink" xmlns="http://www.w3.org/2000/svg"><clipPath id="p.0"><path d="m0 0l960.0 0l0 720.0l-960.0 0l0 -720.0z" clip-rule="nonzero"/></clipPath><g clip-path="url(#p.0)"><path fill="#000000" fill-opacity="0.0" d="m0 0l960.0 0l0 720.0l-960.0 0z" fill-rule="evenodd"/><path fill="#000000" fill-opacity="0.0" d="m222.50131 213.50131l2.4986877 20.498688l7.0 1.5013123l0 22.0l-3.4986877 5.0l0 14.498688l6.0 13.0l0 39.501312l15.498688 3.4986877l-0.49868774 20.501312l-5.5013123 6.4986877l2.0 9.501312l8.0 2.4986877l11.501312 30.501312l-10.0 14.0l16.0 39.498688l0.49868774 9.501312l12.501312 33.498688l5.0 7.0l22.498688 54.0l-7.4986877 5.0l13.0 42.501343l217.49869 0l63.0 -72.0l11.0 -1.5013428l126.50134 -220.0l-30.501343 -57.0l25.501343 -14.0l8.498657 -12.498688l-10.498657 -23.0l-8.0 -3.5013123l-8.501343 1.0l-13.498657 3.5013123l-15.501343 5.0l-22.498657 -41.501312l-122.50134 -45.498688l-98.0 -14.501312l-9.498688 6.5013123l-61.501312 1.0z" fill-rule="evenodd"/><path stroke="#ffffff" stroke-width="12.0" stroke-linejoin="round" stroke-linecap="butt" d="m222.50131 213.50131l2.4986877 20.498688l7.0 1.5013123l0 22.0l-3.4986877 5.0l0 14.498688l6.0 13.0l0 39.501312l15.498688 3.4986877l-0.49868774 20.501312l-5.5013123 6.4986877l2.0 9.501312l8.0 2.4986877l11.501312 30.501312l-10.0 14.0l16.0 39.498688l0.49868774 9.501312l12.501312 33.498688l5.0 7.0l22.498688 54.0l-7.4986877 5.0l13.0 42.501343l217.49869 0l63.0 -72.0l11.0 -1.5013428l126.50134 -220.0l-30.501343 -57.0l25.501343 -14.0l8.498657 -12.498688l-10.498657 -23.0l-8.0 -3.5013123l-8.501343 1.0l-13.498657 3.5013123l-15.501343 5.0l-22.498657 -41.501312l-122.50134 -45.498688l-98.0 -14.501312l-9.498688 6.5013123l-61.501312 1.0z" fill-rule="evenodd"/><path fill="#000000" fill-opacity="0.0" d="m275.0 339.5013l209.0 -80.0l14.0 1.0l5.0 13.0l-4.4986877 11.0l-216.0 82.49869l-10.501312 -3.4986877l-3.0 -13.0z" fill-rule="evenodd"/><path stroke="#ffffff" stroke-width="12.0" stroke-linejoin="round" stroke-linecap="butt" d="m275.0 339.5013l209.0 -80.0l14.0 1.0l5.0 13.0l-4.4986877 11.0l-216.0 82.49869l-10.501312 -3.4986877l-3.0 -13.0z" fill-rule="evenodd"/><path fill="#000000" fill-opacity="0.0" d="m538.50134 127.0l-23.501343 123.0l7.0 20.501312l146.0 128.0l66.0 -84.0l-124.49866 218.00003l58.498657 -134.00003" fill-rule="evenodd"/><path stroke="#ffffff" stroke-width="12.0" stroke-linejoin="round" stroke-linecap="butt" d="m538.50134 127.0l-23.501343 123.0l7.0 20.501312l146.0 128.0l66.0 -84.0l-124.49866 218.00003l58.498657 -134.00003" fill-rule="evenodd"/><path fill="#000000" fill-opacity="0.0" d="m706.50134 259.0l-66.0 4.0l-18.501343 -38.498688l39.0 -12.0l10.0 1.0l4.0 6.0l9.0 -6.0" fill-rule="evenodd"/><path stroke="#ffffff" stroke-width="12.0" stroke-linejoin="round" stroke-linecap="butt" d="m706.50134 259.0l-66.0 4.0l-18.501343 -38.498688l39.0 -12.0l10.0 1.0l4.0 6.0l9.0 -6.0" fill-rule="evenodd"/><path fill="#000000" fill-opacity="0.0" d="m674.0 217.50131l12.501343 21.537994l0 20.46112" fill-rule="evenodd"/><path stroke="#ffffff" stroke-width="12.0" stroke-linejoin="round" stroke-linecap="butt" d="m674.0 217.50131l12.501343 21.537994l0 20.46112" fill-rule="evenodd"/><path fill="#000000" fill-opacity="0.0" d="m271.5013 455.5013l82.0 -29.501312l7.0 6.0l66.0 -24.498688l14.498688 39.498688l-63.0 23.501312l-3.4986877 9.498688l-85.0 27.501312" fill-rule="evenodd"/><path stroke="#ffffff" stroke-width="12.0" stroke-linejoin="round" stroke-linecap="butt" d="m271.5013 455.5013l82.0 -29.501312l7.0 6.0l66.0 -24.498688l14.498688 39.498688l-63.0 23.501312l-3.4986877 9.498688l-85.0 27.501312" fill-rule="evenodd"/><path fill="#000000" fill-opacity="0.0" d="m237.0 298.5013l73.0 -26.0l8.501312 -10.501312l56.0 -23.0l-5.5013123 -24.0l-55.0 20.0l-17.498688 -4.4986877l-64.0 22.498688" fill-rule="evenodd"/><path stroke="#ffffff" stroke-width="12.0" stroke-linejoin="round" stroke-linecap="butt" d="m237.0 298.5013l73.0 -26.0l8.501312 -10.501312l56.0 -23.0l-5.5013123 -24.0l-55.0 20.0l-17.498688 -4.4986877l-64.0 22.498688" fill-rule="evenodd"/></g></svg>