<svg version="1.1" viewBox="0.0 0.0 960.0 720.0" fill="none" stroke="none" stroke-linecap="square" stroke-miterlimit="10" xmlns:xlink="http://www.w3.org/1999/xlink" xmlns="http://www.w3.org/2000/svg"><clipPath id="p.0"><path d="m0 0l960.0 0l0 720.0l-960.0 0l0 -720.0z" clip-rule="nonzero"/></clipPath><g clip-path="url(#p.0)"><path fill="#000000" fill-opacity="0.0" d="m0 0l960.0 0l0 720.0l-960.0 0z" fill-rule="evenodd"/><path fill="#000000" fill-opacity="0.0" d="m157.89502 266.98688l69.377945 -36.842514l134.92912 9.089233l-50.719147 23.446182l-21.05249 0.47769165l-72.249344 31.580048l-39.71129 -6.6981506z" fill-rule="evenodd"/><path stroke="#ffffff" stroke-width="12.0" stroke-linejoin="round" stroke-linecap="butt" d="m157.89502 266.98688l69.377945 -36.842514l134.92912 9.089233l-50.719147 23.446182l-21.05249 0.47769165l-72.249344 31.580048l-39.71129 -6.6981506z" fill-rule="evenodd"/><path fill="#000000" fill-opacity="0.0" d="m277.03412 531.5801l-43.54068 21.05249l-20.574799 20.572144l4.784775 5.2650757l87.081375 -28.230957l131.09973 -70.81363l-2.871399 -5.2624817z" fill-rule="evenodd"/><path stroke="#ffffff" stroke-width="12.0" stroke-linejoin="round" stroke-linecap="butt" d="m277.03412 531.5801l-43.54068 21.05249l-20.574799 20.572144l4.784775 5.2650757l87.081375 -28.230957l131.09973 -70.81363l-2.871399 -5.2624817z" fill-rule="evenodd"/><path fill="#000000" fill-opacity="0.0" d="m264.59317 536.8425l-4.307068 -21.532837l2.8713684 -12.91861l12.91864 -9.566925l-14.35434 -37.800537l3.8294067 -11.482941l-18.661407 -22.010498l-6.698166 -29.18634l8.611542 -26.314972l-1.4356995 -6.6981506l-6.2178345 -1.4356995l-2.871399 -8.13385l0.9553833 -12.4409485l-16.745407 -15.309723l-6.698166 -15.312347l1.4356995 -12.91861" fill-rule="evenodd"/><path stroke="#ffffff" stroke-width="12.0" stroke-linejoin="round" stroke-linecap="butt" d="m264.59317 536.8425l-4.307068 -21.532837l2.8713684 -12.91861l12.91864 -9.566925l-14.35434 -37.800537l3.8294067 -11.482941l-18.661407 -22.010498l-6.698166 -29.18634l8.611542 -26.314972l-1.4356995 -6.6981506l-6.2178345 -1.4356995l-2.871399 -8.13385l0.9553833 -12.4409485l-16.745407 -15.309723l-6.698166 -15.312347l1.4356995 -12.91861" fill-rule="evenodd"/><path fill="#000000" fill-opacity="0.0" d="m280.8609 559.8084l5.262451 6.220459l111.485565 -40.19159l5.7401733 -16.26773l67.46457 -25.359589l-16.745422 -42.582672l-68.42258 25.359589l-13.876617 -8.614166l-94.25723 33.49344" fill-rule="evenodd"/><path stroke="#ffffff" stroke-width="12.0" stroke-linejoin="round" stroke-linecap="butt" d="m280.8609 559.8084l5.262451 6.220459l111.485565 -40.19159l5.7401733 -16.26773l67.46457 -25.359589l-16.745422 -42.582672l-68.42258 25.359589l-13.876617 -8.614166l-94.25723 33.49344" fill-rule="evenodd"/><path fill="#000000" fill-opacity="0.0" d="m231.58005 330.14435l95.69293 -36.8425l10.047241 -14.832031l60.288696 -23.446198l-9.56955 -33.49344l-46.88977 15.312332" fill-rule="evenodd"/><path stroke="#ffffff" stroke-width="12.0" stroke-linejoin="round" stroke-linecap="butt" d="m231.58005 330.14435l95.69293 -36.8425l10.047241 -14.832031l60.288696 -23.446198l-9.56955 -33.49344l-46.88977 15.312332" fill-rule="evenodd"/><path fill="#000000" fill-opacity="0.0" d="m303.3491 561.7218l19.61679 48.805786l334.92914 -25.35962l139.71393 -246.88974l-1.9160156 -8.614197l5.742737 -7.1758423l-11.963257 -23.446198l-10.524902 0.9580078l-12.91864 -23.92389l24.40155 -15.309692l13.876648 -17.225739l-16.747986 -28.708664l-18.181152 -0.47769165l-28.228333 8.611557l-10.527527 -10.524933l5.262451 -8.6141815l-11.005249 -22.007874l-12.91864 -2.8713837l-4.3044434 -4.307083l-127.75067 -45.931763l-109.09186 -18.661423l-201.4357 121.05249" fill-rule="evenodd"/><path stroke="#ffffff" stroke-width="12.0" stroke-linejoin="round" stroke-linecap="butt" d="m303.3491 561.7218l19.61679 48.805786l334.92914 -25.35962l139.71393 -246.88974l-1.9160156 -8.614197l5.742737 -7.1758423l-11.963257 -23.446198l-10.524902 0.9580078l-12.91864 -23.92389l24.40155 -15.309692l13.876648 -17.225739l-16.747986 -28.708664l-18.181152 -0.47769165l-28.228333 8.611557l-10.527527 -10.524933l5.262451 -8.6141815l-11.005249 -22.007874l-12.91864 -2.8713837l-4.3044434 -4.307083l-127.75067 -45.931763l-109.09186 -18.661423l-201.4357 121.05249" fill-rule="evenodd"/><path fill="#000000" fill-opacity="0.0" d="m278.9475 377.9895l2.871399 15.790039l11.960632 4.307068l243.06299 -92.82413l2.3910522 -11.005249l-6.69812 -15.309723l-10.047302 -2.871399l-237.79788 91.38846z" fill-rule="evenodd"/><path stroke="#ffffff" stroke-width="12.0" stroke-linejoin="round" stroke-linecap="butt" d="m278.9475 377.9895l2.871399 15.790039l11.960632 4.307068l243.06299 -92.82413l2.3910522 -11.005249l-6.69812 -15.309723l-10.047302 -2.871399l-237.79788 91.38846z" fill-rule="evenodd"/><path fill="#000000" fill-opacity="0.0" d="m657.4173 584.20996l65.548584 -147.36743l72.72705 -95.69293" fill-rule="evenodd"/><path stroke="#ffffff" stroke-width="12.0" stroke-linejoin="round" stroke-linecap="butt" d="m657.4173 584.20996l65.548584 -147.36743l72.72705 -95.69293" fill-rule="evenodd"/><path fill="#000000" fill-opacity="0.0" d="m722.48816 436.36484l-168.9002 -158.37534l25.359558 -148.32545" fill-rule="evenodd"/><path stroke="#ffffff" stroke-width="12.0" stroke-linejoin="round" stroke-linecap="butt" d="m722.48816 436.36484l-168.9002 -158.37534l25.359558 -148.32545" fill-rule="evenodd"/><path fill="#000000" fill-opacity="0.0" d="m744.0184 221.53018l-14.832031 8.059647l16.2677 36.264267l28.70868 3.5255737" fill-rule="evenodd"/><path stroke="#ffffff" stroke-width="12.0" stroke-linejoin="round" stroke-linecap="butt" d="m744.0184 221.53018l-14.832031 8.059647l16.2677 36.264267l28.70868 3.5255737" fill-rule="evenodd"/><path fill="#000000" fill-opacity="0.0" d="m728.23096 226.79527l-11.005249 -0.9580078l-2.871399 -7.1758423l-52.15222 3.3490753l-2.3936768 5.740158l-23.92389 1.4356995l-49.280823 16.267715l-16.267761 11.482941l15.787415 38.75589l27.753296 6.698181l50.716553 -13.874023l3.34906 5.2624817l52.15222 -10.524933l9.091858 -11.963257l18.181091 -4.78479" fill-rule="evenodd"/><path stroke="#ffffff" stroke-width="12.0" stroke-linejoin="round" stroke-linecap="butt" d="m728.23096 226.79527l-11.005249 -0.9580078l-2.871399 -7.1758423l-52.15222 3.3490753l-2.3936768 5.740158l-23.92389 1.4356995l-49.280823 16.267715l-16.267761 11.482941l15.787415 38.75589l27.753296 6.698181l50.716553 -13.874023l3.34906 5.2624817l52.15222 -10.524933l9.091858 -11.963257l18.181091 -4.78479" fill-rule="evenodd"/><path fill="#000000" fill-opacity="0.0" d="m588.5171 295.6929l71.76898 -28.228333l33.97113 -4.3070984l7.178467 1.4356995l38.75592 -7.6561584" fill-rule="evenodd"/><path stroke="#ffffff" stroke-width="12.0" stroke-linejoin="round" stroke-linecap="butt" d="m588.5171 295.6929l71.76898 -28.228333l33.97113 -4.3070984l7.178467 1.4356995l38.75592 -7.6561584" fill-rule="evenodd"/><path fill="#000000" fill-opacity="0.0" d="m612.91864 283.73227l-11.960632 -27.27295l1.4330444 -6.698166l44.49872 -13.876633l15.312317 32.53543" fill-rule="evenodd"/><path stroke="#ffffff" stroke-width="12.0" stroke-linejoin="round" stroke-linecap="butt" d="m612.91864 283.73227l-11.960632 -27.27295l1.4330444 -6.698166l44.49872 -13.876633l15.312317 32.53543" fill-rule="evenodd"/><path fill="#000000" fill-opacity="0.0" d="m745.45404 254.06824l36.84253 -11.485565l22.48822 1.4356995" fill-rule="evenodd"/><path stroke="#ffffff" stroke-width="12.0" stroke-linejoin="round" stroke-linecap="butt" d="m745.45404 254.06824l36.84253 -11.485565l22.48822 1.4356995" fill-rule="evenodd"/><path fill="#000000" fill-opacity="0.0" d="m764.1155 248.80315l-11.48291 -27.750656" fill-rule="evenodd"/><path stroke="#ffffff" stroke-width="12.0" stroke-linejoin="round" stroke-linecap="butt" d="m764.1155 248.80315l-11.48291 -27.750656" fill-rule="evenodd"/><path fill="#000000" fill-opacity="0.0" d="m775.1207 300.0l-33.97113 12.91864l15.309692 32.05774l11.482971 0.9553833l30.62207 -18.658783" fill-rule="evenodd"/><path stroke="#ffffff" stroke-width="12.0" stroke-linejoin="round" stroke-linecap="butt" d="m775.1207 300.0l-33.97113 12.91864l15.309692 32.05774l11.482971 0.9553833l30.62207 -18.658783" fill-rule="evenodd"/><path fill="#000000" fill-opacity="0.0" d="m731.09973 208.13387l-46.88977 -1.9133911l-12.91864 -28.230972l25.83728 -5.740158" fill-rule="evenodd"/><path stroke="#ffffff" stroke-width="12.0" stroke-linejoin="round" stroke-linecap="butt" d="m731.09973 208.13387l-46.88977 -1.9133911l-12.91864 -28.230972l25.83728 -5.740158" fill-rule="evenodd"/><path fill="#000000" fill-opacity="0.0" d="m248.80315 366.98688l50.238846 -17.7034l15.790039 -22.48819l190.91074 -74.162735l4.78479 -11.963257l53.107635 -20.574814" fill-rule="evenodd"/><path stroke="#ffffff" stroke-width="12.0" stroke-linejoin="round" stroke-linecap="butt" d="m248.80315 366.98688l50.238846 -17.7034l15.790039 -22.48819l190.91074 -74.162735l4.78479 -11.963257l53.107635 -20.574814" fill-rule="evenodd"/><path fill="#000000" fill-opacity="0.0" d="m254.54593 430.14435l56.45932 -18.661407l29.18634 10.047241l200.0 -74.16272l25.35962 11.005249l52.629883 -19.13913" fill-rule="evenodd"/><path stroke="#ffffff" stroke-width="12.0" stroke-linejoin="round" stroke-linecap="butt" d="m254.54593 430.14435l56.45932 -18.661407l29.18634 10.047241l200.0 -74.16272l25.35962 11.005249l52.629883 -19.13913" fill-rule="evenodd"/><path fill="#000000" fill-opacity="0.0" d="m590.90814 241.14961l11.005249 -44.020996l12.91864 -2.871399l5.742798 -22.48819l58.85034 17.703415" fill-rule="evenodd"/><path stroke="#ffffff" stroke-width="12.0" stroke-linejoin="round" stroke-linecap="butt" d="m590.90814 241.14961l11.005249 -44.020996l12.91864 -2.871399l5.742798 -22.48819l58.85034 17.703415" fill-rule="evenodd"/><path fill="#000000" fill-opacity="0.0" d="m620.5748 303.3491l44.496033 40.19159l14.354309 1.4356995l23.92389 22.48819l41.62732 -41.149597" fill-rule="evenodd"/><path stroke="#ffffff" stroke-width="12.0" stroke-linejoin="round" stroke-linecap="butt" d="m620.5748 303.3491l44.496033 40.19159l14.354309 1.4356995l23.92389 22.48819l41.62732 -41.149597" fill-rule="evenodd"/></g></svg>