<svg version="1.1" viewBox="0.0 0.0 960.0 720.0" fill="none" stroke="none" stroke-linecap="square" stroke-miterlimit="10" xmlns:xlink="http://www.w3.org/1999/xlink" xmlns="http://www.w3.org/2000/svg"><clipPath id="p.0"><path d="m0 0l960.0 0l0 720.0l-960.0 0l0 -720.0z" clip-rule="nonzero"/></clipPath><g clip-path="url(#p.0)"><path fill="#000000" fill-opacity="0.0" d="m0 0l960.0 0l0 720.0l-960.0 0z" fill-rule="evenodd"/><path fill="#000000" fill-opacity="0.0" d="m309.0 296.0l83.0 -29.0l36.0 -9.498688l43.0 -17.0l82.0 -29.501312l21.0 -13.498688l48.0 -18.0l37.501343 -10.501312l47.0 -6.4986877l29.498657 2.0l38.0 9.498688l19.501343 13.0l6.498657 19.501312l-14.498657 20.498688l-23.501343 24.0l-26.0 19.501312l-41.498657 24.0l-8.0 -2.5013123l-51.501343 21.0l-2.4986572 9.0l-203.00003 73.50131l-2.0 -8.501312l-53.501312 19.501312l-2.0 6.0l-48.0 11.0l5.0 -25.501312l12.0 -4.0l-4.0 -9.0l-101.0 40.0l-6.0 -14.0l6.5013123 -11.0l-3.0 -13.0l3.4986877 -7.4986877l-2.4986877 -10.501312l-7.5013123 -3.4986877l-2.0 -18.501312l8.501312 -7.4986877l42.0 -16.0l33.0 -14.501312l8.0 -11.0z" fill-rule="evenodd"/><path stroke="#ffffff" stroke-width="12.0" stroke-linejoin="round" stroke-linecap="butt" d="m309.0 296.0l83.0 -29.0l36.0 -9.498688l43.0 -17.0l82.0 -29.501312l21.0 -13.498688l48.0 -18.0l37.501343 -10.501312l47.0 -6.4986877l29.498657 2.0l38.0 9.498688l19.501343 13.0l6.498657 19.501312l-14.498657 20.498688l-23.501343 24.0l-26.0 19.501312l-41.498657 24.0l-8.0 -2.5013123l-51.501343 21.0l-2.4986572 9.0l-203.00003 73.50131l-2.0 -8.501312l-53.501312 19.501312l-2.0 6.0l-48.0 11.0l5.0 -25.501312l12.0 -4.0l-4.0 -9.0l-101.0 40.0l-6.0 -14.0l6.5013123 -11.0l-3.0 -13.0l3.4986877 -7.4986877l-2.4986877 -10.501312l-7.5013123 -3.4986877l-2.0 -18.501312l8.501312 -7.4986877l42.0 -16.0l33.0 -14.501312l8.0 -11.0z" fill-rule="evenodd"/><path fill="#000000" fill-opacity="0.0" d="m309.0 299.5013l-97.49869 -57.0l-29.0 10.498688l35.0 55.0l2.0 19.501312l-4.0 13.498688l8.0 7.5013123" fill-rule="evenodd"/><path stroke="#ffffff" stroke-width="12.0" stroke-linejoin="round" stroke-linecap="butt" d="m309.0 299.5013l-97.49869 -57.0l-29.0 10.498688l35.0 55.0l2.0 19.501312l-4.0 13.498688l8.0 7.5013123" fill-rule="evenodd"/><path fill="#000000" fill-opacity="0.0" d="m238.50131 425.0l3.4986877 11.0l-21.0 55.0l39.0 -11.498688l68.0 -83.50131" fill-rule="evenodd"/><path stroke="#ffffff" stroke-width="12.0" stroke-linejoin="round" stroke-linecap="butt" d="m238.50131 425.0l3.4986877 11.0l-21.0 55.0l39.0 -11.498688l68.0 -83.50131" fill-rule="evenodd"/><path fill="#000000" fill-opacity="0.0" d="m241.0 490.0l-7.0 71.50134l-13.498688 13.498657l20.498688 -7.0l35.0 -19.0l48.0 -127.0" fill-rule="evenodd"/><path stroke="#ffffff" stroke-width="12.0" stroke-linejoin="round" stroke-linecap="butt" d="m241.0 490.0l-7.0 71.50134l-13.498688 13.498657l20.498688 -7.0l35.0 -19.0l48.0 -127.0" fill-rule="evenodd"/><path fill="#000000" fill-opacity="0.0" d="m292.0 286.5013l-82.0 -64.50131l-25.498688 -9.0l-23.501312 7.0l17.0 14.0l9.0 18.501312" fill-rule="evenodd"/><path stroke="#ffffff" stroke-width="12.0" stroke-linejoin="round" stroke-linecap="butt" d="m292.0 286.5013l-82.0 -64.50131l-25.498688 -9.0l-23.501312 7.0l17.0 14.0l9.0 18.501312" fill-rule="evenodd"/><path fill="#000000" fill-opacity="0.0" d="m236.0 419.0l66.0 -37.498688l58.501312 -30.501312l86.49869 -29.498688l19.501312 -11.0l11.498688 -16.0l2.5013123 -15.0l-6.5013123 -13.0l-17.0 -5.5013123l-20.0 -1.0l-37.0 5.0" fill-rule="evenodd"/><path stroke="#ffffff" stroke-width="12.0" stroke-linejoin="round" stroke-linecap="butt" d="m236.0 419.0l66.0 -37.498688l58.501312 -30.501312l86.49869 -29.498688l19.501312 -11.0l11.498688 -16.0l2.5013123 -15.0l-6.5013123 -13.0l-17.0 -5.5013123l-20.0 -1.0l-37.0 5.0" fill-rule="evenodd"/><path fill="#000000" fill-opacity="0.0" d="m321.5013 389.0l45.0 -25.498688l75.0 -25.501312l22.498688 -9.498688l13.501312 -13.501312l10.498688 -16.498688l-1.4986877 -20.0l-13.0 -12.501312" fill-rule="evenodd"/><path stroke="#ffffff" stroke-width="12.0" stroke-linejoin="round" stroke-linecap="butt" d="m321.5013 389.0l45.0 -25.498688l75.0 -25.501312l22.498688 -9.498688l13.501312 -13.501312l10.498688 -16.498688l-1.4986877 -20.0l-13.0 -12.501312" fill-rule="evenodd"/><path fill="#000000" fill-opacity="0.0" d="m554.0 212.0l-8.0 18.501312l3.0 22.498688l10.501343 16.501312l28.498657 19.498688l35.0 5.5013123l12.501343 1.0l-31.0 20.498688l-90.50134 33.0l-58.498688 12.501312l-20.0 4.0l-105.50131 38.0" fill-rule="evenodd"/><path stroke="#ffffff" stroke-width="12.0" stroke-linejoin="round" stroke-linecap="butt" d="m554.0 212.0l-8.0 18.501312l3.0 22.498688l10.501343 16.501312l28.498657 19.498688l35.0 5.5013123l12.501343 1.0l-31.0 20.498688l-90.50134 33.0l-58.498688 12.501312l-20.0 4.0l-105.50131 38.0" fill-rule="evenodd"/><path fill="#000000" fill-opacity="0.0" d="m555.0 213.50131l-2.4986572 19.0l6.498657 17.498688l11.501343 18.0l21.0 11.0l49.498657 -1.4986877l14.501343 -3.5013123l14.0 10.501312l44.498657 -19.501312l36.501343 -25.498688l14.0 -16.501312l11.498657 -18.498688l-0.49865723 -15.0l-7.501343 -13.0l-15.0 -8.501312" fill-rule="evenodd"/><path stroke="#ffffff" stroke-width="12.0" stroke-linejoin="round" stroke-linecap="butt" d="m555.0 213.50131l-2.4986572 19.0l6.498657 17.498688l11.501343 18.0l21.0 11.0l49.498657 -1.4986877l14.501343 -3.5013123l14.0 10.501312l44.498657 -19.501312l36.501343 -25.498688l14.0 -16.501312l11.498657 -18.498688l-0.49865723 -15.0l-7.501343 -13.0l-15.0 -8.501312" fill-rule="evenodd"/><path fill="#000000" fill-opacity="0.0" d="m555.50134 230.0l30.498657 -21.498688l21.501343 -22.0" fill-rule="evenodd"/><path stroke="#ffffff" stroke-width="12.0" stroke-linejoin="round" stroke-linecap="butt" d="m555.50134 230.0l30.498657 -21.498688l21.501343 -22.0" fill-rule="evenodd"/><path fill="#000000" fill-opacity="0.0" d="m569.0 261.5013l26.0 -2.0l33.501343 3.0l24.498657 10.0" fill-rule="evenodd"/><path stroke="#ffffff" stroke-width="12.0" stroke-linejoin="round" stroke-linecap="butt" d="m569.0 261.5013l26.0 -2.0l33.501343 3.0l24.498657 10.0" fill-rule="evenodd"/><path fill="#000000" fill-opacity="0.0" d="m617.50134 261.0l36.0 -17.498688l50.0 -16.0l66.49866 -15.0" fill-rule="evenodd"/><path stroke="#ffffff" stroke-width="12.0" stroke-linejoin="round" stroke-linecap="butt" d="m617.50134 261.0l36.0 -17.498688l50.0 -16.0l66.49866 -15.0" fill-rule="evenodd"/><path fill="#000000" fill-opacity="0.0" d="m590.50134 206.0l34.498657 -10.0l58.0 -19.498688l51.0 -10.501312" fill-rule="evenodd"/><path stroke="#ffffff" stroke-width="12.0" stroke-linejoin="round" stroke-linecap="butt" d="m590.50134 206.0l34.498657 -10.0l58.0 -19.498688l51.0 -10.501312" fill-rule="evenodd"/><path fill="#000000" fill-opacity="0.0" d="m636.0 323.5013l24.0 93.0l28.0 -13.501312l10.0 -107.49869" fill-rule="evenodd"/><path stroke="#ffffff" stroke-width="12.0" stroke-linejoin="round" stroke-linecap="butt" d="m636.0 323.5013l24.0 93.0l28.0 -13.501312l10.0 -107.49869" fill-rule="evenodd"/><path fill="#000000" fill-opacity="0.0" d="m573.50134 198.0l-35.0 -45.0l24.0 -9.0l58.0 36.501312" fill-rule="evenodd"/><path stroke="#ffffff" stroke-width="12.0" stroke-linejoin="round" stroke-linecap="butt" d="m573.50134 198.0l-35.0 -45.0l24.0 -9.0l58.0 36.501312" fill-rule="evenodd"/><path fill="#000000" fill-opacity="0.0" d="m382.5013 271.0l-39.501312 -37.0l-26.498688 9.0l23.498688 42.0" fill-rule="evenodd"/><path stroke="#ffffff" stroke-width="12.0" stroke-linejoin="round" stroke-linecap="butt" d="m382.5013 271.0l-39.501312 -37.0l-26.498688 9.0l23.498688 42.0" fill-rule="evenodd"/><path fill="#000000" fill-opacity="0.0" d="m375.5013 413.5013l5.4986877 66.0l28.0 -10.0l20.501312 -73.0" fill-rule="evenodd"/><path stroke="#ffffff" stroke-width="12.0" stroke-linejoin="round" stroke-linecap="butt" d="m375.5013 413.5013l5.4986877 66.0l28.0 -10.0l20.501312 -73.0" fill-rule="evenodd"/><path fill="#000000" fill-opacity="0.0" d="m484.0 313.5013l87.50134 -34.501312" fill-rule="evenodd"/><path stroke="#ffffff" stroke-width="12.0" stroke-linejoin="round" stroke-linecap="butt" d="m484.0 313.5013l87.50134 -34.501312" fill-rule="evenodd"/><path fill="#000000" fill-opacity="0.0" d="m457.5013 258.0l91.00003 -34.0" fill-rule="evenodd"/><path stroke="#ffffff" stroke-width="12.0" stroke-linejoin="round" stroke-linecap="butt" d="m457.5013 258.0l91.00003 -34.0" fill-rule="evenodd"/><path fill="#000000" fill-opacity="0.0" d="m290.5013 315.5013l11.498688 53.498688l-68.0 37.0" fill-rule="evenodd"/><path stroke="#ffffff" stroke-width="12.0" stroke-linejoin="round" stroke-linecap="butt" d="m290.5013 315.5013l11.498688 53.498688l-68.0 37.0" fill-rule="evenodd"/><path fill="#000000" fill-opacity="0.0" d="m421.2756 266.1706l26.80838 13.404205l0.9580078 17.233612l-9.574799 24.894989" fill-rule="evenodd"/><path stroke="#ffffff" stroke-width="12.0" stroke-linejoin="round" stroke-linecap="butt" d="m421.2756 266.1706l26.80838 13.404205l0.9580078 17.233612l-9.574799 24.894989" fill-rule="evenodd"/><path fill="#000000" fill-opacity="0.0" d="m350.4252 309.2546l72.76639 -26.80841" fill-rule="evenodd"/><path stroke="#ffffff" stroke-width="12.0" stroke-linejoin="round" stroke-linecap="butt" d="m350.4252 309.2546l72.76639 -26.80841" fill-rule="evenodd"/><path fill="#000000" fill-opacity="0.0" d="m357.1286 336.063l72.763794 -28.721771" fill-rule="evenodd"/><path stroke="#ffffff" stroke-width="12.0" stroke-linejoin="round" stroke-linecap="butt" d="m357.1286 336.063l72.763794 -28.721771" fill-rule="evenodd"/></g></svg>