<svg version="1.1" viewBox="0.0 0.0 960.0 720.0" fill="none" stroke="none" stroke-linecap="square" stroke-miterlimit="10" xmlns:xlink="http://www.w3.org/1999/xlink" xmlns="http://www.w3.org/2000/svg"><clipPath id="p.0"><path d="m0 0l960.0 0l0 720.0l-960.0 0l0 -720.0z" clip-rule="nonzero"/></clipPath><g clip-path="url(#p.0)"><path fill="#000000" fill-opacity="0.0" d="m0 0l960.0 0l0 720.0l-960.0 0z" fill-rule="evenodd"/><path fill="#000000" fill-opacity="0.0" d="m292.34384 177.03412l63.637787 -16.267715l36.362213 18.658798l0.9580078 7.178467l11.960632 1.9133911l6.6981506 -3.826767l38.2782 19.61679l4.78479 7.653549l20.097107 8.614166l-53.590546 11.482941l-53.11023 19.616806l-72.246735 26.314957l-45.45668 19.1391l15.790024 -13.396332l55.02362 -67.942245z" fill-rule="evenodd"/><path stroke="#ffffff" stroke-width="12.0" stroke-linejoin="round" stroke-linecap="butt" d="m292.34384 177.03412l63.637787 -16.267715l36.362213 18.658798l0.9580078 7.178467l11.960632 1.9133911l6.6981506 -3.826767l38.2782 19.61679l4.78479 7.653549l20.097107 8.614166l-53.590546 11.482941l-53.11023 19.616806l-72.246735 26.314957l-45.45668 19.1391l15.790024 -13.396332l55.02362 -67.942245z" fill-rule="evenodd"/><path fill="#000000" fill-opacity="0.0" d="m278.46982 281.8189l77.9895 -80.8609l34.448822 -23.92389" fill-rule="evenodd"/><path stroke="#ffffff" stroke-width="12.0" stroke-linejoin="round" stroke-linecap="butt" d="m278.46982 281.8189l77.9895 -80.8609l34.448822 -23.92389" fill-rule="evenodd"/><path fill="#000000" fill-opacity="0.0" d="m261.72177 291.86615l-43.06035 24.40158l5.2624664 5.262451l10.524933 1.9160156l9.091858 38.75589l-11.482941 3.8267822l17.225723 26.795288l66.02626 -0.48031616l-28.706055 -10.047241l86.60104 -6.698181l108.13388 -25.83725l82.776886 -34.451447l67.94226 -33.013123l14.354309 -4.78479l47.367493 -30.144363l8.611511 -2.8687592l36.36487 -35.40683l-0.9580078 -7.6561584l-8.611572 -12.4409485l-23.92389 -5.740158l-44.97638 -2.3937073l-33.97113 3.8294067l-14.832031 1.4330597l-67.9422 21.532822l-25.83728 3.3490753l-51.19687 10.047241" fill-rule="evenodd"/><path stroke="#ffffff" stroke-width="12.0" stroke-linejoin="round" stroke-linecap="butt" d="m261.72177 291.86615l-43.06035 24.40158l5.2624664 5.262451l10.524933 1.9160156l9.091858 38.75589l-11.482941 3.8267822l17.225723 26.795288l66.02626 -0.48031616l-28.706055 -10.047241l86.60104 -6.698181l108.13388 -25.83725l82.776886 -34.451447l67.94226 -33.013123l14.354309 -4.78479l47.367493 -30.144363l8.611511 -2.8687592l36.36487 -35.40683l-0.9580078 -7.6561584l-8.611572 -12.4409485l-23.92389 -5.740158l-44.97638 -2.3937073l-33.97113 3.8294067l-14.832031 1.4330597l-67.9422 21.532822l-25.83728 3.3490753l-51.19687 10.047241" fill-rule="evenodd"/><path fill="#000000" fill-opacity="0.0" d="m263.15747 397.60892l3.3490906 13.874023l9.56955 2.3937073l21.05249 0l103.34909 49.280823l-5.7401733 10.527557l2.871399 56.45932l-11.005249 11.005249l87.08136 -29.188965l16.745422 -45.45407l-1.9133911 -9.089233l5.2624817 -15.312347l5.7427673 -1.9133911l21.05252 -49.283447l-3.349121 -5.2624817l20.572205 -60.766388" fill-rule="evenodd"/><path stroke="#ffffff" stroke-width="12.0" stroke-linejoin="round" stroke-linecap="butt" d="m263.15747 397.60892l3.3490906 13.874023l9.56955 2.3937073l21.05249 0l103.34909 49.280823l-5.7401733 10.527557l2.871399 56.45932l-11.005249 11.005249l87.08136 -29.188965l16.745422 -45.45407l-1.9133911 -9.089233l5.2624817 -15.312347l5.7427673 -1.9133911l21.05252 -49.283447l-3.349121 -5.2624817l20.572205 -60.766388" fill-rule="evenodd"/><path fill="#000000" fill-opacity="0.0" d="m487.08136 465.07086l-75.12073 -21.530182l-56.45932 -16.745392l-39.711273 -15.790039l-25.83728 -17.7034" fill-rule="evenodd"/><path stroke="#ffffff" stroke-width="12.0" stroke-linejoin="round" stroke-linecap="butt" d="m487.08136 465.07086l-75.12073 -21.530182l-56.45932 -16.745392l-39.711273 -15.790039l-25.83728 -17.7034" fill-rule="evenodd"/><path fill="#000000" fill-opacity="0.0" d="m311.48294 389.95276l63.15747 13.396332l63.637817 19.1391l29.18634 10.047241l29.664032 8.13385" fill-rule="evenodd"/><path stroke="#ffffff" stroke-width="12.0" stroke-linejoin="round" stroke-linecap="butt" d="m311.48294 389.95276l63.15747 13.396332l63.637817 19.1391l29.18634 10.047241l29.664032 8.13385" fill-rule="evenodd"/><path fill="#000000" fill-opacity="0.0" d="m405.74277 190.43045l-29.188965 20.097107l-41.146973 35.404205l-55.501312 29.188965" fill-rule="evenodd"/><path stroke="#ffffff" stroke-width="12.0" stroke-linejoin="round" stroke-linecap="butt" d="m405.74277 190.43045l-29.188965 20.097107l-41.146973 35.404205l-55.501312 29.188965" fill-rule="evenodd"/><path fill="#000000" fill-opacity="0.0" d="m244.97638 365.07086l62.67978 -19.61679l93.30185 -33.97113l25.356964 -10.524933l6.220459 -11.963257l-0.9553833 -14.832031l-7.178467 -11.005249l-23.443573 -5.262451l-57.417328 17.225708l-69.85565 22.48819l-49.283447 16.745422" fill-rule="evenodd"/><path stroke="#ffffff" stroke-width="12.0" stroke-linejoin="round" stroke-linecap="butt" d="m244.97638 365.07086l62.67978 -19.61679l93.30185 -33.97113l25.356964 -10.524933l6.220459 -11.963257l-0.9553833 -14.832031l-7.178467 -11.005249l-23.443573 -5.262451l-57.417328 17.225708l-69.85565 22.48819l-49.283447 16.745422" fill-rule="evenodd"/><path fill="#000000" fill-opacity="0.0" d="m307.17584 340.66928l37.800537 -22.48819l11.960632 -14.832001l-2.3910828 -9.56955l-13.876648 -2.3910828l-45.45407 2.3910828" fill-rule="evenodd"/><path stroke="#ffffff" stroke-width="12.0" stroke-linejoin="round" stroke-linecap="butt" d="m307.17584 340.66928l37.800537 -22.48819l11.960632 -14.832001l-2.3910828 -9.56955l-13.876648 -2.3910828l-45.45407 2.3910828" fill-rule="evenodd"/><path fill="#000000" fill-opacity="0.0" d="m437.7979 319.1391l22.968506 4.3070984l40.19159 -12.4409485l10.047241 -17.7034l-22.965881 -3.8294067l-29.188965 6.220459l-21.530182 17.225739z" fill-rule="evenodd"/><path stroke="#ffffff" stroke-width="12.0" stroke-linejoin="round" stroke-linecap="butt" d="m437.7979 319.1391l22.968506 4.3070984l40.19159 -12.4409485l10.047241 -17.7034l-22.965881 -3.8294067l-29.188965 6.220459l-21.530182 17.225739z" fill-rule="evenodd"/><path fill="#000000" fill-opacity="0.0" d="m417.7034 250.23885l34.92914 -0.47769165l22.965881 -5.7427826l10.047241 -8.13385l-13.876617 -5.2624817l-32.53546 4.78479z" fill-rule="evenodd"/><path stroke="#ffffff" stroke-width="12.0" stroke-linejoin="round" stroke-linecap="butt" d="m417.7034 250.23885l34.92914 -0.47769165l22.965881 -5.7427826l10.047241 -8.13385l-13.876617 -5.2624817l-32.53546 4.78479z" fill-rule="evenodd"/><path fill="#000000" fill-opacity="0.0" d="m410.52756 331.09973l25.356964 -11.960632l31.580048 -31.099731l1.9133911 -21.05249l-12.91864 -13.398956" fill-rule="evenodd"/><path stroke="#ffffff" stroke-width="12.0" stroke-linejoin="round" stroke-linecap="butt" d="m410.52756 331.09973l25.356964 -11.960632l31.580048 -31.099731l1.9133911 -21.05249l-12.91864 -13.398956" fill-rule="evenodd"/><path fill="#000000" fill-opacity="0.0" d="m473.68503 279.90552l47.845184 -19.1391l59.80835 -15.790039l38.27826 -10.047241l-36.362244 28.706024l-9.091858 15.312347l13.396362 9.56955l33.49341 0.9553833" fill-rule="evenodd"/><path stroke="#ffffff" stroke-width="12.0" stroke-linejoin="round" stroke-linecap="butt" d="m473.68503 279.90552l47.845184 -19.1391l59.80835 -15.790039l38.27826 -10.047241l-36.362244 28.706024l-9.091858 15.312347l13.396362 9.56955l33.49341 0.9553833" fill-rule="evenodd"/><path fill="#000000" fill-opacity="0.0" d="m467.46457 257.89502l48.80313 -10.527573l49.28351 -19.136475l21.05249 -11.963257l20.094482 -6.2204742l-43.54071 1.4356995l-35.88452 -0.9553833" fill-rule="evenodd"/><path stroke="#ffffff" stroke-width="12.0" stroke-linejoin="round" stroke-linecap="butt" d="m467.46457 257.89502l48.80313 -10.527573l49.28351 -19.136475l21.05249 -11.963257l20.094482 -6.2204742l-43.54071 1.4356995l-35.88452 -0.9553833" fill-rule="evenodd"/><path fill="#000000" fill-opacity="0.0" d="m622.9659 258.3727l53.11023 -23.443573l15.790039 -13.398956l2.871399 -13.396317l-5.742798 -13.396332l-22.965881 -12.4409485" fill-rule="evenodd"/><path stroke="#ffffff" stroke-width="12.0" stroke-linejoin="round" stroke-linecap="butt" d="m622.9659 258.3727l53.11023 -23.443573l15.790039 -13.398956l2.871399 -13.396317l-5.742798 -13.396332l-22.965881 -12.4409485" fill-rule="evenodd"/><path fill="#000000" fill-opacity="0.0" d="m681.8189 232.53543l22.007874 -13.396317l3.8294067 -13.396332l-9.56958 -17.703415l-24.881897 -7.6561584" fill-rule="evenodd"/><path stroke="#ffffff" stroke-width="12.0" stroke-linejoin="round" stroke-linecap="butt" d="m681.8189 232.53543l22.007874 -13.396317l3.8294067 -13.396332l-9.56958 -17.703415l-24.881897 -7.6561584" fill-rule="evenodd"/><path fill="#000000" fill-opacity="0.0" d="m622.9659 233.97113l14.354309 -6.2204742l14.35437 -11.005249l1.435669 -8.133865l-5.262451 -6.220459l-12.91864 -1.433075l-16.748047 3.826767l-10.047241 3.3490906" fill-rule="evenodd"/><path stroke="#ffffff" stroke-width="12.0" stroke-linejoin="round" stroke-linecap="butt" d="m622.9659 233.97113l14.354309 -6.2204742l14.35437 -11.005249l1.435669 -8.133865l-5.262451 -6.220459l-12.91864 -1.433075l-16.748047 3.826767l-10.047241 3.3490906" fill-rule="evenodd"/><path fill="#000000" fill-opacity="0.0" d="m623.44617 234.44882l-17.225708 -9.089249l1.9133911 -17.225708" fill-rule="evenodd"/><path stroke="#ffffff" stroke-width="12.0" stroke-linejoin="round" stroke-linecap="butt" d="m623.44617 234.44882l-17.225708 -9.089249l1.9133911 -17.225708" fill-rule="evenodd"/><path fill="#000000" fill-opacity="0.0" d="m477.03412 513.3963l29.18634 -11.48291l12.440979 -3.8267822l25.356934 -0.47769165l5.742798 18.658783l-43.06302 24.881897l-54.54593 26.314941l-6.220459 7.656189l-22.007874 9.089233l-11.963257 -3.8267822l-45.45407 17.70343l-31.577423 1.9133911l-6.2204895 -24.879272l14.35434 -12.91864l14.832031 -3.8294067l29.18634 -19.1391" fill-rule="evenodd"/><path stroke="#ffffff" stroke-width="12.0" stroke-linejoin="round" stroke-linecap="butt" d="m477.03412 513.3963l29.18634 -11.48291l12.440979 -3.8267822l25.356934 -0.47769165l5.742798 18.658783l-43.06302 24.881897l-54.54593 26.314941l-6.220459 7.656189l-22.007874 9.089233l-11.963257 -3.8267822l-45.45407 17.70343l-31.577423 1.9133911l-6.2204895 -24.879272l14.35434 -12.91864l14.832031 -3.8294067l29.18634 -19.1391" fill-rule="evenodd"/><path fill="#000000" fill-opacity="0.0" d="m303.82678 200.0l-18.658813 4.307083l-18.661407 -2.393692l1.4356995 -11.005249l1.9133911 -8.133865l-8.133881 -4.3044586l-28.228333 0.47769165l-2.3937073 -6.2204742l0.9580078 -12.91864l13.874023 -4.784775l37.322845 -16.267715l55.501312 -15.790024l44.01837 -2.3910751l22.968475 9.089241l6.217865 7.6561584l-4.304474 9.569565l-15.312317 9.56955l-24.40158 10.527557" fill-rule="evenodd"/><path stroke="#ffffff" stroke-width="12.0" stroke-linejoin="round" stroke-linecap="butt" d="m303.82678 200.0l-18.658813 4.307083l-18.661407 -2.393692l1.4356995 -11.005249l1.9133911 -8.133865l-8.133881 -4.3044586l-28.228333 0.47769165l-2.3937073 -6.2204742l0.9580078 -12.91864l13.874023 -4.784775l37.322845 -16.267715l55.501312 -15.790024l44.01837 -2.3910751l22.968475 9.089241l6.217865 7.6561584l-4.304474 9.569565l-15.312317 9.56955l-24.40158 10.527557" fill-rule="evenodd"/><path fill="#000000" fill-opacity="0.0" d="m343.54068 125.83727l6.2204895 25.359581l46.88974 0.9553833" fill-rule="evenodd"/><path stroke="#ffffff" stroke-width="12.0" stroke-linejoin="round" stroke-linecap="butt" d="m343.54068 125.83727l6.2204895 25.359581l46.88974 0.9553833" fill-rule="evenodd"/><path fill="#000000" fill-opacity="0.0" d="m296.17322 182.77428l-31.580048 -6.698166l-24.401566 -16.745407" fill-rule="evenodd"/><path stroke="#ffffff" stroke-width="12.0" stroke-linejoin="round" stroke-linecap="butt" d="m296.17322 182.77428l-31.580048 -6.698166l-24.401566 -16.745407" fill-rule="evenodd"/><path fill="#000000" fill-opacity="0.0" d="m351.67453 561.7218l-6.6981506 20.574768l18.181091 15.312378" fill-rule="evenodd"/><path stroke="#ffffff" stroke-width="12.0" stroke-linejoin="round" stroke-linecap="butt" d="m351.67453 561.7218l-6.6981506 20.574768l18.181091 15.312378" fill-rule="evenodd"/><path fill="#000000" fill-opacity="0.0" d="m484.69028 553.58795l-10.049866 -21.530212l-0.9553833 -19.1391" fill-rule="evenodd"/><path stroke="#ffffff" stroke-width="12.0" stroke-linejoin="round" stroke-linecap="butt" d="m484.69028 553.58795l-10.049866 -21.530212l-0.9553833 -19.1391" fill-rule="evenodd"/><path fill="#000000" fill-opacity="0.0" d="m354.54593 254.06824l12.4409485 -17.703415l41.146973 -29.188965l29.664062 0.9580078l22.48819 11.482925" fill-rule="evenodd"/><path stroke="#ffffff" stroke-width="12.0" stroke-linejoin="round" stroke-linecap="butt" d="m354.54593 254.06824l12.4409485 -17.703415l41.146973 -29.188965l29.664062 0.9580078l22.48819 11.482925" fill-rule="evenodd"/><path fill="#000000" fill-opacity="0.0" d="m388.03937 374.16272l8.611542 11.005249l26.314972 13.396332l55.503937 11.963257l27.75064 -23.446198l10.524963 -32.53543l4.78479 -20.574799" fill-rule="evenodd"/><path stroke="#ffffff" stroke-width="12.0" stroke-linejoin="round" stroke-linecap="butt" d="m388.03937 374.16272l8.611542 11.005249l26.314972 13.396332l55.503937 11.963257l27.75064 -23.446198l10.524963 -32.53543l4.78479 -20.574799" fill-rule="evenodd"/></g></svg>