<svg version="1.1" viewBox="0.0 0.0 960.0 720.0" fill="none" stroke="none" stroke-linecap="square" stroke-miterlimit="10" xmlns:xlink="http://www.w3.org/1999/xlink" xmlns="http://www.w3.org/2000/svg"><clipPath id="p.0"><path d="m0 0l960.0 0l0 720.0l-960.0 0l0 -720.0z" clip-rule="nonzero"/></clipPath><g clip-path="url(#p.0)"><path fill="#000000" fill-opacity="0.0" d="m0 0l960.0 0l0 720.0l-960.0 0z" fill-rule="evenodd"/><path fill="#000000" fill-opacity="0.0" d="m281.33334 173.33333l46.0 82.0l-26.0 17.333328l3.333313 22.0l9.3333435 6.666687l22.666656 0l1.3333435 15.333313l-12.6666565 6.0l12.6666565 8.666687l22.666656 -5.3333435l14.0 5.3333435l-13.333313 11.333313l-3.3333435 17.333344l-20.666656 8.0l-8.666687 20.666656l10.0 27.333344l16.666687 6.6666565l11.333313 0.666687l4.666687 8.0l-15.3333435 6.0l16.0 6.0l8.6666565 124.66666l74.0 42.0l96.66666 -38.0l22.0 -48.0l12.0 -2.0l48.0 -104.0l0 -12.0l57.333374 -113.33334l-6.0 -18.666656l-20.0 4.6666565l-30.666687 -65.999985l14.666687 -7.3333435l-5.333374 -18.0l-118.0 -30.0l-6.0 -10.0l-81.99997 -27.333328l-16.0 2.0l-30.0 -12.0l-73.33334 22.0l-37.333344 31.333328z" fill-rule="evenodd"/><path stroke="#ffffff" stroke-width="12.0" stroke-linejoin="round" stroke-linecap="butt" d="m281.33334 173.33333l46.0 82.0l-26.0 17.333328l3.333313 22.0l9.3333435 6.666687l22.666656 0l1.3333435 15.333313l-12.6666565 6.0l12.6666565 8.666687l22.666656 -5.3333435l14.0 5.3333435l-13.333313 11.333313l-3.3333435 17.333344l-20.666656 8.0l-8.666687 20.666656l10.0 27.333344l16.666687 6.6666565l11.333313 0.666687l4.666687 8.0l-15.3333435 6.0l16.0 6.0l8.6666565 124.66666l74.0 42.0l96.66666 -38.0l22.0 -48.0l12.0 -2.0l48.0 -104.0l0 -12.0l57.333374 -113.33334l-6.0 -18.666656l-20.0 4.6666565l-30.666687 -65.999985l14.666687 -7.3333435l-5.333374 -18.0l-118.0 -30.0l-6.0 -10.0l-81.99997 -27.333328l-16.0 2.0l-30.0 -12.0l-73.33334 22.0l-37.333344 31.333328z" fill-rule="evenodd"/><path fill="#000000" fill-opacity="0.0" d="m389.33334 112.0l-30.666687 38.0l149.33334 74.0l40.666687 8.0l65.33331 -51.33333" fill-rule="evenodd"/><path stroke="#ffffff" stroke-width="12.0" stroke-linejoin="round" stroke-linecap="butt" d="m389.33334 112.0l-30.666687 38.0l149.33334 74.0l40.666687 8.0l65.33331 -51.33333" fill-rule="evenodd"/><path fill="#000000" fill-opacity="0.0" d="m683.3333 313.33334l-102.0 -21.333344l-38.666626 29.333344l-64.66669 202.66666l70.66669 50.0" fill-rule="evenodd"/><path stroke="#ffffff" stroke-width="12.0" stroke-linejoin="round" stroke-linecap="butt" d="m683.3333 313.33334l-102.0 -21.333344l-38.666626 29.333344l-64.66669 202.66666l70.66669 50.0" fill-rule="evenodd"/><path fill="#000000" fill-opacity="0.0" d="m382.66666 570.0l95.33334 -44.666687" fill-rule="evenodd"/><path stroke="#ffffff" stroke-width="12.0" stroke-linejoin="round" stroke-linecap="butt" d="m382.66666 570.0l95.33334 -44.666687" fill-rule="evenodd"/><path fill="#000000" fill-opacity="0.0" d="m360.66666 150.66667l-81.33331 19.333328" fill-rule="evenodd"/><path stroke="#ffffff" stroke-width="12.0" stroke-linejoin="round" stroke-linecap="butt" d="m360.66666 150.66667l-81.33331 19.333328" fill-rule="evenodd"/><path fill="#000000" fill-opacity="0.0" d="m354.66666 422.66666l82.66669 -32.0l30.0 -79.33331l51.333344 -29.333344l-8.0000305 -20.666656l-62.0 5.333313l-53.333313 -32.666656l-70.0 20.666672" fill-rule="evenodd"/><path stroke="#ffffff" stroke-width="12.0" stroke-linejoin="round" stroke-linecap="butt" d="m354.66666 422.66666l82.66669 -32.0l30.0 -79.33331l51.333344 -29.333344l-8.0000305 -20.666656l-62.0 5.333313l-53.333313 -32.666656l-70.0 20.666672" fill-rule="evenodd"/><path fill="#000000" fill-opacity="0.0" d="m329.33334 254.66667l26.666656 51.33333l24.666656 -6.6666565l18.666687 8.0l-12.0 20.0l-19.333344 7.333313l1.3333435 86.66669" fill-rule="evenodd"/><path stroke="#ffffff" stroke-width="12.0" stroke-linejoin="round" stroke-linecap="butt" d="m329.33334 254.66667l26.666656 51.33333l24.666656 -6.6666565l18.666687 8.0l-12.0 20.0l-19.333344 7.333313l1.3333435 86.66669" fill-rule="evenodd"/><path fill="#000000" fill-opacity="0.0" d="m554.0 234.66667l16.666687 48.66667l12.666626 7.333313l22.0 -16.0l-15.333313 -39.33333l-26.0 -10.6666565z" fill-rule="evenodd"/><path stroke="#ffffff" stroke-width="12.0" stroke-linejoin="round" stroke-linecap="butt" d="m554.0 234.66667l16.666687 48.66667l12.666626 7.333313l22.0 -16.0l-15.333313 -39.33333l-26.0 -10.6666565z" fill-rule="evenodd"/><path fill="#000000" fill-opacity="0.0" d="m572.0 526.0l-31.333313 5.333313l-10.0 -28.666656l92.666626 -103.33331l7.333374 7.333313" fill-rule="evenodd"/><path stroke="#ffffff" stroke-width="12.0" stroke-linejoin="round" stroke-linecap="butt" d="m572.0 526.0l-31.333313 5.333313l-10.0 -28.666656l92.666626 -103.33331l7.333374 7.333313" fill-rule="evenodd"/><path fill="#000000" fill-opacity="0.0" d="m525.3333 158.0l-119.99997 -14.0l-4.666687 -16.0l16.0 -7.333336" fill-rule="evenodd"/><path stroke="#ffffff" stroke-width="12.0" stroke-linejoin="round" stroke-linecap="butt" d="m525.3333 158.0l-119.99997 -14.0l-4.666687 -16.0l16.0 -7.333336" fill-rule="evenodd"/><path fill="#000000" fill-opacity="0.0" d="m271.33334 160.0l31.333313 -8.666672l36.666687 7.3333435l-58.666687 12.0z" fill-rule="evenodd"/><path stroke="#ffffff" stroke-width="12.0" stroke-linejoin="round" stroke-linecap="butt" d="m271.33334 160.0l31.333313 -8.666672l36.666687 7.3333435l-58.666687 12.0z" fill-rule="evenodd"/><path fill="#cfe2f3" d="m389.33334 566.0l-11.3333435 10.666687l32.666656 -11.333374l67.33334 -39.333313z" fill-rule="evenodd"/><path stroke="#ffffff" stroke-width="12.0" stroke-linejoin="round" stroke-linecap="butt" d="m389.33334 566.0l-11.3333435 10.666687l32.666656 -11.333374l67.33334 -39.333313z" fill-rule="evenodd"/></g></svg>