<svg version="1.1" viewBox="0.0 0.0 960.0 720.0" fill="none" stroke="none" stroke-linecap="square" stroke-miterlimit="10" xmlns:xlink="http://www.w3.org/1999/xlink" xmlns="http://www.w3.org/2000/svg"><clipPath id="p.0"><path d="m0 0l960.0 0l0 720.0l-960.0 0l0 -720.0z" clip-rule="nonzero"/></clipPath><g clip-path="url(#p.0)"><path fill="#000000" fill-opacity="0.0" d="m0 0l960.0 0l0 720.0l-960.0 0z" fill-rule="evenodd"/><path fill="#000000" fill-opacity="0.0" d="m791.17584 183.53018l12.942261 19.412079l6.4698486 2.3516998l-1.763794 19.412079l-124.706055 70.58794l-18.824158 15.293945l-21.763733 12.35434l-6.472473 -4.7060547l-47.64569 25.881897l-5.2939453 11.175873l-145.29395 85.88187l-15.881897 18.824158l-27.648285 45.881897l-3.530182 27.648315l-35.293976 12.939575l-12.351715 -12.939575l-147.64828 19.412048l-7.6456757 -4.118103l-2.9422455 -55.881897l22.354324 -10.0l-1.7664032 -18.236237l-10.0 3.530182l-42.939636 -42.94223l1.1758575 -10.0l45.88188 -17.64569l-1.7637787 -14.706024l-38.824142 14.1154785l-9.412079 -7.0577393l26.469818 -48.236206l8.824158 -2.9396362l-0.5879364 -7.6483154l-11.763779 2.9422607l-5.2939606 -2.9422607l-7.060364 -30.0l114.11812 -58.824142l2.354309 -14.1154785l28.821533 -9.412079l10.587921 11.175858l55.88452 9.412079l86.46982 -15.293976l7.0577393 3.5301971l28.236206 -5.8845215l7.05777 4.7060394l88.236206 -18.821518l2.9422607 -8.824158l29.409424 -4.7060394l10.0 1.1758575l134.70605 -27.05774l24.706055 8.821518z" fill-rule="evenodd"/><path stroke="#ffffff" stroke-width="12.0" stroke-linejoin="round" stroke-linecap="butt" d="m791.17584 183.53018l12.942261 19.412079l6.4698486 2.3516998l-1.763794 19.412079l-124.706055 70.58794l-18.824158 15.293945l-21.763733 12.35434l-6.472473 -4.7060547l-47.64569 25.881897l-5.2939453 11.175873l-145.29395 85.88187l-15.881897 18.824158l-27.648285 45.881897l-3.530182 27.648315l-35.293976 12.939575l-12.351715 -12.939575l-147.64828 19.412048l-7.6456757 -4.118103l-2.9422455 -55.881897l22.354324 -10.0l-1.7664032 -18.236237l-10.0 3.530182l-42.939636 -42.94223l1.1758575 -10.0l45.88188 -17.64569l-1.7637787 -14.706024l-38.824142 14.1154785l-9.412079 -7.0577393l26.469818 -48.236206l8.824158 -2.9396362l-0.5879364 -7.6483154l-11.763779 2.9422607l-5.2939606 -2.9422607l-7.060364 -30.0l114.11812 -58.824142l2.354309 -14.1154785l28.821533 -9.412079l10.587921 11.175858l55.88452 9.412079l86.46982 -15.293976l7.0577393 3.5301971l28.236206 -5.8845215l7.05777 4.7060394l88.236206 -18.821518l2.9422607 -8.824158l29.409424 -4.7060394l10.0 1.1758575l134.70605 -27.05774l24.706055 8.821518z" fill-rule="evenodd"/><path fill="#000000" fill-opacity="0.0" d="m182.3517 330.0l98.82414 -37.05774l24.118134 -0.59054565l4.706024 5.29657l48.236206 -22.94226l79.41208 1.763794l93.52756 -39.41208l2.35437 -14.706039" fill-rule="evenodd"/><path stroke="#ffffff" stroke-width="12.0" stroke-linejoin="round" stroke-linecap="butt" d="m182.3517 330.0l98.82414 -37.05774l24.118134 -0.59054565l4.706024 5.29657l48.236206 -22.94226l79.41208 1.763794l93.52756 -39.41208l2.35437 -14.706039" fill-rule="evenodd"/><path fill="#000000" fill-opacity="0.0" d="m210.58792 484.70602l105.8819 -40.0l20.0 -18.236206l2.3543396 -17.64566l50.58792 -18.824158l65.8819 -65.8819l105.88187 -17.060364l16.472473 20.590546l-52.35437 32.351715l-4.7059937 33.53018" fill-rule="evenodd"/><path stroke="#ffffff" stroke-width="12.0" stroke-linejoin="round" stroke-linecap="butt" d="m210.58792 484.70602l105.8819 -40.0l20.0 -18.236206l2.3543396 -17.64566l50.58792 -18.824158l65.8819 -65.8819l105.88187 -17.060364l16.472473 20.590546l-52.35437 32.351715l-4.7059937 33.53018" fill-rule="evenodd"/><path fill="#000000" fill-opacity="0.0" d="m207.05774 462.94226l41.766403 -15.8845215l5.2939606 -22.351715l71.763794 -23.530182l-9.412079 -28.233582l-20.587921 -16.472443l-24.706055 10.0l-2.3516846 8.236206l-57.6483 21.175873l-27.057755 8.236206" fill-rule="evenodd"/><path stroke="#ffffff" stroke-width="12.0" stroke-linejoin="round" stroke-linecap="butt" d="m207.05774 462.94226l41.766403 -15.8845215l5.2939606 -22.351715l71.763794 -23.530182l-9.412079 -28.233582l-20.587921 -16.472443l-24.706055 10.0l-2.3516846 8.236206l-57.6483 21.175873l-27.057755 8.236206" fill-rule="evenodd"/><path fill="#000000" fill-opacity="0.0" d="m270.0 358.2362l25.881897 -8.824127l9.412079 -21.175873l-2.351715 -18.824127l-69.41208 26.469818l-5.2939606 -5.881897l-55.29396 18.236206" fill-rule="evenodd"/><path stroke="#ffffff" stroke-width="12.0" stroke-linejoin="round" stroke-linecap="butt" d="m270.0 358.2362l25.881897 -8.824127l9.412079 -21.175873l-2.351715 -18.824127l-69.41208 26.469818l-5.2939606 -5.881897l-55.29396 18.236206" fill-rule="evenodd"/><path fill="#000000" fill-opacity="0.0" d="m198.23622 382.3517l64.70604 -25.293976l9.409454 1.7664185" fill-rule="evenodd"/><path stroke="#ffffff" stroke-width="12.0" stroke-linejoin="round" stroke-linecap="butt" d="m198.23622 382.3517l64.70604 -25.293976l9.409454 1.7664185" fill-rule="evenodd"/><path fill="#000000" fill-opacity="0.0" d="m321.7638 385.29398l25.884491 10.587921l31.175873 -11.175873l71.17584 -65.88187l170.0 -57.648315l2.9422607 -5.2939453l151.17584 -50.587936l-11.175842 -15.293961l-152.94226 49.41208l-7.6483154 -1.7637787l-166.46979 52.93962l-88.82416 2.9422607l-31.175842 14.706024l-11.763794 17.64569" fill-rule="evenodd"/><path stroke="#ffffff" stroke-width="12.0" stroke-linejoin="round" stroke-linecap="butt" d="m321.7638 385.29398l25.884491 10.587921l31.175873 -11.175873l71.17584 -65.88187l170.0 -57.648315l2.9422607 -5.2939453l151.17584 -50.587936l-11.175842 -15.293961l-152.94226 49.41208l-7.6483154 -1.7637787l-166.46979 52.93962l-88.82416 2.9422607l-31.175842 14.706024l-11.763794 17.64569" fill-rule="evenodd"/><path fill="#000000" fill-opacity="0.0" d="m315.29398 310.0l15.293945 60.58792l27.060364 -11.175842l45.881897 -40.58792l0 -12.35434l-8.236206 -14.118103" fill-rule="evenodd"/><path stroke="#ffffff" stroke-width="12.0" stroke-linejoin="round" stroke-linecap="butt" d="m315.29398 310.0l15.293945 60.58792l27.060364 -11.175842l45.881897 -40.58792l0 -12.35434l-8.236206 -14.118103" fill-rule="evenodd"/><path fill="#000000" fill-opacity="0.0" d="m431.7638 292.94226l6.472412 15.881897l-2.9422302 11.175842l-65.8819 51.763794l-36.46982 0" fill-rule="evenodd"/><path stroke="#ffffff" stroke-width="12.0" stroke-linejoin="round" stroke-linecap="butt" d="m431.7638 292.94226l6.472412 15.881897l-2.9422302 11.175842l-65.8819 51.763794l-36.46982 0" fill-rule="evenodd"/><path fill="#000000" fill-opacity="0.0" d="m577.05774 327.6483l40.590576 -23.530182l7.64563 -28.824127l53.530212 -18.824158l-41.175842 28.824158l10.587891 35.293945" fill-rule="evenodd"/><path stroke="#ffffff" stroke-width="12.0" stroke-linejoin="round" stroke-linecap="butt" d="m577.05774 327.6483l40.590576 -23.530182l7.64563 -28.824127l53.530212 -18.824158l-41.175842 28.824158l10.587891 35.293945" fill-rule="evenodd"/><path fill="#000000" fill-opacity="0.0" d="m593.5302 208.82414l8.233582 10.587936l38.236206 -3.530182l-36.469788 13.530182l-24.706055 -9.412079l-46.472473 7.6483" fill-rule="evenodd"/><path stroke="#ffffff" stroke-width="12.0" stroke-linejoin="round" stroke-linecap="butt" d="m593.5302 208.82414l8.233582 10.587936l38.236206 -3.530182l-36.469788 13.530182l-24.706055 -9.412079l-46.472473 7.6483" fill-rule="evenodd"/><path fill="#000000" fill-opacity="0.0" d="m637.05774 214.1181l14.706055 -2.3543243l7.060364 -10.0l98.82416 -18.233597l21.175842 30.587921l-84.706055 45.293976l-18.824158 -2.3543396" fill-rule="evenodd"/><path stroke="#ffffff" stroke-width="12.0" stroke-linejoin="round" stroke-linecap="butt" d="m637.05774 214.1181l14.706055 -2.3543243l7.060364 -10.0l98.82416 -18.233597l21.175842 30.587921l-84.706055 45.293976l-18.824158 -2.3543396" fill-rule="evenodd"/><path fill="#000000" fill-opacity="0.0" d="m385.29398 390.58792l54.118103 50.0" fill-rule="evenodd"/><path stroke="#ffffff" stroke-width="12.0" stroke-linejoin="round" stroke-linecap="butt" d="m385.29398 390.58792l54.118103 50.0" fill-rule="evenodd"/><path fill="#000000" fill-opacity="0.0" d="m336.46982 427.6483l101.76639 12.351715" fill-rule="evenodd"/><path stroke="#ffffff" stroke-width="12.0" stroke-linejoin="round" stroke-linecap="butt" d="m336.46982 427.6483l101.76639 12.351715" fill-rule="evenodd"/><path fill="#000000" fill-opacity="0.0" d="m298.82416 290.58792l70.0 -51.76378" fill-rule="evenodd"/><path stroke="#ffffff" stroke-width="12.0" stroke-linejoin="round" stroke-linecap="butt" d="m298.82416 290.58792l70.0 -51.76378" fill-rule="evenodd"/><path fill="#000000" fill-opacity="0.0" d="m366.46982 273.53018l4.118103 -32.94226" fill-rule="evenodd"/><path stroke="#ffffff" stroke-width="12.0" stroke-linejoin="round" stroke-linecap="butt" d="m366.46982 273.53018l4.118103 -32.94226" fill-rule="evenodd"/><path fill="#000000" fill-opacity="0.0" d="m381.7638 342.94226l33.53018 -25.293976l1.1758423 -11.178467l-7.0577393 -11.763794" fill-rule="evenodd"/><path stroke="#ffffff" stroke-width="12.0" stroke-linejoin="round" stroke-linecap="butt" d="m381.7638 342.94226l33.53018 -25.293976l1.1758423 -11.178467l-7.0577393 -11.763794" fill-rule="evenodd"/></g></svg>