<svg version="1.1" viewBox="0.0 0.0 960.0 720.0" fill="none" stroke="none" stroke-linecap="square" stroke-miterlimit="10" xmlns:xlink="http://www.w3.org/1999/xlink" xmlns="http://www.w3.org/2000/svg"><clipPath id="p.0"><path d="m0 0l960.0 0l0 720.0l-960.0 0l0 -720.0z" clip-rule="nonzero"/></clipPath><g clip-path="url(#p.0)"><path fill="#000000" fill-opacity="0.0" d="m0 0l960.0 0l0 720.0l-960.0 0z" fill-rule="evenodd"/><path fill="#000000" fill-opacity="0.0" d="m333.0 231.50131l42.0 -16.501312l49.0 -13.498688l18.501312 16.0l18.0 8.498688l58.00003 1.5013123l34.0 -4.0l47.498657 -5.5013123l93.0 -16.498688l33.0 -0.50131226l33.501343 1.0l22.0 6.0l-1.0 10.501312l-22.0 19.498688l-32.0 23.0l-59.501343 33.0l-39.0 22.501312l-41.498657 30.498688l-31.0 32.501312l-20.0 32.0l-8.501343 35.0l0.5013428 27.498688l53.498657 -17.498688l50.501343 -15.501312l9.498657 10.501312l5.0 13.498688l-1.4986572 10.501312l-46.501343 23.0l-59.498657 25.498688l-44.00003 17.0l-14.0 8.501343l-33.0 12.498657l-7.5013123 -3.4986572l-79.49869 16.498657l-8.501312 -28.498657l59.501312 -27.501343l0 -21.498688l-4.5013123 -23.501312l-7.4986877 -7.4986877l-17.0 -5.5013123l-24.0 -1.0l-13.501312 -0.49868774l-8.498688 14.0l-103.50131 20.0l-11.0 -11.0l-15.498688 -24.0l-10.501312 -26.0l24.0 -14.501312l-3.0 -15.498688l-6.0 2.0l-20.0 -7.5013123l1.5013123 -34.0l6.0 -28.0l85.49869 -38.498688l9.501312 3.0l36.0 -23.0l12.498688 -16.0l-1.0 -10.0z" fill-rule="evenodd"/><path stroke="#ffffff" stroke-width="12.0" stroke-linejoin="round" stroke-linecap="butt" d="m333.0 231.50131l42.0 -16.501312l49.0 -13.498688l18.501312 16.0l18.0 8.498688l58.00003 1.5013123l34.0 -4.0l47.498657 -5.5013123l93.0 -16.498688l33.0 -0.50131226l33.501343 1.0l22.0 6.0l-1.0 10.501312l-22.0 19.498688l-32.0 23.0l-59.501343 33.0l-39.0 22.501312l-41.498657 30.498688l-31.0 32.501312l-20.0 32.0l-8.501343 35.0l0.5013428 27.498688l53.498657 -17.498688l50.501343 -15.501312l9.498657 10.501312l5.0 13.498688l-1.4986572 10.501312l-46.501343 23.0l-59.498657 25.498688l-44.00003 17.0l-14.0 8.501343l-33.0 12.498657l-7.5013123 -3.4986572l-79.49869 16.498657l-8.501312 -28.498657l59.501312 -27.501343l0 -21.498688l-4.5013123 -23.501312l-7.4986877 -7.4986877l-17.0 -5.5013123l-24.0 -1.0l-13.501312 -0.49868774l-8.498688 14.0l-103.50131 20.0l-11.0 -11.0l-15.498688 -24.0l-10.501312 -26.0l24.0 -14.501312l-3.0 -15.498688l-6.0 2.0l-20.0 -7.5013123l1.5013123 -34.0l6.0 -28.0l85.49869 -38.498688l9.501312 3.0l36.0 -23.0l12.498688 -16.0l-1.0 -10.0z" fill-rule="evenodd"/><path fill="#000000" fill-opacity="0.0" d="m335.5013 240.0l-24.501312 10.0l-10.498688 -5.4986877l-26.0 -1.0l-6.0 -18.0l39.498688 -24.501312l54.501312 -24.498688l40.0 -14.0l54.498688 -12.501312l32.0 -6.0l11.0 0l8.0 8.0l4.501343 19.0l-3.5013428 8.0l-10.498688 6.0l-43.501312 18.0l-22.498688 7.5013123" fill-rule="evenodd"/><path stroke="#ffffff" stroke-width="12.0" stroke-linejoin="round" stroke-linecap="butt" d="m335.5013 240.0l-24.501312 10.0l-10.498688 -5.4986877l-26.0 -1.0l-6.0 -18.0l39.498688 -24.501312l54.501312 -24.498688l40.0 -14.0l54.498688 -12.501312l32.0 -6.0l11.0 0l8.0 8.0l4.501343 19.0l-3.5013428 8.0l-10.498688 6.0l-43.501312 18.0l-22.498688 7.5013123" fill-rule="evenodd"/><path fill="#000000" fill-opacity="0.0" d="m484.5013 145.50131l13.0 17.498688l3.4986877 23.0" fill-rule="evenodd"/><path stroke="#ffffff" stroke-width="12.0" stroke-linejoin="round" stroke-linecap="butt" d="m484.5013 145.50131l13.0 17.498688l3.4986877 23.0" fill-rule="evenodd"/><path fill="#000000" fill-opacity="0.0" d="m287.0 242.50131l32.501312 -16.501312l36.0 -14.0l54.0 -18.0l59.498688 -18.0l28.0 -7.4986877" fill-rule="evenodd"/><path stroke="#ffffff" stroke-width="12.0" stroke-linejoin="round" stroke-linecap="butt" d="m287.0 242.50131l32.501312 -16.501312l36.0 -14.0l54.0 -18.0l59.498688 -18.0l28.0 -7.4986877" fill-rule="evenodd"/><path fill="#000000" fill-opacity="0.0" d="m410.0 521.50134l30.0 -13.501343l54.0 -20.0l36.501343 -14.498688" fill-rule="evenodd"/><path stroke="#ffffff" stroke-width="12.0" stroke-linejoin="round" stroke-linecap="butt" d="m410.0 521.50134l30.0 -13.501343l54.0 -20.0l36.501343 -14.498688" fill-rule="evenodd"/><path fill="#000000" fill-opacity="0.0" d="m638.50134 482.5013l-17.501343 -38.501312" fill-rule="evenodd"/><path stroke="#ffffff" stroke-width="12.0" stroke-linejoin="round" stroke-linecap="butt" d="m638.50134 482.5013l-17.501343 -38.501312" fill-rule="evenodd"/><path fill="#000000" fill-opacity="0.0" d="m248.50131 412.5013l-14.0 -46.0l42.498688 -30.0l85.0 -46.501312l64.50131 -21.498688l78.0 -24.501312l53.00003 -13.498688l18.0 2.0l34.0 -6.5013123l37.498657 -5.4986877l31.501343 1.4986877l17.498657 0.50131226l37.501343 -8.0l46.498657 -9.0" fill-rule="evenodd"/><path stroke="#ffffff" stroke-width="12.0" stroke-linejoin="round" stroke-linecap="butt" d="m248.50131 412.5013l-14.0 -46.0l42.498688 -30.0l85.0 -46.501312l64.50131 -21.498688l78.0 -24.501312l53.00003 -13.498688l18.0 2.0l34.0 -6.5013123l37.498657 -5.4986877l31.501343 1.4986877l17.498657 0.50131226l37.501343 -8.0l46.498657 -9.0" fill-rule="evenodd"/><path fill="#000000" fill-opacity="0.0" d="m250.0 412.0l28.0 2.5013123l106.0 -18.0l88.50131 -19.0l90.49869 -36.0l49.501343 -35.0l45.0 -24.0l29.0 -20.501312l14.0 -23.498688l18.498657 -11.0l61.0 -18.501312" fill-rule="evenodd"/><path stroke="#ffffff" stroke-width="12.0" stroke-linejoin="round" stroke-linecap="butt" d="m250.0 412.0l28.0 2.5013123l106.0 -18.0l88.50131 -19.0l90.49869 -36.0l49.501343 -35.0l45.0 -24.0l29.0 -20.501312l14.0 -23.498688l18.498657 -11.0l61.0 -18.501312" fill-rule="evenodd"/><path fill="#000000" fill-opacity="0.0" d="m250.0 406.0l109.0 -55.0l77.50131 -29.498688l55.0 -19.501312l86.00003 -26.0l14.0 3.5013123l13.498657 1.0l39.0 -11.501312l32.501343 -17.498688l22.498657 -23.501312l-43.0 -3.0l-49.498657 8.501312l-25.0 8.498688l-17.0 1.0l-19.0 7.0l-115.00003 47.501312l-68.50131 26.498688l-66.0 28.0l-58.498688 23.0" fill-rule="evenodd"/><path stroke="#ffffff" stroke-width="12.0" stroke-linejoin="round" stroke-linecap="butt" d="m250.0 406.0l109.0 -55.0l77.50131 -29.498688l55.0 -19.501312l86.00003 -26.0l14.0 3.5013123l13.498657 1.0l39.0 -11.501312l32.501343 -17.498688l22.498657 -23.501312l-43.0 -3.0l-49.498657 8.501312l-25.0 8.498688l-17.0 1.0l-19.0 7.0l-115.00003 47.501312l-68.50131 26.498688l-66.0 28.0l-58.498688 23.0" fill-rule="evenodd"/><path fill="#000000" fill-opacity="0.0" d="m308.5013 376.5013l-7.5013123 -24.501312" fill-rule="evenodd"/><path stroke="#ffffff" stroke-width="12.0" stroke-linejoin="round" stroke-linecap="butt" d="m308.5013 376.5013l-7.5013123 -24.501312" fill-rule="evenodd"/><path fill="#000000" fill-opacity="0.0" d="m370.0 351.5013l11.0 7.0l98.0 -37.501312l1.0 -11.498688" fill-rule="evenodd"/><path stroke="#ffffff" stroke-width="12.0" stroke-linejoin="round" stroke-linecap="butt" d="m370.0 351.5013l11.0 7.0l98.0 -37.501312l1.0 -11.498688" fill-rule="evenodd"/><path fill="#000000" fill-opacity="0.0" d="m359.5013 321.5013l4.0 -16.0l90.49869 -35.0l16.0 8.0" fill-rule="evenodd"/><path stroke="#ffffff" stroke-width="12.0" stroke-linejoin="round" stroke-linecap="butt" d="m359.5013 321.5013l4.0 -16.0l90.49869 -35.0l16.0 8.0" fill-rule="evenodd"/><path fill="#000000" fill-opacity="0.0" d="m454.5013 385.5013l-23.0 10.0l0.49868774 11.0l10.0 6.4986877l62.501312 0.50131226l30.00003 2.0" fill-rule="evenodd"/><path stroke="#ffffff" stroke-width="12.0" stroke-linejoin="round" stroke-linecap="butt" d="m454.5013 385.5013l-23.0 10.0l0.49868774 11.0l10.0 6.4986877l62.501312 0.50131226l30.00003 2.0" fill-rule="evenodd"/><path fill="#000000" fill-opacity="0.0" d="m457.0 228.0l-53.0 32.0l-15.0 10.501312l1.5013123 10.0" fill-rule="evenodd"/><path stroke="#ffffff" stroke-width="12.0" stroke-linejoin="round" stroke-linecap="butt" d="m457.0 228.0l-53.0 32.0l-15.0 10.501312l1.5013123 10.0" fill-rule="evenodd"/><path fill="#000000" fill-opacity="0.0" d="m204.0 334.0l2.5013123 15.501312l15.498688 -7.0l4.5013123 -6.0l6.4986877 2.0l-3.0 4.4986877l3.5013123 6.0l-1.5013123 16.501312l12.501312 51.498688l9.0 23.501312l-1.5013123 9.498688l5.0 5.0l-3.4986877 5.0l-7.0 -3.0l-6.0 5.5013123l-13.0 3.0l9.0 28.0" fill-rule="evenodd"/><path stroke="#ffffff" stroke-width="12.0" stroke-linejoin="round" stroke-linecap="butt" d="m204.0 334.0l2.5013123 15.501312l15.498688 -7.0l4.5013123 -6.0l6.4986877 2.0l-3.0 4.4986877l3.5013123 6.0l-1.5013123 16.501312l12.501312 51.498688l9.0 23.501312l-1.5013123 9.498688l5.0 5.0l-3.4986877 5.0l-7.0 -3.0l-6.0 5.5013123l-13.0 3.0l9.0 28.0" fill-rule="evenodd"/><path fill="#000000" fill-opacity="0.0" d="m195.0 395.0l38.0 -18.498688" fill-rule="evenodd"/><path stroke="#ffffff" stroke-width="12.0" stroke-linejoin="round" stroke-linecap="butt" d="m195.0 395.0l38.0 -18.498688" fill-rule="evenodd"/><path fill="#000000" fill-opacity="0.0" d="m217.0 386.5013l1.0 18.0" fill-rule="evenodd"/><path stroke="#ffffff" stroke-width="12.0" stroke-linejoin="round" stroke-linecap="butt" d="m217.0 386.5013l1.0 18.0" fill-rule="evenodd"/><path fill="#000000" fill-opacity="0.0" d="m221.0 417.5013l24.501312 -8.501312" fill-rule="evenodd"/><path stroke="#ffffff" stroke-width="12.0" stroke-linejoin="round" stroke-linecap="butt" d="m221.0 417.5013l24.501312 -8.501312" fill-rule="evenodd"/><path fill="#000000" fill-opacity="0.0" d="m321.0 429.0l8.501312 -7.0l22.498688 -2.0l53.0 6.0l51.501312 17.501312l26.498688 25.0l7.5013123 18.498688" fill-rule="evenodd"/><path stroke="#ffffff" stroke-width="12.0" stroke-linejoin="round" stroke-linecap="butt" d="m321.0 429.0l8.501312 -7.0l22.498688 -2.0l53.0 6.0l51.501312 17.501312l26.498688 25.0l7.5013123 18.498688" fill-rule="evenodd"/><path fill="#000000" fill-opacity="0.0" d="m395.0 212.50131l1.5013123 19.498688l-14.0 22.501312l-19.0 15.498688l-27.501312 23.0l-26.498688 17.0l-14.501312 5.5013123" fill-rule="evenodd"/><path stroke="#ffffff" stroke-width="12.0" stroke-linejoin="round" stroke-linecap="butt" d="m395.0 212.50131l1.5013123 19.498688l-14.0 22.501312l-19.0 15.498688l-27.501312 23.0l-26.498688 17.0l-14.501312 5.5013123" fill-rule="evenodd"/><path fill="#000000" fill-opacity="0.0" d="m206.50131 460.5013l-10.501312 13.498688l5.0 10.0l18.501312 -3.0" fill-rule="evenodd"/><path stroke="#ffffff" stroke-width="12.0" stroke-linejoin="round" stroke-linecap="butt" d="m206.50131 460.5013l-10.501312 13.498688l5.0 10.0l18.501312 -3.0" fill-rule="evenodd"/><path fill="#000000" fill-opacity="0.0" d="m189.50131 374.0l-12.0 -4.4986877l1.0 -8.501312l14.0 -10.0" fill-rule="evenodd"/><path stroke="#ffffff" stroke-width="12.0" stroke-linejoin="round" stroke-linecap="butt" d="m189.50131 374.0l-12.0 -4.4986877l1.0 -8.501312l14.0 -10.0" fill-rule="evenodd"/><path fill="#000000" fill-opacity="0.0" d="m571.2913 243.06299l-7.656128 11.005249l8.13385 19.61679l12.921265 3.3490906" fill-rule="evenodd"/><path stroke="#ffffff" stroke-width="12.0" stroke-linejoin="round" stroke-linecap="butt" d="m571.2913 243.06299l-7.656128 11.005249l8.13385 19.61679l12.921265 3.3490906" fill-rule="evenodd"/><path fill="#000000" fill-opacity="0.0" d="m597.1286 234.92914l26.317566 5.740158l7.1759033 11.963257l-22.965881 26.314957" fill-rule="evenodd"/><path stroke="#ffffff" stroke-width="12.0" stroke-linejoin="round" stroke-linecap="butt" d="m597.1286 234.92914l26.317566 5.740158l7.1759033 11.963257l-22.965881 26.314957" fill-rule="evenodd"/><path fill="#000000" fill-opacity="0.0" d="m644.49866 226.79527l15.787415 14.35434l-2.8687744 19.616806" fill-rule="evenodd"/><path stroke="#ffffff" stroke-width="12.0" stroke-linejoin="round" stroke-linecap="butt" d="m644.49866 226.79527l15.787415 14.35434l-2.8687744 19.616806" fill-rule="evenodd"/></g></svg>