<svg version="1.1" viewBox="0.0 0.0 960.0 720.0" fill="none" stroke="none" stroke-linecap="square" stroke-miterlimit="10" xmlns:xlink="http://www.w3.org/1999/xlink" xmlns="http://www.w3.org/2000/svg"><clipPath id="p.0"><path d="m0 0l960.0 0l0 720.0l-960.0 0l0 -720.0z" clip-rule="nonzero"/></clipPath><g clip-path="url(#p.0)"><path fill="#000000" fill-opacity="0.0" d="m0 0l960.0 0l0 720.0l-960.0 0z" fill-rule="evenodd"/><path fill="#000000" fill-opacity="0.0" d="m176.66667 358.66666l144.66667 -81.33331l76.66666 -27.333344l176.0 -43.33333l89.33331 0.6666565l38.0 66.66667l-14.0 45.333344l-38.0 36.666656l-177.33331 114.0l-92.0 34.0l-182.66667 -22.0l-4.0 -8.0l112.66667 -50.666656l308.0 -106.66669l8.0 -20.0l-32.0 -61.999985l-22.0 0.6666565l-124.66666 56.66667l-172.0 58.0l-88.000015 14.0z" fill-rule="evenodd"/><path stroke="#ffffff" stroke-width="12.0" stroke-linejoin="round" stroke-linecap="butt" d="m176.66667 358.66666l144.66667 -81.33331l76.66666 -27.333344l176.0 -43.33333l89.33331 0.6666565l38.0 66.66667l-14.0 45.333344l-38.0 36.666656l-177.33331 114.0l-92.0 34.0l-182.66667 -22.0l-4.0 -8.0l112.66667 -50.666656l308.0 -106.66669l8.0 -20.0l-32.0 -61.999985l-22.0 0.6666565l-124.66666 56.66667l-172.0 58.0l-88.000015 14.0z" fill-rule="evenodd"/><path fill="#000000" fill-opacity="0.0" d="m203.33333 344.66666l50.0 -13.333313l166.00002 -55.333344l145.99997 -41.33333" fill-rule="evenodd"/><path stroke="#ffffff" stroke-width="12.0" stroke-linejoin="round" stroke-linecap="butt" d="m203.33333 344.66666l50.0 -13.333313l166.00002 -55.333344l145.99997 -41.33333" fill-rule="evenodd"/><path fill="#000000" fill-opacity="0.0" d="m489.33334 255.33333l46.666656 -28.0l34.666687 -10.6666565l-6.666687 17.333328" fill-rule="evenodd"/><path stroke="#ffffff" stroke-width="12.0" stroke-linejoin="round" stroke-linecap="butt" d="m489.33334 255.33333l46.666656 -28.0l34.666687 -10.6666565l-6.666687 17.333328" fill-rule="evenodd"/><path fill="#000000" fill-opacity="0.0" d="m546.6667 339.33334l26.0 -24.666687l34.666626 -13.333313l5.333374 18.666656" fill-rule="evenodd"/><path stroke="#ffffff" stroke-width="12.0" stroke-linejoin="round" stroke-linecap="butt" d="m546.6667 339.33334l26.0 -24.666687l34.666626 -13.333313l5.333374 18.666656" fill-rule="evenodd"/><path fill="#000000" fill-opacity="0.0" d="m304.0 422.0l-12.0 -58.666656l148.66666 -70.66669" fill-rule="evenodd"/><path stroke="#ffffff" stroke-width="12.0" stroke-linejoin="round" stroke-linecap="butt" d="m304.0 422.0l-12.0 -58.666656l148.66666 -70.66669" fill-rule="evenodd"/><path fill="#000000" fill-opacity="0.0" d="m305.33334 420.66666l272.66666 -109.33331" fill-rule="evenodd"/><path stroke="#ffffff" stroke-width="12.0" stroke-linejoin="round" stroke-linecap="butt" d="m305.33334 420.66666l272.66666 -109.33331" fill-rule="evenodd"/><path fill="#000000" fill-opacity="0.0" d="m578.6667 203.33333l-50.0 -15.333328l-80.00003 27.333328l10.0 18.666672" fill-rule="evenodd"/><path stroke="#ffffff" stroke-width="12.0" stroke-linejoin="round" stroke-linecap="butt" d="m578.6667 203.33333l-50.0 -15.333328l-80.00003 27.333328l10.0 18.666672" fill-rule="evenodd"/><path fill="#000000" fill-opacity="0.0" d="m530.6667 432.0l30.0 77.33334l96.0 -37.333344l24.0 -144.66666" fill-rule="evenodd"/><path stroke="#ffffff" stroke-width="12.0" stroke-linejoin="round" stroke-linecap="butt" d="m530.6667 432.0l30.0 77.33334l96.0 -37.333344l24.0 -144.66666" fill-rule="evenodd"/><path fill="#000000" fill-opacity="0.0" d="m682.0 342.0l34.0 -10.6666565l29.333313 -43.333344l-2.666626 -6.6666565l13.333313 -25.333344l-26.666687 -44.0l-12.666626 1.3333282l-10.666687 4.0l-4.666687 -6.6666565l-28.0 7.3333282" fill-rule="evenodd"/><path stroke="#ffffff" stroke-width="12.0" stroke-linejoin="round" stroke-linecap="butt" d="m682.0 342.0l34.0 -10.6666565l29.333313 -43.333344l-2.666626 -6.6666565l13.333313 -25.333344l-26.666687 -44.0l-12.666626 1.3333282l-10.666687 4.0l-4.666687 -6.6666565l-28.0 7.3333282" fill-rule="evenodd"/><path fill="#000000" fill-opacity="0.0" d="m706.0 218.0l36.0 62.0" fill-rule="evenodd"/><path stroke="#ffffff" stroke-width="12.0" stroke-linejoin="round" stroke-linecap="butt" d="m706.0 218.0l36.0 62.0" fill-rule="evenodd"/><path fill="#000000" fill-opacity="0.0" d="m735.3333 218.66667l32.666687 0l14.0 22.666656l2.0 14.666672l-8.666687 8.0l-28.0 14.0" fill-rule="evenodd"/><path stroke="#ffffff" stroke-width="12.0" stroke-linejoin="round" stroke-linecap="butt" d="m735.3333 218.66667l32.666687 0l14.0 22.666656l2.0 14.666672l-8.666687 8.0l-28.0 14.0" fill-rule="evenodd"/><path fill="#000000" fill-opacity="0.0" d="m752.0 248.66667l28.666687 -9.3333435" fill-rule="evenodd"/><path stroke="#ffffff" stroke-width="12.0" stroke-linejoin="round" stroke-linecap="butt" d="m752.0 248.66667l28.666687 -9.3333435" fill-rule="evenodd"/><path fill="#000000" fill-opacity="0.0" d="m700.0 271.33334l30.0 -9.3333435" fill-rule="evenodd"/><path stroke="#ffffff" stroke-width="12.0" stroke-linejoin="round" stroke-linecap="butt" d="m700.0 271.33334l30.0 -9.3333435" fill-rule="evenodd"/><path fill="#000000" fill-opacity="0.0" d="m384.66666 504.66666l0.666687 28.666656l51.333313 -18.0l29.333344 -43.333313" fill-rule="evenodd"/><path stroke="#ffffff" stroke-width="12.0" stroke-linejoin="round" stroke-linecap="butt" d="m384.66666 504.66666l0.666687 28.666656l51.333313 -18.0l29.333344 -43.333313" fill-rule="evenodd"/><path fill="#000000" fill-opacity="0.0" d="m392.0 250.66667l-38.0 -18.0l-40.0 14.0l13.3333435 26.666672" fill-rule="evenodd"/><path stroke="#ffffff" stroke-width="12.0" stroke-linejoin="round" stroke-linecap="butt" d="m392.0 250.66667l-38.0 -18.0l-40.0 14.0l13.3333435 26.666672" fill-rule="evenodd"/><path fill="#000000" fill-opacity="0.0" d="m476.0 467.33334l4.0 14.0l39.333313 -15.3333435l12.666687 -28.666656" fill-rule="evenodd"/><path stroke="#ffffff" stroke-width="12.0" stroke-linejoin="round" stroke-linecap="butt" d="m476.0 467.33334l4.0 14.0l39.333313 -15.3333435l12.666687 -28.666656" fill-rule="evenodd"/><path fill="#000000" fill-opacity="0.0" d="m434.66666 298.0l21.333344 64.0" fill-rule="evenodd"/><path stroke="#ffffff" stroke-width="12.0" stroke-linejoin="round" stroke-linecap="butt" d="m434.66666 298.0l21.333344 64.0" fill-rule="evenodd"/></g></svg>