<svg version="1.1" viewBox="0.0 0.0 960.0 720.0" fill="none" stroke="none" stroke-linecap="square" stroke-miterlimit="10" xmlns:xlink="http://www.w3.org/1999/xlink" xmlns="http://www.w3.org/2000/svg"><clipPath id="p.0"><path d="m0 0l960.0 0l0 720.0l-960.0 0l0 -720.0z" clip-rule="nonzero"/></clipPath><g clip-path="url(#p.0)"><path fill="#000000" fill-opacity="0.0" d="m0 0l960.0 0l0 720.0l-960.0 0z" fill-rule="evenodd"/><path fill="#000000" fill-opacity="0.0" d="m135.33333 373.9755l158.79585 -88.865204l-15.368225 -20.066101l35.85791 -15.76564l47.565125 14.333481l11.7092285 -5.017517l79.03183 -20.06607l-13.903839 -30.816208l76.835236 -28.664993l85.617615 27.232834l29.272095 26.515762l107.57172 -27.232834l6.5858154 10.750107l19.025269 -7.8838043l8.050232 8.598907l34.393494 -2.149231l14.636047 22.932388l3.6589966 12.899353l-20.489624 16.482697l-25.613098 10.033051l5.121399 6.4516296l-30.734497 41.56436l-68.78699 24.366516l5.855652 21.500214l-20.489685 130.42957l-104.6449 38.69806l-27.0755 -80.981415l-52.688538 2.151184l-41.711517 27.947937l-12.439453 2.8682556l-21.221863 22.215332l-73.90839 26.515747l8.048218 -17.91681l-190.99277 -22.215363l-7.3180237 -5.732605l2.9268188 -7.883789l19.027252 -7.8838196l-9.514633 -5.732605l-5.853607 -54.465637l10.9770355 -7.8818665l220.26483 -89.582275l21.221863 -15.048584l-40.249115 10.750122l-135.3774 50.88031l-90.74106 12.901306z" fill-rule="evenodd"/><path stroke="#ffffff" stroke-width="12.0" stroke-linejoin="round" stroke-linecap="butt" d="m135.33333 373.9755l158.79585 -88.865204l-15.368225 -20.066101l35.85791 -15.76564l47.565125 14.333481l11.7092285 -5.017517l79.03183 -20.06607l-13.903839 -30.816208l76.835236 -28.664993l85.617615 27.232834l29.272095 26.515762l107.57172 -27.232834l6.5858154 10.750107l19.025269 -7.8838043l8.050232 8.598907l34.393494 -2.149231l14.636047 22.932388l3.6589966 12.899353l-20.489624 16.482697l-25.613098 10.033051l5.121399 6.4516296l-30.734497 41.56436l-68.78699 24.366516l5.855652 21.500214l-20.489685 130.42957l-104.6449 38.69806l-27.0755 -80.981415l-52.688538 2.151184l-41.711517 27.947937l-12.439453 2.8682556l-21.221863 22.215332l-73.90839 26.515747l8.048218 -17.91681l-190.99277 -22.215363l-7.3180237 -5.732605l2.9268188 -7.883789l19.027252 -7.8838196l-9.514633 -5.732605l-5.853607 -54.465637l10.9770355 -7.8818665l220.26483 -89.582275l21.221863 -15.048584l-40.249115 10.750122l-135.3774 50.88031l-90.74106 12.901306z" fill-rule="evenodd"/><path fill="#000000" fill-opacity="0.0" d="m398.7827 310.19516l136.11163 -63.066544l29.27008 2.8682709l26.345276 59.4812l-11.7092285 23.649445" fill-rule="evenodd"/><path stroke="#ffffff" stroke-width="12.0" stroke-linejoin="round" stroke-linecap="butt" d="m398.7827 310.19516l136.11163 -63.066544l29.27008 2.8682709l26.345276 59.4812l-11.7092285 23.649445" fill-rule="evenodd"/><path fill="#000000" fill-opacity="0.0" d="m165.33682 482.1926l338.0814 -123.98184l76.83722 -26.515778" fill-rule="evenodd"/><path stroke="#ffffff" stroke-width="12.0" stroke-linejoin="round" stroke-linecap="butt" d="m165.33682 482.1926l338.0814 -123.98184l76.83722 -26.515778" fill-rule="evenodd"/><path fill="#000000" fill-opacity="0.0" d="m509.2857 355.34412l23.416443 -25.798676l38.78473 -14.333496l8.050232 18.633942" fill-rule="evenodd"/><path stroke="#ffffff" stroke-width="12.0" stroke-linejoin="round" stroke-linecap="butt" d="m509.2857 355.34412l23.416443 -25.798676l38.78473 -14.333496l8.050232 18.633942" fill-rule="evenodd"/><path fill="#000000" fill-opacity="0.0" d="m147.04305 366.09262l234.16667 -78.832184l76.10501 -20.781189l40.97934 -27.232819l32.198914 -10.750107l1.4643555 17.199783l-73.9104 21.49826" fill-rule="evenodd"/><path stroke="#ffffff" stroke-width="12.0" stroke-linejoin="round" stroke-linecap="butt" d="m147.04305 366.09262l234.16667 -78.832184l76.10501 -20.781189l40.97934 -27.232819l32.198914 -10.750107l1.4643555 17.199783l-73.9104 21.49826" fill-rule="evenodd"/><path fill="#000000" fill-opacity="0.0" d="m292.67114 285.82892l68.78699 -22.215302" fill-rule="evenodd"/><path stroke="#ffffff" stroke-width="12.0" stroke-linejoin="round" stroke-linecap="butt" d="m292.67114 285.82892l68.78699 -22.215302" fill-rule="evenodd"/><path fill="#000000" fill-opacity="0.0" d="m442.68848 488.6452l-103.18051 35.114685" fill-rule="evenodd"/><path stroke="#ffffff" stroke-width="12.0" stroke-linejoin="round" stroke-linecap="butt" d="m442.68848 488.6452l-103.18051 35.114685" fill-rule="evenodd"/><path fill="#000000" fill-opacity="0.0" d="m425.8613 497.96082l40.2471 -0.717041l74.640625 -27.23285" fill-rule="evenodd"/><path stroke="#ffffff" stroke-width="12.0" stroke-linejoin="round" stroke-linecap="butt" d="m425.8613 497.96082l40.2471 -0.717041l74.640625 -27.23285" fill-rule="evenodd"/><path fill="#000000" fill-opacity="0.0" d="m485.1348 462.1243l136.1116 -90.29935l45.370544 -40.13217l11.707214 -46.58185l-37.320312 -67.365005l-91.47125 -4.3004303l-95.8645 24.366516" fill-rule="evenodd"/><path stroke="#ffffff" stroke-width="12.0" stroke-linejoin="round" stroke-linecap="butt" d="m485.1348 462.1243l136.1116 -90.29935l45.370544 -40.13217l11.707214 -46.58185l-37.320312 -67.365005l-91.47125 -4.3004303l-95.8645 24.366516" fill-rule="evenodd"/><path fill="#000000" fill-opacity="0.0" d="m745.6605 217.02893l28.537903 38.699997l10.244812 19.349014" fill-rule="evenodd"/><path stroke="#ffffff" stroke-width="12.0" stroke-linejoin="round" stroke-linecap="butt" d="m745.6605 217.02893l28.537903 38.699997l10.244812 19.349014" fill-rule="evenodd"/><path fill="#000000" fill-opacity="0.0" d="m772.7371 217.02893l21.952026 32.967392l-10.977051 20.066086" fill-rule="evenodd"/><path stroke="#ffffff" stroke-width="12.0" stroke-linejoin="round" stroke-linecap="butt" d="m772.7371 217.02893l21.952026 32.967392l-10.977051 20.066086" fill-rule="evenodd"/><path fill="#000000" fill-opacity="0.0" d="m455.13174 284.39517l-20.489685 16.454376l19.757477 65.81125l16.830627 3.739441" fill-rule="evenodd"/><path stroke="#ffffff" stroke-width="12.0" stroke-linejoin="round" stroke-linecap="butt" d="m455.13174 284.39517l-20.489685 16.454376l19.757477 65.81125l16.830627 3.739441" fill-rule="evenodd"/><path fill="#000000" fill-opacity="0.0" d="m687.8457 349.6104l-12.439392 -45.864807l3.6589966 -17.91684l92.93567 -30.816193" fill-rule="evenodd"/><path stroke="#ffffff" stroke-width="12.0" stroke-linejoin="round" stroke-linecap="butt" d="m687.8457 349.6104l-12.439392 -45.864807l3.6589966 -17.91684l92.93567 -30.816193" fill-rule="evenodd"/><path fill="#000000" fill-opacity="0.0" d="m598.38165 221.78761l38.740173 1.7637787l-1.8897705 40.06299l-38.740173 -1.7637634z" fill-rule="evenodd"/><path fill="#000000" fill-opacity="0.0" d="m638.02423 224.39598l18.11023 33.54332l-36.22046 18.771637l-18.11023 -33.543304z" fill-rule="evenodd"/></g></svg>