<svg version="1.1" viewBox="0.0 0.0 960.0 720.0" fill="none" stroke="none" stroke-linecap="square" stroke-miterlimit="10" xmlns:xlink="http://www.w3.org/1999/xlink" xmlns="http://www.w3.org/2000/svg"><clipPath id="p.0"><path d="m0 0l960.0 0l0 720.0l-960.0 0l0 -720.0z" clip-rule="nonzero"/></clipPath><g clip-path="url(#p.0)"><path fill="#000000" fill-opacity="0.0" d="m0 0l960.0 0l0 720.0l-960.0 0z" fill-rule="evenodd"/><path fill="#000000" fill-opacity="0.0" d="m286.0 306.0l85.50131 -40.498688l-8.0 -13.0l28.0 -10.501312l12.0 0.50131226l14.498688 7.4986877l134.0 -47.0l5.501343 -11.0l35.0 -8.498688l24.0 7.4986877l59.498657 -16.498688l40.0 -4.0l34.501343 3.4986877l31.0 18.501312l12.0 20.0l0.49865723 24.498688l-31.0 31.501312l-48.498657 32.498688l-26.0 72.0l-39.0 16.501312l-15.0 -10.0l7.0 -11.501312l-5.0 -27.498688l-19.0 1.4986877l-128.00003 49.0l-23.0 63.501312l-40.501312 14.498688l0 -52.498688l-43.498688 5.0l-66.0 12.0l-15.501312 11.498688l-28.498688 60.0l-11.501312 21.501343l-62.0 22.498657l11.501312 -8.498657l16.0 -140.00003l8.498688 -8.0l-0.49868774 -6.5013123l-9.0 -2.4986877l-48.501312 -92.0l-10.498688 -6.0l14.0 -7.0l38.0 -4.0l36.0 19.498688l20.498688 10.501312z" fill-rule="evenodd"/><path stroke="#ffffff" stroke-width="12.0" stroke-linejoin="round" stroke-linecap="butt" d="m286.0 306.0l85.50131 -40.498688l-8.0 -13.0l28.0 -10.501312l12.0 0.50131226l14.498688 7.4986877l134.0 -47.0l5.501343 -11.0l35.0 -8.498688l24.0 7.4986877l59.498657 -16.498688l40.0 -4.0l34.501343 3.4986877l31.0 18.501312l12.0 20.0l0.49865723 24.498688l-31.0 31.501312l-48.498657 32.498688l-26.0 72.0l-39.0 16.501312l-15.0 -10.0l7.0 -11.501312l-5.0 -27.498688l-19.0 1.4986877l-128.00003 49.0l-23.0 63.501312l-40.501312 14.498688l0 -52.498688l-43.498688 5.0l-66.0 12.0l-15.501312 11.498688l-28.498688 60.0l-11.501312 21.501343l-62.0 22.498657l11.501312 -8.498657l16.0 -140.00003l8.498688 -8.0l-0.49868774 -6.5013123l-9.0 -2.4986877l-48.501312 -92.0l-10.498688 -6.0l14.0 -7.0l38.0 -4.0l36.0 19.498688l20.498688 10.501312z" fill-rule="evenodd"/><path fill="#000000" fill-opacity="0.0" d="m241.0 383.0l1.0 -18.498688l13.501312 -17.0l30.0 -22.0l39.498688 -22.0l56.501312 -30.501312l48.498688 -19.498688l90.50134 -34.0l57.0 -18.0l44.0 -11.501312" fill-rule="evenodd"/><path stroke="#ffffff" stroke-width="12.0" stroke-linejoin="round" stroke-linecap="butt" d="m241.0 383.0l1.0 -18.498688l13.501312 -17.0l30.0 -22.0l39.498688 -22.0l56.501312 -30.501312l48.498688 -19.498688l90.50134 -34.0l57.0 -18.0l44.0 -11.501312" fill-rule="evenodd"/><path fill="#000000" fill-opacity="0.0" d="m241.0 384.0l5.5013123 15.501312l22.498688 12.0l37.501312 0.49868774l103.0 -17.498688l102.0 -28.501312l100.00003 -40.498688l34.498657 -11.0l20.501343 -0.50131226l12.498657 -3.0l40.501343 -23.0l37.498657 -23.498688l35.0 -26.0" fill-rule="evenodd"/><path stroke="#ffffff" stroke-width="12.0" stroke-linejoin="round" stroke-linecap="butt" d="m241.0 384.0l5.5013123 15.501312l22.498688 12.0l37.501312 0.49868774l103.0 -17.498688l102.0 -28.501312l100.00003 -40.498688l34.498657 -11.0l20.501343 -0.50131226l12.498657 -3.0l40.501343 -23.0l37.498657 -23.498688l35.0 -26.0" fill-rule="evenodd"/><path fill="#000000" fill-opacity="0.0" d="m340.0 426.5013l95.50131 -21.0l60.0 -19.0" fill-rule="evenodd"/><path stroke="#ffffff" stroke-width="12.0" stroke-linejoin="round" stroke-linecap="butt" d="m340.0 426.5013l95.50131 -21.0l60.0 -19.0" fill-rule="evenodd"/><path fill="#000000" fill-opacity="0.0" d="m636.0 341.5013l40.501343 -18.501312l42.0 -24.498688" fill-rule="evenodd"/><path stroke="#ffffff" stroke-width="12.0" stroke-linejoin="round" stroke-linecap="butt" d="m636.0 341.5013l40.501343 -18.501312l42.0 -24.498688" fill-rule="evenodd"/><path fill="#000000" fill-opacity="0.0" d="m623.0 192.0l-77.49866 26.0l-85.50134 31.0l-68.49869 35.501312l-4.0 9.0l0 13.498688l7.4986877 21.0l9.501312 12.501312l13.498688 2.4986877l35.501312 -5.4986877l70.49869 -20.0l89.0 -29.0l75.0 -27.501312l25.501343 -4.0l24.498657 2.5013123l10.0 2.0l23.501343 -20.0l12.498657 -21.501312l-1.4986572 -23.498688" fill-rule="evenodd"/><path stroke="#ffffff" stroke-width="12.0" stroke-linejoin="round" stroke-linecap="butt" d="m623.0 192.0l-77.49866 26.0l-85.50134 31.0l-68.49869 35.501312l-4.0 9.0l0 13.498688l7.4986877 21.0l9.501312 12.501312l13.498688 2.4986877l35.501312 -5.4986877l70.49869 -20.0l89.0 -29.0l75.0 -27.501312l25.501343 -4.0l24.498657 2.5013123l10.0 2.0l23.501343 -20.0l12.498657 -21.501312l-1.4986572 -23.498688" fill-rule="evenodd"/><path fill="#000000" fill-opacity="0.0" d="m694.50134 259.0l-11.0 -32.0l-15.501343 -29.0l-14.498657 -15.0" fill-rule="evenodd"/><path stroke="#ffffff" stroke-width="12.0" stroke-linejoin="round" stroke-linecap="butt" d="m694.50134 259.0l-11.0 -32.0l-15.501343 -29.0l-14.498657 -15.0" fill-rule="evenodd"/><path fill="#000000" fill-opacity="0.0" d="m619.50134 191.9997l37.008972 -8.999695" fill-rule="evenodd"/><path stroke="#ffffff" stroke-width="12.0" stroke-linejoin="round" stroke-linecap="butt" d="m619.50134 191.9997l37.008972 -8.999695" fill-rule="evenodd"/><path fill="#000000" fill-opacity="0.0" d="m482.5013 372.0l20.498688 -32.0l137.50134 -51.0l54.0 -21.498688l30.0 -8.501312" fill-rule="evenodd"/><path stroke="#ffffff" stroke-width="12.0" stroke-linejoin="round" stroke-linecap="butt" d="m482.5013 372.0l20.498688 -32.0l137.50134 -51.0l54.0 -21.498688l30.0 -8.501312" fill-rule="evenodd"/></g></svg>