<svg version="1.1" viewBox="0.0 0.0 960.0 720.0" fill="none" stroke="none" stroke-linecap="square" stroke-miterlimit="10" xmlns:xlink="http://www.w3.org/1999/xlink" xmlns="http://www.w3.org/2000/svg"><clipPath id="p.0"><path d="m0 0l960.0 0l0 720.0l-960.0 0l0 -720.0z" clip-rule="nonzero"/></clipPath><g clip-path="url(#p.0)"><path fill="#000000" fill-opacity="0.0" d="m0 0l960.0 0l0 720.0l-960.0 0z" fill-rule="evenodd"/><path fill="#000000" fill-opacity="0.0" d="m225.60104 275.19946l-21.601044 -105.59842l36.80052 -15.202087l75.19948 75.20209l14.398956 5.5984344l191.20212 -72.0l110.398926 7.199478l20.0 -4.7979126l35.199463 6.3989563l47.199463 1.6010437l17.601074 9.598434l13.601074 23.199478l-0.8005371 10.401566l-35.199463 42.39894l-11.202148 4.800537l-36.0 36.800537l-0.79785156 8.800507l-26.401611 26.398956l-171.19946 60.0l-24.0 -8.0l-62.398956 21.601044l11.199493 76.0l-20.800537 6.3989563l-28.0 -52.800537l-14.398956 100.80054l-6.401581 19.199463l-49.59842 16.800537l-31.202087 -156.80054l-6.3989563 -9.598419l-2.3989563 -11.202087l-23.202087 8.800507" fill-rule="evenodd"/><path stroke="#ffffff" stroke-width="12.0" stroke-linejoin="round" stroke-linecap="butt" d="m225.60104 275.19946l-21.601044 -105.59842l36.80052 -15.202087l75.19948 75.20209l14.398956 5.5984344l191.20212 -72.0l110.398926 7.199478l20.0 -4.7979126l35.199463 6.3989563l47.199463 1.6010437l17.601074 9.598434l13.601074 23.199478l-0.8005371 10.401566l-35.199463 42.39894l-11.202148 4.800537l-36.0 36.800537l-0.79785156 8.800507l-26.401611 26.398956l-171.19946 60.0l-24.0 -8.0l-62.398956 21.601044l11.199493 76.0l-20.800537 6.3989563l-28.0 -52.800537l-14.398956 100.80054l-6.401581 19.199463l-49.59842 16.800537l-31.202087 -156.80054l-6.3989563 -9.598419l-2.3989563 -11.202087l-23.202087 8.800507" fill-rule="evenodd"/><path fill="#000000" fill-opacity="0.0" d="m228.39896 406.60104l-8.199478 -2.4015808l-6.0 -16.800507l8.199478 -6.3989563l-4.3989563 -20.601044l-14.0 -10.199493l-6.199478 -33.199463l10.199478 -5.199463l-1.8005219 -8.401581l-5.3989563 -2.5984192l-4.800522 -14.601074l30.199478 -11.398926" fill-rule="evenodd"/><path stroke="#ffffff" stroke-width="12.0" stroke-linejoin="round" stroke-linecap="butt" d="m228.39896 406.60104l-8.199478 -2.4015808l-6.0 -16.800507l8.199478 -6.3989563l-4.3989563 -20.601044l-14.0 -10.199493l-6.199478 -33.199463l10.199478 -5.199463l-1.8005219 -8.401581l-5.3989563 -2.5984192l-4.800522 -14.601074l30.199478 -11.398926" fill-rule="evenodd"/><path fill="#000000" fill-opacity="0.0" d="m225.33333 274.66666l87.33333 -31.333328l12.0 2.0l90.0 -31.333328l23.333344 3.3333282l186.0 -46.666656" fill-rule="evenodd"/><path stroke="#ffffff" stroke-width="12.0" stroke-linejoin="round" stroke-linecap="butt" d="m225.33333 274.66666l87.33333 -31.333328l12.0 2.0l90.0 -31.333328l23.333344 3.3333282l186.0 -46.666656" fill-rule="evenodd"/><path fill="#000000" fill-opacity="0.0" d="m222.0 384.66666l120.66666 -44.666656l13.3333435 -16.0l82.66666 -35.333344l28.0 7.3333435l176.66666 -64.66667l15.333374 0.66667175l62.0 -14.0l44.666626 -13.333328" fill-rule="evenodd"/><path stroke="#ffffff" stroke-width="12.0" stroke-linejoin="round" stroke-linecap="butt" d="m222.0 384.66666l120.66666 -44.666656l13.3333435 -16.0l82.66666 -35.333344l28.0 7.3333435l176.66666 -64.66667l15.333374 0.66667175l62.0 -14.0l44.666626 -13.333328" fill-rule="evenodd"/><path fill="#000000" fill-opacity="0.0" d="m730.6667 214.0l20.0 -15.333328l-12.666687 -23.333344" fill-rule="evenodd"/><path stroke="#ffffff" stroke-width="12.0" stroke-linejoin="round" stroke-linecap="butt" d="m730.6667 214.0l20.0 -15.333328l-12.666687 -23.333344" fill-rule="evenodd"/><path fill="#000000" fill-opacity="0.0" d="m360.0 445.33334l6.6666565 -52.666687l21.333344 -50.0l-110.0 36.666687l-6.0 6.0l-30.666672 12.6666565" fill-rule="evenodd"/><path stroke="#ffffff" stroke-width="12.0" stroke-linejoin="round" stroke-linecap="butt" d="m360.0 445.33334l6.6666565 -52.666687l21.333344 -50.0l-110.0 36.666687l-6.0 6.0l-30.666672 12.6666565" fill-rule="evenodd"/><path fill="#000000" fill-opacity="0.0" d="m386.66666 354.66666l16.0 -6.6666565l8.0 1.3333435l236.00003 -115.33334" fill-rule="evenodd"/><path stroke="#ffffff" stroke-width="12.0" stroke-linejoin="round" stroke-linecap="butt" d="m386.66666 354.66666l16.0 -6.6666565l8.0 1.3333435l236.00003 -115.33334" fill-rule="evenodd"/><path fill="#000000" fill-opacity="0.0" d="m362.66666 409.33334l232.00003 -84.0l54.0 -92.000015" fill-rule="evenodd"/><path stroke="#ffffff" stroke-width="12.0" stroke-linejoin="round" stroke-linecap="butt" d="m362.66666 409.33334l232.00003 -84.0l54.0 -92.000015" fill-rule="evenodd"/><path fill="#000000" fill-opacity="0.0" d="m596.0 326.66666l55.33362 9.999603" fill-rule="evenodd"/><path stroke="#ffffff" stroke-width="12.0" stroke-linejoin="round" stroke-linecap="butt" d="m596.0 326.66666l55.33362 9.999603" fill-rule="evenodd"/><path fill="#000000" fill-opacity="0.0" d="m649.3333 231.33333l31.333374 -21.333328l-19.333374 -44.66667" fill-rule="evenodd"/><path stroke="#ffffff" stroke-width="12.0" stroke-linejoin="round" stroke-linecap="butt" d="m649.3333 231.33333l31.333374 -21.333328l-19.333374 -44.66667" fill-rule="evenodd"/><path fill="#000000" fill-opacity="0.0" d="m401.33334 217.33333l27.333313 77.33333" fill-rule="evenodd"/><path stroke="#ffffff" stroke-width="12.0" stroke-linejoin="round" stroke-linecap="butt" d="m401.33334 217.33333l27.333313 77.33333" fill-rule="evenodd"/><path fill="#000000" fill-opacity="0.0" d="m432.0 288.0l114.66669 -38.66667" fill-rule="evenodd"/><path stroke="#ffffff" stroke-width="12.0" stroke-linejoin="round" stroke-linecap="butt" d="m432.0 288.0l114.66669 -38.66667" fill-rule="evenodd"/><path fill="#000000" fill-opacity="0.0" d="m528.6667 206.66667l-116.66669 34.0" fill-rule="evenodd"/><path stroke="#ffffff" stroke-width="12.0" stroke-linejoin="round" stroke-linecap="butt" d="m528.6667 206.66667l-116.66669 34.0" fill-rule="evenodd"/><path fill="#000000" fill-opacity="0.0" d="m217.33333 363.33334l111.33333 -52.0l-8.6666565 -31.333344l-38.666656 10.6666565l-7.3333435 -2.6666565l-68.66667 23.333344" fill-rule="evenodd"/><path stroke="#ffffff" stroke-width="12.0" stroke-linejoin="round" stroke-linecap="butt" d="m217.33333 363.33334l111.33333 -52.0l-8.6666565 -31.333344l-38.666656 10.6666565l-7.3333435 -2.6666565l-68.66667 23.333344" fill-rule="evenodd"/><path fill="#000000" fill-opacity="0.0" d="m276.66666 288.66666l6.666687 28.666687l9.333313 12.6666565" fill-rule="evenodd"/><path stroke="#ffffff" stroke-width="12.0" stroke-linejoin="round" stroke-linecap="butt" d="m276.66666 288.66666l6.666687 28.666687l9.333313 12.6666565" fill-rule="evenodd"/><path fill="#000000" fill-opacity="0.0" d="m442.0 194.0l9.3333435 -42.66667l27.333313 -9.333328l4.666687 36.0" fill-rule="evenodd"/><path stroke="#ffffff" stroke-width="12.0" stroke-linejoin="round" stroke-linecap="butt" d="m442.0 194.0l9.3333435 -42.66667l27.333313 -9.333328l4.666687 36.0" fill-rule="evenodd"/><path fill="#000000" fill-opacity="0.0" d="m494.66666 394.0l82.00003 76.0l35.333313 -12.6666565l-52.666687 -86.66669" fill-rule="evenodd"/><path stroke="#ffffff" stroke-width="12.0" stroke-linejoin="round" stroke-linecap="butt" d="m494.66666 394.0l82.00003 76.0l35.333313 -12.6666565l-52.666687 -86.66669" fill-rule="evenodd"/></g></svg>