<svg version="1.1" viewBox="0.0 0.0 960.0 720.0" fill="none" stroke="none" stroke-linecap="square" stroke-miterlimit="10" xmlns:xlink="http://www.w3.org/1999/xlink" xmlns="http://www.w3.org/2000/svg"><clipPath id="p.0"><path d="m0 0l960.0 0l0 720.0l-960.0 0l0 -720.0z" clip-rule="nonzero"/></clipPath><g clip-path="url(#p.0)"><path fill="#000000" fill-opacity="0.0" d="m0 0l960.0 0l0 720.0l-960.0 0z" fill-rule="evenodd"/><path fill="#000000" fill-opacity="0.0" d="m294.0 266.0l42.0 -81.33333l116.66666 -46.66667l-20.0 40.66667l4.0 49.33333l11.3333435 14.0l65.33331 15.3333435l36.0 -5.3333435l8.0 -4.0l21.333374 2.0l63.333313 -11.333328l71.33331 -2.0l6.666687 9.333328l-54.666687 45.333344l-10.666626 6.6666565l-8.0 3.3333435l-94.0 52.666656l-41.333344 62.0l4.6666565 25.333344l36.0 61.333313l58.666687 34.666656l-143.33334 52.666687l-62.0 -36.666687l-57.333344 -48.666656l-12.0 1.3333435l-13.3333435 -5.3333435l-9.333313 -36.666656l-46.0 -40.0l-2.0 -10.6666565l-23.333344 -16.666687l14.6666565 -24.666656l-2.6666565 -11.3333435l20.0 -43.333313l4.0 -6.666687l-4.0 -8.0l-2.0 -21.333313l6.0 -6.666687l12.0 -2.0z" fill-rule="evenodd"/><path stroke="#ffffff" stroke-width="12.0" stroke-linejoin="round" stroke-linecap="butt" d="m294.0 266.0l42.0 -81.33333l116.66666 -46.66667l-20.0 40.66667l4.0 49.33333l11.3333435 14.0l65.33331 15.3333435l36.0 -5.3333435l8.0 -4.0l21.333374 2.0l63.333313 -11.333328l71.33331 -2.0l6.666687 9.333328l-54.666687 45.333344l-10.666626 6.6666565l-8.0 3.3333435l-94.0 52.666656l-41.333344 62.0l4.6666565 25.333344l36.0 61.333313l58.666687 34.666656l-143.33334 52.666687l-62.0 -36.666687l-57.333344 -48.666656l-12.0 1.3333435l-13.3333435 -5.3333435l-9.333313 -36.666656l-46.0 -40.0l-2.0 -10.6666565l-23.333344 -16.666687l14.6666565 -24.666656l-2.6666565 -11.3333435l20.0 -43.333313l4.0 -6.666687l-4.0 -8.0l-2.0 -21.333313l6.0 -6.666687l12.0 -2.0z" fill-rule="evenodd"/><path fill="#000000" fill-opacity="0.0" d="m312.66666 467.33334l-6.6666565 14.6666565l4.6666565 20.666656l21.333344 2.666687" fill-rule="evenodd"/><path stroke="#ffffff" stroke-width="12.0" stroke-linejoin="round" stroke-linecap="butt" d="m312.66666 467.33334l-6.6666565 14.6666565l4.6666565 20.666656l21.333344 2.666687" fill-rule="evenodd"/><path fill="#000000" fill-opacity="0.0" d="m272.0 281.33334l-8.6666565 12.0l3.333313 18.0l6.666687 7.333313" fill-rule="evenodd"/><path stroke="#ffffff" stroke-width="12.0" stroke-linejoin="round" stroke-linecap="butt" d="m272.0 281.33334l-8.6666565 12.0l3.333313 18.0l6.666687 7.333313" fill-rule="evenodd"/><path fill="#000000" fill-opacity="0.0" d="m355.33334 513.3333l72.0 -26.666656l-12.0 -34.666656l-27.333344 -16.0l-77.33334 26.0" fill-rule="evenodd"/><path stroke="#ffffff" stroke-width="12.0" stroke-linejoin="round" stroke-linecap="butt" d="m355.33334 513.3333l72.0 -26.666656l-12.0 -34.666656l-27.333344 -16.0l-77.33334 26.0" fill-rule="evenodd"/><path fill="#000000" fill-opacity="0.0" d="m274.0 314.0l72.0 -22.666656l12.6666565 -20.666687l-6.0 -23.999985l-54.0 16.666672" fill-rule="evenodd"/><path stroke="#ffffff" stroke-width="12.0" stroke-linejoin="round" stroke-linecap="butt" d="m274.0 314.0l72.0 -22.666656l12.6666565 -20.666687l-6.0 -23.999985l-54.0 16.666672" fill-rule="evenodd"/><path fill="#000000" fill-opacity="0.0" d="m327.33334 501.33334l69.33331 -25.333344l-10.6666565 -38.0" fill-rule="evenodd"/><path stroke="#ffffff" stroke-width="12.0" stroke-linejoin="round" stroke-linecap="butt" d="m327.33334 501.33334l69.33331 -25.333344l-10.6666565 -38.0" fill-rule="evenodd"/><path fill="#000000" fill-opacity="0.0" d="m396.0 475.33334l30.666656 11.333313" fill-rule="evenodd"/><path stroke="#ffffff" stroke-width="12.0" stroke-linejoin="round" stroke-linecap="butt" d="m396.0 475.33334l30.666656 11.333313" fill-rule="evenodd"/><path fill="#000000" fill-opacity="0.0" d="m342.0 291.33334l-9.3333435 -36.66667" fill-rule="evenodd"/><path stroke="#ffffff" stroke-width="12.0" stroke-linejoin="round" stroke-linecap="butt" d="m342.0 291.33334l-9.3333435 -36.66667" fill-rule="evenodd"/><path fill="#000000" fill-opacity="0.0" d="m248.0 392.66666l45.333344 24.0l55.333313 -21.333313l26.666687 -27.333344l22.666656 -0.6666565l60.666656 -18.666687l21.333344 4.0l14.0 -7.333313l2.0 -7.3333435l52.0 -38.666656l79.33331 -4.666687l48.666687 -37.333313l-4.666687 -10.000015l-66.0 -0.6666565l-65.33331 29.333328l-66.66666 4.6666565l-4.0 -6.0l-21.333344 6.0l-14.6666565 14.666687l-32.0 11.333313l-36.666687 17.333344l-34.666656 4.6666565l-54.0 23.333344z" fill-rule="evenodd"/><path stroke="#ffffff" stroke-width="12.0" stroke-linejoin="round" stroke-linecap="butt" d="m248.0 392.66666l45.333344 24.0l55.333313 -21.333313l26.666687 -27.333344l22.666656 -0.6666565l60.666656 -18.666687l21.333344 4.0l14.0 -7.333313l2.0 -7.3333435l52.0 -38.666656l79.33331 -4.666687l48.666687 -37.333313l-4.666687 -10.000015l-66.0 -0.6666565l-65.33331 29.333328l-66.66666 4.6666565l-4.0 -6.0l-21.333344 6.0l-14.6666565 14.666687l-32.0 11.333313l-36.666687 17.333344l-34.666656 4.6666565l-54.0 23.333344z" fill-rule="evenodd"/><path fill="#000000" fill-opacity="0.0" d="m313.33334 336.66666l-23.333344 33.333344l3.3333435 12.0l28.0 11.3333435l42.666656 -17.333344" fill-rule="evenodd"/><path stroke="#ffffff" stroke-width="12.0" stroke-linejoin="round" stroke-linecap="butt" d="m313.33334 336.66666l-23.333344 33.333344l3.3333435 12.0l28.0 11.3333435l42.666656 -17.333344" fill-rule="evenodd"/><path fill="#000000" fill-opacity="0.0" d="m463.33334 348.66666l83.33334 -58.0l-4.0 -14.0" fill-rule="evenodd"/><path stroke="#ffffff" stroke-width="12.0" stroke-linejoin="round" stroke-linecap="butt" d="m463.33334 348.66666l83.33334 -58.0l-4.0 -14.0" fill-rule="evenodd"/><path fill="#000000" fill-opacity="0.0" d="m433.33334 296.66666l107.99997 -21.333313" fill-rule="evenodd"/><path stroke="#ffffff" stroke-width="12.0" stroke-linejoin="round" stroke-linecap="butt" d="m433.33334 296.66666l107.99997 -21.333313" fill-rule="evenodd"/><path fill="#000000" fill-opacity="0.0" d="m601.3333 298.0l12.0 -26.0l-6.666626 -12.0l-23.333374 -2.6666565" fill-rule="evenodd"/><path stroke="#ffffff" stroke-width="12.0" stroke-linejoin="round" stroke-linecap="butt" d="m601.3333 298.0l12.0 -26.0l-6.666626 -12.0l-23.333374 -2.6666565" fill-rule="evenodd"/><path fill="#000000" fill-opacity="0.0" d="m448.66666 139.33333l32.666687 -13.333328" fill-rule="evenodd"/><path stroke="#ffffff" stroke-width="12.0" stroke-linejoin="round" stroke-linecap="butt" d="m448.66666 139.33333l32.666687 -13.333328" fill-rule="evenodd"/><path fill="#000000" fill-opacity="0.0" d="m613.3333 536.0l46.666687 -17.333313" fill-rule="evenodd"/><path stroke="#ffffff" stroke-width="12.0" stroke-linejoin="round" stroke-linecap="butt" d="m613.3333 536.0l46.666687 -17.333313" fill-rule="evenodd"/><path fill="#000000" fill-opacity="0.0" d="m349.33334 291.33334l10.0 6.6666565l60.0 -22.666656l18.666656 -23.333344l-0.6666565 -24.666672" fill-rule="evenodd"/><path stroke="#ffffff" stroke-width="12.0" stroke-linejoin="round" stroke-linecap="butt" d="m349.33334 291.33334l10.0 6.6666565l60.0 -22.666656l18.666656 -23.333344l-0.6666565 -24.666672" fill-rule="evenodd"/><path fill="#000000" fill-opacity="0.0" d="m382.0 436.66666l6.0 -22.0l67.33334 -24.0l61.99997 15.3333435" fill-rule="evenodd"/><path stroke="#ffffff" stroke-width="12.0" stroke-linejoin="round" stroke-linecap="butt" d="m382.0 436.66666l6.0 -22.0l67.33334 -24.0l61.99997 15.3333435" fill-rule="evenodd"/><path fill="#000000" fill-opacity="0.0" d="m598.6667 546.0l-70.66669 -40.0l-68.0 -60.0l8.6666565 -3.3333435l67.33334 28.0" fill-rule="evenodd"/><path stroke="#ffffff" stroke-width="12.0" stroke-linejoin="round" stroke-linecap="butt" d="m598.6667 546.0l-70.66669 -40.0l-68.0 -60.0l8.6666565 -3.3333435l67.33334 28.0" fill-rule="evenodd"/><path fill="#000000" fill-opacity="0.0" d="m434.66666 200.66667l-41.333313 50.666656l20.666656 -65.33333l30.666656 -45.33333" fill-rule="evenodd"/><path stroke="#ffffff" stroke-width="12.0" stroke-linejoin="round" stroke-linecap="butt" d="m434.66666 200.66667l-41.333313 50.666656l20.666656 -65.33333l30.666656 -45.33333" fill-rule="evenodd"/><path fill="#000000" fill-opacity="0.0" d="m411.33334 450.0l22.666656 6.6666565l29.333344 -11.333313" fill-rule="evenodd"/><path stroke="#ffffff" stroke-width="12.0" stroke-linejoin="round" stroke-linecap="butt" d="m411.33334 450.0l22.666656 6.6666565l29.333344 -11.333313" fill-rule="evenodd"/><path fill="#000000" fill-opacity="0.0" d="m360.0 269.99945l10.453339 -16.203339l22.213318 -7.129471" fill-rule="evenodd"/><path stroke="#ffffff" stroke-width="12.0" stroke-linejoin="round" stroke-linecap="butt" d="m360.0 269.99945l10.453339 -16.203339l22.213318 -7.129471" fill-rule="evenodd"/></g></svg>