<svg version="1.1" viewBox="0.0 0.0 960.0 720.0" fill="none" stroke="none" stroke-linecap="square" stroke-miterlimit="10" xmlns:xlink="http://www.w3.org/1999/xlink" xmlns="http://www.w3.org/2000/svg"><clipPath id="p.0"><path d="m0 0l960.0 0l0 720.0l-960.0 0l0 -720.0z" clip-rule="nonzero"/></clipPath><g clip-path="url(#p.0)"><path fill="#000000" fill-opacity="0.0" d="m0 0l960.0 0l0 720.0l-960.0 0z" fill-rule="evenodd"/><path fill="#000000" fill-opacity="0.0" d="m240.66667 274.0l55.999985 -23.333328l29.333344 -22.666672l18.666656 8.0l206.66666 -76.0l38.666687 3.3333282l20.0 -13.333328l83.33331 10.0l10.666687 6.0l26.0 -0.66667175l10.0 7.3333435l23.333313 2.6666565l16.666687 9.3333435l14.666687 25.333328l-1.333374 14.0l-8.0 4.6666718l-3.333313 30.666672l-30.666687 32.0l-18.666626 0.6666565l-56.0 52.0l-8.666687 4.6666565l-11.333313 23.333344l-72.66669 26.666656l-5.333313 -16.666656l-17.333374 4.6666565l-16.666626 18.666687l-28.666687 10.6666565l8.666687 -18.0l-13.3333435 6.6666565l5.9999695 16.0l-98.66666 36.666687" fill-rule="evenodd"/><path stroke="#ffffff" stroke-width="12.0" stroke-linejoin="round" stroke-linecap="butt" d="m240.66667 274.0l55.999985 -23.333328l29.333344 -22.666672l18.666656 8.0l206.66666 -76.0l38.666687 3.3333282l20.0 -13.333328l83.33331 10.0l10.666687 6.0l26.0 -0.66667175l10.0 7.3333435l23.333313 2.6666565l16.666687 9.3333435l14.666687 25.333328l-1.333374 14.0l-8.0 4.6666718l-3.333313 30.666672l-30.666687 32.0l-18.666626 0.6666565l-56.0 52.0l-8.666687 4.6666565l-11.333313 23.333344l-72.66669 26.666656l-5.333313 -16.666656l-17.333374 4.6666565l-16.666626 18.666687l-28.666687 10.6666565l8.666687 -18.0l-13.3333435 6.6666565l5.9999695 16.0l-98.66666 36.666687" fill-rule="evenodd"/><path fill="#000000" fill-opacity="0.0" d="m420.66666 458.66666l-3.333313 -7.333313l-14.666687 9.333313l-14.6666565 -17.333313l-4.6666565 -19.333344l-13.3333435 6.6666565l-20.0 116.00003l-61.333344 23.333313l-6.6666565 -5.333313l-6.0 -135.33334l-16.0 -0.666687l-5.3333282 -18.666656l-20.0 8.0l-11.3333435 -1.3333435l-7.3333282 -24.0l10.666672 -2.0l-4.6666718 -22.0l-19.333328 -7.333313l-2.0 -39.333344l11.333328 -4.6666565l-0.66667175 -8.666687l-8.0 0l-6.0 -18.0l44.66667 -16.666656" fill-rule="evenodd"/><path stroke="#ffffff" stroke-width="12.0" stroke-linejoin="round" stroke-linecap="butt" d="m420.66666 458.66666l-3.333313 -7.333313l-14.666687 9.333313l-14.6666565 -17.333313l-4.6666565 -19.333344l-13.3333435 6.6666565l-20.0 116.00003l-61.333344 23.333313l-6.6666565 -5.333313l-6.0 -135.33334l-16.0 -0.666687l-5.3333282 -18.666656l-20.0 8.0l-11.3333435 -1.3333435l-7.3333282 -24.0l10.666672 -2.0l-4.6666718 -22.0l-19.333328 -7.333313l-2.0 -39.333344l11.333328 -4.6666565l-0.66667175 -8.666687l-8.0 0l-6.0 -18.0l44.66667 -16.666656" fill-rule="evenodd"/><path fill="#000000" fill-opacity="0.0" d="m228.66667 392.66666l119.999985 -45.333313l17.333344 -15.3333435l87.33334 -38.666656l27.333313 9.333313l188.00003 -69.33333l6.0 5.3333435l-57.333374 95.999985l-46.0 48.666687" fill-rule="evenodd"/><path stroke="#ffffff" stroke-width="12.0" stroke-linejoin="round" stroke-linecap="butt" d="m228.66667 392.66666l119.999985 -45.333313l17.333344 -15.3333435l87.33334 -38.666656l27.333313 9.333313l188.00003 -69.33333l6.0 5.3333435l-57.333374 95.999985l-46.0 48.666687" fill-rule="evenodd"/><path fill="#000000" fill-opacity="0.0" d="m203.33333 291.33334l120.66667 -42.66667l18.666656 -9.3333435l82.66669 -22.666656l30.0 6.0l185.33334 -48.0l-5.333374 -7.3333435l-54.666626 -4.6666565" fill-rule="evenodd"/><path stroke="#ffffff" stroke-width="12.0" stroke-linejoin="round" stroke-linecap="butt" d="m203.33333 291.33334l120.66667 -42.66667l18.666656 -9.3333435l82.66669 -22.666656l30.0 6.0l185.33334 -48.0l-5.333374 -7.3333435l-54.666626 -4.6666565" fill-rule="evenodd"/><path fill="#000000" fill-opacity="0.0" d="m666.6667 235.33333l36.666626 -19.333328l61.333374 -2.0l30.666626 -3.3333282" fill-rule="evenodd"/><path stroke="#ffffff" stroke-width="12.0" stroke-linejoin="round" stroke-linecap="butt" d="m666.6667 235.33333l36.666626 -19.333328l61.333374 -2.0l30.666626 -3.3333282" fill-rule="evenodd"/><path fill="#000000" fill-opacity="0.0" d="m638.0 176.66667l36.0 -9.3333435l52.666687 -0.6666565" fill-rule="evenodd"/><path stroke="#ffffff" stroke-width="12.0" stroke-linejoin="round" stroke-linecap="butt" d="m638.0 176.66667l36.0 -9.3333435l52.666687 -0.6666565" fill-rule="evenodd"/><path fill="#000000" fill-opacity="0.0" d="m704.0 216.66667l-22.666687 -49.333344" fill-rule="evenodd"/><path stroke="#ffffff" stroke-width="12.0" stroke-linejoin="round" stroke-linecap="butt" d="m704.0 216.66667l-22.666687 -49.333344" fill-rule="evenodd"/><path fill="#000000" fill-opacity="0.0" d="m751.3333 174.66667l16.666687 25.333328l-1.333313 14.0" fill-rule="evenodd"/><path stroke="#ffffff" stroke-width="12.0" stroke-linejoin="round" stroke-linecap="butt" d="m751.3333 174.66667l16.666687 25.333328l-1.333313 14.0" fill-rule="evenodd"/><path fill="#000000" fill-opacity="0.0" d="m703.3333 211.33333l64.0 -12.0l25.333374 3.3333435" fill-rule="evenodd"/><path stroke="#ffffff" stroke-width="12.0" stroke-linejoin="round" stroke-linecap="butt" d="m703.3333 211.33333l64.0 -12.0l25.333374 3.3333435" fill-rule="evenodd"/><path fill="#000000" fill-opacity="0.0" d="m784.0 230.0l-28.666687 36.666656l-22.0 4.666687l-26.0 23.333313l-4.0 25.333344" fill-rule="evenodd"/><path stroke="#ffffff" stroke-width="12.0" stroke-linejoin="round" stroke-linecap="butt" d="m784.0 230.0l-28.666687 36.666656l-22.0 4.666687l-26.0 23.333313l-4.0 25.333344" fill-rule="evenodd"/><path fill="#000000" fill-opacity="0.0" d="m647.3333 287.33334l31.333374 -4.666687l30.666626 -53.33333l-6.666626 -14.0" fill-rule="evenodd"/><path stroke="#ffffff" stroke-width="12.0" stroke-linejoin="round" stroke-linecap="butt" d="m647.3333 287.33334l31.333374 -4.666687l30.666626 -53.33333l-6.666626 -14.0" fill-rule="evenodd"/><path fill="#000000" fill-opacity="0.0" d="m716.0 310.0l4.0 32.666656l24.0 -10.0l7.333313 -41.333313" fill-rule="evenodd"/><path stroke="#ffffff" stroke-width="12.0" stroke-linejoin="round" stroke-linecap="butt" d="m716.0 310.0l4.0 32.666656l24.0 -10.0l7.333313 -41.333313" fill-rule="evenodd"/><path fill="#000000" fill-opacity="0.0" d="m374.0 450.0l22.666656 80.0l-6.0 11.333313l4.666687 16.666687l76.66666 -25.333313l107.33331 -150.66669" fill-rule="evenodd"/><path stroke="#ffffff" stroke-width="12.0" stroke-linejoin="round" stroke-linecap="butt" d="m374.0 450.0l22.666656 80.0l-6.0 11.333313l4.666687 16.666687l76.66666 -25.333313l107.33331 -150.66669" fill-rule="evenodd"/><path fill="#000000" fill-opacity="0.0" d="m435.33334 202.0l-70.66669 -14.0l-66.66666 24.0l22.0 20.0" fill-rule="evenodd"/><path stroke="#ffffff" stroke-width="12.0" stroke-linejoin="round" stroke-linecap="butt" d="m435.33334 202.0l-70.66669 -14.0l-66.66666 24.0l22.0 20.0" fill-rule="evenodd"/><path fill="#000000" fill-opacity="0.0" d="m300.0 213.33333l-44.66667 -40.0l-48.666656 16.666672l37.33333 84.66666" fill-rule="evenodd"/><path stroke="#ffffff" stroke-width="12.0" stroke-linejoin="round" stroke-linecap="butt" d="m300.0 213.33333l-44.66667 -40.0l-48.666656 16.666672l37.33333 84.66666" fill-rule="evenodd"/><path fill="#000000" fill-opacity="0.0" d="m268.66666 426.0l46.666687 -18.0l66.0 0l19.333313 -50.0l19.333344 -1.3333435l252.0 -118.66666" fill-rule="evenodd"/><path stroke="#ffffff" stroke-width="12.0" stroke-linejoin="round" stroke-linecap="butt" d="m268.66666 426.0l46.666687 -18.0l66.0 0l19.333313 -50.0l19.333344 -1.3333435l252.0 -118.66666" fill-rule="evenodd"/><path fill="#000000" fill-opacity="0.0" d="m256.0 408.66666l132.0 -52.0l17.333344 0" fill-rule="evenodd"/><path stroke="#ffffff" stroke-width="12.0" stroke-linejoin="round" stroke-linecap="butt" d="m256.0 408.66666l132.0 -52.0l17.333344 0" fill-rule="evenodd"/><path fill="#000000" fill-opacity="0.0" d="m385.33334 423.33334l16.0 -10.0l6.6666565 8.0l65.33334 -24.666687l28.666656 7.3333435l22.0 -7.3333435l12.0 -38.0l84.66669 -30.666656" fill-rule="evenodd"/><path stroke="#ffffff" stroke-width="12.0" stroke-linejoin="round" stroke-linecap="butt" d="m385.33334 423.33334l16.0 -10.0l6.6666565 8.0l65.33334 -24.666687l28.666656 7.3333435l22.0 -7.3333435l12.0 -38.0l84.66669 -30.666656" fill-rule="evenodd"/><path fill="#000000" fill-opacity="0.0" d="m402.0 414.66666l134.0 -54.0" fill-rule="evenodd"/><path stroke="#ffffff" stroke-width="12.0" stroke-linejoin="round" stroke-linecap="butt" d="m402.0 414.66666l134.0 -54.0" fill-rule="evenodd"/><path fill="#000000" fill-opacity="0.0" d="m430.0 218.0l23.333344 76.0" fill-rule="evenodd"/><path stroke="#ffffff" stroke-width="12.0" stroke-linejoin="round" stroke-linecap="butt" d="m430.0 218.0l23.333344 76.0" fill-rule="evenodd"/><path fill="#000000" fill-opacity="0.0" d="m410.66666 222.66667l24.666687 84.66667" fill-rule="evenodd"/><path stroke="#ffffff" stroke-width="12.0" stroke-linejoin="round" stroke-linecap="butt" d="m410.66666 222.66667l24.666687 84.66667" fill-rule="evenodd"/><path fill="#000000" fill-opacity="0.0" d="m434.66666 244.0l112.00003 -35.33333" fill-rule="evenodd"/><path stroke="#ffffff" stroke-width="12.0" stroke-linejoin="round" stroke-linecap="butt" d="m434.66666 244.0l112.00003 -35.33333" fill-rule="evenodd"/><path fill="#000000" fill-opacity="0.0" d="m454.0 290.0l112.66669 -36.0" fill-rule="evenodd"/><path stroke="#ffffff" stroke-width="12.0" stroke-linejoin="round" stroke-linecap="butt" d="m454.0 290.0l112.66669 -36.0" fill-rule="evenodd"/><path fill="#000000" fill-opacity="0.0" d="m225.33333 370.66666l116.000015 -49.333313l-11.3333435 -37.333344l-43.333344 10.0l-75.999985 23.333344" fill-rule="evenodd"/><path stroke="#ffffff" stroke-width="12.0" stroke-linejoin="round" stroke-linecap="butt" d="m225.33333 370.66666l116.000015 -49.333313l-11.3333435 -37.333344l-43.333344 10.0l-75.999985 23.333344" fill-rule="evenodd"/><path fill="#000000" fill-opacity="0.0" d="m284.0 294.66666l4.6666565 29.333344l12.0 14.0" fill-rule="evenodd"/><path stroke="#ffffff" stroke-width="12.0" stroke-linejoin="round" stroke-linecap="butt" d="m284.0 294.66666l4.6666565 29.333344l12.0 14.0" fill-rule="evenodd"/><path fill="#000000" fill-opacity="0.0" d="m377.33334 462.66666l-6.666687 -24.666656" fill-rule="evenodd"/><path stroke="#ffffff" stroke-width="12.0" stroke-linejoin="round" stroke-linecap="butt" d="m377.33334 462.66666l-6.666687 -24.666656" fill-rule="evenodd"/><path fill="#000000" fill-opacity="0.0" d="m673.3333 346.0l-55.333313 -9.3333435" fill-rule="evenodd"/><path stroke="#ffffff" stroke-width="12.0" stroke-linejoin="round" stroke-linecap="butt" d="m673.3333 346.0l-55.333313 -9.3333435" fill-rule="evenodd"/><path fill="#000000" fill-opacity="0.0" d="m461.33334 191.33333l-36.0 -18.666656l25.333313 -10.0l78.00003 5.3333282" fill-rule="evenodd"/><path stroke="#ffffff" stroke-width="12.0" stroke-linejoin="round" stroke-linecap="butt" d="m461.33334 191.33333l-36.0 -18.666656l25.333313 -10.0l78.00003 5.3333282" fill-rule="evenodd"/><path fill="#000000" fill-opacity="0.0" d="m198.66667 308.66666l-22.0 8.0l-10.0 11.3333435l2.6666565 16.0l12.666672 -0.6666565l6.0 9.333313l-6.6666718 8.0l30.0 6.0" fill-rule="evenodd"/><path stroke="#ffffff" stroke-width="12.0" stroke-linejoin="round" stroke-linecap="butt" d="m198.66667 308.66666l-22.0 8.0l-10.0 11.3333435l2.6666565 16.0l12.666672 -0.6666565l6.0 9.333313l-6.6666718 8.0l30.0 6.0" fill-rule="evenodd"/><path fill="#000000" fill-opacity="0.0" d="m215.33333 397.33334l-22.666656 5.333313l-12.666672 15.3333435l4.0 17.333344l10.666672 -2.666687l5.3333282 9.3333435l-2.6666718 6.6666565l32.66667 4.0l12.666672 -3.333313l-10.0 -30.0" fill-rule="evenodd"/><path stroke="#ffffff" stroke-width="12.0" stroke-linejoin="round" stroke-linecap="butt" d="m215.33333 397.33334l-22.666656 5.333313l-12.666672 15.3333435l4.0 17.333344l10.666672 -2.666687l5.3333282 9.3333435l-2.6666718 6.6666565l32.66667 4.0l12.666672 -3.333313l-10.0 -30.0" fill-rule="evenodd"/><path fill="#000000" fill-opacity="0.0" d="m242.0 447.33334l23.101868 9.333313l12.230408 -7.0" fill-rule="evenodd"/><path stroke="#ffffff" stroke-width="12.0" stroke-linejoin="round" stroke-linecap="butt" d="m242.0 447.33334l23.101868 9.333313l12.230408 -7.0" fill-rule="evenodd"/><path fill="#000000" fill-opacity="0.0" d="m390.66666 444.0l94.66669 -32.666656l30.666656 10.0" fill-rule="evenodd"/><path stroke="#ffffff" stroke-width="12.0" stroke-linejoin="round" stroke-linecap="butt" d="m390.66666 444.0l94.66669 -32.666656l30.666656 10.0" fill-rule="evenodd"/><path fill="#000000" fill-opacity="0.0" d="m202.66667 354.0l116.66667 -41.333344l-3.3333435 -24.0" fill-rule="evenodd"/><path stroke="#ffffff" stroke-width="12.0" stroke-linejoin="round" stroke-linecap="butt" d="m202.66667 354.0l116.66667 -41.333344l-3.3333435 -24.0" fill-rule="evenodd"/><path fill="#000000" fill-opacity="0.0" d="m320.0 316.0l18.666656 5.3333435" fill-rule="evenodd"/><path stroke="#ffffff" stroke-width="12.0" stroke-linejoin="round" stroke-linecap="butt" d="m320.0 316.0l18.666656 5.3333435" fill-rule="evenodd"/><path fill="#000000" fill-opacity="0.0" d="m370.0 435.33334l3.3333435 -28.0" fill-rule="evenodd"/><path stroke="#ffffff" stroke-width="12.0" stroke-linejoin="round" stroke-linecap="butt" d="m370.0 435.33334l3.3333435 -28.0" fill-rule="evenodd"/></g></svg>