<svg version="1.1" viewBox="0.0 0.0 960.0 720.0" fill="none" stroke="none" stroke-linecap="square" stroke-miterlimit="10" xmlns:xlink="http://www.w3.org/1999/xlink" xmlns="http://www.w3.org/2000/svg"><clipPath id="p.0"><path d="m0 0l960.0 0l0 720.0l-960.0 0l0 -720.0z" clip-rule="nonzero"/></clipPath><g clip-path="url(#p.0)"><path fill="#000000" fill-opacity="0.0" d="m0 0l960.0 0l0 720.0l-960.0 0z" fill-rule="evenodd"/><path fill="#000000" fill-opacity="0.0" d="m176.17061 260.4252l91.913376 -57.446198l213.51181 -75.637794l91.916046 -12.448822l127.33856 9.574806l22.020996 38.29921l14.362183 -0.9580078l13.404236 11.48819l26.80835 -5.7427826l20.107666 39.254593l-0.9580078 12.4461975l-23.937012 23.937012l7.661377 10.532806l26.80841 63.191605l-179.04462 161.80838l-244.14697 92.87143l-135.0 11.488159l-12.448822 -3.8294067l-21.062988 -114.892365l6.703415 -12.4461975l35.425186 -15.320221l2.871399 -10.532806l-16.275589 -15.317596l-9.574814 -41.170593l-37.3412 -16.278198z" fill-rule="evenodd"/><path stroke="#ffffff" stroke-width="12.0" stroke-linejoin="round" stroke-linecap="butt" d="m176.17061 260.4252l91.913376 -57.446198l213.51181 -75.637794l91.916046 -12.448822l127.33856 9.574806l22.020996 38.29921l14.362183 -0.9580078l13.404236 11.48819l26.80835 -5.7427826l20.107666 39.254593l-0.9580078 12.4461975l-23.937012 23.937012l7.661377 10.532806l26.80841 63.191605l-179.04462 161.80838l-244.14697 92.87143l-135.0 11.488159l-12.448822 -3.8294067l-21.062988 -114.892365l6.703415 -12.4461975l35.425186 -15.320221l2.871399 -10.532806l-16.275589 -15.317596l-9.574814 -41.170593l-37.3412 -16.278198z" fill-rule="evenodd"/><path fill="#000000" fill-opacity="0.0" d="m178.08398 261.3832l-20.10498 3.8293762l16.275589 90.95801l25.853012 14.362213l33.509186 -0.9580078" fill-rule="evenodd"/><path stroke="#ffffff" stroke-width="12.0" stroke-linejoin="round" stroke-linecap="butt" d="m178.08398 261.3832l-20.10498 3.8293762l16.275589 90.95801l25.853012 14.362213l33.509186 -0.9580078" fill-rule="evenodd"/><path fill="#000000" fill-opacity="0.0" d="m214.4672 465.32022l-22.020996 4.787384l19.149597 121.595825l40.2126 -8.619446" fill-rule="evenodd"/><path stroke="#ffffff" stroke-width="12.0" stroke-linejoin="round" stroke-linecap="butt" d="m214.4672 465.32022l-22.020996 4.787384l19.149597 121.595825l40.2126 -8.619446" fill-rule="evenodd"/><path fill="#000000" fill-opacity="0.0" d="m299.67978 194.3622l-7.658783 -28.724396l45.0 -20.104996l7.658783 -15.320206l29.682434 -7.658798l22.979004 12.4461975l69.892365 -25.850395l9.574829 19.14698" fill-rule="evenodd"/><path stroke="#ffffff" stroke-width="12.0" stroke-linejoin="round" stroke-linecap="butt" d="m299.67978 194.3622l-7.658783 -28.724396l45.0 -20.104996l7.658783 -15.320206l29.682434 -7.658798l22.979004 12.4461975l69.892365 -25.850395l9.574829 19.14698" fill-rule="evenodd"/><path fill="#000000" fill-opacity="0.0" d="m397.34122 568.7244l16.275574 42.125977l48.829407 -16.275574l3.8294067 12.446167l21.065613 1.9160156l51.700775 -20.107605l10.532837 -23.937012l84.25458 -30.637817l0 -15.317566l-14.362244 -35.4252" fill-rule="evenodd"/><path stroke="#ffffff" stroke-width="12.0" stroke-linejoin="round" stroke-linecap="butt" d="m397.34122 568.7244l16.275574 42.125977l48.829407 -16.275574l3.8294067 12.446167l21.065613 1.9160156l51.700775 -20.107605l10.532837 -23.937012l84.25458 -30.637817l0 -15.317566l-14.362244 -35.4252" fill-rule="evenodd"/><path fill="#000000" fill-opacity="0.0" d="m259.4672 427.021l91.916016 -35.4252l9.574799 -22.020996l-15.320221 -62.23358l-17.233582 -7.661438l-90.95801 40.212616l-7.658798 25.852997" fill-rule="evenodd"/><path stroke="#ffffff" stroke-width="12.0" stroke-linejoin="round" stroke-linecap="butt" d="m259.4672 427.021l91.916016 -35.4252l9.574799 -22.020996l-15.320221 -62.23358l-17.233582 -7.661438l-90.95801 40.212616l-7.658798 25.852997" fill-rule="evenodd"/><path fill="#000000" fill-opacity="0.0" d="m360.958 369.5748l21.062988 10.532806l16.275604 -6.7033997l5.745392 -9.574799l96.7034 -35.4252l39.25461 -17.233612l114.892395 -45.0l85.21521 -1.9159851l11.48822 -4.7874146l12.446167 -22.020996l14.362183 -3.8294067" fill-rule="evenodd"/><path stroke="#ffffff" stroke-width="12.0" stroke-linejoin="round" stroke-linecap="butt" d="m360.958 369.5748l21.062988 10.532806l16.275604 -6.7033997l5.745392 -9.574799l96.7034 -35.4252l39.25461 -17.233612l114.892395 -45.0l85.21521 -1.9159851l11.48822 -4.7874146l12.446167 -22.020996l14.362183 -3.8294067" fill-rule="evenodd"/><path fill="#000000" fill-opacity="0.0" d="m343.7244 303.5118l14.359589 -20.107605l102.44882 -38.2966l18.19159 2.871399l26.80841 -12.4461975l10.530182 4.7873993l157.979 -65.107605l52.661438 -12.4461975" fill-rule="evenodd"/><path stroke="#ffffff" stroke-width="12.0" stroke-linejoin="round" stroke-linecap="butt" d="m343.7244 303.5118l14.359589 -20.107605l102.44882 -38.2966l18.19159 2.871399l26.80841 -12.4461975l10.530182 4.7873993l157.979 -65.107605l52.661438 -12.4461975" fill-rule="evenodd"/><path fill="#000000" fill-opacity="0.0" d="m486.3832 336.063l13.404205 -23.934387l224.04199 -84.25722l46.916016 -10.530182l-20.107605 -45.957993" fill-rule="evenodd"/><path stroke="#ffffff" stroke-width="12.0" stroke-linejoin="round" stroke-linecap="butt" d="m486.3832 336.063l13.404205 -23.934387l224.04199 -84.25722l46.916016 -10.530182l-20.107605 -45.957993" fill-rule="evenodd"/><path fill="#000000" fill-opacity="0.0" d="m770.7454 218.29659l0.9580078 19.149612" fill-rule="evenodd"/><path stroke="#ffffff" stroke-width="12.0" stroke-linejoin="round" stroke-linecap="butt" d="m770.7454 218.29659l0.9580078 19.149612" fill-rule="evenodd"/><path fill="#000000" fill-opacity="0.0" d="m179.04199 280.5328l112.020996 -56.490814l300.64044 -106.27559" fill-rule="evenodd"/><path stroke="#ffffff" stroke-width="12.0" stroke-linejoin="round" stroke-linecap="butt" d="m179.04199 280.5328l112.020996 -56.490814l300.64044 -106.27559" fill-rule="evenodd"/><path fill="#000000" fill-opacity="0.0" d="m236.48819 549.5748l165.64041 -76.595825l293.9344 -105.32022l104.36218 -67.020996" fill-rule="evenodd"/><path stroke="#ffffff" stroke-width="12.0" stroke-linejoin="round" stroke-linecap="butt" d="m236.48819 549.5748l165.64041 -76.595825l293.9344 -105.32022l104.36218 -67.020996" fill-rule="evenodd"/><path fill="#000000" fill-opacity="0.0" d="m706.5977 410.73984l-12.638184 -43.742523l-40.025146 -96.997314" fill-rule="evenodd"/><path stroke="#ffffff" stroke-width="12.0" stroke-linejoin="round" stroke-linecap="butt" d="m706.5977 410.73984l-12.638184 -43.742523l-40.025146 -96.997314" fill-rule="evenodd"/><path fill="#000000" fill-opacity="0.0" d="m620.4252 200.1076l-38.29657 -79.46981" fill-rule="evenodd"/><path stroke="#ffffff" stroke-width="12.0" stroke-linejoin="round" stroke-linecap="butt" d="m620.4252 200.1076l-38.29657 -79.46981" fill-rule="evenodd"/><path fill="#000000" fill-opacity="0.0" d="m365.7454 572.55383l-29.682404 -67.979034l-22.979004 -94.787384" fill-rule="evenodd"/><path stroke="#ffffff" stroke-width="12.0" stroke-linejoin="round" stroke-linecap="butt" d="m365.7454 572.55383l-29.682404 -67.979034l-22.979004 -94.787384" fill-rule="evenodd"/><path fill="#000000" fill-opacity="0.0" d="m289.1496 321.7034l-20.107605 -84.2572l-2.871399 -34.467194" fill-rule="evenodd"/><path stroke="#ffffff" stroke-width="12.0" stroke-linejoin="round" stroke-linecap="butt" d="m289.1496 321.7034l-20.107605 -84.2572l-2.871399 -34.467194" fill-rule="evenodd"/></g></svg>