<svg version="1.1" viewBox="0.0 0.0 960.0 720.0" fill="none" stroke="none" stroke-linecap="square" stroke-miterlimit="10" xmlns:xlink="http://www.w3.org/1999/xlink" xmlns="http://www.w3.org/2000/svg"><clipPath id="p.0"><path d="m0 0l960.0 0l0 720.0l-960.0 0l0 -720.0z" clip-rule="nonzero"/></clipPath><g clip-path="url(#p.0)"><path fill="#000000" fill-opacity="0.0" d="m0 0l960.0 0l0 720.0l-960.0 0z" fill-rule="evenodd"/><path fill="#000000" fill-opacity="0.0" d="m278.0 316.0l36.0 -84.0l12.0 -47.33333l13.3333435 -18.0l34.666656 -9.3333435l82.0 13.3333435l20.0 8.0l186.0 18.0l33.333313 30.0l-44.0 17.333328l-37.333313 20.666656l34.0 -6.0l30.0 0.666687l10.0 18.0l28.0 -8.0l8.0 8.6666565l2.666687 40.0l-11.333374 11.3333435l-6.666626 1.333313l-124.0 149.33334l-6.0 23.333344l-60.666687 86.66666l-43.333344 18.666687l-38.0 -19.333374l-36.0 -40.666626l-83.33331 -62.00003l-0.666687 -6.6666565l-12.6666565 4.6666565l-26.666656 -12.6666565l-7.3333435 -33.333344l18.0 -22.666656l30.666656 -11.3333435l0.666687 -6.6666565l25.333313 -10.0l-3.333313 -15.3333435l-18.0 8.0l-10.0 -5.333313" fill-rule="evenodd"/><path stroke="#ffffff" stroke-width="12.0" stroke-linejoin="round" stroke-linecap="butt" d="m278.0 316.0l36.0 -84.0l12.0 -47.33333l13.3333435 -18.0l34.666656 -9.3333435l82.0 13.3333435l20.0 8.0l186.0 18.0l33.333313 30.0l-44.0 17.333328l-37.333313 20.666656l34.0 -6.0l30.0 0.666687l10.0 18.0l28.0 -8.0l8.0 8.6666565l2.666687 40.0l-11.333374 11.3333435l-6.666626 1.333313l-124.0 149.33334l-6.0 23.333344l-60.666687 86.66666l-43.333344 18.666687l-38.0 -19.333374l-36.0 -40.666626l-83.33331 -62.00003l-0.666687 -6.6666565l-12.6666565 4.6666565l-26.666656 -12.6666565l-7.3333435 -33.333344l18.0 -22.666656l30.666656 -11.3333435l0.666687 -6.6666565l25.333313 -10.0l-3.333313 -15.3333435l-18.0 8.0l-10.0 -5.333313" fill-rule="evenodd"/><path fill="#000000" fill-opacity="0.0" d="m314.66666 376.66666l-6.0 -6.0l-28.0 9.3333435l-25.333328 -12.0l-4.0 -30.0l26.000015 -22.666656" fill-rule="evenodd"/><path stroke="#ffffff" stroke-width="12.0" stroke-linejoin="round" stroke-linecap="butt" d="m314.66666 376.66666l-6.0 -6.0l-28.0 9.3333435l-25.333328 -12.0l-4.0 -30.0l26.000015 -22.666656" fill-rule="evenodd"/><path fill="#000000" fill-opacity="0.0" d="m290.0 288.66666l-38.0 13.3333435l-18.666672 34.666656l9.3333435 45.333344l23.999985 8.6666565l18.666687 -10.6666565" fill-rule="evenodd"/><path stroke="#ffffff" stroke-width="12.0" stroke-linejoin="round" stroke-linecap="butt" d="m290.0 288.66666l-38.0 13.3333435l-18.666672 34.666656l9.3333435 45.333344l23.999985 8.6666565l18.666687 -10.6666565" fill-rule="evenodd"/><path fill="#000000" fill-opacity="0.0" d="m274.66666 324.0l-41.999985 12.0" fill-rule="evenodd"/><path stroke="#ffffff" stroke-width="12.0" stroke-linejoin="round" stroke-linecap="butt" d="m274.66666 324.0l-41.999985 12.0" fill-rule="evenodd"/><path fill="#000000" fill-opacity="0.0" d="m288.0 416.0l-32.66667 24.666656l7.3333282 42.0l41.333344 4.0" fill-rule="evenodd"/><path stroke="#ffffff" stroke-width="12.0" stroke-linejoin="round" stroke-linecap="butt" d="m288.0 416.0l-32.66667 24.666656l7.3333282 42.0l41.333344 4.0" fill-rule="evenodd"/><path fill="#000000" fill-opacity="0.0" d="m314.66666 488.0l-44.0 19.333344l30.666687 30.666656l13.333313 0.666687l57.333344 -12.0" fill-rule="evenodd"/><path stroke="#ffffff" stroke-width="12.0" stroke-linejoin="round" stroke-linecap="butt" d="m314.66666 488.0l-44.0 19.333344l30.666687 30.666656l13.333313 0.666687l57.333344 -12.0" fill-rule="evenodd"/><path fill="#000000" fill-opacity="0.0" d="m277.33334 316.0l146.66666 -53.333344l32.666656 7.3333435l23.333344 26.0l1.3333435 12.6666565l-47.333344 14.666687l13.3333435 38.666656l50.0 -14.0l6.6666565 14.0l-2.6666565 40.0l-39.333344 28.0l-28.0 15.3333435l-121.33334 38.0" fill-rule="evenodd"/><path stroke="#ffffff" stroke-width="12.0" stroke-linejoin="round" stroke-linecap="butt" d="m277.33334 316.0l146.66666 -53.333344l32.666656 7.3333435l23.333344 26.0l1.3333435 12.6666565l-47.333344 14.666687l13.3333435 38.666656l50.0 -14.0l6.6666565 14.0l-2.6666565 40.0l-39.333344 28.0l-28.0 15.3333435l-121.33334 38.0" fill-rule="evenodd"/><path fill="#000000" fill-opacity="0.0" d="m338.0 476.66666l-7.3333435 -16.666656l14.0 -7.3333435l-10.0 -42.0l-18.666656 -4.0" fill-rule="evenodd"/><path stroke="#ffffff" stroke-width="12.0" stroke-linejoin="round" stroke-linecap="butt" d="m338.0 476.66666l-7.3333435 -16.666656l14.0 -7.3333435l-10.0 -42.0l-18.666656 -4.0" fill-rule="evenodd"/><path fill="#000000" fill-opacity="0.0" d="m303.33334 370.66666l17.333313 -24.0l-7.333313 -31.333313l-18.666687 -4.666687" fill-rule="evenodd"/><path stroke="#ffffff" stroke-width="12.0" stroke-linejoin="round" stroke-linecap="butt" d="m303.33334 370.66666l17.333313 -24.0l-7.333313 -31.333313l-18.666687 -4.666687" fill-rule="evenodd"/><path fill="#000000" fill-opacity="0.0" d="m402.66666 272.0l16.666687 51.333344l16.666656 -2.0" fill-rule="evenodd"/><path stroke="#ffffff" stroke-width="12.0" stroke-linejoin="round" stroke-linecap="butt" d="m402.66666 272.0l16.666687 51.333344l16.666656 -2.0" fill-rule="evenodd"/><path fill="#000000" fill-opacity="0.0" d="m450.0 362.0l-17.333344 6.0l17.333344 55.333344l10.6666565 8.6666565" fill-rule="evenodd"/><path stroke="#ffffff" stroke-width="12.0" stroke-linejoin="round" stroke-linecap="butt" d="m450.0 362.0l-17.333344 6.0l17.333344 55.333344l10.6666565 8.6666565" fill-rule="evenodd"/><path fill="#000000" fill-opacity="0.0" d="m450.0 364.66666l15.3333435 46.0l17.333313 3.3333435" fill-rule="evenodd"/><path stroke="#ffffff" stroke-width="12.0" stroke-linejoin="round" stroke-linecap="butt" d="m450.0 364.66666l15.3333435 46.0l17.333313 3.3333435" fill-rule="evenodd"/><path fill="#000000" fill-opacity="0.0" d="m418.0 268.66666l14.6666565 44.0l45.333344 -7.333313" fill-rule="evenodd"/><path stroke="#ffffff" stroke-width="12.0" stroke-linejoin="round" stroke-linecap="butt" d="m418.0 268.66666l14.6666565 44.0l45.333344 -7.333313" fill-rule="evenodd"/><path fill="#000000" fill-opacity="0.0" d="m394.66666 546.0l-60.666656 -67.33334" fill-rule="evenodd"/><path stroke="#ffffff" stroke-width="12.0" stroke-linejoin="round" stroke-linecap="butt" d="m394.66666 546.0l-60.666656 -67.33334" fill-rule="evenodd"/><path fill="#000000" fill-opacity="0.0" d="m294.66666 312.0l15.3333435 -68.0" fill-rule="evenodd"/><path stroke="#ffffff" stroke-width="12.0" stroke-linejoin="round" stroke-linecap="butt" d="m294.66666 312.0l15.3333435 -68.0" fill-rule="evenodd"/><path fill="#000000" fill-opacity="0.0" d="m463.33334 277.33334l57.333344 -20.0l7.333313 8.6666565l65.33331 -23.333328l23.333374 2.6666565l6.666626 14.666672l-88.666626 28.0l-23.333344 18.0l10.6666565 27.333344l17.333313 1.333313l79.333374 -31.333313l9.333313 2.0l64.0 -26.666687" fill-rule="evenodd"/><path stroke="#ffffff" stroke-width="12.0" stroke-linejoin="round" stroke-linecap="butt" d="m463.33334 277.33334l57.333344 -20.0l7.333313 8.6666565l65.33331 -23.333328l23.333374 2.6666565l6.666626 14.666672l-88.666626 28.0l-23.333344 18.0l10.6666565 27.333344l17.333313 1.333313l79.333374 -31.333313l9.333313 2.0l64.0 -26.666687" fill-rule="evenodd"/><path fill="#000000" fill-opacity="0.0" d="m611.3333 270.66666l10.0 18.0l9.333374 -3.333313l7.333313 1.333313l46.666687 -7.333313" fill-rule="evenodd"/><path stroke="#ffffff" stroke-width="12.0" stroke-linejoin="round" stroke-linecap="butt" d="m611.3333 270.66666l10.0 18.0l9.333374 -3.333313l7.333313 1.333313l46.666687 -7.333313" fill-rule="evenodd"/><path fill="#000000" fill-opacity="0.0" d="m660.6667 259.33334l12.666626 24.0" fill-rule="evenodd"/><path stroke="#ffffff" stroke-width="12.0" stroke-linejoin="round" stroke-linecap="butt" d="m660.6667 259.33334l12.666626 24.0" fill-rule="evenodd"/><path fill="#000000" fill-opacity="0.0" d="m506.0 386.0l60.0 -23.333344l0.666687 -14.6666565l63.333313 -23.333344l14.0 -14.6666565l-2.666687 -8.6666565" fill-rule="evenodd"/><path stroke="#ffffff" stroke-width="12.0" stroke-linejoin="round" stroke-linecap="butt" d="m506.0 386.0l60.0 -23.333344l0.666687 -14.6666565l63.333313 -23.333344l14.0 -14.6666565l-2.666687 -8.6666565" fill-rule="evenodd"/><path fill="#000000" fill-opacity="0.0" d="m492.66666 348.0l34.00003 -12.0" fill-rule="evenodd"/><path stroke="#ffffff" stroke-width="12.0" stroke-linejoin="round" stroke-linecap="butt" d="m492.66666 348.0l34.00003 -12.0" fill-rule="evenodd"/><path fill="#000000" fill-opacity="0.0" d="m528.6667 292.0l-48.666687 16.0" fill-rule="evenodd"/><path stroke="#ffffff" stroke-width="12.0" stroke-linejoin="round" stroke-linecap="butt" d="m528.6667 292.0l-48.666687 16.0" fill-rule="evenodd"/><path fill="#000000" fill-opacity="0.0" d="m339.33334 370.66666l18.666656 -8.0l-4.0 -6.6666565l43.333344 -16.666656l5.333313 5.333313l36.0 -15.333313" fill-rule="evenodd"/><path stroke="#ffffff" stroke-width="12.0" stroke-linejoin="round" stroke-linecap="butt" d="m339.33334 370.66666l18.666656 -8.0l-4.0 -6.6666565l43.333344 -16.666656l5.333313 5.333313l36.0 -15.333313" fill-rule="evenodd"/><path fill="#000000" fill-opacity="0.0" d="m444.0 357.33334l-37.333344 10.0l0 8.6666565l-44.0 14.6666565l-4.6666565 -5.333313l-13.3333435 3.333313" fill-rule="evenodd"/><path stroke="#ffffff" stroke-width="12.0" stroke-linejoin="round" stroke-linecap="butt" d="m444.0 357.33334l-37.333344 10.0l0 8.6666565l-44.0 14.6666565l-4.6666565 -5.333313l-13.3333435 3.333313" fill-rule="evenodd"/><path fill="#000000" fill-opacity="0.0" d="m303.33334 307.33334l22.0 -84.000015l20.666656 -8.6666565l166.0 10.6666565l41.333313 -19.333328l130.66669 22.666672" fill-rule="evenodd"/><path stroke="#ffffff" stroke-width="12.0" stroke-linejoin="round" stroke-linecap="butt" d="m303.33334 307.33334l22.0 -84.000015l20.666656 -8.6666565l166.0 10.6666565l41.333313 -19.333328l130.66669 22.666672" fill-rule="evenodd"/><path fill="#000000" fill-opacity="0.0" d="m702.6667 276.66666l-73.333374 108.0l-46.0 11.3333435l-139.33331 148.0l-26.666656 7.333313l-70.66669 -76.66666" fill-rule="evenodd"/><path stroke="#ffffff" stroke-width="12.0" stroke-linejoin="round" stroke-linecap="butt" d="m702.6667 276.66666l-73.333374 108.0l-46.0 11.3333435l-139.33331 148.0l-26.666656 7.333313l-70.66669 -76.66666" fill-rule="evenodd"/><path fill="#000000" fill-opacity="0.0" d="m366.66666 159.33333l152.66666 -49.33333" fill-rule="evenodd"/><path stroke="#ffffff" stroke-width="12.0" stroke-linejoin="round" stroke-linecap="butt" d="m366.66666 159.33333l152.66666 -49.33333" fill-rule="evenodd"/><path fill="#000000" fill-opacity="0.0" d="m513.3333 592.6667l180.66669 -68.0" fill-rule="evenodd"/><path stroke="#ffffff" stroke-width="12.0" stroke-linejoin="round" stroke-linecap="butt" d="m513.3333 592.6667l180.66669 -68.0" fill-rule="evenodd"/></g></svg>