<svg version="1.1" viewBox="0.0 0.0 960.0 720.0" fill="none" stroke="none" stroke-linecap="square" stroke-miterlimit="10" xmlns:xlink="http://www.w3.org/1999/xlink" xmlns="http://www.w3.org/2000/svg"><clipPath id="p.0"><path d="m0 0l960.0 0l0 720.0l-960.0 0l0 -720.0z" clip-rule="nonzero"/></clipPath><g clip-path="url(#p.0)"><path fill="#000000" fill-opacity="0.0" d="m0 0l960.0 0l0 720.0l-960.0 0z" fill-rule="evenodd"/><path fill="#000000" fill-opacity="0.0" d="m313.5013 207.50131l-35.501312 -34.0l4.0 -8.501312l33.501312 -29.0l20.0 -3.4986877l44.0 4.4986877l53.498688 11.0l7.5013123 9.501312l42.0 6.0l33.498688 -5.0l13.0 -15.0l30.0 -11.501312l11.0 0l30.501343 -12.498688l31.0 -8.0l14.498657 -1.5013123l14.501343 3.0l4.498657 4.5013123l-2.4986572 5.4986877l8.0 5.5013123l6.0 -0.50131226l5.498657 9.0l-1.0 9.501312l-13.498657 20.0l-25.501343 37.0l-2.0 12.0l-25.0 30.0l-12.498657 9.0l-3.5013428 28.498688l6.501343 52.0l17.0 17.501312l11.498657 30.0l46.0 171.00003l0.5013428 11.0l-53.0 45.498657l-9.0 -1.0l-80.50134 -120.0l-1.4986572 -9.0l-18.0 8.0l-31.00003 25.0l-10.501312 -0.49865723l-14.498688 -18.501343l1.0 -8.498688l31.0 -32.0l12.0 -18.501312l0.49868774 -13.498688l-33.498688 7.4986877l-18.0 1.5013123l-7.5013123 -5.5013123l-2.4986877 -10.0l5.0 -11.0l10.498688 -14.498688l-21.498688 10.0l-19.501312 15.0l-9.498688 2.0l-11.0 -5.5013123l-6.5013123 -12.498688l-1.0 -14.501312l-5.4986877 -2.0l-33.0 28.501312l-9.0 -2.0l-10.501312 -5.5013123l-15.498688 -17.0l-2.0 -10.0l2.4986877 -10.498688l31.0 -22.0l-5.4986877 -7.5013123l0 -10.498688l12.498688 -10.501312l7.5013123 -16.0l12.498688 -11.0l-2.4986877 -18.0l-26.501312 11.501312l-11.498688 -1.0l-3.5013123 -5.5013123l0.50131226 -11.0l3.4986877 -12.498688l-27.0 25.498688l-8.0 -3.4986877l-13.0 -12.501312l-1.0 -8.0l13.0 -12.498688l12.501312 -14.501312l-6.0 -10.0z" fill-rule="evenodd"/><path stroke="#ffffff" stroke-width="12.0" stroke-linejoin="round" stroke-linecap="butt" d="m313.5013 207.50131l-35.501312 -34.0l4.0 -8.501312l33.501312 -29.0l20.0 -3.4986877l44.0 4.4986877l53.498688 11.0l7.5013123 9.501312l42.0 6.0l33.498688 -5.0l13.0 -15.0l30.0 -11.501312l11.0 0l30.501343 -12.498688l31.0 -8.0l14.498657 -1.5013123l14.501343 3.0l4.498657 4.5013123l-2.4986572 5.4986877l8.0 5.5013123l6.0 -0.50131226l5.498657 9.0l-1.0 9.501312l-13.498657 20.0l-25.501343 37.0l-2.0 12.0l-25.0 30.0l-12.498657 9.0l-3.5013428 28.498688l6.501343 52.0l17.0 17.501312l11.498657 30.0l46.0 171.00003l0.5013428 11.0l-53.0 45.498657l-9.0 -1.0l-80.50134 -120.0l-1.4986572 -9.0l-18.0 8.0l-31.00003 25.0l-10.501312 -0.49865723l-14.498688 -18.501343l1.0 -8.498688l31.0 -32.0l12.0 -18.501312l0.49868774 -13.498688l-33.498688 7.4986877l-18.0 1.5013123l-7.5013123 -5.5013123l-2.4986877 -10.0l5.0 -11.0l10.498688 -14.498688l-21.498688 10.0l-19.501312 15.0l-9.498688 2.0l-11.0 -5.5013123l-6.5013123 -12.498688l-1.0 -14.501312l-5.4986877 -2.0l-33.0 28.501312l-9.0 -2.0l-10.501312 -5.5013123l-15.498688 -17.0l-2.0 -10.0l2.4986877 -10.498688l31.0 -22.0l-5.4986877 -7.5013123l0 -10.498688l12.498688 -10.501312l7.5013123 -16.0l12.498688 -11.0l-2.4986877 -18.0l-26.501312 11.501312l-11.498688 -1.0l-3.5013123 -5.5013123l0.50131226 -11.0l3.4986877 -12.498688l-27.0 25.498688l-8.0 -3.4986877l-13.0 -12.501312l-1.0 -8.0l13.0 -12.498688l12.501312 -14.501312l-6.0 -10.0z" fill-rule="evenodd"/><path fill="#000000" fill-opacity="0.0" d="m507.0 423.5013l49.0 -42.0l48.0 -7.5013123l5.501343 3.0l9.0 22.0l-29.0 42.0l-35.501343 31.0l-18.498657 9.0" fill-rule="evenodd"/><path stroke="#ffffff" stroke-width="12.0" stroke-linejoin="round" stroke-linecap="butt" d="m507.0 423.5013l49.0 -42.0l48.0 -7.5013123l5.501343 3.0l9.0 22.0l-29.0 42.0l-35.501343 31.0l-18.498657 9.0" fill-rule="evenodd"/><path fill="#000000" fill-opacity="0.0" d="m460.0 390.5013l48.0 -60.0l50.501343 -45.0l44.498657 -29.501312" fill-rule="evenodd"/><path stroke="#ffffff" stroke-width="12.0" stroke-linejoin="round" stroke-linecap="butt" d="m460.0 390.5013l48.0 -60.0l50.501343 -45.0l44.498657 -29.501312" fill-rule="evenodd"/><path fill="#000000" fill-opacity="0.0" d="m375.0 271.0l29.0 -23.0l43.501312 -36.498688l35.498688 -28.501312l25.501312 -23.0" fill-rule="evenodd"/><path stroke="#ffffff" stroke-width="12.0" stroke-linejoin="round" stroke-linecap="butt" d="m375.0 271.0l29.0 -23.0l43.501312 -36.498688l35.498688 -28.501312l25.501312 -23.0" fill-rule="evenodd"/><path fill="#000000" fill-opacity="0.0" d="m312.0 225.9963l36.264587 0l42.3909 -37.2442l16.344025 -32.211197l-8.171997 -6.0395966l-30.132935 13.590424l-56.69458 45.79898" fill-rule="evenodd"/><path stroke="#ffffff" stroke-width="12.0" stroke-linejoin="round" stroke-linecap="butt" d="m312.0 225.9963l36.264587 0l42.3909 -37.2442l16.344025 -32.211197l-8.171997 -6.0395966l-30.132935 13.590424l-56.69458 45.79898" fill-rule="evenodd"/><path fill="#000000" fill-opacity="0.0" d="m338.5013 248.0l8.0 -10.498688l-0.50131226 -11.0" fill-rule="evenodd"/><path stroke="#ffffff" stroke-width="12.0" stroke-linejoin="round" stroke-linecap="butt" d="m338.5013 248.0l8.0 -10.498688l-0.50131226 -11.0" fill-rule="evenodd"/><path fill="#000000" fill-opacity="0.0" d="m385.0 384.0l23.0 -21.0l10.501312 -22.0l5.0 -28.0l-13.501312 -14.498688l-15.498688 7.4986877l-11.0 13.501312l-14.0 6.0l-23.0 18.0" fill-rule="evenodd"/><path stroke="#ffffff" stroke-width="12.0" stroke-linejoin="round" stroke-linecap="butt" d="m385.0 384.0l23.0 -21.0l10.501312 -22.0l5.0 -28.0l-13.501312 -14.498688l-15.498688 7.4986877l-11.0 13.501312l-14.0 6.0l-23.0 18.0" fill-rule="evenodd"/><path fill="#000000" fill-opacity="0.0" d="m380.5013 289.5013l7.0 11.0l17.498688 -0.50131226" fill-rule="evenodd"/><path stroke="#ffffff" stroke-width="12.0" stroke-linejoin="round" stroke-linecap="butt" d="m380.5013 289.5013l7.0 11.0l17.498688 -0.50131226" fill-rule="evenodd"/><path fill="#000000" fill-opacity="0.0" d="m413.5013 360.5013l17.498688 -15.0l32.501312 39.498688" fill-rule="evenodd"/><path stroke="#ffffff" stroke-width="12.0" stroke-linejoin="round" stroke-linecap="butt" d="m413.5013 360.5013l17.498688 -15.0l32.501312 39.498688" fill-rule="evenodd"/><path fill="#000000" fill-opacity="0.0" d="m419.0 349.5013l168.0 -142.0l-43.0 20.0l-13.0 -13.501312l21.0 -32.0l-21.0 8.501312l-36.0 41.0l-47.498688 23.0l-51.0 43.498688" fill-rule="evenodd"/><path stroke="#ffffff" stroke-width="12.0" stroke-linejoin="round" stroke-linecap="butt" d="m419.0 349.5013l168.0 -142.0l-43.0 20.0l-13.0 -13.501312l21.0 -32.0l-21.0 8.501312l-36.0 41.0l-47.498688 23.0l-51.0 43.498688" fill-rule="evenodd"/><path fill="#000000" fill-opacity="0.0" d="m562.0 196.50131l25.0 -37.501312l36.0 -28.498688l16.0 -5.5013123l15.501343 2.5013123l3.0 17.0l-28.0 23.498688l-13.0 10.0l-50.501343 22.501312z" fill-rule="evenodd"/><path stroke="#ffffff" stroke-width="12.0" stroke-linejoin="round" stroke-linecap="butt" d="m562.0 196.50131l25.0 -37.501312l36.0 -28.498688l16.0 -5.5013123l15.501343 2.5013123l3.0 17.0l-28.0 23.498688l-13.0 10.0l-50.501343 22.501312z" fill-rule="evenodd"/><path fill="#000000" fill-opacity="0.0" d="m614.50134 177.50131l-8.501343 -13.501312l-16.0 -6.4986877" fill-rule="evenodd"/><path stroke="#ffffff" stroke-width="12.0" stroke-linejoin="round" stroke-linecap="butt" d="m614.50134 177.50131l-8.501343 -13.501312l-16.0 -6.4986877" fill-rule="evenodd"/><path fill="#000000" fill-opacity="0.0" d="m519.50134 487.0l-26.00003 -30.0" fill-rule="evenodd"/><path stroke="#ffffff" stroke-width="12.0" stroke-linejoin="round" stroke-linecap="butt" d="m519.50134 487.0l-26.00003 -30.0" fill-rule="evenodd"/><path fill="#000000" fill-opacity="0.0" d="m425.5013 315.0l42.498688 -36.0l46.0 -32.498688l60.0 -30.501312" fill-rule="evenodd"/><path stroke="#ffffff" stroke-width="12.0" stroke-linejoin="round" stroke-linecap="butt" d="m425.5013 315.0l42.498688 -36.0l46.0 -32.498688l60.0 -30.501312" fill-rule="evenodd"/><path fill="#000000" fill-opacity="0.0" d="m443.0 395.0l-28.0 -38.0" fill-rule="evenodd"/><path stroke="#ffffff" stroke-width="12.0" stroke-linejoin="round" stroke-linecap="butt" d="m443.0 395.0l-28.0 -38.0" fill-rule="evenodd"/><path fill="#000000" fill-opacity="0.0" d="m386.0 321.0l-18.498688 -23.0" fill-rule="evenodd"/><path stroke="#ffffff" stroke-width="12.0" stroke-linejoin="round" stroke-linecap="butt" d="m386.0 321.0l-18.498688 -23.0" fill-rule="evenodd"/><path fill="#000000" fill-opacity="0.0" d="m332.0 255.50131l-22.0 -22.501312" fill-rule="evenodd"/><path stroke="#ffffff" stroke-width="12.0" stroke-linejoin="round" stroke-linecap="butt" d="m332.0 255.50131l-22.0 -22.501312" fill-rule="evenodd"/><path fill="#000000" fill-opacity="0.0" d="m487.5013 465.5013l23.498688 25.0" fill-rule="evenodd"/><path stroke="#ffffff" stroke-width="12.0" stroke-linejoin="round" stroke-linecap="butt" d="m487.5013 465.5013l23.498688 25.0" fill-rule="evenodd"/><path fill="#000000" fill-opacity="0.0" d="m556.0 471.5013l82.50134 127.00003" fill-rule="evenodd"/><path stroke="#ffffff" stroke-width="12.0" stroke-linejoin="round" stroke-linecap="butt" d="m556.0 471.5013l82.50134 127.00003" fill-rule="evenodd"/><path fill="#000000" fill-opacity="0.0" d="m329.0 197.50131l-40.498688 -35.501312" fill-rule="evenodd"/><path stroke="#ffffff" stroke-width="12.0" stroke-linejoin="round" stroke-linecap="butt" d="m329.0 197.50131l-40.498688 -35.501312" fill-rule="evenodd"/></g></svg>