<svg version="1.1" viewBox="0.0 0.0 960.0 720.0" fill="none" stroke="none" stroke-linecap="square" stroke-miterlimit="10" xmlns:xlink="http://www.w3.org/1999/xlink" xmlns="http://www.w3.org/2000/svg"><clipPath id="p.0"><path d="m0 0l960.0 0l0 720.0l-960.0 0l0 -720.0z" clip-rule="nonzero"/></clipPath><g clip-path="url(#p.0)"><path fill="#000000" fill-opacity="0.0" d="m0 0l960.0 0l0 720.0l-960.0 0z" fill-rule="evenodd"/><path fill="#000000" fill-opacity="0.0" d="m261.33334 350.66666l22.0 -38.666656l41.333313 -126.0l14.666687 -20.666672l30.666656 -10.0l32.666656 3.3333435l48.0 10.0l22.0 8.6666565l167.33334 16.666672l17.333313 0.66667175l14.666687 6.0l24.0 23.333328l0.666687 9.333328l-27.333374 8.666672l-23.333313 14.0l31.333313 2.6666565l5.333374 13.3333435l9.333313 0l5.333313 6.6666565l20.666687 -8.0l8.0 5.3333435l2.666687 41.333344l-139.33337 159.33331l-13.333313 28.666687l-37.333313 54.666656l-23.333374 32.666687l-28.666656 13.333313l-15.333313 3.333313l-30.0 -14.666626l-44.666687 -44.0l-73.33331 -72.00003l-40.666687 -32.666656z" fill-rule="evenodd"/><path stroke="#ffffff" stroke-width="12.0" stroke-linejoin="round" stroke-linecap="butt" d="m261.33334 350.66666l22.0 -38.666656l41.333313 -126.0l14.666687 -20.666672l30.666656 -10.0l32.666656 3.3333435l48.0 10.0l22.0 8.6666565l167.33334 16.666672l17.333313 0.66667175l14.666687 6.0l24.0 23.333328l0.666687 9.333328l-27.333374 8.666672l-23.333313 14.0l31.333313 2.6666565l5.333374 13.3333435l9.333313 0l5.333313 6.6666565l20.666687 -8.0l8.0 5.3333435l2.666687 41.333344l-139.33337 159.33331l-13.333313 28.666687l-37.333313 54.666656l-23.333374 32.666687l-28.666656 13.333313l-15.333313 3.333313l-30.0 -14.666626l-44.666687 -44.0l-73.33331 -72.00003l-40.666687 -32.666656z" fill-rule="evenodd"/><path fill="#000000" fill-opacity="0.0" d="m266.76532 340.66666l-9.431976 5.3333435l24.523193 124.0l6.2879944 4.0l24.523193 -3.3333435" fill-rule="evenodd"/><path stroke="#ffffff" stroke-width="12.0" stroke-linejoin="round" stroke-linecap="butt" d="m266.76532 340.66666l-9.431976 5.3333435l24.523193 124.0l6.2879944 4.0l24.523193 -3.3333435" fill-rule="evenodd"/><path fill="#000000" fill-opacity="0.0" d="m278.0 324.66666l-44.0 12.0l16.0 -34.0l38.666656 -16.666656" fill-rule="evenodd"/><path stroke="#ffffff" stroke-width="12.0" stroke-linejoin="round" stroke-linecap="butt" d="m278.0 324.66666l-44.0 12.0l16.0 -34.0l38.666656 -16.666656" fill-rule="evenodd"/><path fill="#000000" fill-opacity="0.0" d="m332.0 481.33334l-60.666656 22.666656l28.666656 32.666687l11.3333435 3.333313l61.333313 -14.0" fill-rule="evenodd"/><path stroke="#ffffff" stroke-width="12.0" stroke-linejoin="round" stroke-linecap="butt" d="m332.0 481.33334l-60.666656 22.666656l28.666656 32.666687l11.3333435 3.333313l61.333313 -14.0" fill-rule="evenodd"/><path fill="#000000" fill-opacity="0.0" d="m259.33334 352.66666l124.0 -25.333313l16.0 50.666656l-115.33334 60.666656" fill-rule="evenodd"/><path stroke="#ffffff" stroke-width="12.0" stroke-linejoin="round" stroke-linecap="butt" d="m259.33334 352.66666l124.0 -25.333313l16.0 50.666656l-115.33334 60.666656" fill-rule="evenodd"/><path fill="#000000" fill-opacity="0.0" d="m283.33334 441.33334l164.0 -38.666687l69.33334 -24.666656l-10.666687 -32.0l190.0 -68.0" fill-rule="evenodd"/><path stroke="#ffffff" stroke-width="12.0" stroke-linejoin="round" stroke-linecap="butt" d="m283.33334 441.33334l164.0 -38.666687l69.33334 -24.666656l-10.666687 -32.0l190.0 -68.0" fill-rule="evenodd"/><path fill="#000000" fill-opacity="0.0" d="m655.3333 290.0l15.333374 -13.3333435l-8.0 -18.666656" fill-rule="evenodd"/><path stroke="#ffffff" stroke-width="12.0" stroke-linejoin="round" stroke-linecap="butt" d="m655.3333 290.0l15.333374 -13.3333435l-8.0 -18.666656" fill-rule="evenodd"/><path fill="#000000" fill-opacity="0.0" d="m275.33334 350.66666l66.0 -34.666656l136.0 -43.333344l10.6666565 27.333344l114.0 -40.0l5.333313 9.3333435l42.0 -11.3333435" fill-rule="evenodd"/><path stroke="#ffffff" stroke-width="12.0" stroke-linejoin="round" stroke-linecap="butt" d="m275.33334 350.66666l66.0 -34.666656l136.0 -43.333344l10.6666565 27.333344l114.0 -40.0l5.333313 9.3333435l42.0 -11.3333435" fill-rule="evenodd"/><path fill="#000000" fill-opacity="0.0" d="m599.3333 260.0l49.333374 -17.333328l34.0 -7.3333435" fill-rule="evenodd"/><path stroke="#ffffff" stroke-width="12.0" stroke-linejoin="round" stroke-linecap="butt" d="m599.3333 260.0l49.333374 -17.333328l34.0 -7.3333435" fill-rule="evenodd"/><path fill="#000000" fill-opacity="0.0" d="m338.66666 318.66666l-2.6666565 -12.6666565l202.0 -95.33333l130.0 12.6666565l10.666687 12.666672" fill-rule="evenodd"/><path stroke="#ffffff" stroke-width="12.0" stroke-linejoin="round" stroke-linecap="butt" d="m338.66666 318.66666l-2.6666565 -12.6666565l202.0 -95.33333l130.0 12.6666565l10.666687 12.666672" fill-rule="evenodd"/><path fill="#000000" fill-opacity="0.0" d="m370.0 422.0l4.0 13.3333435l243.33331 -44.0l85.333374 -104.0l-2.666687 -9.3333435" fill-rule="evenodd"/><path stroke="#ffffff" stroke-width="12.0" stroke-linejoin="round" stroke-linecap="butt" d="m370.0 422.0l4.0 13.3333435l243.33331 -44.0l85.333374 -104.0l-2.666687 -9.3333435" fill-rule="evenodd"/><path fill="#000000" fill-opacity="0.0" d="m454.66666 421.33334l28.0 142.66666l22.666687 -10.0l34.666656 3.333313" fill-rule="evenodd"/><path stroke="#ffffff" stroke-width="12.0" stroke-linejoin="round" stroke-linecap="butt" d="m454.66666 421.33334l28.0 142.66666l22.666687 -10.0l34.666656 3.333313" fill-rule="evenodd"/><path fill="#000000" fill-opacity="0.0" d="m431.33334 585.3333l19.333313 -24.0l-3.333313 -11.333313l26.0 -30.666687" fill-rule="evenodd"/><path stroke="#ffffff" stroke-width="12.0" stroke-linejoin="round" stroke-linecap="butt" d="m431.33334 585.3333l19.333313 -24.0l-3.333313 -11.333313l26.0 -30.666687" fill-rule="evenodd"/><path fill="#000000" fill-opacity="0.0" d="m410.66666 274.66666l-44.0 -89.999985l19.333344 -7.3333435l13.3333435 -18.0" fill-rule="evenodd"/><path stroke="#ffffff" stroke-width="12.0" stroke-linejoin="round" stroke-linecap="butt" d="m410.66666 274.66666l-44.0 -89.999985l19.333344 -7.3333435l13.3333435 -18.0" fill-rule="evenodd"/><path fill="#000000" fill-opacity="0.0" d="m379.9996 211.33333l-30.288055 -4.0l-4.4324036 -11.333328l-19.9458 -1.3333282" fill-rule="evenodd"/><path stroke="#ffffff" stroke-width="12.0" stroke-linejoin="round" stroke-linecap="butt" d="m379.9996 211.33333l-30.288055 -4.0l-4.4324036 -11.333328l-19.9458 -1.3333282" fill-rule="evenodd"/><path fill="#000000" fill-opacity="0.0" d="m384.0 156.0l133.33331 -46.0" fill-rule="evenodd"/><path stroke="#ffffff" stroke-width="12.0" stroke-linejoin="round" stroke-linecap="butt" d="m384.0 156.0l133.33331 -46.0" fill-rule="evenodd"/><path fill="#000000" fill-opacity="0.0" d="m516.0 593.3333l176.66669 -74.0" fill-rule="evenodd"/><path stroke="#ffffff" stroke-width="12.0" stroke-linejoin="round" stroke-linecap="butt" d="m516.0 593.3333l176.66669 -74.0" fill-rule="evenodd"/><path fill="#000000" fill-opacity="0.0" d="m607.3333 268.66666l8.666687 21.507751l1.333313 13.8263855" fill-rule="evenodd"/><path stroke="#ffffff" stroke-width="12.0" stroke-linejoin="round" stroke-linecap="butt" d="m607.3333 268.66666l8.666687 21.507751l1.333313 13.8263855" fill-rule="evenodd"/><path fill="#000000" fill-opacity="0.0" d="m356.66666 403.33334l150.66669 -54.666687" fill-rule="evenodd"/><path stroke="#ffffff" stroke-width="12.0" stroke-linejoin="round" stroke-linecap="butt" d="m356.66666 403.33334l150.66669 -54.666687" fill-rule="evenodd"/><path fill="#000000" fill-opacity="0.0" d="m491.33334 302.0l-156.0 30.0" fill-rule="evenodd"/><path stroke="#ffffff" stroke-width="12.0" stroke-linejoin="round" stroke-linecap="butt" d="m491.33334 302.0l-156.0 30.0" fill-rule="evenodd"/><path fill="#000000" fill-opacity="0.0" d="m444.0 312.66666l12.0 42.0l11.3333435 6.666687" fill-rule="evenodd"/><path stroke="#ffffff" stroke-width="12.0" stroke-linejoin="round" stroke-linecap="butt" d="m444.0 312.66666l12.0 42.0l11.3333435 6.666687" fill-rule="evenodd"/></g></svg>