<svg version="1.1" viewBox="0.0 0.0 960.0 720.0" fill="none" stroke="none" stroke-linecap="square" stroke-miterlimit="10" xmlns:xlink="http://www.w3.org/1999/xlink" xmlns="http://www.w3.org/2000/svg"><clipPath id="p.0"><path d="m0 0l960.0 0l0 720.0l-960.0 0l0 -720.0z" clip-rule="nonzero"/></clipPath><g clip-path="url(#p.0)"><path fill="#000000" fill-opacity="0.0" d="m0 0l960.0 0l0 720.0l-960.0 0z" fill-rule="evenodd"/><path fill="#000000" fill-opacity="0.0" d="m280.0 146.0l20.666656 135.33334l-6.0 5.333313l19.333344 67.33334l7.3333435 10.6666565l82.66666 230.00003l16.0 -0.666687l52.666656 -34.0l207.33334 -189.33334l-23.333313 -59.333313l0 -14.666687l-16.0 -31.333313l-6.666687 -4.0l-27.333313 -51.333344l1.333313 -10.0l-12.0 -25.333328l-7.333313 -6.6666718l-24.666687 -38.0l-219.33334 -0.66667175l-57.333313 10.0z" fill-rule="evenodd"/><path stroke="#ffffff" stroke-width="12.0" stroke-linejoin="round" stroke-linecap="butt" d="m280.0 146.0l20.666656 135.33334l-6.0 5.333313l19.333344 67.33334l7.3333435 10.6666565l82.66666 230.00003l16.0 -0.666687l52.666656 -34.0l207.33334 -189.33334l-23.333313 -59.333313l0 -14.666687l-16.0 -31.333313l-6.666687 -4.0l-27.333313 -51.333344l1.333313 -10.0l-12.0 -25.333328l-7.333313 -6.6666718l-24.666687 -38.0l-219.33334 -0.66667175l-57.333313 10.0z" fill-rule="evenodd"/><path fill="#000000" fill-opacity="0.0" d="m338.66666 401.33334l170.66669 -72.66669l167.33334 41.333344" fill-rule="evenodd"/><path stroke="#ffffff" stroke-width="12.0" stroke-linejoin="round" stroke-linecap="butt" d="m338.66666 401.33334l170.66669 -72.66669l167.33334 41.333344" fill-rule="evenodd"/><path fill="#000000" fill-opacity="0.0" d="m563.3333 131.33333l-104.66666 75.33334l-164.0 44.0" fill-rule="evenodd"/><path stroke="#ffffff" stroke-width="12.0" stroke-linejoin="round" stroke-linecap="butt" d="m563.3333 131.33333l-104.66666 75.33334l-164.0 44.0" fill-rule="evenodd"/><path fill="#000000" fill-opacity="0.0" d="m299.33334 280.0l105.33331 -24.0l44.0 -18.0l24.0 -4.6666718l15.3333435 3.3333435l13.3333435 7.3333282l11.3333435 24.666656l-2.666687 14.666687l-6.6666565 8.0l-8.0 5.333313l-21.333344 6.666687l-7.3333435 -4.666687l-49.333313 16.666687l-30.666687 12.6666565l-12.0 9.3333435l-54.0 25.333313" fill-rule="evenodd"/><path stroke="#ffffff" stroke-width="12.0" stroke-linejoin="round" stroke-linecap="butt" d="m299.33334 280.0l105.33331 -24.0l44.0 -18.0l24.0 -4.6666718l15.3333435 3.3333435l13.3333435 7.3333282l11.3333435 24.666656l-2.666687 14.666687l-6.6666565 8.0l-8.0 5.333313l-21.333344 6.666687l-7.3333435 -4.666687l-49.333313 16.666687l-30.666687 12.6666565l-12.0 9.3333435l-54.0 25.333313" fill-rule="evenodd"/><path fill="#000000" fill-opacity="0.0" d="m315.33334 352.66666l53.333313 -27.333313l10.0 -16.0l101.33334 -42.666687l-1.3333435 -11.999985l-6.6666565 -6.6666718l-33.333344 10.0l-70.0 16.666656l-19.333313 -4.6666565" fill-rule="evenodd"/><path stroke="#ffffff" stroke-width="12.0" stroke-linejoin="round" stroke-linecap="butt" d="m315.33334 352.66666l53.333313 -27.333313l10.0 -16.0l101.33334 -42.666687l-1.3333435 -11.999985l-6.6666565 -6.6666718l-33.333344 10.0l-70.0 16.666656l-19.333313 -4.6666565" fill-rule="evenodd"/><path fill="#000000" fill-opacity="0.0" d="m424.66666 313.33334l-3.333313 -16.666687l-14.0 -28.666656" fill-rule="evenodd"/><path stroke="#ffffff" stroke-width="12.0" stroke-linejoin="round" stroke-linecap="butt" d="m424.66666 313.33334l-3.333313 -16.666687l-14.0 -28.666656" fill-rule="evenodd"/><path fill="#000000" fill-opacity="0.0" d="m398.66666 378.0l-2.6666565 88.66666l20.0 45.333344l17.333344 2.666687l170.66666 -139.33334l-2.0 -9.3333435l-99.33334 -33.333344" fill-rule="evenodd"/><path stroke="#ffffff" stroke-width="12.0" stroke-linejoin="round" stroke-linecap="butt" d="m398.66666 378.0l-2.6666565 88.66666l20.0 45.333344l17.333344 2.666687l170.66666 -139.33334l-2.0 -9.3333435l-99.33334 -33.333344" fill-rule="evenodd"/><path fill="#000000" fill-opacity="0.0" d="m352.66666 231.33333l-36.666656 -42.0l0 -24.0l11.3333435 -7.3333282l176.66666 -9.333328" fill-rule="evenodd"/><path stroke="#ffffff" stroke-width="12.0" stroke-linejoin="round" stroke-linecap="butt" d="m352.66666 231.33333l-36.666656 -42.0l0 -24.0l11.3333435 -7.3333282l176.66666 -9.333328" fill-rule="evenodd"/><path fill="#000000" fill-opacity="0.0" d="m452.66666 209.33333l54.666687 -56.0l-6.666687 -5.3333282" fill-rule="evenodd"/><path stroke="#ffffff" stroke-width="12.0" stroke-linejoin="round" stroke-linecap="butt" d="m452.66666 209.33333l54.666687 -56.0l-6.666687 -5.3333282" fill-rule="evenodd"/><path fill="#000000" fill-opacity="0.0" d="m486.0 197.33333l11.3333435 27.333344l65.33334 -14.0l-12.666687 -25.333344z" fill-rule="evenodd"/><path stroke="#ffffff" stroke-width="12.0" stroke-linejoin="round" stroke-linecap="butt" d="m486.0 197.33333l11.3333435 27.333344l65.33334 -14.0l-12.666687 -25.333344z" fill-rule="evenodd"/><path fill="#000000" fill-opacity="0.0" d="m526.6667 292.0l12.666626 31.333344l66.0 -18.0l-12.666626 -30.0z" fill-rule="evenodd"/><path stroke="#ffffff" stroke-width="12.0" stroke-linejoin="round" stroke-linecap="butt" d="m526.6667 292.0l12.666626 31.333344l66.0 -18.0l-12.666626 -30.0z" fill-rule="evenodd"/></g></svg>