<svg version="1.1" viewBox="0.0 0.0 960.0 720.0" fill="none" stroke="none" stroke-linecap="square" stroke-miterlimit="10" xmlns:xlink="http://www.w3.org/1999/xlink" xmlns="http://www.w3.org/2000/svg"><clipPath id="p.0"><path d="m0 0l960.0 0l0 720.0l-960.0 0l0 -720.0z" clip-rule="nonzero"/></clipPath><g clip-path="url(#p.0)"><path fill="#000000" fill-opacity="0.0" d="m0 0l960.0 0l0 720.0l-960.0 0z" fill-rule="evenodd"/><path fill="#000000" fill-opacity="0.0" d="m235.0 264.5013l14.0 -8.501312l35.0 -12.0l31.501312 29.0l36.498688 137.50131l-9.498688 55.0l-59.501312 20.498688l8.501312 -60.498688l-30.0 -126.50131z" fill-rule="evenodd"/><path stroke="#ffffff" stroke-width="12.0" stroke-linejoin="round" stroke-linecap="butt" d="m235.0 264.5013l14.0 -8.501312l35.0 -12.0l31.501312 29.0l36.498688 137.50131l-9.498688 55.0l-59.501312 20.498688l8.501312 -60.498688l-30.0 -126.50131z" fill-rule="evenodd"/><path fill="#000000" fill-opacity="0.0" d="m238.0 267.0l-9.0 0.50131226l-8.0 -8.0l6.0 -13.501312l56.0 -12.0l5.0 3.5013123l-3.0 8.0" fill-rule="evenodd"/><path stroke="#ffffff" stroke-width="12.0" stroke-linejoin="round" stroke-linecap="butt" d="m238.0 267.0l-9.0 0.50131226l-8.0 -8.0l6.0 -13.501312l56.0 -12.0l5.0 3.5013123l-3.0 8.0" fill-rule="evenodd"/><path fill="#000000" fill-opacity="0.0" d="m284.0 483.5013l-13.0 12.498688l14.0 0l42.501312 -17.0l15.0 -14.498688" fill-rule="evenodd"/><path stroke="#ffffff" stroke-width="12.0" stroke-linejoin="round" stroke-linecap="butt" d="m284.0 483.5013l-13.0 12.498688l14.0 0l42.501312 -17.0l15.0 -14.498688" fill-rule="evenodd"/><path fill="#000000" fill-opacity="0.0" d="m297.5013 253.0l45.498688 -13.498688l8.0 2.0l15.501312 -5.5013123l-19.0 -53.498688l11.0 -11.0l-4.5013123 -13.501312l102.50131 -38.498688l43.498688 14.498688l16.0 12.501312l32.0 -12.501312l9.501343 22.501312l-6.501343 2.4986877l11.501343 6.5013123l29.0 -10.501312l9.0 22.501312l-10.501343 2.0l21.0 14.498688l42.0 90.0l-1.4986572 37.501312l17.0 -5.0l12.0 27.498688l-34.0 10.0l-2.0 17.501312l13.0 -3.0l14.0 34.0l-38.0 9.498688l-6.0 29.0l-19.501343 58.0l-45.0 76.50134l-66.49869 25.0l-23.0 -68.50134l-21.0 -11.0l-22.501312 -75.0l-19.0 14.0l-43.498688 14.501312l-4.5013123 -7.5013123l-4.0 -14.498688l-15.0 4.0" fill-rule="evenodd"/><path stroke="#ffffff" stroke-width="12.0" stroke-linejoin="round" stroke-linecap="butt" d="m297.5013 253.0l45.498688 -13.498688l8.0 2.0l15.501312 -5.5013123l-19.0 -53.498688l11.0 -11.0l-4.5013123 -13.501312l102.50131 -38.498688l43.498688 14.498688l16.0 12.501312l32.0 -12.501312l9.501343 22.501312l-6.501343 2.4986877l11.501343 6.5013123l29.0 -10.501312l9.0 22.501312l-10.501343 2.0l21.0 14.498688l42.0 90.0l-1.4986572 37.501312l17.0 -5.0l12.0 27.498688l-34.0 10.0l-2.0 17.501312l13.0 -3.0l14.0 34.0l-38.0 9.498688l-6.0 29.0l-19.501343 58.0l-45.0 76.50134l-66.49869 25.0l-23.0 -68.50134l-21.0 -11.0l-22.501312 -75.0l-19.0 14.0l-43.498688 14.501312l-4.5013123 -7.5013123l-4.0 -14.498688l-15.0 4.0" fill-rule="evenodd"/><path fill="#000000" fill-opacity="0.0" d="m497.0 598.0l-10.0 10.0l56.0 -21.498657l19.0 -11.0" fill-rule="evenodd"/><path stroke="#ffffff" stroke-width="12.0" stroke-linejoin="round" stroke-linecap="butt" d="m497.0 598.0l-10.0 10.0l56.0 -21.498657l19.0 -11.0" fill-rule="evenodd"/><path fill="#000000" fill-opacity="0.0" d="m355.5013 159.50131l-8.501312 -30.501312l48.0 -18.498688l61.501312 9.0" fill-rule="evenodd"/><path stroke="#ffffff" stroke-width="12.0" stroke-linejoin="round" stroke-linecap="butt" d="m355.5013 159.50131l-8.501312 -30.501312l48.0 -18.498688l61.501312 9.0" fill-rule="evenodd"/><path fill="#000000" fill-opacity="0.0" d="m477.5013 126.50131l60.00003 11.498688" fill-rule="evenodd"/><path stroke="#ffffff" stroke-width="12.0" stroke-linejoin="round" stroke-linecap="butt" d="m477.5013 126.50131l60.00003 11.498688" fill-rule="evenodd"/><path fill="#000000" fill-opacity="0.0" d="m609.50134 495.5013l62.498657 -61.501312l6.0 -32.498688l30.501343 -16.0l2.0 -6.0l15.0 -6.0l-8.501343 -17.501312l-22.0 5.0l0.5013428 -14.0l28.0 -14.498688l17.498657 -8.501312l-10.0 -18.498688l-16.498657 2.0l-14.501343 -0.50131226l5.0 -20.498688l7.0 -7.0l-12.0 -26.501312l6.0 -11.0l-0.49865723 -9.0l-4.501343 -5.0l-14.498657 -6.0l-12.0 -19.498688l-12.0 -2.0l-13.501343 -11.501312l12.501343 -15.0l-6.501343 -15.0l-16.498657 0l-4.501343 -4.4986877l-17.498657 0l-6.501343 -14.501312l-17.0 -0.49868774l-4.498657 -6.0l-41.0 1.4986877" fill-rule="evenodd"/><path stroke="#ffffff" stroke-width="12.0" stroke-linejoin="round" stroke-linecap="butt" d="m609.50134 495.5013l62.498657 -61.501312l6.0 -32.498688l30.501343 -16.0l2.0 -6.0l15.0 -6.0l-8.501343 -17.501312l-22.0 5.0l0.5013428 -14.0l28.0 -14.498688l17.498657 -8.501312l-10.0 -18.498688l-16.498657 2.0l-14.501343 -0.50131226l5.0 -20.498688l7.0 -7.0l-12.0 -26.501312l6.0 -11.0l-0.49865723 -9.0l-4.501343 -5.0l-14.498657 -6.0l-12.0 -19.498688l-12.0 -2.0l-13.501343 -11.501312l12.501343 -15.0l-6.501343 -15.0l-16.498657 0l-4.501343 -4.4986877l-17.498657 0l-6.501343 -14.501312l-17.0 -0.49868774l-4.498657 -6.0l-41.0 1.4986877" fill-rule="evenodd"/><path fill="#000000" fill-opacity="0.0" d="m595.50134 181.0l58.0 4.5013123" fill-rule="evenodd"/><path stroke="#ffffff" stroke-width="12.0" stroke-linejoin="round" stroke-linecap="butt" d="m595.50134 181.0l58.0 4.5013123" fill-rule="evenodd"/><path fill="#000000" fill-opacity="0.0" d="m597.0 166.0l46.501343 -6.0" fill-rule="evenodd"/><path stroke="#ffffff" stroke-width="12.0" stroke-linejoin="round" stroke-linecap="butt" d="m597.0 166.0l46.501343 -6.0" fill-rule="evenodd"/><path fill="#000000" fill-opacity="0.0" d="m591.50134 156.50131l24.498657 -3.0" fill-rule="evenodd"/><path stroke="#ffffff" stroke-width="12.0" stroke-linejoin="round" stroke-linecap="butt" d="m591.50134 156.50131l24.498657 -3.0" fill-rule="evenodd"/><path fill="#000000" fill-opacity="0.0" d="m667.0 316.0l38.501343 -8.0" fill-rule="evenodd"/><path stroke="#ffffff" stroke-width="12.0" stroke-linejoin="round" stroke-linecap="butt" d="m667.0 316.0l38.501343 -8.0" fill-rule="evenodd"/><path fill="#000000" fill-opacity="0.0" d="m678.50134 344.0l37.0 -8.498688" fill-rule="evenodd"/><path stroke="#ffffff" stroke-width="12.0" stroke-linejoin="round" stroke-linecap="butt" d="m678.50134 344.0l37.0 -8.498688" fill-rule="evenodd"/><path fill="#000000" fill-opacity="0.0" d="m656.50134 370.0l39.498657 -10.0" fill-rule="evenodd"/><path stroke="#ffffff" stroke-width="12.0" stroke-linejoin="round" stroke-linecap="butt" d="m656.50134 370.0l39.498657 -10.0" fill-rule="evenodd"/><path fill="#000000" fill-opacity="0.0" d="m653.50134 283.0l57.0 -4.4986877" fill-rule="evenodd"/><path stroke="#ffffff" stroke-width="12.0" stroke-linejoin="round" stroke-linecap="butt" d="m653.50134 283.0l57.0 -4.4986877" fill-rule="evenodd"/><path fill="#000000" fill-opacity="0.0" d="m329.0 298.5013l98.50131 -33.501312l29.498688 -33.0l98.50134 -35.498688l43.0 2.0l-165.50134 60.498688" fill-rule="evenodd"/><path stroke="#ffffff" stroke-width="12.0" stroke-linejoin="round" stroke-linecap="butt" d="m329.0 298.5013l98.50131 -33.501312l29.498688 -33.0l98.50134 -35.498688l43.0 2.0l-165.50134 60.498688" fill-rule="evenodd"/><path fill="#000000" fill-opacity="0.0" d="m356.5013 397.5013l280.00003 -104.50131l-27.0 32.0l-107.00003 38.501312l-43.0 -3.5013123" fill-rule="evenodd"/><path stroke="#ffffff" stroke-width="12.0" stroke-linejoin="round" stroke-linecap="butt" d="m356.5013 397.5013l280.00003 -104.50131l-27.0 32.0l-107.00003 38.501312l-43.0 -3.5013123" fill-rule="evenodd"/><path fill="#000000" fill-opacity="0.0" d="m643.50134 256.5013l14.498657 -2.0l13.0 7.0l8.501343 18.0" fill-rule="evenodd"/><path stroke="#ffffff" stroke-width="12.0" stroke-linejoin="round" stroke-linecap="butt" d="m643.50134 256.5013l14.498657 -2.0l13.0 7.0l8.501343 18.0" fill-rule="evenodd"/><path fill="#000000" fill-opacity="0.0" d="m627.0 219.0l17.501343 -1.4986877l2.0 -11.0l-7.501343 -19.501312" fill-rule="evenodd"/><path stroke="#ffffff" stroke-width="12.0" stroke-linejoin="round" stroke-linecap="butt" d="m627.0 219.0l17.501343 -1.4986877l2.0 -11.0l-7.501343 -19.501312" fill-rule="evenodd"/><path fill="#000000" fill-opacity="0.0" d="m697.0 255.0l-14.498657 0.50131226l-21.0 -11.0l-8.0 -21.0l4.498657 -17.0l20.501343 0" fill-rule="evenodd"/><path stroke="#ffffff" stroke-width="12.0" stroke-linejoin="round" stroke-linecap="butt" d="m697.0 255.0l-14.498657 0.50131226l-21.0 -11.0l-8.0 -21.0l4.498657 -17.0l20.501343 0" fill-rule="evenodd"/><path fill="#000000" fill-opacity="0.0" d="m697.0 254.0l-10.498657 -32.0" fill-rule="evenodd"/><path stroke="#ffffff" stroke-width="12.0" stroke-linejoin="round" stroke-linecap="butt" d="m697.0 254.0l-10.498657 -32.0" fill-rule="evenodd"/><path fill="#000000" fill-opacity="0.0" d="m477.0 546.0l130.50134 -50.0" fill-rule="evenodd"/><path stroke="#ffffff" stroke-width="12.0" stroke-linejoin="round" stroke-linecap="butt" d="m477.0 546.0l130.50134 -50.0" fill-rule="evenodd"/><path fill="#000000" fill-opacity="0.0" d="m454.5013 228.50131l-8.0 -24.501312l-11.0 -1.0l-22.0 -67.49869" fill-rule="evenodd"/><path stroke="#ffffff" stroke-width="12.0" stroke-linejoin="round" stroke-linecap="butt" d="m454.5013 228.50131l-8.0 -24.501312l-11.0 -1.0l-22.0 -67.49869" fill-rule="evenodd"/><path fill="#000000" fill-opacity="0.0" d="m500.5013 364.0l18.498688 42.0l-9.498688 12.0l37.498688 103.0" fill-rule="evenodd"/><path stroke="#ffffff" stroke-width="12.0" stroke-linejoin="round" stroke-linecap="butt" d="m500.5013 364.0l18.498688 42.0l-9.498688 12.0l37.498688 103.0" fill-rule="evenodd"/><path fill="#000000" fill-opacity="0.0" d="m246.0 258.0l33.0 39.501312l29.501312 127.49869l-8.0 57.0" fill-rule="evenodd"/><path stroke="#ffffff" stroke-width="12.0" stroke-linejoin="round" stroke-linecap="butt" d="m246.0 258.0l33.0 39.501312l29.501312 127.49869l-8.0 57.0" fill-rule="evenodd"/><path fill="#000000" fill-opacity="0.0" d="m371.0 301.0l-7.4986877 23.0l7.0 25.0l18.0 14.501312l92.49869 -33.0l4.5013123 -14.0l-13.0 -40.501312l-11.0 -8.498688z" fill-rule="evenodd"/><path stroke="#ffffff" stroke-width="12.0" stroke-linejoin="round" stroke-linecap="butt" d="m371.0 301.0l-7.4986877 23.0l7.0 25.0l18.0 14.501312l92.49869 -33.0l4.5013123 -14.0l-13.0 -40.501312l-11.0 -8.498688z" fill-rule="evenodd"/><path fill="#000000" fill-opacity="0.0" d="m709.50134 381.5013l-10.0 -20.0" fill-rule="evenodd"/><path stroke="#ffffff" stroke-width="12.0" stroke-linejoin="round" stroke-linecap="butt" d="m709.50134 381.5013l-10.0 -20.0" fill-rule="evenodd"/><path fill="#000000" fill-opacity="0.0" d="m720.50134 332.0l-10.501343 -23.0" fill-rule="evenodd"/><path stroke="#ffffff" stroke-width="12.0" stroke-linejoin="round" stroke-linecap="butt" d="m720.50134 332.0l-10.501343 -23.0" fill-rule="evenodd"/><path fill="#000000" fill-opacity="0.0" d="m648.0 184.50131l-8.0 -25.501312" fill-rule="evenodd"/><path stroke="#ffffff" stroke-width="12.0" stroke-linejoin="round" stroke-linecap="butt" d="m648.0 184.50131l-8.0 -25.501312" fill-rule="evenodd"/><path fill="#000000" fill-opacity="0.0" d="m600.50134 155.50131l-8.501343 -17.501312" fill-rule="evenodd"/><path stroke="#ffffff" stroke-width="12.0" stroke-linejoin="round" stroke-linecap="butt" d="m600.50134 155.50131l-8.501343 -17.501312" fill-rule="evenodd"/><path fill="#000000" fill-opacity="0.0" d="m626.1706 225.95801l-55.532776 17.233597l-78.50922 35.425186l5.742798 16.275604l81.38318 -35.4252l54.57483 -15.317581" fill-rule="evenodd"/><path stroke="#ffffff" stroke-width="12.0" stroke-linejoin="round" stroke-linecap="butt" d="m626.1706 225.95801l-55.532776 17.233597l-78.50922 35.425186l5.742798 16.275604l81.38318 -35.4252l54.57483 -15.317581" fill-rule="evenodd"/></g></svg>