<svg version="1.1" viewBox="0.0 0.0 960.0 720.0" fill="none" stroke="none" stroke-linecap="square" stroke-miterlimit="10" xmlns:xlink="http://www.w3.org/1999/xlink" xmlns="http://www.w3.org/2000/svg"><clipPath id="p.0"><path d="m0 0l960.0 0l0 720.0l-960.0 0l0 -720.0z" clip-rule="nonzero"/></clipPath><g clip-path="url(#p.0)"><path fill="#000000" fill-opacity="0.0" d="m0 0l960.0 0l0 720.0l-960.0 0z" fill-rule="evenodd"/><path fill="#000000" fill-opacity="0.0" d="m177.33333 341.33334l-10.6666565 39.333313l8.6666565 57.333344l25.333344 30.666656l14.0 2.666687l28.0 -10.0l18.666672 2.6666565l110.66666 -40.666656l48.0 0.6666565l62.666656 -24.666656l44.00003 5.333313l33.333313 -12.6666565l29.333313 12.6666565l21.333374 0.666687l138.66663 -52.666687l4.0 -10.6666565l22.666687 -12.0l18.666687 -18.0l12.666626 -9.3333435l25.333374 -32.0l-14.0 -38.666656l-5.333374 -12.666672l-37.333313 -50.666656l-26.0 -26.666672l-24.0 -6.6666718l-6.0 3.3333435l-19.333313 -6.6666718l-50.666687 18.0l-5.333313 -4.6666718l-22.0 7.3333435l-8.0 0l-94.66669 36.0l-12.0 10.0l-4.6666565 6.6666565l-77.33334 28.0l-6.0 6.0l-48.0 16.0l-38.666656 30.666672l-115.33334 40.666656z" fill-rule="evenodd"/><path stroke="#ffffff" stroke-width="12.0" stroke-linejoin="round" stroke-linecap="butt" d="m177.33333 341.33334l-10.6666565 39.333313l8.6666565 57.333344l25.333344 30.666656l14.0 2.666687l28.0 -10.0l18.666672 2.6666565l110.66666 -40.666656l48.0 0.6666565l62.666656 -24.666656l44.00003 5.333313l33.333313 -12.6666565l29.333313 12.6666565l21.333374 0.666687l138.66663 -52.666687l4.0 -10.6666565l22.666687 -12.0l18.666687 -18.0l12.666626 -9.3333435l25.333374 -32.0l-14.0 -38.666656l-5.333374 -12.666672l-37.333313 -50.666656l-26.0 -26.666672l-24.0 -6.6666718l-6.0 3.3333435l-19.333313 -6.6666718l-50.666687 18.0l-5.333313 -4.6666718l-22.0 7.3333435l-8.0 0l-94.66669 36.0l-12.0 10.0l-4.6666565 6.6666565l-77.33334 28.0l-6.0 6.0l-48.0 16.0l-38.666656 30.666672l-115.33334 40.666656z" fill-rule="evenodd"/><path fill="#000000" fill-opacity="0.0" d="m372.0 256.0l-8.6666565 -20.666672l-52.666687 -2.6666565l-41.333313 14.6666565l-18.666672 0.66667175l-59.333344 22.666656l-26.0 0l-7.3333282 5.3333435l-30.666664 6.6666565l4.666664 37.333344l10.666672 7.3333435l1.3333282 8.0l29.333328 16.666656" fill-rule="evenodd"/><path stroke="#ffffff" stroke-width="12.0" stroke-linejoin="round" stroke-linecap="butt" d="m372.0 256.0l-8.6666565 -20.666672l-52.666687 -2.6666565l-41.333313 14.6666565l-18.666672 0.66667175l-59.333344 22.666656l-26.0 0l-7.3333282 5.3333435l-30.666664 6.6666565l4.666664 37.333344l10.666672 7.3333435l1.3333282 8.0l29.333328 16.666656" fill-rule="evenodd"/><path fill="#000000" fill-opacity="0.0" d="m205.33333 472.0l-43.33333 32.0l8.0 47.333313l8.666672 8.666687l34.0 10.0l51.999985 -18.0l14.0 -13.333313l112.66669 -41.333344l44.666656 -38.0l-10.6666565 -34.0" fill-rule="evenodd"/><path stroke="#ffffff" stroke-width="12.0" stroke-linejoin="round" stroke-linecap="butt" d="m205.33333 472.0l-43.33333 32.0l8.0 47.333313l8.666672 8.666687l34.0 10.0l51.999985 -18.0l14.0 -13.333313l112.66669 -41.333344l44.666656 -38.0l-10.6666565 -34.0" fill-rule="evenodd"/><path fill="#000000" fill-opacity="0.0" d="m305.33334 535.3333l24.0 -2.666626l6.6666565 52.666626l53.333344 -20.0l22.0 -65.33331l19.333313 -6.6666565l12.666687 -18.666687l47.333313 -17.333313l15.3333435 2.0l11.333313 -4.0l6.666687 14.0l4.666687 79.33334l63.333313 -26.0l24.0 -108.66669l22.666687 1.3333435l30.0 -10.666687l10.0 -25.333313" fill-rule="evenodd"/><path stroke="#ffffff" stroke-width="12.0" stroke-linejoin="round" stroke-linecap="butt" d="m305.33334 535.3333l24.0 -2.666626l6.6666565 52.666626l53.333344 -20.0l22.0 -65.33331l19.333313 -6.6666565l12.666687 -18.666687l47.333313 -17.333313l15.3333435 2.0l11.333313 -4.0l6.666687 14.0l4.666687 79.33334l63.333313 -26.0l24.0 -108.66669l22.666687 1.3333435l30.0 -10.666687l10.0 -25.333313" fill-rule="evenodd"/><path fill="#000000" fill-opacity="0.0" d="m432.66666 230.66667l-32.0 -38.66667l51.333344 -18.0l56.666656 30.0" fill-rule="evenodd"/><path stroke="#ffffff" stroke-width="12.0" stroke-linejoin="round" stroke-linecap="butt" d="m432.66666 230.66667l-32.0 -38.66667l51.333344 -18.0l56.666656 30.0" fill-rule="evenodd"/><path fill="#000000" fill-opacity="0.0" d="m490.66666 457.33334l19.333344 -16.0l13.333313 -36.0" fill-rule="evenodd"/><path stroke="#ffffff" stroke-width="12.0" stroke-linejoin="round" stroke-linecap="butt" d="m490.66666 457.33334l19.333344 -16.0l13.333313 -36.0" fill-rule="evenodd"/><path fill="#000000" fill-opacity="0.0" d="m135.33333 316.66666l60.66667 -12.6666565l68.66666 -26.666656l59.333344 -20.666687l42.666656 2.0" fill-rule="evenodd"/><path stroke="#ffffff" stroke-width="12.0" stroke-linejoin="round" stroke-linecap="butt" d="m135.33333 316.66666l60.66667 -12.6666565l68.66666 -26.666656l59.333344 -20.666687l42.666656 2.0" fill-rule="evenodd"/><path fill="#000000" fill-opacity="0.0" d="m435.33334 458.66666l-53.333344 11.3333435l-67.33334 27.333344l-75.33333 29.99997l-36.0 14.666687l-34.666656 8.0" fill-rule="evenodd"/><path stroke="#ffffff" stroke-width="12.0" stroke-linejoin="round" stroke-linecap="butt" d="m435.33334 458.66666l-53.333344 11.3333435l-67.33334 27.333344l-75.33333 29.99997l-36.0 14.666687l-34.666656 8.0" fill-rule="evenodd"/><path fill="#000000" fill-opacity="0.0" d="m164.0 505.33334l34.66667 -18.0l36.666656 -4.666687l70.000015 -26.0l6.0 4.666687l64.66666 -24.0l48.666656 -12.0" fill-rule="evenodd"/><path stroke="#ffffff" stroke-width="12.0" stroke-linejoin="round" stroke-linecap="butt" d="m164.0 505.33334l34.66667 -18.0l36.666656 -4.666687l70.000015 -26.0l6.0 4.666687l64.66666 -24.0l48.666656 -12.0" fill-rule="evenodd"/><path fill="#000000" fill-opacity="0.0" d="m238.66667 455.33334l129.33333 -50.0l46.0 -0.666687l65.33334 -24.666656l45.99997 -35.333344l242.0 -83.33331l31.333374 2.0l9.333313 11.333313l22.666687 -1.333313" fill-rule="evenodd"/><path stroke="#ffffff" stroke-width="12.0" stroke-linejoin="round" stroke-linecap="butt" d="m238.66667 455.33334l129.33333 -50.0l46.0 -0.666687l65.33334 -24.666656l45.99997 -35.333344l242.0 -83.33331l31.333374 2.0l9.333313 11.333313l22.666687 -1.333313" fill-rule="evenodd"/><path fill="#000000" fill-opacity="0.0" d="m502.66666 204.66667l22.235748 -10.666672l125.770874 -45.33333" fill-rule="evenodd"/><path stroke="#ffffff" stroke-width="12.0" stroke-linejoin="round" stroke-linecap="butt" d="m502.66666 204.66667l22.235748 -10.666672l125.770874 -45.33333" fill-rule="evenodd"/><path fill="#000000" fill-opacity="0.0" d="m571.3333 393.33334l9.333374 -14.666687l170.0 -58.666656l8.666626 18.0" fill-rule="evenodd"/><path stroke="#ffffff" stroke-width="12.0" stroke-linejoin="round" stroke-linecap="butt" d="m571.3333 393.33334l9.333374 -14.666687l170.0 -58.666656l8.666626 18.0" fill-rule="evenodd"/><path fill="#000000" fill-opacity="0.0" d="m475.33334 384.0l-52.0 -145.33333" fill-rule="evenodd"/><path stroke="#ffffff" stroke-width="12.0" stroke-linejoin="round" stroke-linecap="butt" d="m475.33334 384.0l-52.0 -145.33333" fill-rule="evenodd"/><path fill="#000000" fill-opacity="0.0" d="m530.0 341.33334l-49.333344 -126.66667" fill-rule="evenodd"/><path stroke="#ffffff" stroke-width="12.0" stroke-linejoin="round" stroke-linecap="butt" d="m530.0 341.33334l-49.333344 -126.66667" fill-rule="evenodd"/><path fill="#000000" fill-opacity="0.0" d="m516.063 239.3622l-7.658783 18.191605l12.4461975 31.595795l20.107605 10.530182l207.76642 -77.55116l23.934387 -1.9160156l0.9580078 -11.48819l-25.850403 -35.427826l-24.89502 -6.7007904z" fill-rule="evenodd"/><path stroke="#ffffff" stroke-width="12.0" stroke-linejoin="round" stroke-linecap="butt" d="m516.063 239.3622l-7.658783 18.191605l12.4461975 31.595795l20.107605 10.530182l207.76642 -77.55116l23.934387 -1.9160156l0.9580078 -11.48819l-25.850403 -35.427826l-24.89502 -6.7007904z" fill-rule="evenodd"/><path fill="#000000" fill-opacity="0.0" d="m773.61646 258.5123l-16.277893 -34.58841" fill-rule="evenodd"/><path stroke="#ffffff" stroke-width="12.0" stroke-linejoin="round" stroke-linecap="butt" d="m773.61646 258.5123l-16.277893 -34.58841" fill-rule="evenodd"/><path fill="#000000" fill-opacity="0.0" d="m721.8012 166.58897l-17.121399 -34.588974" fill-rule="evenodd"/><path stroke="#ffffff" stroke-width="12.0" stroke-linejoin="round" stroke-linecap="butt" d="m721.8012 166.58897l-17.121399 -34.588974" fill-rule="evenodd"/><path fill="#000000" fill-opacity="0.0" d="m721.80054 169.85564l30.352844 51.999084" fill-rule="evenodd"/><path stroke="#ffffff" stroke-width="12.0" stroke-linejoin="round" stroke-linecap="butt" d="m721.80054 169.85564l30.352844 51.999084" fill-rule="evenodd"/></g></svg>