<svg version="1.1" viewBox="0.0 0.0 960.0 720.0" fill="none" stroke="none" stroke-linecap="square" stroke-miterlimit="10" xmlns:xlink="http://www.w3.org/1999/xlink" xmlns="http://www.w3.org/2000/svg"><clipPath id="p.0"><path d="m0 0l960.0 0l0 720.0l-960.0 0l0 -720.0z" clip-rule="nonzero"/></clipPath><g clip-path="url(#p.0)"><path fill="#000000" fill-opacity="0.0" d="m0 0l960.0 0l0 720.0l-960.0 0z" fill-rule="evenodd"/><path fill="#000000" fill-opacity="0.0" d="m184.0 294.66666l128.66666 -50.666656l12.0 6.6666718l-0.6666565 -8.0l212.66669 -75.33334l118.666626 8.0l18.0 -3.3333282l20.0 4.0l69.333374 4.0l17.333313 10.666672l13.333313 24.0l-0.666626 15.333328l-39.333374 44.666656l-10.666626 3.3333435l-41.333374 40.0l0 11.3333435l-26.0 30.0l-191.33331 64.0l-26.0 -6.0l-65.33334 23.333313l-3.333313 8.666687l-54.666687 22.666656l-94.66666 17.333344l-17.333328 -1.3333435l-8.0 -13.3333435l-6.0 -36.666656l-14.0 2.0l-10.0 -18.666656l10.0 -7.3333435l-4.0 -22.0l-17.333344 -12.0l-6.0 -39.333344l14.0 -4.6666565l-0.6666565 -11.3333435l-8.666672 -2.0l-6.6666718 -14.6666565l17.333344 -6.6666565z" fill-rule="evenodd"/><path stroke="#ffffff" stroke-width="12.0" stroke-linejoin="round" stroke-linecap="butt" d="m184.0 294.66666l128.66666 -50.666656l12.0 6.6666718l-0.6666565 -8.0l212.66669 -75.33334l118.666626 8.0l18.0 -3.3333282l20.0 4.0l69.333374 4.0l17.333313 10.666672l13.333313 24.0l-0.666626 15.333328l-39.333374 44.666656l-10.666626 3.3333435l-41.333374 40.0l0 11.3333435l-26.0 30.0l-191.33331 64.0l-26.0 -6.0l-65.33334 23.333313l-3.333313 8.666687l-54.666687 22.666656l-94.66666 17.333344l-17.333328 -1.3333435l-8.0 -13.3333435l-6.0 -36.666656l-14.0 2.0l-10.0 -18.666656l10.0 -7.3333435l-4.0 -22.0l-17.333344 -12.0l-6.0 -39.333344l14.0 -4.6666565l-0.6666565 -11.3333435l-8.666672 -2.0l-6.6666718 -14.6666565l17.333344 -6.6666565z" fill-rule="evenodd"/><path fill="#000000" fill-opacity="0.0" d="m384.66666 222.0l-62.666656 -17.333328l86.66666 -30.666672l91.33334 5.3333282" fill-rule="evenodd"/><path stroke="#ffffff" stroke-width="12.0" stroke-linejoin="round" stroke-linecap="butt" d="m384.66666 222.0l-62.666656 -17.333328l86.66666 -30.666672l91.33334 5.3333282" fill-rule="evenodd"/><path fill="#000000" fill-opacity="0.0" d="m492.66666 422.66666l-64.66666 131.33334l108.0 -44.0l109.33331 -140.66666" fill-rule="evenodd"/><path stroke="#ffffff" stroke-width="12.0" stroke-linejoin="round" stroke-linecap="butt" d="m492.66666 422.66666l-64.66666 131.33334l108.0 -44.0l109.33331 -140.66666" fill-rule="evenodd"/><path fill="#000000" fill-opacity="0.0" d="m422.0 430.66666l-27.333344 99.33334l-46.0 14.666687l-20.666656 -71.33334" fill-rule="evenodd"/><path stroke="#ffffff" stroke-width="12.0" stroke-linejoin="round" stroke-linecap="butt" d="m422.0 430.66666l-27.333344 99.33334l-46.0 14.666687l-20.666656 -71.33334" fill-rule="evenodd"/><path fill="#000000" fill-opacity="0.0" d="m277.33334 257.33334l-5.3333435 -23.333344l33.333344 -11.333328l28.0 17.333328" fill-rule="evenodd"/><path stroke="#ffffff" stroke-width="12.0" stroke-linejoin="round" stroke-linecap="butt" d="m277.33334 257.33334l-5.3333435 -23.333344l33.333344 -11.333328l28.0 17.333328" fill-rule="evenodd"/><path fill="#000000" fill-opacity="0.0" d="m206.66667 436.66666l145.99998 -58.0l7.3333435 14.0l38.0 -16.0l264.6667 -123.33333l100.666626 -31.333328l29.333374 -6.6666718" fill-rule="evenodd"/><path stroke="#ffffff" stroke-width="12.0" stroke-linejoin="round" stroke-linecap="butt" d="m206.66667 436.66666l145.99998 -58.0l7.3333435 14.0l38.0 -16.0l264.6667 -123.33333l100.666626 -31.333328l29.333374 -6.6666718" fill-rule="evenodd"/><path fill="#000000" fill-opacity="0.0" d="m680.0 174.0l-245.33334 63.33333l-28.666656 -7.3333282l-92.0 27.333344l-17.333344 5.333313l-116.66666 40.666687" fill-rule="evenodd"/><path stroke="#ffffff" stroke-width="12.0" stroke-linejoin="round" stroke-linecap="butt" d="m680.0 174.0l-245.33334 63.33333l-28.666656 -7.3333282l-92.0 27.333344l-17.333344 5.333313l-116.66666 40.666687" fill-rule="evenodd"/><path fill="#000000" fill-opacity="0.0" d="m193.33333 415.33334l129.33333 -46.666687l19.333344 -15.333313l94.0 -42.0l30.666656 7.333313l240.66666 -99.33333l70.66669 -12.0l16.0 4.0" fill-rule="evenodd"/><path stroke="#ffffff" stroke-width="12.0" stroke-linejoin="round" stroke-linecap="butt" d="m193.33333 415.33334l129.33333 -46.666687l19.333344 -15.333313l94.0 -42.0l30.666656 7.333313l240.66666 -99.33333l70.66669 -12.0l16.0 4.0" fill-rule="evenodd"/><path fill="#000000" fill-opacity="0.0" d="m678.0 174.66667l25.333313 47.33333" fill-rule="evenodd"/><path stroke="#ffffff" stroke-width="12.0" stroke-linejoin="round" stroke-linecap="butt" d="m678.0 174.66667l25.333313 47.33333" fill-rule="evenodd"/><path fill="#000000" fill-opacity="0.0" d="m432.0 314.0l-22.666656 -80.66667" fill-rule="evenodd"/><path stroke="#ffffff" stroke-width="12.0" stroke-linejoin="round" stroke-linecap="butt" d="m432.0 314.0l-22.666656 -80.66667" fill-rule="evenodd"/><path fill="#000000" fill-opacity="0.0" d="m389.33334 235.33333l26.666656 85.33333" fill-rule="evenodd"/><path stroke="#ffffff" stroke-width="12.0" stroke-linejoin="round" stroke-linecap="butt" d="m389.33334 235.33333l26.666656 85.33333" fill-rule="evenodd"/><path fill="#000000" fill-opacity="0.0" d="m436.0 308.0l120.66669 -39.333344" fill-rule="evenodd"/><path stroke="#ffffff" stroke-width="12.0" stroke-linejoin="round" stroke-linecap="butt" d="m436.0 308.0l120.66669 -39.333344" fill-rule="evenodd"/><path fill="#000000" fill-opacity="0.0" d="m421.33334 256.0l113.33334 -36.0" fill-rule="evenodd"/><path stroke="#ffffff" stroke-width="12.0" stroke-linejoin="round" stroke-linecap="butt" d="m421.33334 256.0l113.33334 -36.0" fill-rule="evenodd"/><path fill="#000000" fill-opacity="0.0" d="m183.33333 335.33334l71.33334 -24.666687l7.3333282 2.0l43.333344 -14.0l12.0 44.0l-68.000015 26.0l-62.666656 25.333344" fill-rule="evenodd"/><path stroke="#ffffff" stroke-width="12.0" stroke-linejoin="round" stroke-linecap="butt" d="m183.33333 335.33334l71.33334 -24.666687l7.3333282 2.0l43.333344 -14.0l12.0 44.0l-68.000015 26.0l-62.666656 25.333344" fill-rule="evenodd"/><path fill="#000000" fill-opacity="0.0" d="m175.33333 379.33334l121.33333 -44.666687l-6.6666565 -28.0" fill-rule="evenodd"/><path stroke="#ffffff" stroke-width="12.0" stroke-linejoin="round" stroke-linecap="butt" d="m175.33333 379.33334l121.33333 -44.666687l-6.6666565 -28.0" fill-rule="evenodd"/><path fill="#000000" fill-opacity="0.0" d="m295.33334 337.33334l19.333313 5.333313" fill-rule="evenodd"/><path stroke="#ffffff" stroke-width="12.0" stroke-linejoin="round" stroke-linecap="butt" d="m295.33334 337.33334l19.333313 5.333313" fill-rule="evenodd"/><path fill="#000000" fill-opacity="0.0" d="m386.66666 442.66666l-10.0 -4.0l-8.0 -12.6666565l-8.6666565 -32.666656" fill-rule="evenodd"/><path stroke="#ffffff" stroke-width="12.0" stroke-linejoin="round" stroke-linecap="butt" d="m386.66666 442.66666l-10.0 -4.0l-8.0 -12.6666565l-8.6666565 -32.666656" fill-rule="evenodd"/><path fill="#000000" fill-opacity="0.0" d="m376.0 432.66666l231.33331 -81.33331l60.0 -100.66667" fill-rule="evenodd"/><path stroke="#ffffff" stroke-width="12.0" stroke-linejoin="round" stroke-linecap="butt" d="m376.0 432.66666l231.33331 -81.33331l60.0 -100.66667" fill-rule="evenodd"/><path fill="#000000" fill-opacity="0.0" d="m608.0 352.0l65.33331 8.0" fill-rule="evenodd"/><path stroke="#ffffff" stroke-width="12.0" stroke-linejoin="round" stroke-linecap="butt" d="m608.0 352.0l65.33331 8.0" fill-rule="evenodd"/><path fill="#000000" fill-opacity="0.0" d="m222.0 485.33334l147.33334 -55.333344" fill-rule="evenodd"/><path stroke="#ffffff" stroke-width="12.0" stroke-linejoin="round" stroke-linecap="butt" d="m222.0 485.33334l147.33334 -55.333344" fill-rule="evenodd"/><path fill="#000000" fill-opacity="0.0" d="m707.3333 314.0l-0.666626 25.333344l32.0 -29.333344l9.333313 -33.333344" fill-rule="evenodd"/><path stroke="#ffffff" stroke-width="12.0" stroke-linejoin="round" stroke-linecap="butt" d="m707.3333 314.0l-0.666626 25.333344l32.0 -29.333344l9.333313 -33.333344" fill-rule="evenodd"/><path fill="#000000" fill-opacity="0.0" d="m180.0 324.66666l118.0 -46.0l10.6666565 -18.0" fill-rule="evenodd"/><path stroke="#ffffff" stroke-width="12.0" stroke-linejoin="round" stroke-linecap="butt" d="m180.0 324.66666l118.0 -46.0l10.6666565 -18.0" fill-rule="evenodd"/></g></svg>