<svg version="1.1" viewBox="0.0 0.0 960.0 720.0" fill="none" stroke="none" stroke-linecap="square" stroke-miterlimit="10" xmlns:xlink="http://www.w3.org/1999/xlink" xmlns="http://www.w3.org/2000/svg"><clipPath id="p.0"><path d="m0 0l960.0 0l0 720.0l-960.0 0l0 -720.0z" clip-rule="nonzero"/></clipPath><g clip-path="url(#p.0)"><path fill="#000000" fill-opacity="0.0" d="m0 0l960.0 0l0 720.0l-960.0 0z" fill-rule="evenodd"/><path fill="#000000" fill-opacity="0.0" d="m289.33334 370.66666l26.666656 0l2.6666565 8.666687l39.333344 4.6666565l134.66666 -8.6666565l28.00003 -10.0l56.666626 13.333313l99.333374 -37.333313l101.33331 -63.333344l3.333313 -13.3333435l10.666687 -4.6666565l3.333313 -14.666672l-4.666626 -6.0l-15.333374 -2.0l38.0 -38.666656l-16.666626 -22.666672l-17.333374 1.3333282l-7.333313 -6.0l-16.0 0.66667175l-15.333313 -8.666672l1.333313 -11.333328l-18.666687 -12.666672l-122.666626 -2.6666565l-68.66669 18.0l-52.666656 22.0l-165.33334 113.999985l-43.333344 14.0z" fill-rule="evenodd"/><path stroke="#ffffff" stroke-width="12.0" stroke-linejoin="round" stroke-linecap="butt" d="m289.33334 370.66666l26.666656 0l2.6666565 8.666687l39.333344 4.6666565l134.66666 -8.6666565l28.00003 -10.0l56.666626 13.333313l99.333374 -37.333313l101.33331 -63.333344l3.333313 -13.3333435l10.666687 -4.6666565l3.333313 -14.666672l-4.666626 -6.0l-15.333374 -2.0l38.0 -38.666656l-16.666626 -22.666672l-17.333374 1.3333282l-7.333313 -6.0l-16.0 0.66667175l-15.333313 -8.666672l1.333313 -11.333328l-18.666687 -12.666672l-122.666626 -2.6666565l-68.66669 18.0l-52.666656 22.0l-165.33334 113.999985l-43.333344 14.0z" fill-rule="evenodd"/><path fill="#000000" fill-opacity="0.0" d="m474.0 181.33333l-28.666656 -36.666656l-1.3333435 -15.3333435l48.666656 -17.999992l74.66666 33.333336" fill-rule="evenodd"/><path stroke="#ffffff" stroke-width="12.0" stroke-linejoin="round" stroke-linecap="butt" d="m474.0 181.33333l-28.666656 -36.666656l-1.3333435 -15.3333435l48.666656 -17.999992l74.66666 33.333336" fill-rule="evenodd"/><path fill="#000000" fill-opacity="0.0" d="m520.0 366.66666l42.0 58.0l8.0 57.333344l13.333313 23.333344l64.0 -23.333344l25.333374 -138.0" fill-rule="evenodd"/><path stroke="#ffffff" stroke-width="12.0" stroke-linejoin="round" stroke-linecap="butt" d="m520.0 366.66666l42.0 58.0l8.0 57.333344l13.333313 23.333344l64.0 -23.333344l25.333374 -138.0" fill-rule="evenodd"/><path fill="#000000" fill-opacity="0.0" d="m271.33334 419.33334l46.666656 38.666656l8.6666565 55.333313l-29.333313 11.333374l6.0 27.333313l-21.333344 12.0l-3.3333435 6.0l-15.333313 14.0l7.333313 26.666687l38.0 1.333313l97.33334 -38.666687l32.0 -24.0l-8.6666565 -29.333313l-14.666687 -0.666687l-12.6666565 4.0l-19.333344 -6.0l28.666687 -95.33331l54.0 -44.0" fill-rule="evenodd"/><path stroke="#ffffff" stroke-width="12.0" stroke-linejoin="round" stroke-linecap="butt" d="m271.33334 419.33334l46.666656 38.666656l8.6666565 55.333313l-29.333313 11.333374l6.0 27.333313l-21.333344 12.0l-3.3333435 6.0l-15.333313 14.0l7.333313 26.666687l38.0 1.333313l97.33334 -38.666687l32.0 -24.0l-8.6666565 -29.333313l-14.666687 -0.666687l-12.6666565 4.0l-19.333344 -6.0l28.666687 -95.33331l54.0 -44.0" fill-rule="evenodd"/><path fill="#000000" fill-opacity="0.0" d="m256.66666 296.0l8.666687 -24.666656l-23.333344 -49.333344l-18.666672 0l-25.333328 8.666672l-12.0 -10.0l-2.0 -16.666672l31.333328 -16.666672l78.66667 -27.333328l19.333344 1.3333282l14.6666565 8.0l3.3333435 15.3333435l2.0 20.0l-22.666687 12.0l44.666687 27.333328l28.666656 -4.0" fill-rule="evenodd"/><path stroke="#ffffff" stroke-width="12.0" stroke-linejoin="round" stroke-linecap="butt" d="m256.66666 296.0l8.666687 -24.666656l-23.333344 -49.333344l-18.666672 0l-25.333328 8.666672l-12.0 -10.0l-2.0 -16.666672l31.333328 -16.666672l78.66667 -27.333328l19.333344 1.3333282l14.6666565 8.0l3.3333435 15.3333435l2.0 20.0l-22.666687 12.0l44.666687 27.333328l28.666656 -4.0" fill-rule="evenodd"/><path fill="#000000" fill-opacity="0.0" d="m256.66666 250.0l-31.333328 14.0l45.33333 42.666656l18.666687 63.333344l-27.333344 86.0l40.0 -2.0l3.3333435 20.0l-24.666687 17.333344l-63.33333 22.666656l-23.333328 -6.6666565l-2.0 -14.0l10.666672 -12.0l20.0 -6.666687l-3.3333435 -11.333313l12.666672 -5.3333435l-6.6666718 -66.0l-12.6666565 1.3333435l-14.666672 -14.0l-3.3333282 -21.333344l19.333328 -6.6666565l-5.3333282 -37.333344l-12.0 -32.666656l-16.666672 -2.0l-1.3333282 -10.0l-13.3333435 6.0l-17.333328 -6.666687l-2.6666718 -15.999985l54.0 -22.0" fill-rule="evenodd"/><path stroke="#ffffff" stroke-width="12.0" stroke-linejoin="round" stroke-linecap="butt" d="m256.66666 250.0l-31.333328 14.0l45.33333 42.666656l18.666687 63.333344l-27.333344 86.0l40.0 -2.0l3.3333435 20.0l-24.666687 17.333344l-63.33333 22.666656l-23.333328 -6.6666565l-2.0 -14.0l10.666672 -12.0l20.0 -6.666687l-3.3333435 -11.333313l12.666672 -5.3333435l-6.6666718 -66.0l-12.6666565 1.3333435l-14.666672 -14.0l-3.3333282 -21.333344l19.333328 -6.6666565l-5.3333282 -37.333344l-12.0 -32.666656l-16.666672 -2.0l-1.3333282 -10.0l-13.3333435 6.0l-17.333328 -6.666687l-2.6666718 -15.999985l54.0 -22.0" fill-rule="evenodd"/><path fill="#000000" fill-opacity="0.0" d="m222.66667 474.66666l41.33333 -19.333313" fill-rule="evenodd"/><path stroke="#ffffff" stroke-width="12.0" stroke-linejoin="round" stroke-linecap="butt" d="m222.66667 474.66666l41.33333 -19.333313" fill-rule="evenodd"/><path fill="#000000" fill-opacity="0.0" d="m178.66667 268.66666l39.130264 -14.6666565l8.204727 9.973328" fill-rule="evenodd"/><path stroke="#ffffff" stroke-width="12.0" stroke-linejoin="round" stroke-linecap="butt" d="m178.66667 268.66666l39.130264 -14.6666565l8.204727 9.973328" fill-rule="evenodd"/><path fill="#000000" fill-opacity="0.0" d="m240.50131 223.0l59.498688 -23.0l12.501312 16.501312" fill-rule="evenodd"/><path stroke="#ffffff" stroke-width="12.0" stroke-linejoin="round" stroke-linecap="butt" d="m240.50131 223.0l59.498688 -23.0l12.501312 16.501312" fill-rule="evenodd"/><path fill="#000000" fill-opacity="0.0" d="m302.0 553.0l87.50131 -32.0" fill-rule="evenodd"/><path stroke="#ffffff" stroke-width="12.0" stroke-linejoin="round" stroke-linecap="butt" d="m302.0 553.0l87.50131 -32.0" fill-rule="evenodd"/><path fill="#000000" fill-opacity="0.0" d="m288.66666 362.66666l280.00003 -99.33331l24.666626 -18.666672l-17.333313 -41.333344l-64.66666 17.333344l-56.666687 20.0l-175.33331 78.66667" fill-rule="evenodd"/><path stroke="#ffffff" stroke-width="12.0" stroke-linejoin="round" stroke-linecap="butt" d="m288.66666 362.66666l280.00003 -99.33331l24.666626 -18.666672l-17.333313 -41.333344l-64.66666 17.333344l-56.666687 20.0l-175.33331 78.66667" fill-rule="evenodd"/><path fill="#000000" fill-opacity="0.0" d="m782.6667 229.33333l5.333313 -31.333328l-22.0 -26.666672" fill-rule="evenodd"/><path stroke="#ffffff" stroke-width="12.0" stroke-linejoin="round" stroke-linecap="butt" d="m782.6667 229.33333l5.333313 -31.333328l-22.0 -26.666672" fill-rule="evenodd"/><path fill="#000000" fill-opacity="0.0" d="m777.32666 238.66667l-52.539673 20.152054l-40.940002 40.954193l-45.033997 14.301483l-12.964294 20.15207l-80.51538 35.103607" fill-rule="evenodd"/><path stroke="#ffffff" stroke-width="12.0" stroke-linejoin="round" stroke-linecap="butt" d="m777.32666 238.66667l-52.539673 20.152054l-40.940002 40.954193l-45.033997 14.301483l-12.964294 20.15207l-80.51538 35.103607" fill-rule="evenodd"/><path fill="#000000" fill-opacity="0.0" d="m741.3444 153.33333l-67.50842 4.0l-67.50842 -6.6666565l-41.440796 14.0l-14.036377 -2.0l-70.8504 14.6666565" fill-rule="evenodd"/><path stroke="#ffffff" stroke-width="12.0" stroke-linejoin="round" stroke-linecap="butt" d="m741.3444 153.33333l-67.50842 4.0l-67.50842 -6.6666565l-41.440796 14.0l-14.036377 -2.0l-70.8504 14.6666565" fill-rule="evenodd"/><path fill="#000000" fill-opacity="0.0" d="m607.3333 152.0l20.0 14.0l6.0 20.0l12.0 5.3333282l14.0 32.66667l0 12.666672l16.0 24.666672l4.0 36.0" fill-rule="evenodd"/><path stroke="#ffffff" stroke-width="12.0" stroke-linejoin="round" stroke-linecap="butt" d="m607.3333 152.0l20.0 14.0l6.0 20.0l12.0 5.3333282l14.0 32.66667l0 12.666672l16.0 24.666672l4.0 36.0" fill-rule="evenodd"/><path fill="#000000" fill-opacity="0.0" d="m405.33334 145.33333l43.33438 -17.333328" fill-rule="evenodd"/><path stroke="#ffffff" stroke-width="12.0" stroke-linejoin="round" stroke-linecap="butt" d="m405.33334 145.33333l43.33438 -17.333328" fill-rule="evenodd"/><path fill="#000000" fill-opacity="0.0" d="m536.0 522.6667l48.0 -18.00003" fill-rule="evenodd"/><path stroke="#ffffff" stroke-width="12.0" stroke-linejoin="round" stroke-linecap="butt" d="m536.0 522.6667l48.0 -18.00003" fill-rule="evenodd"/></g></svg>