<svg version="1.1" viewBox="0.0 0.0 960.0 720.0" fill="none" stroke="none" stroke-linecap="square" stroke-miterlimit="10" xmlns:xlink="http://www.w3.org/1999/xlink" xmlns="http://www.w3.org/2000/svg"><clipPath id="p.0"><path d="m0 0l960.0 0l0 720.0l-960.0 0l0 -720.0z" clip-rule="nonzero"/></clipPath><g clip-path="url(#p.0)"><path fill="#000000" fill-opacity="0.0" d="m0 0l960.0 0l0 720.0l-960.0 0z" fill-rule="evenodd"/><path fill="#000000" fill-opacity="0.0" d="m295.5013 323.5013l-75.0 -36.0l-30.0 8.498688l41.498688 41.0l9.501312 16.0l11.498688 -12.0z" fill-rule="evenodd"/><path stroke="#ffffff" stroke-width="12.0" stroke-linejoin="round" stroke-linecap="butt" d="m295.5013 323.5013l-75.0 -36.0l-30.0 8.498688l41.498688 41.0l9.501312 16.0l11.498688 -12.0z" fill-rule="evenodd"/><path fill="#000000" fill-opacity="0.0" d="m257.0 433.0l-31.0 33.0l5.0 3.5013123l26.501312 -11.0l59.498688 -45.501312l-8.0 -4.0l-32.0 12.0l-10.498688 2.0z" fill-rule="evenodd"/><path stroke="#ffffff" stroke-width="12.0" stroke-linejoin="round" stroke-linecap="butt" d="m257.0 433.0l-31.0 33.0l5.0 3.5013123l26.501312 -11.0l59.498688 -45.501312l-8.0 -4.0l-32.0 12.0l-10.498688 2.0z" fill-rule="evenodd"/><path fill="#000000" fill-opacity="0.0" d="m243.0 349.5013l-19.498688 19.0l1.4986877 15.0l21.0 -5.0l6.0 23.0l-18.498688 14.0l1.4986877 14.498688l21.501312 3.0" fill-rule="evenodd"/><path stroke="#ffffff" stroke-width="12.0" stroke-linejoin="round" stroke-linecap="butt" d="m243.0 349.5013l-19.498688 19.0l1.4986877 15.0l21.0 -5.0l6.0 23.0l-18.498688 14.0l1.4986877 14.498688l21.501312 3.0" fill-rule="evenodd"/><path fill="#000000" fill-opacity="0.0" d="m268.5013 310.5013l-9.0 -30.501312l-15.501312 4.0l-12.498688 -9.498688l1.4986877 -9.0l-12.0 -1.5013123l80.0 -31.0l-5.0 8.501312l51.501312 33.0l33.498688 -5.0l74.0 -50.501312l-30.0 -41.0l-9.0 -1.4986877l-3.0 -4.5013123l74.50131 -28.0l-3.5013123 7.0l59.0 33.0l32.0 -7.4986877l110.0 3.0l15.501343 7.4986877l4.0 8.501312l-2.0 6.0l15.0 6.0l10.0 -1.0l12.498657 8.0l18.0 0l9.501343 18.498688l-36.0 36.501312l13.498657 -1.0l7.0 12.498688l-17.498657 22.501312l-39.501343 24.498688l-6.498657 0.50131226l-45.501343 34.498688l-16.0 80.0l-6.498657 45.501312l11.498657 1.4986877l-96.0 35.501343l14.501343 -12.501343l-6.501343 -9.0l-7.0 -62.0l-40.0 -52.0l-15.498688 3.5013123l-23.501312 1.0l-57.498688 45.0l-28.0 85.49869l14.0 4.0l-101.0 35.0l16.498688 -9.0l-9.0 -17.498657l4.0 -7.0l22.0 -10.501343l-6.4986877 -30.0l-12.501312 -13.0l-3.0 -13.498688l-14.498688 -19.0" fill-rule="evenodd"/><path stroke="#ffffff" stroke-width="12.0" stroke-linejoin="round" stroke-linecap="butt" d="m268.5013 310.5013l-9.0 -30.501312l-15.501312 4.0l-12.498688 -9.498688l1.4986877 -9.0l-12.0 -1.5013123l80.0 -31.0l-5.0 8.501312l51.501312 33.0l33.498688 -5.0l74.0 -50.501312l-30.0 -41.0l-9.0 -1.4986877l-3.0 -4.5013123l74.50131 -28.0l-3.5013123 7.0l59.0 33.0l32.0 -7.4986877l110.0 3.0l15.501343 7.4986877l4.0 8.501312l-2.0 6.0l15.0 6.0l10.0 -1.0l12.498657 8.0l18.0 0l9.501343 18.498688l-36.0 36.501312l13.498657 -1.0l7.0 12.498688l-17.498657 22.501312l-39.501343 24.498688l-6.498657 0.50131226l-45.501343 34.498688l-16.0 80.0l-6.498657 45.501312l11.498657 1.4986877l-96.0 35.501343l14.501343 -12.501343l-6.501343 -9.0l-7.0 -62.0l-40.0 -52.0l-15.498688 3.5013123l-23.501312 1.0l-57.498688 45.0l-28.0 85.49869l14.0 4.0l-101.0 35.0l16.498688 -9.0l-9.0 -17.498657l4.0 -7.0l22.0 -10.501343l-6.4986877 -30.0l-12.501312 -13.0l-3.0 -13.498688l-14.498688 -19.0" fill-rule="evenodd"/><path fill="#000000" fill-opacity="0.0" d="m315.5013 521.50134l65.0 -22.00003" fill-rule="evenodd"/><path stroke="#ffffff" stroke-width="12.0" stroke-linejoin="round" stroke-linecap="butt" d="m315.5013 521.50134l65.0 -22.00003" fill-rule="evenodd"/><path fill="#000000" fill-opacity="0.0" d="m238.50131 278.5013l70.49869 -27.0" fill-rule="evenodd"/><path stroke="#ffffff" stroke-width="12.0" stroke-linejoin="round" stroke-linecap="butt" d="m238.50131 278.5013l70.49869 -27.0" fill-rule="evenodd"/><path fill="#000000" fill-opacity="0.0" d="m432.5013 183.0l62.498688 -25.0" fill-rule="evenodd"/><path stroke="#ffffff" stroke-width="12.0" stroke-linejoin="round" stroke-linecap="butt" d="m432.5013 183.0l62.498688 -25.0" fill-rule="evenodd"/><path fill="#000000" fill-opacity="0.0" d="m542.0 492.0l81.0 -30.0" fill-rule="evenodd"/><path stroke="#ffffff" stroke-width="12.0" stroke-linejoin="round" stroke-linecap="butt" d="m542.0 492.0l81.0 -30.0" fill-rule="evenodd"/><path fill="#000000" fill-opacity="0.0" d="m314.0 415.0l30.501312 -13.498688l105.0 -10.0l32.0 1.4986877" fill-rule="evenodd"/><path stroke="#ffffff" stroke-width="12.0" stroke-linejoin="round" stroke-linecap="butt" d="m314.0 415.0l30.501312 -13.498688l105.0 -10.0l32.0 1.4986877" fill-rule="evenodd"/><path fill="#000000" fill-opacity="0.0" d="m293.0 324.0l15.0 -3.0l74.0 -52.498688" fill-rule="evenodd"/><path stroke="#ffffff" stroke-width="12.0" stroke-linejoin="round" stroke-linecap="butt" d="m293.0 324.0l15.0 -3.0l74.0 -52.498688" fill-rule="evenodd"/><path fill="#000000" fill-opacity="0.0" d="m306.0 247.0l23.501312 -11.0l-8.0 -36.0l-16.0 -2.4986877l-90.50131 27.498688l-10.0 7.0l-11.498688 4.0l-2.5013123 10.501312l5.5013123 11.498688l12.0 -0.49868774l17.498688 20.0l7.0 -1.5013123" fill-rule="evenodd"/><path stroke="#ffffff" stroke-width="12.0" stroke-linejoin="round" stroke-linecap="butt" d="m306.0 247.0l23.501312 -11.0l-8.0 -36.0l-16.0 -2.4986877l-90.50131 27.498688l-10.0 7.0l-11.498688 4.0l-2.5013123 10.501312l5.5013123 11.498688l12.0 -0.49868774l17.498688 20.0l7.0 -1.5013123" fill-rule="evenodd"/><path fill="#000000" fill-opacity="0.0" d="m425.0 183.50131l-23.0 0.49868774l-12.498688 -22.0l1.0 -15.498688l15.0 -5.0l6.4986877 -6.0l31.501312 -11.501312l8.498688 -0.49868774l36.501312 -12.501312l24.498688 19.0l-12.498688 26.501312" fill-rule="evenodd"/><path stroke="#ffffff" stroke-width="12.0" stroke-linejoin="round" stroke-linecap="butt" d="m425.0 183.50131l-23.0 0.49868774l-12.498688 -22.0l1.0 -15.498688l15.0 -5.0l6.4986877 -6.0l31.501312 -11.501312l8.498688 -0.49868774l36.501312 -12.501312l24.498688 19.0l-12.498688 26.501312" fill-rule="evenodd"/><path fill="#000000" fill-opacity="0.0" d="m198.50131 255.50131l108.0 -39.501312l13.498688 -1.0l5.0 23.501312" fill-rule="evenodd"/><path stroke="#ffffff" stroke-width="12.0" stroke-linejoin="round" stroke-linecap="butt" d="m198.50131 255.50131l108.0 -39.501312l13.498688 -1.0l5.0 23.501312" fill-rule="evenodd"/><path fill="#000000" fill-opacity="0.0" d="m392.5013 165.0l94.49869 -36.0l16.501312 9.0l-5.5013123 18.0" fill-rule="evenodd"/><path stroke="#ffffff" stroke-width="12.0" stroke-linejoin="round" stroke-linecap="butt" d="m392.5013 165.0l94.49869 -36.0l16.501312 9.0l-5.5013123 18.0" fill-rule="evenodd"/><path fill="#000000" fill-opacity="0.0" d="m532.50134 526.50134l-7.501343 12.0l10.0 27.0l15.0 0l26.501343 -6.0l45.498657 -18.501343l45.501343 -21.498657l6.0 -8.0000305l-10.0 -24.501312l-30.501343 1.0" fill-rule="evenodd"/><path stroke="#ffffff" stroke-width="12.0" stroke-linejoin="round" stroke-linecap="butt" d="m532.50134 526.50134l-7.501343 12.0l10.0 27.0l15.0 0l26.501343 -6.0l45.498657 -18.501343l45.501343 -21.498657l6.0 -8.0000305l-10.0 -24.501312l-30.501343 1.0" fill-rule="evenodd"/><path fill="#000000" fill-opacity="0.0" d="m528.0 540.50134l131.50134 -50.00003" fill-rule="evenodd"/><path stroke="#ffffff" stroke-width="12.0" stroke-linejoin="round" stroke-linecap="butt" d="m528.0 540.50134l131.50134 -50.00003" fill-rule="evenodd"/><path fill="#000000" fill-opacity="0.0" d="m535.0 561.0l136.50134 -52.498688" fill-rule="evenodd"/><path stroke="#ffffff" stroke-width="12.0" stroke-linejoin="round" stroke-linecap="butt" d="m535.0 561.0l136.50134 -52.498688" fill-rule="evenodd"/><path fill="#000000" fill-opacity="0.0" d="m284.0 565.50134l-20.0 19.0l4.0 22.498657l12.0 3.5013428l47.0 -6.0l50.0 -26.0l47.501312 -24.0l-9.501312 -28.501343l-27.498688 1.5013428" fill-rule="evenodd"/><path stroke="#ffffff" stroke-width="12.0" stroke-linejoin="round" stroke-linecap="butt" d="m284.0 565.50134l-20.0 19.0l4.0 22.498657l12.0 3.5013428l47.0 -6.0l50.0 -26.0l47.501312 -24.0l-9.501312 -28.501343l-27.498688 1.5013428" fill-rule="evenodd"/><path fill="#000000" fill-opacity="0.0" d="m265.0 586.50134l146.0 -58.501343" fill-rule="evenodd"/><path stroke="#ffffff" stroke-width="12.0" stroke-linejoin="round" stroke-linecap="butt" d="m265.0 586.50134l146.0 -58.501343" fill-rule="evenodd"/><path fill="#000000" fill-opacity="0.0" d="m268.5013 603.0l147.0 -49.498657" fill-rule="evenodd"/><path stroke="#ffffff" stroke-width="12.0" stroke-linejoin="round" stroke-linecap="butt" d="m268.5013 603.0l147.0 -49.498657" fill-rule="evenodd"/><path fill="#000000" fill-opacity="0.0" d="m400.0 531.0l10.0 30.0" fill-rule="evenodd"/><path stroke="#ffffff" stroke-width="12.0" stroke-linejoin="round" stroke-linecap="butt" d="m400.0 531.0l10.0 30.0" fill-rule="evenodd"/><path fill="#000000" fill-opacity="0.0" d="m543.50134 525.0l16.498657 36.501343" fill-rule="evenodd"/><path stroke="#ffffff" stroke-width="12.0" stroke-linejoin="round" stroke-linecap="butt" d="m543.50134 525.0l16.498657 36.501343" fill-rule="evenodd"/><path fill="#000000" fill-opacity="0.0" d="m283.5013 578.0l5.4986877 18.501343" fill-rule="evenodd"/><path stroke="#ffffff" stroke-width="12.0" stroke-linejoin="round" stroke-linecap="butt" d="m283.5013 578.0l5.4986877 18.501343" fill-rule="evenodd"/><path fill="#000000" fill-opacity="0.0" d="m212.50131 250.0l-2.0 -19.498688" fill-rule="evenodd"/><path stroke="#ffffff" stroke-width="12.0" stroke-linejoin="round" stroke-linecap="butt" d="m212.50131 250.0l-2.0 -19.498688" fill-rule="evenodd"/><path fill="#000000" fill-opacity="0.0" d="m415.0 156.0l-4.4986877 -17.0" fill-rule="evenodd"/><path stroke="#ffffff" stroke-width="12.0" stroke-linejoin="round" stroke-linecap="butt" d="m415.0 156.0l-4.4986877 -17.0" fill-rule="evenodd"/><path fill="#000000" fill-opacity="0.0" d="m487.5013 129.50131l-0.50131226 -18.0" fill-rule="evenodd"/><path stroke="#ffffff" stroke-width="12.0" stroke-linejoin="round" stroke-linecap="butt" d="m487.5013 129.50131l-0.50131226 -18.0" fill-rule="evenodd"/><path fill="#000000" fill-opacity="0.0" d="m305.0 216.50131l1.5013123 -18.501312" fill-rule="evenodd"/><path stroke="#ffffff" stroke-width="12.0" stroke-linejoin="round" stroke-linecap="butt" d="m305.0 216.50131l1.5013123 -18.501312" fill-rule="evenodd"/><path fill="#000000" fill-opacity="0.0" d="m240.0 422.5013l24.501312 -17.0l49.498688 -16.501312l130.0 -17.498688l105.0 25.0l94.50134 -33.501312" fill-rule="evenodd"/><path stroke="#ffffff" stroke-width="12.0" stroke-linejoin="round" stroke-linecap="butt" d="m240.0 422.5013l24.501312 -17.0l49.498688 -16.501312l130.0 -17.498688l105.0 25.0l94.50134 -33.501312" fill-rule="evenodd"/><path fill="#000000" fill-opacity="0.0" d="m456.5013 219.0l87.49869 -35.0" fill-rule="evenodd"/><path stroke="#ffffff" stroke-width="12.0" stroke-linejoin="round" stroke-linecap="butt" d="m456.5013 219.0l87.49869 -35.0" fill-rule="evenodd"/><path fill="#000000" fill-opacity="0.0" d="m734.50134 269.5013l-50.0 14.498688l-30.501343 33.501312l-15.0 9.498688l-34.0 11.0l-46.498657 12.0l-30.0 -9.498688l-86.50134 30.498688" fill-rule="evenodd"/><path stroke="#ffffff" stroke-width="12.0" stroke-linejoin="round" stroke-linecap="butt" d="m734.50134 269.5013l-50.0 14.498688l-30.501343 33.501312l-15.0 9.498688l-34.0 11.0l-46.498657 12.0l-30.0 -9.498688l-86.50134 30.498688" fill-rule="evenodd"/><path fill="#000000" fill-opacity="0.0" d="m408.0 253.50131l80.50131 -31.501312l15.498688 -10.0l39.0 -11.0l35.0 -11.0l63.0 4.0l60.0 -4.4986877" fill-rule="evenodd"/><path stroke="#ffffff" stroke-width="12.0" stroke-linejoin="round" stroke-linecap="butt" d="m408.0 253.50131l80.50131 -31.501312l15.498688 -10.0l39.0 -11.0l35.0 -11.0l63.0 4.0l60.0 -4.4986877" fill-rule="evenodd"/><path fill="#000000" fill-opacity="0.0" d="m711.50134 209.50131l14.498657 15.498688l2.5013428 10.501312l6.498657 6.0l4.501343 15.498688" fill-rule="evenodd"/><path stroke="#ffffff" stroke-width="12.0" stroke-linejoin="round" stroke-linecap="butt" d="m711.50134 209.50131l14.498657 15.498688l2.5013428 10.501312l6.498657 6.0l4.501343 15.498688" fill-rule="evenodd"/><path fill="#000000" fill-opacity="0.0" d="m737.50134 215.50131l14.0 28.0" fill-rule="evenodd"/><path stroke="#ffffff" stroke-width="12.0" stroke-linejoin="round" stroke-linecap="butt" d="m737.50134 215.50131l14.0 28.0" fill-rule="evenodd"/><path fill="#000000" fill-opacity="0.0" d="m734.50134 302.5013l4.0 -19.501312l-10.0 -12.0" fill-rule="evenodd"/><path stroke="#ffffff" stroke-width="12.0" stroke-linejoin="round" stroke-linecap="butt" d="m734.50134 302.5013l4.0 -19.501312l-10.0 -12.0" fill-rule="evenodd"/><path fill="#000000" fill-opacity="0.0" d="m269.5013 352.0l9.498688 34.501312l75.0 -29.501312l92.50131 -32.0l16.498688 -2.0l82.50134 -32.498688l19.498657 -16.0l-15.0 -34.0l-29.0 2.0l-84.0 28.498688l-21.0 13.0l-73.49869 33.0z" fill-rule="evenodd"/><path stroke="#ffffff" stroke-width="12.0" stroke-linejoin="round" stroke-linecap="butt" d="m269.5013 352.0l9.498688 34.501312l75.0 -29.501312l92.50131 -32.0l16.498688 -2.0l82.50134 -32.498688l19.498657 -16.0l-15.0 -34.0l-29.0 2.0l-84.0 28.498688l-21.0 13.0l-73.49869 33.0z" fill-rule="evenodd"/><path fill="#000000" fill-opacity="0.0" d="m493.0 256.0l17.501312 43.501312" fill-rule="evenodd"/><path stroke="#ffffff" stroke-width="12.0" stroke-linejoin="round" stroke-linecap="butt" d="m493.0 256.0l17.501312 43.501312" fill-rule="evenodd"/><path fill="#000000" fill-opacity="0.0" d="m641.6273 324.87927l1.435669 -19.61679l-8.13385 -12.91864l-2.3936768 -17.70343l-8.133911 -7.1758423l1.43573 -14.35434l-14.832031 -29.18634l-8.614197 -4.3070984l-1.4330444 -13.874008l-18.661438 -13.398956" fill-rule="evenodd"/><path stroke="#ffffff" stroke-width="12.0" stroke-linejoin="round" stroke-linecap="butt" d="m641.6273 324.87927l1.435669 -19.61679l-8.13385 -12.91864l-2.3936768 -17.70343l-8.133911 -7.1758423l1.43573 -14.35434l-14.832031 -29.18634l-8.614197 -4.3070984l-1.4330444 -13.874008l-18.661438 -13.398956" fill-rule="evenodd"/></g></svg>