<svg version="1.1" viewBox="0.0 0.0 960.0 720.0" fill="none" stroke="none" stroke-linecap="square" stroke-miterlimit="10" xmlns:xlink="http://www.w3.org/1999/xlink" xmlns="http://www.w3.org/2000/svg"><clipPath id="p.0"><path d="m0 0l960.0 0l0 720.0l-960.0 0l0 -720.0z" clip-rule="nonzero"/></clipPath><g clip-path="url(#p.0)"><path fill="#000000" fill-opacity="0.0" d="m0 0l960.0 0l0 720.0l-960.0 0z" fill-rule="evenodd"/><path fill="#000000" fill-opacity="0.0" d="m299.33334 132.66667l67.33331 -22.666672l32.0 11.333336l13.3333435 -3.3333359l86.66666 29.333328l6.666687 7.3333435l49.99997 14.0l46.666687 12.0l15.333313 26.666656l-4.0 8.0l25.333374 55.33333l12.0 8.0l15.333313 31.333344l-23.333313 44.666656l-6.666687 1.3333435l-24.666687 54.0l0 10.6666565l-48.666626 102.66666l-12.666687 3.333374l-20.666687 48.0l-93.99997 34.0l-32.0 -83.333374l4.6666565 -8.666626l-57.333344 -169.33334l2.0 -15.3333435l-8.0 -27.333344l-6.0 -4.0l-28.666656 -123.33333l-8.0 -4.0z" fill-rule="evenodd"/><path stroke="#ffffff" stroke-width="12.0" stroke-linejoin="round" stroke-linecap="butt" d="m299.33334 132.66667l67.33331 -22.666672l32.0 11.333336l13.3333435 -3.3333359l86.66666 29.333328l6.666687 7.3333435l49.99997 14.0l46.666687 12.0l15.333313 26.666656l-4.0 8.0l25.333374 55.33333l12.0 8.0l15.333313 31.333344l-23.333313 44.666656l-6.666687 1.3333435l-24.666687 54.0l0 10.6666565l-48.666626 102.66666l-12.666687 3.333374l-20.666687 48.0l-93.99997 34.0l-32.0 -83.333374l4.6666565 -8.666626l-57.333344 -169.33334l2.0 -15.3333435l-8.0 -27.333344l-6.0 -4.0l-28.666656 -123.33333l-8.0 -4.0z" fill-rule="evenodd"/><path fill="#000000" fill-opacity="0.0" d="m326.66666 248.0l-30.0 19.333344l2.0 20.0l12.0 7.333313l25.333344 -2.0" fill-rule="evenodd"/><path stroke="#ffffff" stroke-width="12.0" stroke-linejoin="round" stroke-linecap="butt" d="m326.66666 248.0l-30.0 19.333344l2.0 20.0l12.0 7.333313l25.333344 -2.0" fill-rule="evenodd"/><path fill="#000000" fill-opacity="0.0" d="m342.66666 306.0l-24.666656 9.3333435l4.0 6.0l15.3333435 4.0l12.6666565 -3.3333435" fill-rule="evenodd"/><path stroke="#ffffff" stroke-width="12.0" stroke-linejoin="round" stroke-linecap="butt" d="m342.66666 306.0l-24.666656 9.3333435l4.0 6.0l15.3333435 4.0l12.6666565 -3.3333435" fill-rule="evenodd"/><path fill="#000000" fill-opacity="0.0" d="m350.66666 355.33334l-16.666656 7.333313l-8.6666565 18.0l9.333313 31.333344l40.666687 9.3333435" fill-rule="evenodd"/><path stroke="#ffffff" stroke-width="12.0" stroke-linejoin="round" stroke-linecap="butt" d="m350.66666 355.33334l-16.666656 7.333313l-8.6666565 18.0l9.333313 31.333344l40.666687 9.3333435" fill-rule="evenodd"/><path fill="#000000" fill-opacity="0.0" d="m377.33334 422.66666l-26.0 10.0l28.0 -1.333313" fill-rule="evenodd"/><path stroke="#ffffff" stroke-width="12.0" stroke-linejoin="round" stroke-linecap="butt" d="m377.33334 422.66666l-26.0 10.0l28.0 -1.333313" fill-rule="evenodd"/><path fill="#000000" fill-opacity="0.0" d="m553.3333 526.0l-33.333313 4.666687l-10.6666565 -28.00003l91.99997 -100.66666l8.666687 6.0" fill-rule="evenodd"/><path stroke="#ffffff" stroke-width="12.0" stroke-linejoin="round" stroke-linecap="butt" d="m553.3333 526.0l-33.333313 4.666687l-10.6666565 -28.00003l91.99997 -100.66666l8.666687 6.0" fill-rule="evenodd"/><path fill="#000000" fill-opacity="0.0" d="m504.66666 158.0l-121.33331 -14.0l-2.0 -12.666672l13.333313 -10.666664" fill-rule="evenodd"/><path stroke="#ffffff" stroke-width="12.0" stroke-linejoin="round" stroke-linecap="butt" d="m504.66666 158.0l-121.33331 -14.0l-2.0 -12.666672l13.333313 -10.666664" fill-rule="evenodd"/><path fill="#000000" fill-opacity="0.0" d="m302.66666 159.33333l38.666687 -6.6666565l26.666656 -43.333336" fill-rule="evenodd"/><path stroke="#ffffff" stroke-width="12.0" stroke-linejoin="round" stroke-linecap="butt" d="m302.66666 159.33333l38.666687 -6.6666565l26.666656 -43.333336" fill-rule="evenodd"/><path fill="#000000" fill-opacity="0.0" d="m342.66666 154.0l148.0 71.33333l46.666656 0l63.333374 -46.0" fill-rule="evenodd"/><path stroke="#ffffff" stroke-width="12.0" stroke-linejoin="round" stroke-linecap="butt" d="m342.66666 154.0l148.0 71.33333l46.666656 0l63.333374 -46.0" fill-rule="evenodd"/><path fill="#000000" fill-opacity="0.0" d="m667.3333 312.0l-105.33331 -19.333344l-38.0 28.666687l-68.0 203.33334l73.33331 48.666626" fill-rule="evenodd"/><path stroke="#ffffff" stroke-width="12.0" stroke-linejoin="round" stroke-linecap="butt" d="m667.3333 312.0l-105.33331 -19.333344l-38.0 28.666687l-68.0 203.33334l73.33331 48.666626" fill-rule="evenodd"/><path fill="#000000" fill-opacity="0.0" d="m409.33334 547.3333l47.333313 -23.333313" fill-rule="evenodd"/><path stroke="#ffffff" stroke-width="12.0" stroke-linejoin="round" stroke-linecap="butt" d="m409.33334 547.3333l47.333313 -23.333313" fill-rule="evenodd"/><path fill="#000000" fill-opacity="0.0" d="m372.0 402.66666l35.333344 -10.0l16.666656 -14.6666565l22.0 -66.66666l50.666656 -30.666687l-8.0 -20.0l-62.666656 4.0l-47.333344 -23.999985l-13.333313 -2.6666718l-36.666687 10.666672" fill-rule="evenodd"/><path stroke="#ffffff" stroke-width="12.0" stroke-linejoin="round" stroke-linecap="butt" d="m372.0 402.66666l35.333344 -10.0l16.666656 -14.6666565l22.0 -66.66666l50.666656 -30.666687l-8.0 -20.0l-62.666656 4.0l-47.333344 -23.999985l-13.333313 -2.6666718l-36.666687 10.666672" fill-rule="evenodd"/><path fill="#000000" fill-opacity="0.0" d="m356.66666 358.66666l87.33334 -46.666656" fill-rule="evenodd"/><path stroke="#ffffff" stroke-width="12.0" stroke-linejoin="round" stroke-linecap="butt" d="m356.66666 358.66666l87.33334 -46.666656" fill-rule="evenodd"/><path fill="#000000" fill-opacity="0.0" d="m426.66666 264.66666l-92.66666 16.666687" fill-rule="evenodd"/><path stroke="#ffffff" stroke-width="12.0" stroke-linejoin="round" stroke-linecap="butt" d="m426.66666 264.66666l-92.66666 16.666687" fill-rule="evenodd"/><path fill="#000000" fill-opacity="0.0" d="m544.0 219.33333l26.0 9.856934l17.333313 42.244003l-13.333313 23.234192" fill-rule="evenodd"/><path stroke="#ffffff" stroke-width="12.0" stroke-linejoin="round" stroke-linecap="butt" d="m544.0 219.33333l26.0 9.856934l17.333313 42.244003l-13.333313 23.234192" fill-rule="evenodd"/><path fill="#000000" fill-opacity="0.0" d="m538.6667 224.66667l-5.333374 14.6666565l18.666687 42.000015l19.333313 12.6666565" fill-rule="evenodd"/><path stroke="#ffffff" stroke-width="12.0" stroke-linejoin="round" stroke-linecap="butt" d="m538.6667 224.66667l-5.333374 14.6666565l18.666687 42.000015l19.333313 12.6666565" fill-rule="evenodd"/><path fill="#000000" fill-opacity="0.0" d="m539.3333 166.66667l15.333374 22.666656l34.666626 -1.3333282" fill-rule="evenodd"/><path stroke="#ffffff" stroke-width="12.0" stroke-linejoin="round" stroke-linecap="butt" d="m539.3333 166.66667l15.333374 22.666656l34.666626 -1.3333282" fill-rule="evenodd"/><path fill="#000000" fill-opacity="0.0" d="m640.6667 308.0l-10.0 12.6666565l-16.0 4.666687l3.333313 18.0l6.0 6.6666565l17.333313 2.0" fill-rule="evenodd"/><path stroke="#ffffff" stroke-width="12.0" stroke-linejoin="round" stroke-linecap="butt" d="m640.6667 308.0l-10.0 12.6666565l-16.0 4.666687l3.333313 18.0l6.0 6.6666565l17.333313 2.0" fill-rule="evenodd"/></g></svg>