<svg version="1.1" viewBox="0.0 0.0 960.0 720.0" fill="none" stroke="none" stroke-linecap="square" stroke-miterlimit="10" xmlns:xlink="http://www.w3.org/1999/xlink" xmlns="http://www.w3.org/2000/svg"><clipPath id="p.0"><path d="m0 0l960.0 0l0 720.0l-960.0 0l0 -720.0z" clip-rule="nonzero"/></clipPath><g clip-path="url(#p.0)"><path fill="#000000" fill-opacity="0.0" d="m0 0l960.0 0l0 720.0l-960.0 0z" fill-rule="evenodd"/><path fill="#000000" fill-opacity="0.0" d="m234.66667 205.33333l56.66667 -41.33333l16.0 -6.6666718l145.33331 -19.333328l22.0 6.6666718l163.33334 -32.66667l17.333313 17.333328l8.0 22.0l26.666687 32.0l20.0 6.6666718l18.0 22.0l-72.0 157.33334l3.333313 23.333313l-50.666626 146.00003l-9.333374 18.0l-60.666626 52.0l-56.666687 -52.666687l20.666656 -82.66666l-40.0 19.333313l-14.6666565 0.666687l-30.666656 -35.333344l0.6666565 -8.0l42.666656 -59.333344l0 -12.0l14.666687 -26.0l-42.666687 15.3333435l-21.333313 -27.333344l22.666656 -39.333313l-12.0 -6.666687l-89.33334 34.666687l-16.666656 0l-16.666656 -26.666687l0 -11.333313l26.0 -38.000015l-53.333344 2.6666718l-18.0 -4.0z" fill-rule="evenodd"/><path stroke="#ffffff" stroke-width="12.0" stroke-linejoin="round" stroke-linecap="butt" d="m234.66667 205.33333l56.66667 -41.33333l16.0 -6.6666718l145.33331 -19.333328l22.0 6.6666718l163.33334 -32.66667l17.333313 17.333328l8.0 22.0l26.666687 32.0l20.0 6.6666718l18.0 22.0l-72.0 157.33334l3.333313 23.333313l-50.666626 146.00003l-9.333374 18.0l-60.666626 52.0l-56.666687 -52.666687l20.666656 -82.66666l-40.0 19.333313l-14.6666565 0.666687l-30.666656 -35.333344l0.6666565 -8.0l42.666656 -59.333344l0 -12.0l14.666687 -26.0l-42.666687 15.3333435l-21.333313 -27.333344l22.666656 -39.333313l-12.0 -6.666687l-89.33334 34.666687l-16.666656 0l-16.666656 -26.666687l0 -11.333313l26.0 -38.000015l-53.333344 2.6666718l-18.0 -4.0z" fill-rule="evenodd"/><path fill="#000000" fill-opacity="0.0" d="m321.33334 254.66667l89.33331 -46.66667l90.66669 6.6666718l-81.33334 79.33333" fill-rule="evenodd"/><path stroke="#ffffff" stroke-width="12.0" stroke-linejoin="round" stroke-linecap="butt" d="m321.33334 254.66667l89.33331 -46.66667l90.66669 6.6666718l-81.33334 79.33333" fill-rule="evenodd"/><path fill="#000000" fill-opacity="0.0" d="m462.0 390.0l18.666656 -24.666656l98.66666 -50.0l-8.666626 93.33331l-70.66669 65.33334" fill-rule="evenodd"/><path stroke="#ffffff" stroke-width="12.0" stroke-linejoin="round" stroke-linecap="butt" d="m462.0 390.0l18.666656 -24.666656l98.66666 -50.0l-8.666626 93.33331l-70.66669 65.33334" fill-rule="evenodd"/><path fill="#000000" fill-opacity="0.0" d="m641.3333 114.666664l-64.666626 98.666664l-152.66669 82.66667" fill-rule="evenodd"/><path stroke="#ffffff" stroke-width="12.0" stroke-linejoin="round" stroke-linecap="butt" d="m641.3333 114.666664l-64.666626 98.666664l-152.66669 82.66667" fill-rule="evenodd"/><path fill="#000000" fill-opacity="0.0" d="m474.66666 367.33334l126.66666 -128.00002l125.333374 -29.333328" fill-rule="evenodd"/><path stroke="#ffffff" stroke-width="12.0" stroke-linejoin="round" stroke-linecap="butt" d="m474.66666 367.33334l126.66666 -128.00002l125.333374 -29.333328" fill-rule="evenodd"/><path fill="#000000" fill-opacity="0.0" d="m640.0 228.0l-0.666687 -14.0l-25.333313 -30.0l-13.333313 -2.0" fill-rule="evenodd"/><path stroke="#ffffff" stroke-width="12.0" stroke-linejoin="round" stroke-linecap="butt" d="m640.0 228.0l-0.666687 -14.0l-25.333313 -30.0l-13.333313 -2.0" fill-rule="evenodd"/><path fill="#000000" fill-opacity="0.0" d="m605.3333 178.0l55.333374 -28.0" fill-rule="evenodd"/><path stroke="#ffffff" stroke-width="12.0" stroke-linejoin="round" stroke-linecap="butt" d="m605.3333 178.0l55.333374 -28.0" fill-rule="evenodd"/><path fill="#000000" fill-opacity="0.0" d="m646.0 229.33333l41.333313 -46.0" fill-rule="evenodd"/><path stroke="#ffffff" stroke-width="12.0" stroke-linejoin="round" stroke-linecap="butt" d="m646.0 229.33333l41.333313 -46.0" fill-rule="evenodd"/><path fill="#000000" fill-opacity="0.0" d="m449.33334 492.66666l79.99997 -77.33331l4.0 -74.66669" fill-rule="evenodd"/><path stroke="#ffffff" stroke-width="12.0" stroke-linejoin="round" stroke-linecap="butt" d="m449.33334 492.66666l79.99997 -77.33331l4.0 -74.66669" fill-rule="evenodd"/><path fill="#000000" fill-opacity="0.0" d="m528.6667 416.66666l36.0 -4.6666565" fill-rule="evenodd"/><path stroke="#ffffff" stroke-width="12.0" stroke-linejoin="round" stroke-linecap="butt" d="m528.6667 416.66666l36.0 -4.6666565" fill-rule="evenodd"/><path fill="#000000" fill-opacity="0.0" d="m300.0 292.66666l100.0 -62.666656l82.0 2.6666718" fill-rule="evenodd"/><path stroke="#ffffff" stroke-width="12.0" stroke-linejoin="round" stroke-linecap="butt" d="m300.0 292.66666l100.0 -62.666656l82.0 2.6666718" fill-rule="evenodd"/><path fill="#000000" fill-opacity="0.0" d="m399.33334 230.0l12.0 -22.666672" fill-rule="evenodd"/><path stroke="#ffffff" stroke-width="12.0" stroke-linejoin="round" stroke-linecap="butt" d="m399.33334 230.0l12.0 -22.666672" fill-rule="evenodd"/><path fill="#000000" fill-opacity="0.0" d="m434.0 300.0l73.33334 -36.0l23.99997 28.0l-62.666656 60.0" fill-rule="evenodd"/><path stroke="#ffffff" stroke-width="12.0" stroke-linejoin="round" stroke-linecap="butt" d="m434.0 300.0l73.33334 -36.0l23.99997 28.0l-62.666656 60.0" fill-rule="evenodd"/><path fill="#000000" fill-opacity="0.0" d="m502.0 317.33334l-27.333344 -32.666687" fill-rule="evenodd"/><path stroke="#ffffff" stroke-width="12.0" stroke-linejoin="round" stroke-linecap="butt" d="m502.0 317.33334l-27.333344 -32.666687" fill-rule="evenodd"/><path fill="#000000" fill-opacity="0.0" d="m332.66666 332.0l6.666687 9.3333435l12.6666565 0l-4.0 10.6666565l11.3333435 0l32.0 -22.0l36.0 -16.666656" fill-rule="evenodd"/><path stroke="#ffffff" stroke-width="12.0" stroke-linejoin="round" stroke-linecap="butt" d="m332.66666 332.0l6.666687 9.3333435l12.6666565 0l-4.0 10.6666565l11.3333435 0l32.0 -22.0l36.0 -16.666656" fill-rule="evenodd"/><path fill="#000000" fill-opacity="0.0" d="m388.66666 330.66666l-12.6666565 -15.333313" fill-rule="evenodd"/><path stroke="#ffffff" stroke-width="12.0" stroke-linejoin="round" stroke-linecap="butt" d="m388.66666 330.66666l-12.6666565 -15.333313" fill-rule="evenodd"/><path fill="#000000" fill-opacity="0.0" d="m461.99893 388.66666l-51.332275 41.776l10.42688 1.4920044l-4.0103455 19.395996" fill-rule="evenodd"/><path stroke="#ffffff" stroke-width="12.0" stroke-linejoin="round" stroke-linecap="butt" d="m461.99893 388.66666l-51.332275 41.776l10.42688 1.4920044l-4.0103455 19.395996" fill-rule="evenodd"/><path fill="#000000" fill-opacity="0.0" d="m602.0 238.66667l-22.666687 -25.333344" fill-rule="evenodd"/><path stroke="#ffffff" stroke-width="12.0" stroke-linejoin="round" stroke-linecap="butt" d="m602.0 238.66667l-22.666687 -25.333344" fill-rule="evenodd"/></g></svg>