<svg version="1.1" viewBox="0.0 0.0 960.0 720.0" fill="none" stroke="none" stroke-linecap="square" stroke-miterlimit="10" xmlns:xlink="http://www.w3.org/1999/xlink" xmlns="http://www.w3.org/2000/svg"><clipPath id="p.0"><path d="m0 0l960.0 0l0 720.0l-960.0 0l0 -720.0z" clip-rule="nonzero"/></clipPath><g clip-path="url(#p.0)"><path fill="#000000" fill-opacity="0.0" d="m0 0l960.0 0l0 720.0l-960.0 0z" fill-rule="evenodd"/><path fill="#000000" fill-opacity="0.0" d="m235.0 263.5013l82.0 -30.0l-3.4986877 11.0l48.0 29.0l34.0 -4.5013123l73.49869 -49.498688l-31.0 -43.501312l-12.498688 -2.4986877l74.0 -28.501312l-1.5013123 7.5013123l14.501343 5.4986877l47.0 27.0l30.0 -7.0l108.49866 2.0l19.0 9.501312l-1.0 11.498688l15.501343 8.0l11.0 -2.0l11.0 8.0l17.498657 -1.4986877l12.0 20.0l-34.0 34.498688l10.501343 3.5013123l5.498657 9.0l-4.0 11.498688l-22.0 20.0l-42.0 22.501312l-11.0 9.498688l-30.0 19.0l-22.0 123.50131l10.501343 4.4986877l34.0 -5.4986877l12.498657 30.00003l-48.0 26.498657l-69.49866 25.0l-14.0 0.5013428l-13.0 -6.0l-8.0 -15.501343l6.0 -16.0l11.0 -13.0l10.0 -2.0l-8.501343 -11.498688l0 -19.0l-7.498657 -43.0l-24.501343 -36.0l-26.498688 8.498688l-33.0 -14.498688l-52.0 39.498688l-27.0 84.50134l10.0 6.498657l31.498688 -4.0l9.501312 29.0l-38.0 25.501343l-76.50131 29.498657l-38.498688 0l-7.0 -24.498657l16.498688 -18.0l23.0 -10.501343l-9.498688 -19.0l2.0 -8.0l24.0 -8.0l-6.5013123 -33.498688l-8.0 -1.5013123l-6.4986877 -7.0l-1.5013123 -14.498688l-21.498688 -27.501312l15.0 -47.0l-4.5013123 -27.498688l-46.498688 10.498688l-1.0 -5.0l43.0 -23.498688l-5.5013123 -14.501312l-15.498688 -15.0l5.4986877 -20.498688l-7.0 -17.0l-14.498688 3.4986877l-12.501312 -7.4986877l1.5013123 -9.501312z" fill-rule="evenodd"/><path stroke="#ffffff" stroke-width="12.0" stroke-linejoin="round" stroke-linecap="butt" d="m235.0 263.5013l82.0 -30.0l-3.4986877 11.0l48.0 29.0l34.0 -4.5013123l73.49869 -49.498688l-31.0 -43.501312l-12.498688 -2.4986877l74.0 -28.501312l-1.5013123 7.5013123l14.501343 5.4986877l47.0 27.0l30.0 -7.0l108.49866 2.0l19.0 9.501312l-1.0 11.498688l15.501343 8.0l11.0 -2.0l11.0 8.0l17.498657 -1.4986877l12.0 20.0l-34.0 34.498688l10.501343 3.5013123l5.498657 9.0l-4.0 11.498688l-22.0 20.0l-42.0 22.501312l-11.0 9.498688l-30.0 19.0l-22.0 123.50131l10.501343 4.4986877l34.0 -5.4986877l12.498657 30.00003l-48.0 26.498657l-69.49866 25.0l-14.0 0.5013428l-13.0 -6.0l-8.0 -15.501343l6.0 -16.0l11.0 -13.0l10.0 -2.0l-8.501343 -11.498688l0 -19.0l-7.498657 -43.0l-24.501343 -36.0l-26.498688 8.498688l-33.0 -14.498688l-52.0 39.498688l-27.0 84.50134l10.0 6.498657l31.498688 -4.0l9.501312 29.0l-38.0 25.501343l-76.50131 29.498657l-38.498688 0l-7.0 -24.498657l16.498688 -18.0l23.0 -10.501343l-9.498688 -19.0l2.0 -8.0l24.0 -8.0l-6.5013123 -33.498688l-8.0 -1.5013123l-6.4986877 -7.0l-1.5013123 -14.498688l-21.498688 -27.501312l15.0 -47.0l-4.5013123 -27.498688l-46.498688 10.498688l-1.0 -5.0l43.0 -23.498688l-5.5013123 -14.501312l-15.498688 -15.0l5.4986877 -20.498688l-7.0 -17.0l-14.498688 3.4986877l-12.501312 -7.4986877l1.5013123 -9.501312z" fill-rule="evenodd"/><path fill="#000000" fill-opacity="0.0" d="m259.5013 372.0l-50.0 17.0l-4.5013123 11.0l7.0 11.501312l9.501312 72.49869l1.0 29.501343l39.498688 -16.00003l35.501312 -106.50131l-4.0 -26.0z" fill-rule="evenodd"/><path stroke="#ffffff" stroke-width="12.0" stroke-linejoin="round" stroke-linecap="butt" d="m259.5013 372.0l-50.0 17.0l-4.5013123 11.0l7.0 11.501312l9.501312 72.49869l1.0 29.501343l39.498688 -16.00003l35.501312 -106.50131l-4.0 -26.0z" fill-rule="evenodd"/><path fill="#000000" fill-opacity="0.0" d="m269.5013 319.0l-56.501312 -54.0l-37.498688 11.0l8.498688 13.0l19.501312 76.50131l-2.5013123 8.0l6.0 9.498688l39.501312 -13.498688l45.498688 -30.0z" fill-rule="evenodd"/><path stroke="#ffffff" stroke-width="12.0" stroke-linejoin="round" stroke-linecap="butt" d="m269.5013 319.0l-56.501312 -54.0l-37.498688 11.0l8.498688 13.0l19.501312 76.50131l-2.5013123 8.0l6.0 9.498688l39.501312 -13.498688l45.498688 -30.0z" fill-rule="evenodd"/><path fill="#000000" fill-opacity="0.0" d="m314.5013 558.50134l81.0 -29.0" fill-rule="evenodd"/><path stroke="#ffffff" stroke-width="12.0" stroke-linejoin="round" stroke-linecap="butt" d="m314.5013 558.50134l81.0 -29.0" fill-rule="evenodd"/><path fill="#000000" fill-opacity="0.0" d="m564.50134 516.0l76.0 -28.0" fill-rule="evenodd"/><path stroke="#ffffff" stroke-width="12.0" stroke-linejoin="round" stroke-linecap="butt" d="m564.50134 516.0l76.0 -28.0" fill-rule="evenodd"/><path fill="#000000" fill-opacity="0.0" d="m442.5013 183.0l-12.0 4.5013123l-15.501312 -6.5013123l-8.498688 -14.498688l-5.0 -15.0l21.498688 -14.0l69.50131 -26.501312l22.498688 -1.4986877l4.501343 8.0l-2.0 7.0l9.498657 8.0l-6.0 19.0l-13.498688 4.4986877" fill-rule="evenodd"/><path stroke="#ffffff" stroke-width="12.0" stroke-linejoin="round" stroke-linecap="butt" d="m442.5013 183.0l-12.0 4.5013123l-15.501312 -6.5013123l-8.498688 -14.498688l-5.0 -15.0l21.498688 -14.0l69.50131 -26.501312l22.498688 -1.4986877l4.501343 8.0l-2.0 7.0l9.498657 8.0l-6.0 19.0l-13.498688 4.4986877" fill-rule="evenodd"/><path fill="#000000" fill-opacity="0.0" d="m324.0 250.50131l18.501312 -14.501312l-6.0 -30.498688l-12.501312 -7.0l-17.498688 -0.50131226l-78.0 27.501312l-8.0 6.4986877l-13.501312 6.0l-1.4986877 10.501312l8.498688 10.0l13.501312 8.0l4.4986877 8.0l16.501312 -1.5013123" fill-rule="evenodd"/><path stroke="#ffffff" stroke-width="12.0" stroke-linejoin="round" stroke-linecap="butt" d="m324.0 250.50131l18.501312 -14.501312l-6.0 -30.498688l-12.501312 -7.0l-17.498688 -0.50131226l-78.0 27.501312l-8.0 6.4986877l-13.501312 6.0l-1.4986877 10.501312l8.498688 10.0l13.501312 8.0l4.4986877 8.0l16.501312 -1.5013123" fill-rule="evenodd"/><path fill="#000000" fill-opacity="0.0" d="m221.0 259.5013l11.501312 -11.0l46.498688 -18.0l37.0 -15.0l16.0 1.0l6.5013123 24.498688" fill-rule="evenodd"/><path stroke="#ffffff" stroke-width="12.0" stroke-linejoin="round" stroke-linecap="butt" d="m221.0 259.5013l11.501312 -11.0l46.498688 -18.0l37.0 -15.0l16.0 1.0l6.5013123 24.498688" fill-rule="evenodd"/><path fill="#000000" fill-opacity="0.0" d="m412.0 169.50131l16.501312 -12.501312l72.49869 -27.498688l15.501343 -3.0l7.0 5.0l-6.501343 19.498688" fill-rule="evenodd"/><path stroke="#ffffff" stroke-width="12.0" stroke-linejoin="round" stroke-linecap="butt" d="m412.0 169.50131l16.501312 -12.501312l72.49869 -27.498688l15.501343 -3.0l7.0 5.0l-6.501343 19.498688" fill-rule="evenodd"/><path fill="#000000" fill-opacity="0.0" d="m285.5013 606.0l76.0 -30.0l13.0 -0.49865723l60.0 -22.501343" fill-rule="evenodd"/><path stroke="#ffffff" stroke-width="12.0" stroke-linejoin="round" stroke-linecap="butt" d="m285.5013 606.0l76.0 -30.0l13.0 -0.49865723l60.0 -22.501343" fill-rule="evenodd"/><path fill="#000000" fill-opacity="0.0" d="m553.0 561.50134l5.501343 -1.5013428l70.0 -29.0l22.498657 -0.49865723l38.501343 -18.0" fill-rule="evenodd"/><path stroke="#ffffff" stroke-width="12.0" stroke-linejoin="round" stroke-linecap="butt" d="m553.0 561.50134l5.501343 -1.5013428l70.0 -29.0l22.498657 -0.49865723l38.501343 -18.0" fill-rule="evenodd"/><path fill="#000000" fill-opacity="0.0" d="m573.50134 555.50134l-11.501343 -27.501343l-20.0 8.0" fill-rule="evenodd"/><path stroke="#ffffff" stroke-width="12.0" stroke-linejoin="round" stroke-linecap="butt" d="m573.50134 555.50134l-11.501343 -27.501343l-20.0 8.0" fill-rule="evenodd"/><path fill="#000000" fill-opacity="0.0" d="m304.0 597.50134l-7.0 -30.0" fill-rule="evenodd"/><path stroke="#ffffff" stroke-width="12.0" stroke-linejoin="round" stroke-linecap="butt" d="m304.0 597.50134l-7.0 -30.0" fill-rule="evenodd"/><path fill="#000000" fill-opacity="0.0" d="m229.50131 253.50131l-3.5013123 -24.501312" fill-rule="evenodd"/><path stroke="#ffffff" stroke-width="12.0" stroke-linejoin="round" stroke-linecap="butt" d="m229.50131 253.50131l-3.5013123 -24.501312" fill-rule="evenodd"/><path fill="#000000" fill-opacity="0.0" d="m431.0 158.50131l-9.0 -19.501312" fill-rule="evenodd"/><path stroke="#ffffff" stroke-width="12.0" stroke-linejoin="round" stroke-linecap="butt" d="m431.0 158.50131l-9.0 -19.501312" fill-rule="evenodd"/><path fill="#000000" fill-opacity="0.0" d="m395.5013 269.5013l-81.0 57.0l-27.0 8.0" fill-rule="evenodd"/><path stroke="#ffffff" stroke-width="12.0" stroke-linejoin="round" stroke-linecap="butt" d="m395.5013 269.5013l-81.0 57.0l-27.0 8.0" fill-rule="evenodd"/><path fill="#000000" fill-opacity="0.0" d="m298.5013 406.0l29.498688 -9.0l38.501312 5.0l90.49869 -10.0l17.0 11.501312" fill-rule="evenodd"/><path stroke="#ffffff" stroke-width="12.0" stroke-linejoin="round" stroke-linecap="butt" d="m298.5013 406.0l29.498688 -9.0l38.501312 5.0l90.49869 -10.0l17.0 11.501312" fill-rule="evenodd"/><path fill="#000000" fill-opacity="0.0" d="m328.5013 397.0l35.0 -11.0l89.0 -16.0l118.00003 27.0l85.49866 -34.498688" fill-rule="evenodd"/><path stroke="#ffffff" stroke-width="12.0" stroke-linejoin="round" stroke-linecap="butt" d="m328.5013 397.0l35.0 -11.0l89.0 -16.0l118.00003 27.0l85.49866 -34.498688" fill-rule="evenodd"/><path fill="#000000" fill-opacity="0.0" d="m461.5013 224.50131l28.498688 -14.501312l70.0 -19.498688l67.0 -11.501312" fill-rule="evenodd"/><path stroke="#ffffff" stroke-width="12.0" stroke-linejoin="round" stroke-linecap="butt" d="m461.5013 224.50131l28.498688 -14.501312l70.0 -19.498688l67.0 -11.501312" fill-rule="evenodd"/><path fill="#000000" fill-opacity="0.0" d="m749.0 269.5013l-46.0 13.498688l-46.0 42.0l-83.0 25.0l-32.498657 -9.0l-86.50134 28.0" fill-rule="evenodd"/><path stroke="#ffffff" stroke-width="12.0" stroke-linejoin="round" stroke-linecap="butt" d="m749.0 269.5013l-46.0 13.498688l-46.0 42.0l-83.0 25.0l-32.498657 -9.0l-86.50134 28.0" fill-rule="evenodd"/><path fill="#000000" fill-opacity="0.0" d="m715.50134 189.50131l-56.501343 6.4986877l-58.498657 -5.0l-75.50134 16.501312l-30.0 20.0l-75.0 24.498688" fill-rule="evenodd"/><path stroke="#ffffff" stroke-width="12.0" stroke-linejoin="round" stroke-linecap="butt" d="m715.50134 189.50131l-56.501343 6.4986877l-58.498657 -5.0l-75.50134 16.501312l-30.0 20.0l-75.0 24.498688" fill-rule="evenodd"/><path fill="#000000" fill-opacity="0.0" d="m304.0 381.0l128.50131 -48.0l25.0 -3.4986877l104.49869 -38.501312l16.0 -16.498688l-14.498657 -36.0l-31.0 4.0l-82.00003 28.498688l-40.0 23.0l-114.50131 47.0" fill-rule="evenodd"/><path stroke="#ffffff" stroke-width="12.0" stroke-linejoin="round" stroke-linecap="butt" d="m304.0 381.0l128.50131 -48.0l25.0 -3.4986877l104.49869 -38.501312l16.0 -16.498688l-14.498657 -36.0l-31.0 4.0l-82.00003 28.498688l-40.0 23.0l-114.50131 47.0" fill-rule="evenodd"/><path fill="#000000" fill-opacity="0.0" d="m532.0 302.0l-7.0 -7.4986877l-16.0 -43.0" fill-rule="evenodd"/><path stroke="#ffffff" stroke-width="12.0" stroke-linejoin="round" stroke-linecap="butt" d="m532.0 302.0l-7.0 -7.4986877l-16.0 -43.0" fill-rule="evenodd"/><path fill="#000000" fill-opacity="0.0" d="m730.0 209.0l20.501343 34.0l1.0 23.0" fill-rule="evenodd"/><path stroke="#ffffff" stroke-width="12.0" stroke-linejoin="round" stroke-linecap="butt" d="m730.0 209.0l20.501343 34.0l1.0 23.0" fill-rule="evenodd"/><path fill="#000000" fill-opacity="0.0" d="m752.0 212.50131l11.0 20.0l-10.0 30.498688" fill-rule="evenodd"/><path stroke="#ffffff" stroke-width="12.0" stroke-linejoin="round" stroke-linecap="butt" d="m752.0 212.50131l11.0 20.0l-10.0 30.498688" fill-rule="evenodd"/><path fill="#000000" fill-opacity="0.0" d="m595.0 192.50131l20.501343 12.231598l-0.5013428 13.761887l9.501343 6.115799l14.0 30.068024l0 13.250885l17.0 21.91629l0 34.65622" fill-rule="evenodd"/><path stroke="#ffffff" stroke-width="12.0" stroke-linejoin="round" stroke-linecap="butt" d="m595.0 192.50131l20.501343 12.231598l-0.5013428 13.761887l9.501343 6.115799l14.0 30.068024l0 13.250885l17.0 21.91629l0 34.65622" fill-rule="evenodd"/></g></svg>