<svg version="1.1" viewBox="0.0 0.0 960.0 720.0" fill="none" stroke="none" stroke-linecap="square" stroke-miterlimit="10" xmlns:xlink="http://www.w3.org/1999/xlink" xmlns="http://www.w3.org/2000/svg"><clipPath id="p.0"><path d="m0 0l960.0 0l0 720.0l-960.0 0l0 -720.0z" clip-rule="nonzero"/></clipPath><g clip-path="url(#p.0)"><path fill="#000000" fill-opacity="0.0" d="m0 0l960.0 0l0 720.0l-960.0 0z" fill-rule="evenodd"/><path fill="#000000" fill-opacity="0.0" d="m313.5013 209.0l18.0 -10.0l14.0 -1.4986877l15.498688 2.0l15.0 -6.0l16.0 -1.5013123l-6.0 14.0l5.0 11.501312l24.501312 9.498688l12.498688 -1.0l63.501312 7.0l58.00003 -24.0l26.0 -9.0l32.498657 -9.0l39.0 -7.4986877l37.0 -7.0l46.0 -4.0l38.0 -3.0l42.0 5.0l7.501343 7.0l0.49865723 10.498688l-25.0 25.0l-42.498657 27.0l-77.0 48.0l-33.0 13.501312l-33.0 11.0l-56.0 22.498688l-9.501343 7.5013123l-52.0 62.0l-8.498688 8.498688l-1.0 7.0l-12.501312 25.501312l2.0 15.0l11.501312 10.0l-34.0 8.0l-30.0 15.498688l-26.501312 7.0l6.5013123 -11.498688l-4.0 -10.501312l-23.501312 -26.498688l-16.0 -10.0l-53.0 -26.0l-36.0 -8.501312l-31.498688 -5.0l-39.501312 -3.0l-11.498688 -2.0l-40.501312 5.0l34.501312 -13.498688l-3.0 -16.0l-32.501312 8.0l11.501312 -9.0l24.498688 -10.0l27.0 -15.501312l24.0 -18.0l45.501312 -39.0l30.0 -34.0l17.498688 -27.498688l1.0 -10.0l-12.498688 -10.0z" fill-rule="evenodd"/><path stroke="#ffffff" stroke-width="12.0" stroke-linejoin="round" stroke-linecap="butt" d="m313.5013 209.0l18.0 -10.0l14.0 -1.4986877l15.498688 2.0l15.0 -6.0l16.0 -1.5013123l-6.0 14.0l5.0 11.501312l24.501312 9.498688l12.498688 -1.0l63.501312 7.0l58.00003 -24.0l26.0 -9.0l32.498657 -9.0l39.0 -7.4986877l37.0 -7.0l46.0 -4.0l38.0 -3.0l42.0 5.0l7.501343 7.0l0.49865723 10.498688l-25.0 25.0l-42.498657 27.0l-77.0 48.0l-33.0 13.501312l-33.0 11.0l-56.0 22.498688l-9.501343 7.5013123l-52.0 62.0l-8.498688 8.498688l-1.0 7.0l-12.501312 25.501312l2.0 15.0l11.501312 10.0l-34.0 8.0l-30.0 15.498688l-26.501312 7.0l6.5013123 -11.498688l-4.0 -10.501312l-23.501312 -26.498688l-16.0 -10.0l-53.0 -26.0l-36.0 -8.501312l-31.498688 -5.0l-39.501312 -3.0l-11.498688 -2.0l-40.501312 5.0l34.501312 -13.498688l-3.0 -16.0l-32.501312 8.0l11.501312 -9.0l24.498688 -10.0l27.0 -15.501312l24.0 -18.0l45.501312 -39.0l30.0 -34.0l17.498688 -27.498688l1.0 -10.0l-12.498688 -10.0z" fill-rule="evenodd"/><path fill="#000000" fill-opacity="0.0" d="m292.0 418.0l8.501312 21.0l42.498688 -1.0" fill-rule="evenodd"/><path stroke="#ffffff" stroke-width="12.0" stroke-linejoin="round" stroke-linecap="butt" d="m292.0 418.0l8.501312 21.0l42.498688 -1.0" fill-rule="evenodd"/><path fill="#000000" fill-opacity="0.0" d="m392.0 506.0l-23.0 10.0l-27.498688 19.501343l-14.501312 9.498657l-3.0 6.0l1.0 6.0l5.0 2.0l19.0 -2.4986572l36.501312 -6.501343l39.498688 -11.0l61.0 -26.0l50.501343 -28.0l6.0 -8.498688l-2.0 -8.0l-6.501343 -3.5013123l-18.0 3.0l-37.0 6.5013123" fill-rule="evenodd"/><path stroke="#ffffff" stroke-width="12.0" stroke-linejoin="round" stroke-linecap="butt" d="m392.0 506.0l-23.0 10.0l-27.498688 19.501343l-14.501312 9.498657l-3.0 6.0l1.0 6.0l5.0 2.0l19.0 -2.4986572l36.501312 -6.501343l39.498688 -11.0l61.0 -26.0l50.501343 -28.0l6.0 -8.498688l-2.0 -8.0l-6.501343 -3.5013123l-18.0 3.0l-37.0 6.5013123" fill-rule="evenodd"/><path fill="#000000" fill-opacity="0.0" d="m524.50134 466.5013l1.0 11.0l8.498657 9.0" fill-rule="evenodd"/><path stroke="#ffffff" stroke-width="12.0" stroke-linejoin="round" stroke-linecap="butt" d="m524.50134 466.5013l1.0 11.0l8.498657 9.0" fill-rule="evenodd"/><path fill="#000000" fill-opacity="0.0" d="m337.0 538.50134l6.0 19.0" fill-rule="evenodd"/><path stroke="#ffffff" stroke-width="12.0" stroke-linejoin="round" stroke-linecap="butt" d="m337.0 538.50134l6.0 19.0" fill-rule="evenodd"/><path fill="#000000" fill-opacity="0.0" d="m392.5013 203.0l10.498688 -3.0l20.0 -13.0l7.5013123 -8.498688l-2.0 -9.0l-9.0 -6.0l-13.0 -2.5013123l-33.501312 0.50131226l-31.498688 2.4986877l-33.501312 9.501312l-12.0 4.4986877l-35.498688 11.501312l-14.501312 9.498688l2.0 7.5013123l18.501312 1.0l14.0 -0.50131226l9.498688 13.501312l-5.4986877 7.4986877l2.0 7.0l21.0 -3.0l15.498688 -5.4986877" fill-rule="evenodd"/><path stroke="#ffffff" stroke-width="12.0" stroke-linejoin="round" stroke-linecap="butt" d="m392.5013 203.0l10.498688 -3.0l20.0 -13.0l7.5013123 -8.498688l-2.0 -9.0l-9.0 -6.0l-13.0 -2.5013123l-33.501312 0.50131226l-31.498688 2.4986877l-33.501312 9.501312l-12.0 4.4986877l-35.498688 11.501312l-14.501312 9.498688l2.0 7.5013123l18.501312 1.0l14.0 -0.50131226l9.498688 13.501312l-5.4986877 7.4986877l2.0 7.0l21.0 -3.0l15.498688 -5.4986877" fill-rule="evenodd"/><path fill="#000000" fill-opacity="0.0" d="m279.0 206.98932l38.960144 -9.623489l46.35611 -8.48851l59.17798 -20.376007" fill-rule="evenodd"/><path stroke="#ffffff" stroke-width="12.0" stroke-linejoin="round" stroke-linecap="butt" d="m279.0 206.98932l38.960144 -9.623489l46.35611 -8.48851l59.17798 -20.376007" fill-rule="evenodd"/><path fill="#000000" fill-opacity="0.0" d="m206.0 351.5013l75.50131 -31.501312l119.49869 -50.0l98.0 -39.498688" fill-rule="evenodd"/><path stroke="#ffffff" stroke-width="12.0" stroke-linejoin="round" stroke-linecap="butt" d="m206.0 351.5013l75.50131 -31.501312l119.49869 -50.0l98.0 -39.498688" fill-rule="evenodd"/><path fill="#000000" fill-opacity="0.0" d="m174.0 401.5013l88.50131 -12.501312l152.49869 -31.0l156.50134 -33.0l97.0 -29.0" fill-rule="evenodd"/><path stroke="#ffffff" stroke-width="12.0" stroke-linejoin="round" stroke-linecap="butt" d="m174.0 401.5013l88.50131 -12.501312l152.49869 -31.0l156.50134 -33.0l97.0 -29.0" fill-rule="evenodd"/><path fill="#000000" fill-opacity="0.0" d="m222.0 390.5013l10.0 -14.0l206.0 -77.0l-2.0 -6.0l-91.0 20.498688l-40.0 11.0l-67.49869 20.501312l-16.0 -1.5013123" fill-rule="evenodd"/><path stroke="#ffffff" stroke-width="12.0" stroke-linejoin="round" stroke-linecap="butt" d="m222.0 390.5013l10.0 -14.0l206.0 -77.0l-2.0 -6.0l-91.0 20.498688l-40.0 11.0l-67.49869 20.501312l-16.0 -1.5013123" fill-rule="evenodd"/><path fill="#000000" fill-opacity="0.0" d="m477.5013 418.5013l-35.501312 2.4986877l-27.498688 -0.49868774l-35.501312 -12.0l-34.498688 -16.0l-9.501312 -9.0l12.0 -10.0" fill-rule="evenodd"/><path stroke="#ffffff" stroke-width="12.0" stroke-linejoin="round" stroke-linecap="butt" d="m477.5013 418.5013l-35.501312 2.4986877l-27.498688 -0.49868774l-35.501312 -12.0l-34.498688 -16.0l-9.501312 -9.0l12.0 -10.0" fill-rule="evenodd"/><path fill="#000000" fill-opacity="0.0" d="m315.0 304.5013l18.501312 -31.501312l23.0 -23.0l20.498688 -14.0l30.0 -12.498688" fill-rule="evenodd"/><path stroke="#ffffff" stroke-width="12.0" stroke-linejoin="round" stroke-linecap="butt" d="m315.0 304.5013l18.501312 -31.501312l23.0 -23.0l20.498688 -14.0l30.0 -12.498688" fill-rule="evenodd"/><path fill="#000000" fill-opacity="0.0" d="m426.5013 356.5013l1.4986877 -14.501312l27.501312 -21.0l35.0 -13.498688l31.00003 -14.501312l27.0 8.501312l28.498657 -2.5013123l4.501343 -6.0l65.0 -22.498688l16.498657 0l21.0 -11.501312l16.0 20.501312" fill-rule="evenodd"/><path stroke="#ffffff" stroke-width="12.0" stroke-linejoin="round" stroke-linecap="butt" d="m426.5013 356.5013l1.4986877 -14.501312l27.501312 -21.0l35.0 -13.498688l31.00003 -14.501312l27.0 8.501312l28.498657 -2.5013123l4.501343 -6.0l65.0 -22.498688l16.498657 0l21.0 -11.501312l16.0 20.501312" fill-rule="evenodd"/><path fill="#000000" fill-opacity="0.0" d="m518.50134 295.0l-26.501343 -12.0l-7.0 -15.498688l14.501312 -14.501312l13.498688 -15.0l22.501343 -23.0" fill-rule="evenodd"/><path stroke="#ffffff" stroke-width="12.0" stroke-linejoin="round" stroke-linecap="butt" d="m518.50134 295.0l-26.501343 -12.0l-7.0 -15.498688l14.501312 -14.501312l13.498688 -15.0l22.501343 -23.0" fill-rule="evenodd"/><path fill="#000000" fill-opacity="0.0" d="m681.0 240.50131l34.0 -14.0" fill-rule="evenodd"/><path stroke="#ffffff" stroke-width="12.0" stroke-linejoin="round" stroke-linecap="butt" d="m681.0 240.50131l34.0 -14.0" fill-rule="evenodd"/><path fill="#000000" fill-opacity="0.0" d="m659.0 195.0l31.0 -9.0" fill-rule="evenodd"/><path stroke="#ffffff" stroke-width="12.0" stroke-linejoin="round" stroke-linecap="butt" d="m659.0 195.0l31.0 -9.0" fill-rule="evenodd"/><path fill="#000000" fill-opacity="0.0" d="m710.50134 233.50131l10.0 7.4986877l19.0 -8.0l19.498657 -11.0l12.501343 11.501312" fill-rule="evenodd"/><path stroke="#ffffff" stroke-width="12.0" stroke-linejoin="round" stroke-linecap="butt" d="m710.50134 233.50131l10.0 7.4986877l19.0 -8.0l19.498657 -11.0l12.501343 11.501312" fill-rule="evenodd"/><path fill="#000000" fill-opacity="0.0" d="m712.50134 231.0l13.0 -16.498688l-4.501343 -19.501312l-17.498657 -9.498688l-22.0 -2.0" fill-rule="evenodd"/><path stroke="#ffffff" stroke-width="12.0" stroke-linejoin="round" stroke-linecap="butt" d="m712.50134 231.0l13.0 -16.498688l-4.501343 -19.501312l-17.498657 -9.498688l-22.0 -2.0" fill-rule="evenodd"/><path fill="#000000" fill-opacity="0.0" d="m775.50134 209.50131l11.498657 -14.0l0 -8.501312l-4.0 -8.0l-16.0 -7.4986877" fill-rule="evenodd"/><path stroke="#ffffff" stroke-width="12.0" stroke-linejoin="round" stroke-linecap="butt" d="m775.50134 209.50131l11.498657 -14.0l0 -8.501312l-4.0 -8.0l-16.0 -7.4986877" fill-rule="evenodd"/><path fill="#000000" fill-opacity="0.0" d="m778.0 209.50131l20.0 -15.501312l-9.0 -23.0" fill-rule="evenodd"/><path stroke="#ffffff" stroke-width="12.0" stroke-linejoin="round" stroke-linecap="butt" d="m778.0 209.50131l20.0 -15.501312l-9.0 -23.0" fill-rule="evenodd"/><path fill="#000000" fill-opacity="0.0" d="m510.5013 289.5013l20.498688 -13.501312l26.0 -12.498688l11.0 -12.0l-0.49865723 -6.0l-11.501343 -3.5013123l-25.0 3.5013123l-31.0 10.498688l-26.498688 13.0l-16.501312 15.0l1.0 10.501312l18.0 2.4986877z" fill-rule="evenodd"/><path stroke="#ffffff" stroke-width="12.0" stroke-linejoin="round" stroke-linecap="butt" d="m510.5013 289.5013l20.498688 -13.501312l26.0 -12.498688l11.0 -12.0l-0.49865723 -6.0l-11.501343 -3.5013123l-25.0 3.5013123l-31.0 10.498688l-26.498688 13.0l-16.501312 15.0l1.0 10.501312l18.0 2.4986877z" fill-rule="evenodd"/><path fill="#000000" fill-opacity="0.0" d="m559.50134 267.0l8.498657 3.5013123l104.0 -35.501312l11.0 -10.498688l3.5013428 -14.0l-11.0 -6.5013123l-17.0 -3.4986877l-16.501343 2.4986877l-89.49866 29.0l-10.0 7.5013123" fill-rule="evenodd"/><path stroke="#ffffff" stroke-width="12.0" stroke-linejoin="round" stroke-linecap="butt" d="m559.50134 267.0l8.498657 3.5013123l104.0 -35.501312l11.0 -10.498688l3.5013428 -14.0l-11.0 -6.5013123l-17.0 -3.4986877l-16.501343 2.4986877l-89.49866 29.0l-10.0 7.5013123" fill-rule="evenodd"/></g></svg>