<svg version="1.1" viewBox="0.0 0.0 960.0 720.0" fill="none" stroke="none" stroke-linecap="square" stroke-miterlimit="10" xmlns:xlink="http://www.w3.org/1999/xlink" xmlns="http://www.w3.org/2000/svg"><clipPath id="p.0"><path d="m0 0l960.0 0l0 720.0l-960.0 0l0 -720.0z" clip-rule="nonzero"/></clipPath><g clip-path="url(#p.0)"><path fill="#000000" fill-opacity="0.0" d="m0 0l960.0 0l0 720.0l-960.0 0z" fill-rule="evenodd"/><path fill="#000000" fill-opacity="0.0" d="m258.0 225.0l41.0 -12.498688l-22.498688 -38.501312l22.0 -7.4986877l58.498688 16.498688l119.0 -5.0l151.0 -4.4986877l24.0 -2.5013123l55.501343 -1.0l34.0 1.5013123l30.498657 5.0l7.0 10.498688l-16.0 22.0l-55.498657 56.501312l-33.0 32.0l-177.00003 159.49869l-38.0 30.501312l-33.501312 34.00003l-22.0 17.0l-34.0 15.0l7.5013123 -17.501343l0 -59.498688l-56.501312 21.0l-9.0 -5.5013123l-19.498688 6.0l-13.501312 -10.0l-10.0 -8.0l1.0 -13.0l-13.498688 0.50131226l-4.5013123 -12.0l-27.0 10.0l2.5013123 -5.5013123l21.498688 -12.498688l-9.0 -17.0l24.0 -20.0l-10.498688 -28.501312l-5.0 -31.0l-6.0 -3.4986877l-0.50131226 -11.0l3.0 -4.0l-6.4986877 -32.501312l2.0 -23.498688" fill-rule="evenodd"/><path stroke="#ffffff" stroke-width="12.0" stroke-linejoin="round" stroke-linecap="butt" d="m258.0 225.0l41.0 -12.498688l-22.498688 -38.501312l22.0 -7.4986877l58.498688 16.498688l119.0 -5.0l151.0 -4.4986877l24.0 -2.5013123l55.501343 -1.0l34.0 1.5013123l30.498657 5.0l7.0 10.498688l-16.0 22.0l-55.498657 56.501312l-33.0 32.0l-177.00003 159.49869l-38.0 30.501312l-33.501312 34.00003l-22.0 17.0l-34.0 15.0l7.5013123 -17.501343l0 -59.498688l-56.501312 21.0l-9.0 -5.5013123l-19.498688 6.0l-13.501312 -10.0l-10.0 -8.0l1.0 -13.0l-13.498688 0.50131226l-4.5013123 -12.0l-27.0 10.0l2.5013123 -5.5013123l21.498688 -12.498688l-9.0 -17.0l24.0 -20.0l-10.498688 -28.501312l-5.0 -31.0l-6.0 -3.4986877l-0.50131226 -11.0l3.0 -4.0l-6.4986877 -32.501312l2.0 -23.498688" fill-rule="evenodd"/><path fill="#000000" fill-opacity="0.0" d="m259.5013 226.0l-62.0 -10.0l-14.501312 5.5013123l15.501312 22.498688l16.498688 6.5013123l-5.0 17.0l19.501312 15.498688l146.49869 -54.0l1.0 -14.0l-24.0 -8.498688l-31.498688 -0.50131226l-25.501312 7.5013123" fill-rule="evenodd"/><path stroke="#ffffff" stroke-width="12.0" stroke-linejoin="round" stroke-linecap="butt" d="m259.5013 226.0l-62.0 -10.0l-14.501312 5.5013123l15.501312 22.498688l16.498688 6.5013123l-5.0 17.0l19.501312 15.498688l146.49869 -54.0l1.0 -14.0l-24.0 -8.498688l-31.498688 -0.50131226l-25.501312 7.5013123" fill-rule="evenodd"/><path fill="#000000" fill-opacity="0.0" d="m211.50131 248.0l48.498688 -20.0" fill-rule="evenodd"/><path stroke="#ffffff" stroke-width="12.0" stroke-linejoin="round" stroke-linecap="butt" d="m211.50131 248.0l48.498688 -20.0" fill-rule="evenodd"/><path fill="#000000" fill-opacity="0.0" d="m357.5013 206.50131l75.49869 -12.501312l45.0 0l139.0 -20.498688" fill-rule="evenodd"/><path stroke="#ffffff" stroke-width="12.0" stroke-linejoin="round" stroke-linecap="butt" d="m357.5013 206.50131l75.49869 -12.501312l45.0 0l139.0 -20.498688" fill-rule="evenodd"/><path fill="#000000" fill-opacity="0.0" d="m376.5013 478.0l70.49869 -30.0l75.0 -43.498688l14.0 -12.501312l11.0 -20.0l158.50134 -107.49869" fill-rule="evenodd"/><path stroke="#ffffff" stroke-width="12.0" stroke-linejoin="round" stroke-linecap="butt" d="m376.5013 478.0l70.49869 -30.0l75.0 -43.498688l14.0 -12.501312l11.0 -20.0l158.50134 -107.49869" fill-rule="evenodd"/><path fill="#000000" fill-opacity="0.0" d="m269.0 468.0l90.50131 -33.0l71.0 -42.0l-11.0 -28.498688l-71.50131 20.498688l-88.49869 27.0" fill-rule="evenodd"/><path stroke="#ffffff" stroke-width="12.0" stroke-linejoin="round" stroke-linecap="butt" d="m269.0 468.0l90.50131 -33.0l71.0 -42.0l-11.0 -28.498688l-71.50131 20.498688l-88.49869 27.0" fill-rule="evenodd"/><path fill="#000000" fill-opacity="0.0" d="m242.50131 433.0l15.0 2.0l86.0 -31.498688l75.0 -38.0" fill-rule="evenodd"/><path stroke="#ffffff" stroke-width="12.0" stroke-linejoin="round" stroke-linecap="butt" d="m242.50131 433.0l15.0 2.0l86.0 -31.498688l75.0 -38.0" fill-rule="evenodd"/><path fill="#000000" fill-opacity="0.0" d="m374.0 232.0l-22.0 -12.0l-29.498688 -3.0l-68.0 20.0l-41.501312 14.0" fill-rule="evenodd"/><path stroke="#ffffff" stroke-width="12.0" stroke-linejoin="round" stroke-linecap="butt" d="m374.0 232.0l-22.0 -12.0l-29.498688 -3.0l-68.0 20.0l-41.501312 14.0" fill-rule="evenodd"/><path fill="#000000" fill-opacity="0.0" d="m420.0 361.0l55.501312 -17.0l78.49869 -25.498688l84.0 -34.501312l63.0 -31.498688l67.0 -56.0" fill-rule="evenodd"/><path stroke="#ffffff" stroke-width="12.0" stroke-linejoin="round" stroke-linecap="butt" d="m420.0 361.0l55.501312 -17.0l78.49869 -25.498688l84.0 -34.501312l63.0 -31.498688l67.0 -56.0" fill-rule="evenodd"/><path fill="#000000" fill-opacity="0.0" d="m260.5013 406.0l126.49869 -46.498688l126.50134 -51.0l97.0 -56.0l75.49866 -50.0l33.0 -11.501312l-5.0 -6.4986877l-36.0 7.0l-43.498657 -1.0l-51.501343 4.4986877l-73.49869 10.501312l-64.0 12.0l-181.50131 51.0" fill-rule="evenodd"/><path stroke="#ffffff" stroke-width="12.0" stroke-linejoin="round" stroke-linecap="butt" d="m260.5013 406.0l126.49869 -46.498688l126.50134 -51.0l97.0 -56.0l75.49866 -50.0l33.0 -11.501312l-5.0 -6.4986877l-36.0 7.0l-43.498657 -1.0l-51.501343 4.4986877l-73.49869 10.501312l-64.0 12.0l-181.50131 51.0" fill-rule="evenodd"/><path fill="#000000" fill-opacity="0.0" d="m365.5013 282.0l31.0 -25.0l51.0 -16.498688l12.0 -11.0l82.49869 -21.501312l46.501343 1.5013123l10.498657 24.0l-40.498657 30.498688l-76.50134 33.0l-21.498688 -7.0l-55.501312 14.501312l-33.498688 2.4986877z" fill-rule="evenodd"/><path stroke="#ffffff" stroke-width="12.0" stroke-linejoin="round" stroke-linecap="butt" d="m365.5013 282.0l31.0 -25.0l51.0 -16.498688l12.0 -11.0l82.49869 -21.501312l46.501343 1.5013123l10.498657 24.0l-40.498657 30.498688l-76.50134 33.0l-21.498688 -7.0l-55.501312 14.501312l-33.498688 2.4986877z" fill-rule="evenodd"/><path fill="#000000" fill-opacity="0.0" d="m372.0 303.0l56.0 -21.498688l34.501312 -7.0l13.498688 -0.50131226l81.0 -32.498688l-15.498657 -35.0" fill-rule="evenodd"/><path stroke="#ffffff" stroke-width="12.0" stroke-linejoin="round" stroke-linecap="butt" d="m372.0 303.0l56.0 -21.498688l34.501312 -7.0l13.498688 -0.50131226l81.0 -32.498688l-15.498657 -35.0" fill-rule="evenodd"/><path fill="#000000" fill-opacity="0.0" d="m557.50134 242.50131l42.0 -9.501312" fill-rule="evenodd"/><path stroke="#ffffff" stroke-width="12.0" stroke-linejoin="round" stroke-linecap="butt" d="m557.50134 242.50131l42.0 -9.501312" fill-rule="evenodd"/><path fill="#000000" fill-opacity="0.0" d="m545.50134 249.0l-36.00003 24.0l-5.0 14.501312" fill-rule="evenodd"/><path stroke="#ffffff" stroke-width="12.0" stroke-linejoin="round" stroke-linecap="butt" d="m545.50134 249.0l-36.00003 24.0l-5.0 14.501312" fill-rule="evenodd"/><path fill="#000000" fill-opacity="0.0" d="m252.0 385.0l87.0 -35.0l5.5013123 -15.498688l-16.501312 -55.501312l-11.0 -8.0l-83.0 28.0" fill-rule="evenodd"/><path stroke="#ffffff" stroke-width="12.0" stroke-linejoin="round" stroke-linecap="butt" d="m252.0 385.0l87.0 -35.0l5.5013123 -15.498688l-16.501312 -55.501312l-11.0 -8.0l-83.0 28.0" fill-rule="evenodd"/><path fill="#000000" fill-opacity="0.0" d="m336.0 295.0l28.501312 -10.498688" fill-rule="evenodd"/><path stroke="#ffffff" stroke-width="12.0" stroke-linejoin="round" stroke-linecap="butt" d="m336.0 295.0l28.501312 -10.498688" fill-rule="evenodd"/><path fill="#000000" fill-opacity="0.0" d="m341.0 314.5013l28.0 -11.501312" fill-rule="evenodd"/><path stroke="#ffffff" stroke-width="12.0" stroke-linejoin="round" stroke-linecap="butt" d="m341.0 314.5013l28.0 -11.501312" fill-rule="evenodd"/></g></svg>