<svg version="1.1" viewBox="0.0 0.0 960.0 720.0" fill="none" stroke="none" stroke-linecap="square" stroke-miterlimit="10" xmlns:xlink="http://www.w3.org/1999/xlink" xmlns="http://www.w3.org/2000/svg"><clipPath id="p.0"><path d="m0 0l960.0 0l0 720.0l-960.0 0l0 -720.0z" clip-rule="nonzero"/></clipPath><g clip-path="url(#p.0)"><path fill="#000000" fill-opacity="0.0" d="m0 0l960.0 0l0 720.0l-960.0 0z" fill-rule="evenodd"/><path fill="#000000" fill-opacity="0.0" d="m269.41208 227.6483l0 -15.8845215l100.58792 -25.881882l-1.763794 -10.0l-114.706024 -20.587936l-66.47244 19.412079l22.35434 44.118103l12.3517 4.1181183l34.11812 4.7060394z" fill-rule="evenodd"/><path stroke="#ffffff" stroke-width="12.0" stroke-linejoin="round" stroke-linecap="butt" d="m269.41208 227.6483l0 -15.8845215l100.58792 -25.881882l-1.763794 -10.0l-114.706024 -20.587936l-66.47244 19.412079l22.35434 44.118103l12.3517 4.1181183l34.11812 4.7060394z" fill-rule="evenodd"/><path fill="#000000" fill-opacity="0.0" d="m430.58792 382.94226l-108.82413 42.351715l-80.000015 37.05774l1.178482 7.648285l10.0 2.351715l25.293945 -7.0577393l26.469818 -12.942261l17.64569 -5.881897l112.35431 -54.706024l1.763794 -6.469818z" fill-rule="evenodd"/><path stroke="#ffffff" stroke-width="12.0" stroke-linejoin="round" stroke-linecap="butt" d="m430.58792 382.94226l-108.82413 42.351715l-80.000015 37.05774l1.178482 7.648285l10.0 2.351715l25.293945 -7.0577393l26.469818 -12.942261l17.64569 -5.881897l112.35431 -54.706024l1.763794 -6.469818z" fill-rule="evenodd"/><path fill="#000000" fill-opacity="0.0" d="m270.0 225.8819l9.412079 58.824127l-30.587936 9.412079l11.763779 9.412079l14.118103 2.351715l8.236237 44.706024l-21.178467 5.881897l12.354309 8.824158l24.118103 -0.58795166l19.412079 60.58795" fill-rule="evenodd"/><path stroke="#ffffff" stroke-width="12.0" stroke-linejoin="round" stroke-linecap="butt" d="m270.0 225.8819l9.412079 58.824127l-30.587936 9.412079l11.763779 9.412079l14.118103 2.351715l8.236237 44.706024l-21.178467 5.881897l12.354309 8.824158l24.118103 -0.58795166l19.412079 60.58795" fill-rule="evenodd"/><path fill="#000000" fill-opacity="0.0" d="m274.70602 267.6483l-13.530182 -17.648285l-0.58792114 -12.942261l7.060364 -10.587921" fill-rule="evenodd"/><path stroke="#ffffff" stroke-width="12.0" stroke-linejoin="round" stroke-linecap="butt" d="m274.70602 267.6483l-13.530182 -17.648285l-0.58792114 -12.942261l7.060364 -10.587921" fill-rule="evenodd"/><path fill="#000000" fill-opacity="0.0" d="m322.94226 451.17584l6.469818 14.118134l21.175842 11.175842l31.175873 13.530182l34.118103 94.1181l74.1181 -43.53015l112.351685 -137.05777l104.706055 -110.58792l48.236206 -56.472443l11.763794 -16.469818l6.472473 -14.706039l-8.236267 -15.293961l-14.118103 -7.6483l-28.233582 -14.1154785l-37.648315 -6.4724426l-45.293945 -2.9396362l-45.293945 1.1758575l-11.763794 -2.9422607l-75.88452 0.5905609l-25.881897 -11.178482l-24.706024 3.530182l-38.821533 10.0l-31.178467 0.58792114l-25.881897 -3.530182l-48.236206 9.412079" fill-rule="evenodd"/><path stroke="#ffffff" stroke-width="12.0" stroke-linejoin="round" stroke-linecap="butt" d="m322.94226 451.17584l6.469818 14.118134l21.175842 11.175842l31.175873 13.530182l34.118103 94.1181l74.1181 -43.53015l112.351685 -137.05777l104.706055 -110.58792l48.236206 -56.472443l11.763794 -16.469818l6.472473 -14.706039l-8.236267 -15.293961l-14.118103 -7.6483l-28.233582 -14.1154785l-37.648315 -6.4724426l-45.293945 -2.9396362l-45.293945 1.1758575l-11.763794 -2.9422607l-75.88452 0.5905609l-25.881897 -11.178482l-24.706024 3.530182l-38.821533 10.0l-31.178467 0.58792114l-25.881897 -3.530182l-48.236206 9.412079" fill-rule="evenodd"/><path fill="#000000" fill-opacity="0.0" d="m351.17584 477.05774l-34.706024 -14.1154785l-5.881897 -12.942261" fill-rule="evenodd"/><path stroke="#ffffff" stroke-width="12.0" stroke-linejoin="round" stroke-linecap="butt" d="m351.17584 477.05774l-34.706024 -14.1154785l-5.881897 -12.942261" fill-rule="evenodd"/><path fill="#000000" fill-opacity="0.0" d="m279.41208 281.7638l66.46982 -22.939636l-5.881897 -25.881897l5.881897 -14.706039l13.530182 -9.412079l21.763763 0l11.175873 11.175858l5.884491 21.175858l38.233612 -14.706039l-7.6456604 -19.412079l0.58792114 -16.469818l15.293945 -13.530182l21.763794 -0.58792114l12.942261 10.587921l8.236206 22.35434l45.293976 -18.236221l24.115479 -1.1758575l85.88452 -11.175858l83.52753 -8.824142" fill-rule="evenodd"/><path stroke="#ffffff" stroke-width="12.0" stroke-linejoin="round" stroke-linecap="butt" d="m279.41208 281.7638l66.46982 -22.939636l-5.881897 -25.881897l5.881897 -14.706039l13.530182 -9.412079l21.763763 0l11.175873 11.175858l5.884491 21.175858l38.233612 -14.706039l-7.6456604 -19.412079l0.58792114 -16.469818l15.293945 -13.530182l21.763794 -0.58792114l12.942261 10.587921l8.236206 22.35434l45.293976 -18.236221l24.115479 -1.1758575l85.88452 -11.175858l83.52753 -8.824142" fill-rule="evenodd"/><path fill="#000000" fill-opacity="0.0" d="m283.53018 356.46982l79.41208 -29.412079l13.527557 30.0l15.881897 13.530182l22.94226 -1.1758423l14.706024 -15.293976l1.1758423 -20.0l-8.233582 -28.236206l34.706024 -12.939636l12.351715 29.409454l14.118103 11.766388l23.530182 1.1758728l17.05777 -16.469818l-0.58795166 -21.766418l-8.236206 -25.293945l46.469788 -17.64569l28.236267 8.824158l151.17584 -60.0l-15.294006 -32.35434" fill-rule="evenodd"/><path stroke="#ffffff" stroke-width="12.0" stroke-linejoin="round" stroke-linecap="butt" d="m283.53018 356.46982l79.41208 -29.412079l13.527557 30.0l15.881897 13.530182l22.94226 -1.1758423l14.706024 -15.293976l1.1758423 -20.0l-8.233582 -28.236206l34.706024 -12.939636l12.351715 29.409454l14.118103 11.766388l23.530182 1.1758728l17.05777 -16.469818l-0.58795166 -21.766418l-8.236206 -25.293945l46.469788 -17.64569l28.236267 8.824158l151.17584 -60.0l-15.294006 -32.35434" fill-rule="evenodd"/><path fill="#000000" fill-opacity="0.0" d="m365.29398 328.2362l2.9422302 -14.118103l-13.530182 -53.53018l-9.412048 -4.706024" fill-rule="evenodd"/><path stroke="#ffffff" stroke-width="12.0" stroke-linejoin="round" stroke-linecap="butt" d="m365.29398 328.2362l2.9422302 -14.118103l-13.530182 -53.53018l-9.412048 -4.706024" fill-rule="evenodd"/><path fill="#000000" fill-opacity="0.0" d="m425.8819 307.05774l-11.763794 -8.821533l-16.469818 -48.236206l2.351715 -10.0" fill-rule="evenodd"/><path stroke="#ffffff" stroke-width="12.0" stroke-linejoin="round" stroke-linecap="butt" d="m425.8819 307.05774l-11.763794 -8.821533l-16.469818 -48.236206l2.351715 -10.0" fill-rule="evenodd"/><path fill="#000000" fill-opacity="0.0" d="m437.6483 227.6483l8.233612 5.2939606l16.469818 49.409454l-4.115509 12.354309" fill-rule="evenodd"/><path stroke="#ffffff" stroke-width="12.0" stroke-linejoin="round" stroke-linecap="butt" d="m437.6483 227.6483l8.233612 5.2939606l16.469818 49.409454l-4.115509 12.354309" fill-rule="evenodd"/><path fill="#000000" fill-opacity="0.0" d="m490.0 208.23622l-6.469818 10.587921l20.0 48.233597l14.118134 7.648285" fill-rule="evenodd"/><path stroke="#ffffff" stroke-width="12.0" stroke-linejoin="round" stroke-linecap="butt" d="m490.0 208.23622l-6.469818 10.587921l20.0 48.233597l14.118134 7.648285" fill-rule="evenodd"/><path fill="#000000" fill-opacity="0.0" d="m324.1181 459.41208l241.7638 -115.8819l22.35431 -27.648285l138.23358 -75.293976l18.824158 -2.3516998l28.236267 -32.354324" fill-rule="evenodd"/><path stroke="#ffffff" stroke-width="12.0" stroke-linejoin="round" stroke-linecap="butt" d="m324.1181 459.41208l241.7638 -115.8819l22.35431 -27.648285l138.23358 -75.293976l18.824158 -2.3516998l28.236267 -32.354324" fill-rule="evenodd"/><path fill="#000000" fill-opacity="0.0" d="m718.82416 242.94226l21.763794 -40.0" fill-rule="evenodd"/><path stroke="#ffffff" stroke-width="12.0" stroke-linejoin="round" stroke-linecap="butt" d="m718.82416 242.94226l21.763794 -40.0" fill-rule="evenodd"/><path fill="#000000" fill-opacity="0.0" d="m385.29398 498.2362l189.41208 -84.1181l138.2362 -130.0" fill-rule="evenodd"/><path stroke="#ffffff" stroke-width="12.0" stroke-linejoin="round" stroke-linecap="butt" d="m385.29398 498.2362l189.41208 -84.1181l138.2362 -130.0" fill-rule="evenodd"/><path fill="#000000" fill-opacity="0.0" d="m556.4698 346.46982l6.472473 -90.58792l-25.884521 -64.11812l-60.58792 -44.70604" fill-rule="evenodd"/><path stroke="#ffffff" stroke-width="12.0" stroke-linejoin="round" stroke-linecap="butt" d="m556.4698 346.46982l6.472473 -90.58792l-25.884521 -64.11812l-60.58792 -44.70604" fill-rule="evenodd"/><path fill="#000000" fill-opacity="0.0" d="m517.05774 158.23622l37.060364 28.821518l16.469849 0l26.469788 56.472443l-8.821533 18.233612l-2.354309 56.472412l-10.587952 95.8819" fill-rule="evenodd"/><path stroke="#ffffff" stroke-width="12.0" stroke-linejoin="round" stroke-linecap="butt" d="m517.05774 158.23622l37.060364 28.821518l16.469849 0l26.469788 56.472443l-8.821533 18.233612l-2.354309 56.472412l-10.587952 95.8819" fill-rule="evenodd"/><path fill="#000000" fill-opacity="0.0" d="m740.0 203.53018l35.293945 1.1758575" fill-rule="evenodd"/><path stroke="#ffffff" stroke-width="12.0" stroke-linejoin="round" stroke-linecap="butt" d="m740.0 203.53018l35.293945 1.1758575" fill-rule="evenodd"/></g></svg>