<svg version="1.1" viewBox="0.0 0.0 960.0 720.0" fill="none" stroke="none" stroke-linecap="square" stroke-miterlimit="10" xmlns:xlink="http://www.w3.org/1999/xlink" xmlns="http://www.w3.org/2000/svg"><clipPath id="p.0"><path d="m0 0l960.0 0l0 720.0l-960.0 0l0 -720.0z" clip-rule="nonzero"/></clipPath><g clip-path="url(#p.0)"><path fill="#000000" fill-opacity="0.0" d="m0 0l960.0 0l0 720.0l-960.0 0z" fill-rule="evenodd"/><path fill="#000000" d="m1100.105 623.2966l37.007935 0l0 38.48822l-37.007935 0z" fill-rule="evenodd"/><path stroke="#000000" stroke-width="1.0" stroke-linejoin="round" stroke-linecap="butt" d="m1100.105 623.2966l37.007935 0l0 38.48822l-37.007935 0z" fill-rule="evenodd"/><path fill="#000000" fill-opacity="0.0" d="m353.0 195.50131l9.0 -8.501312l99.0 -33.0l-19.498688 41.0l2.4986877 41.0l6.0 2.0l7.0 11.501312l9.0 -1.0l40.501312 13.0l27.00003 -2.0l82.49866 -12.501312l26.0 -3.0l48.501343 -0.49868774l3.4986572 9.498688l-32.498657 26.501312l-8.501343 11.0l-20.498657 9.498688l-5.501343 1.0l-80.49866 46.501312l-29.0 51.498688l-6.0000305 3.0l5.0000305 15.501312l-3.0 7.0l32.498657 50.498688l54.0 30.501312l-133.49869 47.00003l0 -9.0l-50.501312 -27.0l-44.0 -41.00003l-12.0 -6.5013123l-11.0 0l-32.498688 -18.0l-14.0 -20.0l-8.0 -25.0l-15.0 -1.4986877l-2.5013123 -4.5013123l6.5013123 -7.4986877l-7.5013123 -32.501312l-7.0 -1.4986877l-1.4986877 -7.0l10.498688 -5.5013123l-3.0 -24.498688l3.0 -17.501312l15.501312 -14.0l17.0 -15.498688l11.498688 -4.0l9.0 -34.0l19.501312 -30.0z" fill-rule="evenodd"/><path stroke="#ffffff" stroke-width="12.0" stroke-linejoin="round" stroke-linecap="butt" d="m353.0 195.50131l9.0 -8.501312l99.0 -33.0l-19.498688 41.0l2.4986877 41.0l6.0 2.0l7.0 11.501312l9.0 -1.0l40.501312 13.0l27.00003 -2.0l82.49866 -12.501312l26.0 -3.0l48.501343 -0.49868774l3.4986572 9.498688l-32.498657 26.501312l-8.501343 11.0l-20.498657 9.498688l-5.501343 1.0l-80.49866 46.501312l-29.0 51.498688l-6.0000305 3.0l5.0000305 15.501312l-3.0 7.0l32.498657 50.498688l54.0 30.501312l-133.49869 47.00003l0 -9.0l-50.501312 -27.0l-44.0 -41.00003l-12.0 -6.5013123l-11.0 0l-32.498688 -18.0l-14.0 -20.0l-8.0 -25.0l-15.0 -1.4986877l-2.5013123 -4.5013123l6.5013123 -7.4986877l-7.5013123 -32.501312l-7.0 -1.4986877l-1.4986877 -7.0l10.498688 -5.5013123l-3.0 -24.498688l3.0 -17.501312l15.501312 -14.0l17.0 -15.498688l11.498688 -4.0l9.0 -34.0l19.501312 -30.0z" fill-rule="evenodd"/><path fill="#000000" fill-opacity="0.0" d="m325.0 265.5013l46.0 -13.501312l16.501312 6.5013123l-20.501312 33.498688l-57.0 20.501312l-0.49868774 -12.0l37.498688 -33.0l-31.498688 8.498688" fill-rule="evenodd"/><path stroke="#ffffff" stroke-width="12.0" stroke-linejoin="round" stroke-linecap="butt" d="m325.0 265.5013l46.0 -13.501312l16.501312 6.5013123l-20.501312 33.498688l-57.0 20.501312l-0.49868774 -12.0l37.498688 -33.0l-31.498688 8.498688" fill-rule="evenodd"/><path fill="#000000" fill-opacity="0.0" d="m328.0 276.5013l-24.498688 21.0l-8.501312 16.0l3.5013123 35.0l14.0 50.0l16.0 35.498688l24.498688 9.0l38.501312 3.0l16.498688 2.5013123l-53.498688 19.498688" fill-rule="evenodd"/><path stroke="#ffffff" stroke-width="12.0" stroke-linejoin="round" stroke-linecap="butt" d="m328.0 276.5013l-24.498688 21.0l-8.501312 16.0l3.5013123 35.0l14.0 50.0l16.0 35.498688l24.498688 9.0l38.501312 3.0l16.498688 2.5013123l-53.498688 19.498688" fill-rule="evenodd"/><path fill="#000000" fill-opacity="0.0" d="m344.0 438.5013l60.501312 -22.0l43.0 22.498688l-10.501312 24.0l-60.498688 20.501312" fill-rule="evenodd"/><path stroke="#ffffff" stroke-width="12.0" stroke-linejoin="round" stroke-linecap="butt" d="m344.0 438.5013l60.501312 -22.0l43.0 22.498688l-10.501312 24.0l-60.498688 20.501312" fill-rule="evenodd"/><path fill="#000000" fill-opacity="0.0" d="m403.0 419.0l8.501312 30.501312l23.498688 9.498688" fill-rule="evenodd"/><path stroke="#ffffff" stroke-width="12.0" stroke-linejoin="round" stroke-linecap="butt" d="m403.0 419.0l8.501312 30.501312l23.498688 9.498688" fill-rule="evenodd"/><path fill="#000000" fill-opacity="0.0" d="m365.0 296.5013l-10.0 -31.0l5.0 -9.501312" fill-rule="evenodd"/><path stroke="#ffffff" stroke-width="12.0" stroke-linejoin="round" stroke-linecap="butt" d="m365.0 296.5013l-10.0 -31.0l5.0 -9.501312" fill-rule="evenodd"/><path fill="#000000" fill-opacity="0.0" d="m296.5013 407.0l9.498688 -9.0l-12.0 -55.0l-15.498688 -0.49868774" fill-rule="evenodd"/><path stroke="#ffffff" stroke-width="12.0" stroke-linejoin="round" stroke-linecap="butt" d="m296.5013 407.0l9.498688 -9.0l-12.0 -55.0l-15.498688 -0.49868774" fill-rule="evenodd"/><path fill="#000000" fill-opacity="0.0" d="m301.5013 356.5013l22.498688 -31.0l52.0 -25.501312l14.501312 -1.0l19.0 -8.498688l2.4986877 -4.5013123l22.0 -5.4986877l27.0 -28.501312" fill-rule="evenodd"/><path stroke="#ffffff" stroke-width="12.0" stroke-linejoin="round" stroke-linecap="butt" d="m301.5013 356.5013l22.498688 -31.0l52.0 -25.501312l14.501312 -1.0l19.0 -8.498688l2.4986877 -4.5013123l22.0 -5.4986877l27.0 -28.501312" fill-rule="evenodd"/><path fill="#000000" fill-opacity="0.0" d="m311.0 395.0l17.501312 4.5013123l48.0 -17.0l26.498688 13.0l11.0 -2.5013123l1.5013123 -9.0l20.0 -5.4986877l8.498688 2.4986877l21.0 -6.4986877l42.501312 10.498688l38.00003 -32.498688" fill-rule="evenodd"/><path stroke="#ffffff" stroke-width="12.0" stroke-linejoin="round" stroke-linecap="butt" d="m311.0 395.0l17.501312 4.5013123l48.0 -17.0l26.498688 13.0l11.0 -2.5013123l1.5013123 -9.0l20.0 -5.4986877l8.498688 2.4986877l21.0 -6.4986877l42.501312 10.498688l38.00003 -32.498688" fill-rule="evenodd"/><path fill="#000000" fill-opacity="0.0" d="m317.0 338.0l40.0 -16.0l28.501312 -0.49868774l15.498688 -11.501312l39.501312 -14.0l12.498688 -5.0l5.5013123 -8.498688l18.0 -4.0l11.0 2.4986877l17.0 -3.4986877l31.498688 1.4986877l7.0 8.0l-1.0 14.501312l-43.498688 30.0l-0.50131226 8.0l-16.0 9.0l-18.0 -5.5013123l-25.0 9.501312l-24.498688 5.4986877l-21.0 0.50131226l-24.501312 25.0" fill-rule="evenodd"/><path stroke="#ffffff" stroke-width="12.0" stroke-linejoin="round" stroke-linecap="butt" d="m317.0 338.0l40.0 -16.0l28.501312 -0.49868774l15.498688 -11.501312l39.501312 -14.0l12.498688 -5.0l5.5013123 -8.498688l18.0 -4.0l11.0 2.4986877l17.0 -3.4986877l31.498688 1.4986877l7.0 8.0l-1.0 14.501312l-43.498688 30.0l-0.50131226 8.0l-16.0 9.0l-18.0 -5.5013123l-25.0 9.501312l-24.498688 5.4986877l-21.0 0.50131226l-24.501312 25.0" fill-rule="evenodd"/><path fill="#000000" fill-opacity="0.0" d="m389.5013 357.5013l-12.501312 -4.0l-6.0 -7.5013123l0.50131226 -9.0l10.0 -13.498688" fill-rule="evenodd"/><path stroke="#ffffff" stroke-width="12.0" stroke-linejoin="round" stroke-linecap="butt" d="m389.5013 357.5013l-12.501312 -4.0l-6.0 -7.5013123l0.50131226 -9.0l10.0 -13.498688" fill-rule="evenodd"/><path fill="#000000" fill-opacity="0.0" d="m453.0 294.5013l13.0 16.498688l3.0 18.501312l-5.0 12.498688" fill-rule="evenodd"/><path stroke="#ffffff" stroke-width="12.0" stroke-linejoin="round" stroke-linecap="butt" d="m453.0 294.5013l13.0 16.498688l3.0 18.501312l-5.0 12.498688" fill-rule="evenodd"/><path fill="#000000" fill-opacity="0.0" d="m547.0 298.0l39.0 0.50131226l27.501343 -1.5013123l14.0 -14.0l16.498657 -7.0l6.501343 -12.0l10.498657 -5.4986877l-5.498657 -12.501312" fill-rule="evenodd"/><path stroke="#ffffff" stroke-width="12.0" stroke-linejoin="round" stroke-linecap="butt" d="m547.0 298.0l39.0 0.50131226l27.501343 -1.5013123l14.0 -14.0l16.498657 -7.0l6.501343 -12.0l10.498657 -5.4986877l-5.498657 -12.501312" fill-rule="evenodd"/><path fill="#000000" fill-opacity="0.0" d="m535.50134 280.0l27.498657 -16.498688l31.0 -12.0" fill-rule="evenodd"/><path stroke="#ffffff" stroke-width="12.0" stroke-linejoin="round" stroke-linecap="butt" d="m535.50134 280.0l27.498657 -16.498688l31.0 -12.0" fill-rule="evenodd"/><path fill="#000000" fill-opacity="0.0" d="m589.50134 296.0l14.0 -21.0l-4.0 -12.0l-29.0 -4.4986877" fill-rule="evenodd"/><path stroke="#ffffff" stroke-width="12.0" stroke-linejoin="round" stroke-linecap="butt" d="m589.50134 296.0l14.0 -21.0l-4.0 -12.0l-29.0 -4.4986877" fill-rule="evenodd"/><path fill="#000000" fill-opacity="0.0" d="m606.50134 270.5013l27.0 -9.0" fill-rule="evenodd"/><path stroke="#ffffff" stroke-width="12.0" stroke-linejoin="round" stroke-linecap="butt" d="m606.50134 270.5013l27.0 -9.0" fill-rule="evenodd"/><path fill="#000000" fill-opacity="0.0" d="m444.0 232.50131l-13.0 -0.50131226l-23.0 24.501312l17.0 -52.501312l29.0 -48.498688" fill-rule="evenodd"/><path stroke="#ffffff" stroke-width="12.0" stroke-linejoin="round" stroke-linecap="butt" d="m444.0 232.50131l-13.0 -0.50131226l-23.0 24.501312l17.0 -52.501312l29.0 -48.498688" fill-rule="evenodd"/><path fill="#000000" fill-opacity="0.0" d="m509.5013 424.0l-7.0 8.0l-27.501312 -9.0l-10.0 4.0l65.50134 53.501312l59.0 27.0" fill-rule="evenodd"/><path stroke="#ffffff" stroke-width="12.0" stroke-linejoin="round" stroke-linecap="butt" d="m509.5013 424.0l-7.0 8.0l-27.501312 -9.0l-10.0 4.0l65.50134 53.501312l59.0 27.0" fill-rule="evenodd"/><path fill="#000000" fill-opacity="0.0" d="m466.5013 555.50134l-7.0 7.0l-6.0 16.0l6.4986877 10.0l16.0 2.4986572l18.501312 -5.0l79.00003 -29.498657l22.498657 -7.0l26.0 -13.501343l44.0 -26.0l-3.4986572 -11.498688l-6.501343 -5.0l-11.498657 1.4986877l-10.501343 -1.0l-42.0 12.0" fill-rule="evenodd"/><path stroke="#ffffff" stroke-width="12.0" stroke-linejoin="round" stroke-linecap="butt" d="m466.5013 555.50134l-7.0 7.0l-6.0 16.0l6.4986877 10.0l16.0 2.4986572l18.501312 -5.0l79.00003 -29.498657l22.498657 -7.0l26.0 -13.501343l44.0 -26.0l-3.4986572 -11.498688l-6.501343 -5.0l-11.498657 1.4986877l-10.501343 -1.0l-42.0 12.0" fill-rule="evenodd"/><path fill="#000000" fill-opacity="0.0" d="m610.0 506.5013l1.5013428 14.498688l11.0 12.0" fill-rule="evenodd"/><path stroke="#ffffff" stroke-width="12.0" stroke-linejoin="round" stroke-linecap="butt" d="m610.0 506.5013l1.5013428 14.498688l11.0 12.0" fill-rule="evenodd"/><path fill="#000000" fill-opacity="0.0" d="m355.0 193.0l-10.498688 -6.4986877l-10.0 -3.0l-2.5013123 -7.0l4.5013123 -10.501312l27.0 -9.0l80.0 -29.498688l15.498688 -0.50131226l30.0 -1.4986877l14.501312 6.4986877l0.49868774 8.0l-9.0 6.0l-8.0 6.5013123l-30.498688 15.0" fill-rule="evenodd"/><path stroke="#ffffff" stroke-width="12.0" stroke-linejoin="round" stroke-linecap="butt" d="m355.0 193.0l-10.498688 -6.4986877l-10.0 -3.0l-2.5013123 -7.0l4.5013123 -10.501312l27.0 -9.0l80.0 -29.498688l15.498688 -0.50131226l30.0 -1.4986877l14.501312 6.4986877l0.49868774 8.0l-9.0 6.0l-8.0 6.5013123l-30.498688 15.0" fill-rule="evenodd"/><path fill="#000000" fill-opacity="0.0" d="m457.0 153.0l-9.0 -23.498688" fill-rule="evenodd"/><path stroke="#ffffff" stroke-width="12.0" stroke-linejoin="round" stroke-linecap="butt" d="m457.0 153.0l-9.0 -23.498688" fill-rule="evenodd"/><path fill="#000000" fill-opacity="0.0" d="m373.0 479.5013l-29.498688 6.0l-13.0 -4.5013123l1.4986877 -10.498688l8.501312 -5.0" fill-rule="evenodd"/><path stroke="#ffffff" stroke-width="12.0" stroke-linejoin="round" stroke-linecap="butt" d="m373.0 479.5013l-29.498688 6.0l-13.0 -4.5013123l1.4986877 -10.498688l8.501312 -5.0" fill-rule="evenodd"/></g></svg>