<svg version="1.1" viewBox="0.0 0.0 960.0 720.0" fill="none" stroke="none" stroke-linecap="square" stroke-miterlimit="10" xmlns:xlink="http://www.w3.org/1999/xlink" xmlns="http://www.w3.org/2000/svg"><clipPath id="p.0"><path d="m0 0l960.0 0l0 720.0l-960.0 0l0 -720.0z" clip-rule="nonzero"/></clipPath><g clip-path="url(#p.0)"><path fill="#000000" fill-opacity="0.0" d="m0 0l960.0 0l0 720.0l-960.0 0z" fill-rule="evenodd"/><path fill="#000000" fill-opacity="0.0" d="m223.0 237.50131l9.501312 -7.0l47.498688 5.0l120.0 -27.0l66.0 -31.0l53.501343 -14.0l88.49866 -10.501312l51.0 -2.0l24.0 2.5013123l22.0 21.498688l5.501343 0.50131226l-7.0 5.4986877l-101.50134 40.501312l14.0 12.498688l14.0 20.0l6.501343 16.0l0 11.0l-7.501343 7.5013123l79.0 -26.0l47.0 -11.0l-1.0 10.498688l9.501343 26.501312l-15.0 17.0l-158.50134 122.49869l-12.0 6.0l-93.49869 19.0l-11.0 4.5013123l-117.50131 84.00003l-67.0 28.498657l6.0 -12.0l-8.0 -16.498657l-6.0 -43.501343l-23.498688 6.5013123l-11.501312 -0.50131226l-9.498688 -13.0l-5.5013123 -11.0l-6.4986877 -9.0l-5.5013123 -25.498688l5.5013123 -16.501312l55.498688 -26.498688l26.0 -9.0l23.0 -5.5013123l3.0 -7.0l37.0 -15.498688l-30.0 -0.50131226l-7.0 -26.0l18.0 -12.0l-36.498688 8.0l-33.0 14.0l-33.0 9.0l-9.0 -1.0l-17.501312 3.5013123l-9.498688 -5.5013123l-9.0 -14.0l-3.5013123 -22.0l5.0 -20.0l31.501312 -14.498688l-4.0 -13.501312l0.49868774 -15.498688z" fill-rule="evenodd"/><path stroke="#ffffff" stroke-width="12.0" stroke-linejoin="round" stroke-linecap="butt" d="m223.0 237.50131l9.501312 -7.0l47.498688 5.0l120.0 -27.0l66.0 -31.0l53.501343 -14.0l88.49866 -10.501312l51.0 -2.0l24.0 2.5013123l22.0 21.498688l5.501343 0.50131226l-7.0 5.4986877l-101.50134 40.501312l14.0 12.498688l14.0 20.0l6.501343 16.0l0 11.0l-7.501343 7.5013123l79.0 -26.0l47.0 -11.0l-1.0 10.498688l9.501343 26.501312l-15.0 17.0l-158.50134 122.49869l-12.0 6.0l-93.49869 19.0l-11.0 4.5013123l-117.50131 84.00003l-67.0 28.498657l6.0 -12.0l-8.0 -16.498657l-6.0 -43.501343l-23.498688 6.5013123l-11.501312 -0.50131226l-9.498688 -13.0l-5.5013123 -11.0l-6.4986877 -9.0l-5.5013123 -25.498688l5.5013123 -16.501312l55.498688 -26.498688l26.0 -9.0l23.0 -5.5013123l3.0 -7.0l37.0 -15.498688l-30.0 -0.50131226l-7.0 -26.0l18.0 -12.0l-36.498688 8.0l-33.0 14.0l-33.0 9.0l-9.0 -1.0l-17.501312 3.5013123l-9.498688 -5.5013123l-9.0 -14.0l-3.5013123 -22.0l5.0 -20.0l31.501312 -14.498688l-4.0 -13.501312l0.49868774 -15.498688z" fill-rule="evenodd"/><path fill="#000000" fill-opacity="0.0" d="m280.0 497.5013l65.50131 -23.0l57.498688 -31.501312l43.501312 -34.0l29.498688 -29.0l-9.0 -24.498688l-54.498688 11.0l-82.50131 20.0" fill-rule="evenodd"/><path stroke="#ffffff" stroke-width="12.0" stroke-linejoin="round" stroke-linecap="butt" d="m280.0 497.5013l65.50131 -23.0l57.498688 -31.501312l43.501312 -34.0l29.498688 -29.0l-9.0 -24.498688l-54.498688 11.0l-82.50131 20.0" fill-rule="evenodd"/><path fill="#000000" fill-opacity="0.0" d="m292.5013 343.5013l86.0 -48.0l45.498688 -23.501312l8.0 -12.0l-9.498688 -16.498688l-21.501312 -2.5013123l-45.0 5.5013123l-59.498688 12.498688l-41.0 14.0l-33.0 15.501312" fill-rule="evenodd"/><path stroke="#ffffff" stroke-width="12.0" stroke-linejoin="round" stroke-linecap="butt" d="m292.5013 343.5013l86.0 -48.0l45.498688 -23.501312l8.0 -12.0l-9.498688 -16.498688l-21.501312 -2.5013123l-45.0 5.5013123l-59.498688 12.498688l-41.0 14.0l-33.0 15.501312" fill-rule="evenodd"/><path fill="#000000" fill-opacity="0.0" d="m464.0 392.5013l300.0 -106.0" fill-rule="evenodd"/><path stroke="#ffffff" stroke-width="12.0" stroke-linejoin="round" stroke-linecap="butt" d="m464.0 392.5013l300.0 -106.0" fill-rule="evenodd"/><path fill="#000000" fill-opacity="0.0" d="m418.0 241.0l265.0 -87.49869" fill-rule="evenodd"/><path stroke="#ffffff" stroke-width="12.0" stroke-linejoin="round" stroke-linecap="butt" d="m418.0 241.0l265.0 -87.49869" fill-rule="evenodd"/><path fill="#000000" fill-opacity="0.0" d="m425.5013 363.5013l-15.0 -14.501312l-35.0 -3.4986877l-5.5013123 -22.501312l24.501312 -21.498688l4.0 -16.501312" fill-rule="evenodd"/><path stroke="#ffffff" stroke-width="12.0" stroke-linejoin="round" stroke-linecap="butt" d="m425.5013 363.5013l-15.0 -14.501312l-35.0 -3.4986877l-5.5013123 -22.501312l24.501312 -21.498688l4.0 -16.501312" fill-rule="evenodd"/><path fill="#000000" fill-opacity="0.0" d="m410.5013 347.0l108.00003 -43.498688l-4.501343 -4.5013123l75.0 -25.0l10.501343 -15.0l-18.0 -9.0l-79.00003 23.501312l4.4986877 -6.5013123l-116.0 36.0" fill-rule="evenodd"/><path stroke="#ffffff" stroke-width="12.0" stroke-linejoin="round" stroke-linecap="butt" d="m410.5013 347.0l108.00003 -43.498688l-4.501343 -4.5013123l75.0 -25.0l10.501343 -15.0l-18.0 -9.0l-79.00003 23.501312l4.4986877 -6.5013123l-116.0 36.0" fill-rule="evenodd"/><path fill="#000000" fill-opacity="0.0" d="m557.50134 283.5013l-46.501343 1.4986877l33.501343 -25.498688" fill-rule="evenodd"/><path stroke="#ffffff" stroke-width="12.0" stroke-linejoin="round" stroke-linecap="butt" d="m557.50134 283.5013l-46.501343 1.4986877l33.501343 -25.498688" fill-rule="evenodd"/><path fill="#000000" fill-opacity="0.0" d="m601.0 220.50131l-50.498657 7.0l-86.00003 24.498688l-36.501312 10.501312" fill-rule="evenodd"/><path stroke="#ffffff" stroke-width="12.0" stroke-linejoin="round" stroke-linecap="butt" d="m601.0 220.50131l-50.498657 7.0l-86.00003 24.498688l-36.501312 10.501312" fill-rule="evenodd"/><path fill="#000000" fill-opacity="0.0" d="m465.5013 357.5013l92.00003 -41.501312l49.0 -20.0l29.498657 -13.0" fill-rule="evenodd"/><path stroke="#ffffff" stroke-width="12.0" stroke-linejoin="round" stroke-linecap="butt" d="m465.5013 357.5013l92.00003 -41.501312l49.0 -20.0l29.498657 -13.0" fill-rule="evenodd"/><path fill="#000000" fill-opacity="0.0" d="m499.0 451.5013l-88.0 -16.501312" fill-rule="evenodd"/><path stroke="#ffffff" stroke-width="12.0" stroke-linejoin="round" stroke-linecap="butt" d="m499.0 451.5013l-88.0 -16.501312" fill-rule="evenodd"/><path fill="#000000" fill-opacity="0.0" d="m370.0 243.0l29.0 -34.0" fill-rule="evenodd"/><path stroke="#ffffff" stroke-width="12.0" stroke-linejoin="round" stroke-linecap="butt" d="m370.0 243.0l29.0 -34.0" fill-rule="evenodd"/></g></svg>