<svg version="1.1" viewBox="0.0 0.0 960.0 720.0" fill="none" stroke="none" stroke-linecap="square" stroke-miterlimit="10" xmlns:xlink="http://www.w3.org/1999/xlink" xmlns="http://www.w3.org/2000/svg"><clipPath id="p.0"><path d="m0 0l960.0 0l0 720.0l-960.0 0l0 -720.0z" clip-rule="nonzero"/></clipPath><g clip-path="url(#p.0)"><path fill="#000000" fill-opacity="0.0" d="m0 0l960.0 0l0 720.0l-960.0 0z" fill-rule="evenodd"/><path fill="#000000" fill-opacity="0.0" d="m191.0 500.5013l-15.498688 -134.50131l14.498688 -5.0l-20.0 -19.498688l25.0 -10.0l46.501312 11.0l51.498688 -16.0l88.0 -29.501312l68.50131 -23.0l12.498688 -13.0l45.501312 -11.498688l9.0000305 2.0l69.0 -25.0l81.49866 -18.0l59.0 -7.0l43.501343 0.49868774l30.498657 8.501312l8.0 14.0l-11.0 27.0l-30.498657 30.0l-57.0 38.0l-61.0 32.0l-76.50134 34.0l-69.49869 27.0l-64.50131 25.498688l-66.49869 26.0l-6.0 5.0l-100.50131 31.501312l-38.498688 9.0l-14.0 -1.0l-6.0 -2.5013123l10.0 -2.4986877l50.498688 -37.501312l-59.498688 15.501312z" fill-rule="evenodd"/><path stroke="#ffffff" stroke-width="12.0" stroke-linejoin="round" stroke-linecap="butt" d="m191.0 500.5013l-15.498688 -134.50131l14.498688 -5.0l-20.0 -19.498688l25.0 -10.0l46.501312 11.0l51.498688 -16.0l88.0 -29.501312l68.50131 -23.0l12.498688 -13.0l45.501312 -11.498688l9.0000305 2.0l69.0 -25.0l81.49866 -18.0l59.0 -7.0l43.501343 0.49868774l30.498657 8.501312l8.0 14.0l-11.0 27.0l-30.498657 30.0l-57.0 38.0l-61.0 32.0l-76.50134 34.0l-69.49869 27.0l-64.50131 25.498688l-66.49869 26.0l-6.0 5.0l-100.50131 31.501312l-38.498688 9.0l-14.0 -1.0l-6.0 -2.5013123l10.0 -2.4986877l50.498688 -37.501312l-59.498688 15.501312z" fill-rule="evenodd"/><path fill="#000000" fill-opacity="0.0" d="m191.50131 499.0l-8.0 15.0l29.0 -7.4986877" fill-rule="evenodd"/><path stroke="#ffffff" stroke-width="12.0" stroke-linejoin="round" stroke-linecap="butt" d="m191.50131 499.0l-8.0 15.0l29.0 -7.4986877" fill-rule="evenodd"/><path fill="#000000" fill-opacity="0.0" d="m191.50131 361.5013l49.498688 -19.501312" fill-rule="evenodd"/><path stroke="#ffffff" stroke-width="12.0" stroke-linejoin="round" stroke-linecap="butt" d="m191.50131 361.5013l49.498688 -19.501312" fill-rule="evenodd"/><path fill="#000000" fill-opacity="0.0" d="m207.50131 479.0l67.0 -54.0l32.0 -15.498688l139.0 -54.0l70.00003 -28.0l67.49866 -20.0l75.50134 -25.501312l41.0 -19.0l33.0 -21.0l14.498657 -14.0l1.5013428 -8.498688l-6.501343 -4.0l-14.0 -1.0l-31.498657 0l-36.501343 4.0l-51.0 9.498688l-47.498657 12.501312l-44.0 12.0l-36.00003 15.498688l-40.501312 8.501312" fill-rule="evenodd"/><path stroke="#ffffff" stroke-width="12.0" stroke-linejoin="round" stroke-linecap="butt" d="m207.50131 479.0l67.0 -54.0l32.0 -15.498688l139.0 -54.0l70.00003 -28.0l67.49866 -20.0l75.50134 -25.501312l41.0 -19.0l33.0 -21.0l14.498657 -14.0l1.5013428 -8.498688l-6.501343 -4.0l-14.0 -1.0l-31.498657 0l-36.501343 4.0l-51.0 9.498688l-47.498657 12.501312l-44.0 12.0l-36.00003 15.498688l-40.501312 8.501312" fill-rule="evenodd"/><path fill="#000000" fill-opacity="0.0" d="m513.50134 331.0l-7.501343 -17.0l10.0 -19.498688l-10.0 -17.501312l-14.0 -1.0l-6.0 -8.0" fill-rule="evenodd"/><path stroke="#ffffff" stroke-width="12.0" stroke-linejoin="round" stroke-linecap="butt" d="m513.50134 331.0l-7.501343 -17.0l10.0 -19.498688l-10.0 -17.501312l-14.0 -1.0l-6.0 -8.0" fill-rule="evenodd"/><path fill="#000000" fill-opacity="0.0" d="m219.50131 444.5013l54.0 -38.501312l-9.501312 -51.498688l-57.498688 16.0l5.0 42.0z" fill-rule="evenodd"/><path stroke="#ffffff" stroke-width="12.0" stroke-linejoin="round" stroke-linecap="butt" d="m219.50131 444.5013l54.0 -38.501312l-9.501312 -51.498688l-57.498688 16.0l5.0 42.0z" fill-rule="evenodd"/><path fill="#000000" fill-opacity="0.0" d="m182.50131 513.50134l-10.501312 -4.501343l-9.0 -23.0l-5.4986877 -30.0l3.4986877 -5.0l-3.4986877 -24.0l-4.0 -3.0l1.0 -28.498688l3.0 -22.0l14.0 -15.0l7.0 -4.0" fill-rule="evenodd"/><path stroke="#ffffff" stroke-width="12.0" stroke-linejoin="round" stroke-linecap="butt" d="m182.50131 513.50134l-10.501312 -4.501343l-9.0 -23.0l-5.4986877 -30.0l3.4986877 -5.0l-3.4986877 -24.0l-4.0 -3.0l1.0 -28.498688l3.0 -22.0l14.0 -15.0l7.0 -4.0" fill-rule="evenodd"/><path fill="#000000" fill-opacity="0.0" d="m230.50131 333.5013l68.49869 -27.501312l84.50131 -12.0" fill-rule="evenodd"/><path stroke="#ffffff" stroke-width="12.0" stroke-linejoin="round" stroke-linecap="butt" d="m230.50131 333.5013l68.49869 -27.501312l84.50131 -12.0" fill-rule="evenodd"/><path fill="#000000" fill-opacity="0.0" d="m317.0 300.5013l-13.498688 -15.0l38.498688 -14.501312l58.501312 18.0" fill-rule="evenodd"/><path stroke="#ffffff" stroke-width="12.0" stroke-linejoin="round" stroke-linecap="butt" d="m317.0 300.5013l-13.498688 -15.0l38.498688 -14.501312l58.501312 18.0" fill-rule="evenodd"/><path fill="#000000" fill-opacity="0.0" d="m365.0 472.0l-8.0 49.501343l47.501312 -17.501343l42.498688 -68.49869" fill-rule="evenodd"/><path stroke="#ffffff" stroke-width="12.0" stroke-linejoin="round" stroke-linecap="butt" d="m365.0 472.0l-8.0 49.501343l47.501312 -17.501343l42.498688 -68.49869" fill-rule="evenodd"/><path fill="#000000" fill-opacity="0.0" d="m650.0 352.5013l7.0 45.0l28.0 -18.0l24.0 -59.501312" fill-rule="evenodd"/><path stroke="#ffffff" stroke-width="12.0" stroke-linejoin="round" stroke-linecap="butt" d="m650.0 352.5013l7.0 45.0l28.0 -18.0l24.0 -59.501312" fill-rule="evenodd"/><path fill="#000000" fill-opacity="0.0" d="m584.0 226.0l-22.0 -21.498688l25.0 -6.5013123l55.0 16.501312" fill-rule="evenodd"/><path stroke="#ffffff" stroke-width="12.0" stroke-linejoin="round" stroke-linecap="butt" d="m584.0 226.0l-22.0 -21.498688l25.0 -6.5013123l55.0 16.501312" fill-rule="evenodd"/><path fill="#000000" fill-opacity="0.0" d="m288.5013 450.0l107.49869 -35.498688l27.0 -9.501312l69.0 -29.0l-9.0 -8.0l-20.0 -1.4986877l-24.0 8.0l-40.498688 16.498688l-31.501312 13.0l-52.0 23.0l-19.0 16.0z" fill-rule="evenodd"/><path stroke="#ffffff" stroke-width="12.0" stroke-linejoin="round" stroke-linecap="butt" d="m288.5013 450.0l107.49869 -35.498688l27.0 -9.501312l69.0 -29.0l-9.0 -8.0l-20.0 -1.4986877l-24.0 8.0l-40.498688 16.498688l-31.501312 13.0l-52.0 23.0l-19.0 16.0z" fill-rule="evenodd"/><path fill="#000000" fill-opacity="0.0" d="m494.5013 374.5013l17.498688 16.0l-2.0 10.0l-17.0 13.498688" fill-rule="evenodd"/><path stroke="#ffffff" stroke-width="12.0" stroke-linejoin="round" stroke-linecap="butt" d="m494.5013 374.5013l17.498688 16.0l-2.0 10.0l-17.0 13.498688" fill-rule="evenodd"/><path fill="#000000" fill-opacity="0.0" d="m571.50134 384.0l-19.501343 -8.498688l-22.0 -18.0l-2.0 -11.501312l7.0 -8.0l30.0 -11.0l66.0 -28.0l30.0 -17.498688" fill-rule="evenodd"/><path stroke="#ffffff" stroke-width="12.0" stroke-linejoin="round" stroke-linecap="butt" d="m571.50134 384.0l-19.501343 -8.498688l-22.0 -18.0l-2.0 -11.501312l7.0 -8.0l30.0 -11.0l66.0 -28.0l30.0 -17.498688" fill-rule="evenodd"/><path fill="#000000" fill-opacity="0.0" d="m552.50134 372.0l58.0 -23.0l54.0 -24.498688l62.0 -33.501312l42.498657 -29.0l28.501343 -25.0l7.498657 -16.0" fill-rule="evenodd"/><path stroke="#ffffff" stroke-width="12.0" stroke-linejoin="round" stroke-linecap="butt" d="m552.50134 372.0l58.0 -23.0l54.0 -24.498688l62.0 -33.501312l42.498657 -29.0l28.501343 -25.0l7.498657 -16.0" fill-rule="evenodd"/><path fill="#000000" fill-opacity="0.0" d="m276.0 402.0l27.501312 -15.0l64.49869 -25.498688l-4.0 -12.501312l4.5013123 -4.4986877l-2.0 -6.5013123l-5.0 -2.4986877l-3.0 -10.0l-92.0 30.498688" fill-rule="evenodd"/><path stroke="#ffffff" stroke-width="12.0" stroke-linejoin="round" stroke-linecap="butt" d="m276.0 402.0l27.501312 -15.0l64.49869 -25.498688l-4.0 -12.501312l4.5013123 -4.4986877l-2.0 -6.5013123l-5.0 -2.4986877l-3.0 -10.0l-92.0 30.498688" fill-rule="evenodd"/><path fill="#000000" fill-opacity="0.0" d="m490.5013 276.5013l-107.0 37.0l15.0 40.0l109.0 -39.0" fill-rule="evenodd"/><path stroke="#ffffff" stroke-width="12.0" stroke-linejoin="round" stroke-linecap="butt" d="m490.5013 276.5013l-107.0 37.0l15.0 40.0l109.0 -39.0" fill-rule="evenodd"/></g></svg>