<svg version="1.1" viewBox="0.0 0.0 960.0 720.0" fill="none" stroke="none" stroke-linecap="square" stroke-miterlimit="10" xmlns:xlink="http://www.w3.org/1999/xlink" xmlns="http://www.w3.org/2000/svg"><clipPath id="p.0"><path d="m0 0l960.0 0l0 720.0l-960.0 0l0 -720.0z" clip-rule="nonzero"/></clipPath><g clip-path="url(#p.0)"><path fill="#000000" fill-opacity="0.0" d="m0 0l960.0 0l0 720.0l-960.0 0z" fill-rule="evenodd"/><path fill="#000000" fill-opacity="0.0" d="m389.33334 514.6667l67.33331 -24.00003l80.00003 -137.33331l18.666626 -22.666687l19.333374 -6.6666565l36.666626 5.3333435l6.0 4.6666565l15.333374 -4.6666565l54.666626 -70.66669l57.333374 -67.999985l-10.0 -20.0l-34.666687 -6.6666718l-82.0 -6.6666718l-50.666687 0.66667175l-34.666626 4.6666718l-21.333344 18.0l-17.333344 8.6666565l-40.0 3.3333435l-107.33334 -29.333344l-60.666656 20.0l-26.0 -8.6666565l-42.66667 13.333328l0 6.6666718l8.0 14.6666565l14.0 50.000015l-10.0 19.333313l-8.6666565 56.0l34.0 -17.333313l3.3333282 8.0l-7.3333282 6.6666565l7.9999847 24.666656l-28.666656 9.3333435l30.666656 52.0l23.333344 13.3333435l24.0 113.33334l-3.3333435 14.666626l6.0 3.333374l54.0 -22.0z" fill-rule="evenodd"/><path stroke="#ffffff" stroke-width="12.0" stroke-linejoin="round" stroke-linecap="butt" d="m389.33334 514.6667l67.33331 -24.00003l80.00003 -137.33331l18.666626 -22.666687l19.333374 -6.6666565l36.666626 5.3333435l6.0 4.6666565l15.333374 -4.6666565l54.666626 -70.66669l57.333374 -67.999985l-10.0 -20.0l-34.666687 -6.6666718l-82.0 -6.6666718l-50.666687 0.66667175l-34.666626 4.6666718l-21.333344 18.0l-17.333344 8.6666565l-40.0 3.3333435l-107.33334 -29.333344l-60.666656 20.0l-26.0 -8.6666565l-42.66667 13.333328l0 6.6666718l8.0 14.6666565l14.0 50.000015l-10.0 19.333313l-8.6666565 56.0l34.0 -17.333313l3.3333282 8.0l-7.3333282 6.6666565l7.9999847 24.666656l-28.666656 9.3333435l30.666656 52.0l23.333344 13.3333435l24.0 113.33334l-3.3333435 14.666626l6.0 3.333374l54.0 -22.0z" fill-rule="evenodd"/><path fill="#000000" fill-opacity="0.0" d="m338.66666 491.33334l48.666687 -20.666687l11.333313 0.666687l38.0 -16.666687l8.666687 -11.333313l-7.3333435 -19.333344l-8.6666565 -4.0l-32.0 10.0l-5.3333435 8.0l-61.333344 24.0l-12.0 8.6666565l8.0 18.666687z" fill-rule="evenodd"/><path stroke="#ffffff" stroke-width="12.0" stroke-linejoin="round" stroke-linecap="butt" d="m338.66666 491.33334l48.666687 -20.666687l11.333313 0.666687l38.0 -16.666687l8.666687 -11.333313l-7.3333435 -19.333344l-8.6666565 -4.0l-32.0 10.0l-5.3333435 8.0l-61.333344 24.0l-12.0 8.6666565l8.0 18.666687z" fill-rule="evenodd"/><path fill="#000000" fill-opacity="0.0" d="m355.33334 186.66667l-7.3333435 -2.0l-17.333344 -0.66667175l-68.0 22.666672l-7.9999847 6.6666565l1.9999847 11.3333435l8.0 2.0l56.0 -23.333344l15.3333435 6.6666718l19.333344 -8.0l4.6666565 -7.3333282z" fill-rule="evenodd"/><path stroke="#ffffff" stroke-width="12.0" stroke-linejoin="round" stroke-linecap="butt" d="m355.33334 186.66667l-7.3333435 -2.0l-17.333344 -0.66667175l-68.0 22.666672l-7.9999847 6.6666565l1.9999847 11.3333435l8.0 2.0l56.0 -23.333344l15.3333435 6.6666718l19.333344 -8.0l4.6666565 -7.3333282z" fill-rule="evenodd"/><path fill="#000000" fill-opacity="0.0" d="m342.0 211.33333l16.666656 8.666672l110.66669 -28.666672" fill-rule="evenodd"/><path stroke="#ffffff" stroke-width="12.0" stroke-linejoin="round" stroke-linecap="butt" d="m342.0 211.33333l16.666656 8.666672l110.66669 -28.666672" fill-rule="evenodd"/><path fill="#000000" fill-opacity="0.0" d="m398.0 432.66666l4.0 -60.0l174.0 -65.33331l44.666687 22.666656" fill-rule="evenodd"/><path stroke="#ffffff" stroke-width="12.0" stroke-linejoin="round" stroke-linecap="butt" d="m398.0 432.66666l4.0 -60.0l174.0 -65.33331l44.666687 22.666656" fill-rule="evenodd"/><path fill="#000000" fill-opacity="0.0" d="m257.33334 320.0l93.33331 -48.666656l76.0 -26.000015l7.3333435 0.66667175l32.0 -13.333328l-16.666656 -2.0l93.33334 -19.333344l99.33331 -30.666656l33.333313 4.6666565l10.666687 20.666672l-36.666687 24.0l-90.666626 26.0l-60.666687 36.0l-29.333344 7.3333435l18.666687 -13.3333435l-169.33334 59.333344l-60.666656 9.333313" fill-rule="evenodd"/><path stroke="#ffffff" stroke-width="12.0" stroke-linejoin="round" stroke-linecap="butt" d="m257.33334 320.0l93.33331 -48.666656l76.0 -26.000015l7.3333435 0.66667175l32.0 -13.333328l-16.666656 -2.0l93.33334 -19.333344l99.33331 -30.666656l33.333313 4.6666565l10.666687 20.666672l-36.666687 24.0l-90.666626 26.0l-60.666687 36.0l-29.333344 7.3333435l18.666687 -13.3333435l-169.33334 59.333344l-60.666656 9.333313" fill-rule="evenodd"/><path fill="#000000" fill-opacity="0.0" d="m670.0 214.0l-96.0 26.0l-19.333313 16.0" fill-rule="evenodd"/><path stroke="#ffffff" stroke-width="12.0" stroke-linejoin="round" stroke-linecap="butt" d="m670.0 214.0l-96.0 26.0l-19.333313 16.0" fill-rule="evenodd"/><path fill="#000000" fill-opacity="0.0" d="m477.33334 275.33334l67.33334 -24.000015l-9.333374 -20.666656l-14.0 -6.6666718l-39.99997 14.0l-15.3333435 12.666672z" fill-rule="evenodd"/><path stroke="#ffffff" stroke-width="12.0" stroke-linejoin="round" stroke-linecap="butt" d="m477.33334 275.33334l67.33334 -24.000015l-9.333374 -20.666656l-14.0 -6.6666718l-39.99997 14.0l-15.3333435 12.666672z" fill-rule="evenodd"/><path fill="#000000" fill-opacity="0.0" d="m474.66666 276.0l16.0 -18.0l36.00003 -13.333328l17.333313 4.0" fill-rule="evenodd"/><path stroke="#ffffff" stroke-width="12.0" stroke-linejoin="round" stroke-linecap="butt" d="m474.66666 276.0l16.0 -18.0l36.00003 -13.333328l17.333313 4.0" fill-rule="evenodd"/><path fill="#000000" fill-opacity="0.0" d="m303.33334 192.66667l-20.0 -10.666672" fill-rule="evenodd"/><path stroke="#ffffff" stroke-width="12.0" stroke-linejoin="round" stroke-linecap="butt" d="m303.33334 192.66667l-20.0 -10.666672" fill-rule="evenodd"/><path fill="#000000" fill-opacity="0.0" d="m394.0 474.0l-5.3333435 42.666687" fill-rule="evenodd"/><path stroke="#ffffff" stroke-width="12.0" stroke-linejoin="round" stroke-linecap="butt" d="m394.0 474.0l-5.3333435 42.666687" fill-rule="evenodd"/><path fill="#000000" fill-opacity="0.0" d="m346.0 344.0l-10.0 70.0l52.666656 -10.6666565l8.0 -36.0l64.0 -22.0l5.3333435 -36.0z" fill-rule="evenodd"/><path stroke="#ffffff" stroke-width="12.0" stroke-linejoin="round" stroke-linecap="butt" d="m346.0 344.0l-10.0 70.0l52.666656 -10.6666565l8.0 -36.0l64.0 -22.0l5.3333435 -36.0z" fill-rule="evenodd"/><path fill="#000000" fill-opacity="0.0" d="m410.66666 212.0l21.333344 12.666672l-26.666656 8.0l-44.666687 -2.0l-54.666656 18.0l-17.333344 -14.0l37.333344 -18.666672l20.0 8.0z" fill-rule="evenodd"/><path stroke="#ffffff" stroke-width="12.0" stroke-linejoin="round" stroke-linecap="butt" d="m410.66666 212.0l21.333344 12.666672l-26.666656 8.0l-44.666687 -2.0l-54.666656 18.0l-17.333344 -14.0l37.333344 -18.666672l20.0 8.0z" fill-rule="evenodd"/><path fill="#000000" fill-opacity="0.0" d="m308.66666 249.33333l-12.6666565 6.6666718l1.3333435 20.0l50.0 -2.0l106.0 -35.33333l-49.333344 -5.3333435" fill-rule="evenodd"/><path stroke="#ffffff" stroke-width="12.0" stroke-linejoin="round" stroke-linecap="butt" d="m308.66666 249.33333l-12.6666565 6.6666718l1.3333435 20.0l50.0 -2.0l106.0 -35.33333l-49.333344 -5.3333435" fill-rule="evenodd"/><path fill="#000000" fill-opacity="0.0" d="m436.66666 245.33333l16.666687 12.119858l4.6666565 16.397491l-8.0 22.813843" fill-rule="evenodd"/><path stroke="#ffffff" stroke-width="12.0" stroke-linejoin="round" stroke-linecap="butt" d="m436.66666 245.33333l16.666687 12.119858l4.6666565 16.397491l-8.0 22.813843" fill-rule="evenodd"/><path fill="#000000" fill-opacity="0.0" d="m346.66666 293.66928l0 0c0 -15.281311 12.536041 -27.669281 28.0 -27.669281l0 0c7.4260864 0 14.547974 2.9151611 19.799011 8.1041565c5.251007 5.1889954 8.200989 12.226776 8.200989 19.565125l0 0c0 15.281342 -12.536011 27.669312 -28.0 27.669312l0 0c-15.463959 0 -28.0 -12.38797 -28.0 -27.669312z" fill-rule="evenodd"/><path stroke="#ffffff" stroke-width="12.0" stroke-linejoin="round" stroke-linecap="butt" d="m346.66666 293.66928l0 0c0 -15.281311 12.536041 -27.669281 28.0 -27.669281l0 0c7.4260864 0 14.547974 2.9151611 19.799011 8.1041565c5.251007 5.1889954 8.200989 12.226776 8.200989 19.565125l0 0c0 15.281342 -12.536011 27.669312 -28.0 27.669312l0 0c-15.463959 0 -28.0 -12.38797 -28.0 -27.669312z" fill-rule="evenodd"/><path fill="#000000" fill-opacity="0.0" d="m641.3333 178.66667l22.666687 40.666656" fill-rule="evenodd"/><path stroke="#ffffff" stroke-width="12.0" stroke-linejoin="round" stroke-linecap="butt" d="m641.3333 178.66667l22.666687 40.666656" fill-rule="evenodd"/></g></svg>