<svg version="1.1" viewBox="0.0 0.0 960.0 720.0" fill="none" stroke="none" stroke-linecap="square" stroke-miterlimit="10" xmlns:xlink="http://www.w3.org/1999/xlink" xmlns="http://www.w3.org/2000/svg"><clipPath id="p.0"><path d="m0 0l960.0 0l0 720.0l-960.0 0l0 -720.0z" clip-rule="nonzero"/></clipPath><g clip-path="url(#p.0)"><path fill="#000000" fill-opacity="0.0" d="m0 0l960.0 0l0 720.0l-960.0 0z" fill-rule="evenodd"/><path fill="#000000" fill-opacity="0.0" d="m188.0 336.0l24.666672 -52.0l9.333328 -24.666656l60.0 -30.000015l15.3333435 -14.0l80.66666 -37.33333l40.666656 14.0l116.00003 -6.0l9.333313 -8.666672l121.33331 -0.6666565l31.333374 9.333328l81.33331 2.6666718l12.666687 18.666656l-53.333374 55.33333l-5.333313 26.666687l-88.66669 84.0l-17.333313 -2.666687l-106.66669 88.66669l-26.666656 65.33334l-110.66666 18.0l-16.666656 -8.666687l-13.3333435 -3.333313l-78.66666 4.666626l-22.000015 -37.333313l-52.0 -71.33334l-10.0 2.0l-11.333328 -5.333313l-8.666672 -81.33334z" fill-rule="evenodd"/><path stroke="#ffffff" stroke-width="12.0" stroke-linejoin="round" stroke-linecap="butt" d="m188.0 336.0l24.666672 -52.0l9.333328 -24.666656l60.0 -30.000015l15.3333435 -14.0l80.66666 -37.33333l40.666656 14.0l116.00003 -6.0l9.333313 -8.666672l121.33331 -0.6666565l31.333374 9.333328l81.33331 2.6666718l12.666687 18.666656l-53.333374 55.33333l-5.333313 26.666687l-88.66669 84.0l-17.333313 -2.666687l-106.66669 88.66669l-26.666656 65.33334l-110.66666 18.0l-16.666656 -8.666687l-13.3333435 -3.333313l-78.66666 4.666626l-22.000015 -37.333313l-52.0 -71.33334l-10.0 2.0l-11.333328 -5.333313l-8.666672 -81.33334z" fill-rule="evenodd"/><path fill="#000000" fill-opacity="0.0" d="m189.33333 331.33334l76.000015 -24.666687l15.333313 5.3333435l172.66669 -66.66667l24.666656 16.000015l145.33331 -48.66667l68.66669 -12.666672l22.0 3.3333282l11.333313 24.0l-22.0 18.666672l-68.0 20.666656l-133.99997 36.0l-8.666687 37.333344l-198.0 32.666656l-4.6666565 11.3333435l-91.33333 42.666656" fill-rule="evenodd"/><path stroke="#ffffff" stroke-width="12.0" stroke-linejoin="round" stroke-linecap="butt" d="m189.33333 331.33334l76.000015 -24.666687l15.333313 5.3333435l172.66669 -66.66667l24.666656 16.000015l145.33331 -48.66667l68.66669 -12.666672l22.0 3.3333282l11.333313 24.0l-22.0 18.666672l-68.0 20.666656l-133.99997 36.0l-8.666687 37.333344l-198.0 32.666656l-4.6666565 11.3333435l-91.33333 42.666656" fill-rule="evenodd"/><path fill="#000000" fill-opacity="0.0" d="m283.33334 386.66666l26.666656 -57.333313l-34.666656 -18.0" fill-rule="evenodd"/><path stroke="#ffffff" stroke-width="12.0" stroke-linejoin="round" stroke-linecap="butt" d="m283.33334 386.66666l26.666656 -57.333313l-34.666656 -18.0" fill-rule="evenodd"/><path fill="#000000" fill-opacity="0.0" d="m477.33334 258.66666l-46.0 17.333344l10.0 29.333344l198.66666 -48.666687l64.0 -22.666656l20.666687 -8.666672" fill-rule="evenodd"/><path stroke="#ffffff" stroke-width="12.0" stroke-linejoin="round" stroke-linecap="butt" d="m477.33334 258.66666l-46.0 17.333344l10.0 29.333344l198.66666 -48.666687l64.0 -22.666656l20.666687 -8.666672" fill-rule="evenodd"/><path fill="#000000" fill-opacity="0.0" d="m688.0 204.0l16.666687 32.0" fill-rule="evenodd"/><path stroke="#ffffff" stroke-width="12.0" stroke-linejoin="round" stroke-linecap="butt" d="m688.0 204.0l16.666687 32.0" fill-rule="evenodd"/><path fill="#000000" fill-opacity="0.0" d="m629.3333 265.33334l-24.0 -45.333344" fill-rule="evenodd"/><path stroke="#ffffff" stroke-width="12.0" stroke-linejoin="round" stroke-linecap="butt" d="m629.3333 265.33334l-24.0 -45.333344" fill-rule="evenodd"/><path fill="#000000" fill-opacity="0.0" d="m290.0 384.0l188.0 65.33334l19.333344 65.33334" fill-rule="evenodd"/><path stroke="#ffffff" stroke-width="12.0" stroke-linejoin="round" stroke-linecap="butt" d="m290.0 384.0l188.0 65.33334l19.333344 65.33334" fill-rule="evenodd"/><path fill="#000000" fill-opacity="0.0" d="m274.0 307.33334l116.66666 -101.33334l-12.0 -29.333328" fill-rule="evenodd"/><path stroke="#ffffff" stroke-width="12.0" stroke-linejoin="round" stroke-linecap="butt" d="m274.0 307.33334l116.66666 -101.33334l-12.0 -29.333328" fill-rule="evenodd"/><path fill="#000000" fill-opacity="0.0" d="m480.0 449.33334l4.0 -12.0l129.33331 -90.0l12.666687 23.333313" fill-rule="evenodd"/><path stroke="#ffffff" stroke-width="12.0" stroke-linejoin="round" stroke-linecap="butt" d="m480.0 449.33334l4.0 -12.0l129.33331 -90.0l12.666687 23.333313" fill-rule="evenodd"/><path fill="#000000" fill-opacity="0.0" d="m613.3333 348.66666l-5.333313 -8.6666565l32.666687 -77.33334" fill-rule="evenodd"/><path stroke="#ffffff" stroke-width="12.0" stroke-linejoin="round" stroke-linecap="butt" d="m613.3333 348.66666l-5.333313 -8.6666565l32.666687 -77.33334" fill-rule="evenodd"/><path fill="#000000" fill-opacity="0.0" d="m605.3333 215.33333l-65.33331 -19.333328l-1.333313 -9.333328" fill-rule="evenodd"/><path stroke="#ffffff" stroke-width="12.0" stroke-linejoin="round" stroke-linecap="butt" d="m605.3333 215.33333l-65.33331 -19.333328l-1.333313 -9.333328" fill-rule="evenodd"/><path fill="#000000" fill-opacity="0.0" d="m540.0027 196.66667l-139.83282 10.6666565l-9.503204 -2.6666565" fill-rule="evenodd"/><path stroke="#ffffff" stroke-width="12.0" stroke-linejoin="round" stroke-linecap="butt" d="m540.0027 196.66667l-139.83282 10.6666565l-9.503204 -2.6666565" fill-rule="evenodd"/></g></svg>