<svg version="1.1" viewBox="0.0 0.0 960.0 720.0" fill="none" stroke="none" stroke-linecap="square" stroke-miterlimit="10" xmlns:xlink="http://www.w3.org/1999/xlink" xmlns="http://www.w3.org/2000/svg"><clipPath id="p.0"><path d="m0 0l960.0 0l0 720.0l-960.0 0l0 -720.0z" clip-rule="nonzero"/></clipPath><g clip-path="url(#p.0)"><path fill="#000000" fill-opacity="0.0" d="m0 0l960.0 0l0 720.0l-960.0 0z" fill-rule="evenodd"/><path fill="#000000" fill-opacity="0.0" d="m146.41208 300.0l-1.9133911 -47.367447l6.2178497 -13.398956l25.359573 -12.91864l11.005249 1.9160156l61.244095 -22.968506l10.524948 1.4356995l22.010498 -10.047241l20.574799 49.761154l-31.580048 9.56955l-6.2204895 8.611542l-52.629913 19.1391l-7.6561737 -1.9133606l-9.56955 3.34906l-2.8713837 4.78479l-42.104996 15.790009z" fill-rule="evenodd"/><path stroke="#ffffff" stroke-width="12.0" stroke-linejoin="round" stroke-linecap="butt" d="m146.41208 300.0l-1.9133911 -47.367447l6.2178497 -13.398956l25.359573 -12.91864l11.005249 1.9160156l61.244095 -22.968506l10.524948 1.4356995l22.010498 -10.047241l20.574799 49.761154l-31.580048 9.56955l-6.2204895 8.611542l-52.629913 19.1391l-7.6561737 -1.9133606l-9.56955 3.34906l-2.8713837 4.78479l-42.104996 15.790009z" fill-rule="evenodd"/><path fill="#000000" fill-opacity="0.0" d="m192.34383 546.41205l24.40158 39.711304l-0.9553833 8.614197l12.4409485 12.91864l13.396332 0.9553833l21.052475 -7.6535645l4.3070984 -9.091858l15.309723 1.435669l79.90549 -30.62201l2.3910828 -12.91864l19.61679 -6.220459l0.9580078 -44.97641l-8.614166 -8.611542l-35.88452 13.396332l-4.3044434 -8.133881l-87.56169 33.49347l-9.56955 -0.9580078z" fill-rule="evenodd"/><path stroke="#ffffff" stroke-width="12.0" stroke-linejoin="round" stroke-linecap="butt" d="m192.34383 546.41205l24.40158 39.711304l-0.9553833 8.614197l12.4409485 12.91864l13.396332 0.9553833l21.052475 -7.6535645l4.3070984 -9.091858l15.309723 1.435669l79.90549 -30.62201l2.3910828 -12.91864l19.61679 -6.220459l0.9580078 -44.97641l-8.614166 -8.611542l-35.88452 13.396332l-4.3044434 -8.133881l-87.56169 33.49347l-9.56955 -0.9580078z" fill-rule="evenodd"/><path fill="#000000" fill-opacity="0.0" d="m260.76642 524.8793l-7.656189 -12.91864l-6.6981506 -23.921265l-23.92389 -0.48031616l-6.2204742 -25.356964l21.530182 -12.440918l-2.3910675 -8.611572l8.13385 -8.136475l25.83728 -10.047241l-11.960632 -45.931763l-33.49344 0.9553833l-3.3490906 -11.0026245l-9.56955 1.9133911l-12.91864 -3.3490906l-3.8293915 -23.446198l15.790024 -11.005249l-3.3490753 -16.745392l4.307083 -14.35434l27.272964 -19.61679l76.076126 -22.965881l-0.9580078 -10.049881l14.35434 -16.745407l23.446167 -11.960617l75.59845 -27.75328l24.40155 -7.1758575l16.26773 -0.47769165l59.80838 -22.48819l10.047241 5.2624664l144.49872 -55.501312l10.524902 0.9553833l7.178528 17.225723l-6.698181 12.91864l-10.049866 2.8713837l9.569519 16.745407l20.57483 -6.698166l4.78479 6.698166l-0.47772217 8.133865l-157.4173 66.50656l-13.876648 18.183716l-11.0026245 3.8267822l8.13385 15.309692l37.32019 6.7008057l6.698181 14.832001l-11.960632 20.572205l-11.963257 4.7847595l4.78479 10.049866l27.27295 -9.56955l11.960632 -0.48031616l5.742798 8.136475l159.33069 -60.288696l12.440979 0l-1.43573 11.963257l-18.661377 9.089233l14.83197 23.92389l12.91864 -6.698181l10.047241 1.9133911l6.22052 11.005249l8.13385 4.3070984l-2.8687744 11.482941l-169.37799 64.112854l-1.435669 13.398956l-72.24933 24.40158l-4.78479 10.047241l-55.98163 19.1391l-5.740143 5.2624817l-33.015747 12.440918l1.435669 13.396332l-36.362183 15.312317l-8.133881 -9.091827l-11.963226 5.7427673l-5.2624817 15.309692l-24.40158 9.56958" fill-rule="evenodd"/><path stroke="#ffffff" stroke-width="12.0" stroke-linejoin="round" stroke-linecap="butt" d="m260.76642 524.8793l-7.656189 -12.91864l-6.6981506 -23.921265l-23.92389 -0.48031616l-6.2204742 -25.356964l21.530182 -12.440918l-2.3910675 -8.611572l8.13385 -8.136475l25.83728 -10.047241l-11.960632 -45.931763l-33.49344 0.9553833l-3.3490906 -11.0026245l-9.56955 1.9133911l-12.91864 -3.3490906l-3.8293915 -23.446198l15.790024 -11.005249l-3.3490753 -16.745392l4.307083 -14.35434l27.272964 -19.61679l76.076126 -22.965881l-0.9580078 -10.049881l14.35434 -16.745407l23.446167 -11.960617l75.59845 -27.75328l24.40155 -7.1758575l16.26773 -0.47769165l59.80838 -22.48819l10.047241 5.2624664l144.49872 -55.501312l10.524902 0.9553833l7.178528 17.225723l-6.698181 12.91864l-10.049866 2.8713837l9.569519 16.745407l20.57483 -6.698166l4.78479 6.698166l-0.47772217 8.133865l-157.4173 66.50656l-13.876648 18.183716l-11.0026245 3.8267822l8.13385 15.309692l37.32019 6.7008057l6.698181 14.832001l-11.960632 20.572205l-11.963257 4.7847595l4.78479 10.049866l27.27295 -9.56955l11.960632 -0.48031616l5.742798 8.136475l159.33069 -60.288696l12.440979 0l-1.43573 11.963257l-18.661377 9.089233l14.83197 23.92389l12.91864 -6.698181l10.047241 1.9133911l6.22052 11.005249l8.13385 4.3070984l-2.8687744 11.482941l-169.37799 64.112854l-1.435669 13.398956l-72.24933 24.40158l-4.78479 10.047241l-55.98163 19.1391l-5.740143 5.2624817l-33.015747 12.440918l1.435669 13.396332l-36.362183 15.312317l-8.133881 -9.091827l-11.963226 5.7427673l-5.2624817 15.309692l-24.40158 9.56958" fill-rule="evenodd"/><path fill="#000000" fill-opacity="0.0" d="m222.96588 369.37796l31.102356 -11.005249l2.8687744 -11.005249l136.84253 -48.32547l-4.78479 -9.56955l94.73752 -34.448822l27.750671 -9.091858l31.580048 7.6561584" fill-rule="evenodd"/><path stroke="#ffffff" stroke-width="12.0" stroke-linejoin="round" stroke-linecap="butt" d="m222.96588 369.37796l31.102356 -11.005249l2.8687744 -11.005249l136.84253 -48.32547l-4.78479 -9.56955l94.73752 -34.448822l27.750671 -9.091858l31.580048 7.6561584" fill-rule="evenodd"/><path fill="#000000" fill-opacity="0.0" d="m269.85565 419.6168l20.097107 -6.6981506l1.9133911 6.6981506l76.07611 -26.792633l9.56955 -11.005249l37.32022 -13.876648l7.178467 11.005249l88.03674 -33.015747l20.097107 -1.433075l42.10498 -14.834656" fill-rule="evenodd"/><path stroke="#ffffff" stroke-width="12.0" stroke-linejoin="round" stroke-linecap="butt" d="m269.85565 419.6168l20.097107 -6.6981506l1.9133911 6.6981506l76.07611 -26.792633l9.56955 -11.005249l37.32022 -13.876648l7.178467 11.005249l88.03674 -33.015747l20.097107 -1.433075l42.10498 -14.834656" fill-rule="evenodd"/><path fill="#000000" fill-opacity="0.0" d="m340.1916 318.1811l-22.010498 -73.6824" fill-rule="evenodd"/><path stroke="#ffffff" stroke-width="12.0" stroke-linejoin="round" stroke-linecap="butt" d="m340.1916 318.1811l-22.010498 -73.6824" fill-rule="evenodd"/><path fill="#000000" fill-opacity="0.0" d="m357.41733 311.00525l-23.92389 -80.38321" fill-rule="evenodd"/><path stroke="#ffffff" stroke-width="12.0" stroke-linejoin="round" stroke-linecap="butt" d="m357.41733 311.00525l-23.92389 -80.38321" fill-rule="evenodd"/><path fill="#000000" fill-opacity="0.0" d="m363.63516 397.1286l12.4409485 44.498688l-135.40681 44.01837" fill-rule="evenodd"/><path stroke="#ffffff" stroke-width="12.0" stroke-linejoin="round" stroke-linecap="butt" d="m363.63516 397.1286l12.4409485 44.498688l-135.40681 44.01837" fill-rule="evenodd"/><path fill="#000000" fill-opacity="0.0" d="m377.9895 384.69028l22.010498 72.246735l-99.04199 34.451447" fill-rule="evenodd"/><path stroke="#ffffff" stroke-width="12.0" stroke-linejoin="round" stroke-linecap="butt" d="m377.9895 384.69028l22.010498 72.246735l-99.04199 34.451447" fill-rule="evenodd"/><path fill="#000000" fill-opacity="0.0" d="m326.7953 498.5643l-71.77167 -17.7034" fill-rule="evenodd"/><path stroke="#ffffff" stroke-width="12.0" stroke-linejoin="round" stroke-linecap="butt" d="m326.7953 498.5643l-71.77167 -17.7034" fill-rule="evenodd"/><path fill="#000000" fill-opacity="0.0" d="m341.1496 247.84776l-31.580048 10.047256" fill-rule="evenodd"/><path stroke="#ffffff" stroke-width="12.0" stroke-linejoin="round" stroke-linecap="butt" d="m341.1496 247.84776l-31.580048 10.047256" fill-rule="evenodd"/><path fill="#000000" fill-opacity="0.0" d="m455.5013 185.16798l8.13385 19.1391l227.75327 -88.997375" fill-rule="evenodd"/><path stroke="#ffffff" stroke-width="12.0" stroke-linejoin="round" stroke-linecap="butt" d="m455.5013 185.16798l8.13385 19.1391l227.75327 -88.997375" fill-rule="evenodd"/><path fill="#000000" fill-opacity="0.0" d="m446.41208 269.37796l-14.35434 -39.713913l45.931763 -18.181107l17.225708 3.826767l38.2782 -15.309708l13.874023 5.2624664l12.91864 29.666672" fill-rule="evenodd"/><path stroke="#ffffff" stroke-width="12.0" stroke-linejoin="round" stroke-linecap="butt" d="m446.41208 269.37796l-14.35434 -39.713913l45.931763 -18.181107l17.225708 3.826767l38.2782 -15.309708l13.874023 5.2624664l12.91864 29.666672" fill-rule="evenodd"/><path fill="#000000" fill-opacity="0.0" d="m476.5538 359.8084l15.790039 42.10498l64.11545 -22.48819l3.8267822 -7.6561584l47.84778 -15.787415l9.56958 -15.312347l-5.742798 -12.91861" fill-rule="evenodd"/><path stroke="#ffffff" stroke-width="12.0" stroke-linejoin="round" stroke-linecap="butt" d="m476.5538 359.8084l15.790039 42.10498l64.11545 -22.48819l3.8267822 -7.6561584l47.84778 -15.787415l9.56958 -15.312347l-5.742798 -12.91861" fill-rule="evenodd"/><path fill="#000000" fill-opacity="0.0" d="m409.09186 282.7743l30.141724 89.95273" fill-rule="evenodd"/><path stroke="#ffffff" stroke-width="12.0" stroke-linejoin="round" stroke-linecap="butt" d="m409.09186 282.7743l30.141724 89.95273" fill-rule="evenodd"/><path fill="#000000" fill-opacity="0.0" d="m423.9239 380.8609l27.75064 89.47507l-68.90024 23.443573" fill-rule="evenodd"/><path stroke="#ffffff" stroke-width="12.0" stroke-linejoin="round" stroke-linecap="butt" d="m423.9239 380.8609l27.75064 89.47507l-68.90024 23.443573" fill-rule="evenodd"/><path fill="#000000" fill-opacity="0.0" d="m414.83203 510.52756l-18.658813 -17.225708" fill-rule="evenodd"/><path stroke="#ffffff" stroke-width="12.0" stroke-linejoin="round" stroke-linecap="butt" d="m414.83203 510.52756l-18.658813 -17.225708" fill-rule="evenodd"/><path fill="#000000" fill-opacity="0.0" d="m340.1916 454.06824l-12.91861 -44.020996" fill-rule="evenodd"/><path stroke="#ffffff" stroke-width="12.0" stroke-linejoin="round" stroke-linecap="butt" d="m340.1916 454.06824l-12.91861 -44.020996" fill-rule="evenodd"/><path fill="#000000" fill-opacity="0.0" d="m304.7848 332.05774l-10.047272 -36.84253l-83.73227 29.18637" fill-rule="evenodd"/><path stroke="#ffffff" stroke-width="12.0" stroke-linejoin="round" stroke-linecap="butt" d="m304.7848 332.05774l-10.047272 -36.84253l-83.73227 29.18637" fill-rule="evenodd"/><path fill="#000000" fill-opacity="0.0" d="m566.9869 333.49344l-35.4068 -79.90552" fill-rule="evenodd"/><path stroke="#ffffff" stroke-width="12.0" stroke-linejoin="round" stroke-linecap="butt" d="m566.9869 333.49344l-35.4068 -79.90552" fill-rule="evenodd"/><path fill="#000000" fill-opacity="0.0" d="m513.87665 248.80315l11.960632 27.750656l-59.33072 20.097107l11.482941 29.664062l58.853027 -21.05249l15.790039 33.015747" fill-rule="evenodd"/><path stroke="#ffffff" stroke-width="12.0" stroke-linejoin="round" stroke-linecap="butt" d="m513.87665 248.80315l11.960632 27.750656l-59.33072 20.097107l11.482941 29.664062l58.853027 -21.05249l15.790039 33.015747" fill-rule="evenodd"/><path fill="#000000" fill-opacity="0.0" d="m450.0 468.1916l171.38318 -60.32019l27.766418 -9.574799" fill-rule="evenodd"/><path stroke="#ffffff" stroke-width="12.0" stroke-linejoin="round" stroke-linecap="butt" d="m450.0 468.1916l171.38318 -60.32019l27.766418 -9.574799" fill-rule="evenodd"/><path fill="#000000" fill-opacity="0.0" d="m764.042 292.021l-139.78741 48.829407l17.233582 40.212585l164.68243 -61.275574" fill-rule="evenodd"/><path stroke="#ffffff" stroke-width="12.0" stroke-linejoin="round" stroke-linecap="butt" d="m764.042 292.021l-139.78741 48.829407l17.233582 40.212585l164.68243 -61.275574" fill-rule="evenodd"/><path fill="#000000" fill-opacity="0.0" d="m695.9823 160.85036l-141.14673 52.661407l-15.793579 -42.129135" fill-rule="evenodd"/><path stroke="#ffffff" stroke-width="12.0" stroke-linejoin="round" stroke-linecap="butt" d="m695.9823 160.85036l-141.14673 52.661407l-15.793579 -42.129135" fill-rule="evenodd"/></g></svg>