<svg version="1.1" viewBox="0.0 0.0 960.0 720.0" fill="none" stroke="none" stroke-linecap="square" stroke-miterlimit="10" xmlns:xlink="http://www.w3.org/1999/xlink" xmlns="http://www.w3.org/2000/svg"><clipPath id="p.0"><path d="m0 0l960.0 0l0 720.0l-960.0 0l0 -720.0z" clip-rule="nonzero"/></clipPath><g clip-path="url(#p.0)"><path fill="#000000" fill-opacity="0.0" d="m0 0l960.0 0l0 720.0l-960.0 0z" fill-rule="evenodd"/><path fill="#000000" fill-opacity="0.0" d="m265.2126 326.4882l14.362213 -40.212585l-3.8294067 -23.934387l41.170624 -11.490829l21.062988 0.9580078l16.275604 -26.808395l-26.80841 1.9160156l-12.4461975 -13.404205l-0.9580078 -18.191605l22.020996 -18.19159l-4.787384 -18.191605l16.278198 -34.46982l42.125977 -13.404198l83.299225 19.149605l86.17059 39.254593l51.700806 33.51181l44.041992 95.74539l-2.871399 87.12601l-45.0 156.06561l-45.0 41.16797l-70.8504 24.89502l-35.4252 -12.446167l2.871399 -26.80841l-47.8714 -6.70343l-7.6614075 -24.892395l62.236237 -25.852997l-43.08664 -27.763794l-13.404175 -1.9160156l-17.233612 16.275604l-53.61679 16.278198l-6.7033997 -16.278198l-22.979004 3.8320007l-16.275604 -6.7033997l-4.7874146 -16.275604l14.362213 -22.979004l-5.745392 -9.574799l-14.362213 7.6588135l-34.467194 -3.8294067l25.850403 -26.80841l-3.8294067 -11.48819l-13.40419 -3.8320007l-8.616806 -32.551178l7.658798 -7.661438l-2.871399 -11.48819l-19.149597 0.9580078l13.40419 -20.107605z" fill-rule="evenodd"/><path stroke="#ffffff" stroke-width="12.0" stroke-linejoin="round" stroke-linecap="butt" d="m265.2126 326.4882l14.362213 -40.212585l-3.8294067 -23.934387l41.170624 -11.490829l21.062988 0.9580078l16.275604 -26.808395l-26.80841 1.9160156l-12.4461975 -13.404205l-0.9580078 -18.191605l22.020996 -18.19159l-4.787384 -18.191605l16.278198 -34.46982l42.125977 -13.404198l83.299225 19.149605l86.17059 39.254593l51.700806 33.51181l44.041992 95.74539l-2.871399 87.12601l-45.0 156.06561l-45.0 41.16797l-70.8504 24.89502l-35.4252 -12.446167l2.871399 -26.80841l-47.8714 -6.70343l-7.6614075 -24.892395l62.236237 -25.852997l-43.08664 -27.763794l-13.404175 -1.9160156l-17.233612 16.275604l-53.61679 16.278198l-6.7033997 -16.278198l-22.979004 3.8320007l-16.275604 -6.7033997l-4.7874146 -16.275604l14.362213 -22.979004l-5.745392 -9.574799l-14.362213 7.6588135l-34.467194 -3.8294067l25.850403 -26.80841l-3.8294067 -11.48819l-13.40419 -3.8320007l-8.616806 -32.551178l7.658798 -7.661438l-2.871399 -11.48819l-19.149597 0.9580078l13.40419 -20.107605z" fill-rule="evenodd"/><path fill="#000000" fill-opacity="0.0" d="m301.4357 458.8504l25.359589 21.055115l4.7847595 20.094482" fill-rule="evenodd"/><path stroke="#ffffff" stroke-width="12.0" stroke-linejoin="round" stroke-linecap="butt" d="m301.4357 458.8504l25.359589 21.055115l4.7847595 20.094482" fill-rule="evenodd"/><path fill="#000000" fill-opacity="0.0" d="m257.41733 328.70865l-6.7007904 -12.91861l-0.47769165 -14.35434l15.790024 -12.91864l1.9133911 -8.611542l10.047241 -3.351715" fill-rule="evenodd"/><path stroke="#ffffff" stroke-width="12.0" stroke-linejoin="round" stroke-linecap="butt" d="m257.41733 328.70865l-6.7007904 -12.91861l-0.47769165 -14.35434l15.790024 -12.91864l1.9133911 -8.611542l10.047241 -3.351715" fill-rule="evenodd"/><path fill="#000000" fill-opacity="0.0" d="m266.50656 326.31497l133.97113 -46.409454l36.84253 -39.23622l108.61154 -39.71129l66.02887 2.8687592" fill-rule="evenodd"/><path stroke="#ffffff" stroke-width="12.0" stroke-linejoin="round" stroke-linecap="butt" d="m266.50656 326.31497l133.97113 -46.409454l36.84253 -39.23622l108.61154 -39.71129l66.02887 2.8687592" fill-rule="evenodd"/><path fill="#000000" fill-opacity="0.0" d="m294.73752 443.063l141.62732 -53.11023l57.414703 5.262451l118.18109 -43.54068l42.585327 -47.36743" fill-rule="evenodd"/><path stroke="#ffffff" stroke-width="12.0" stroke-linejoin="round" stroke-linecap="butt" d="m294.73752 443.063l141.62732 -53.11023l57.414703 5.262451l118.18109 -43.54068l42.585327 -47.36743" fill-rule="evenodd"/><path fill="#000000" fill-opacity="0.0" d="m411.48294 270.81366l182.77426 -65.55119" fill-rule="evenodd"/><path stroke="#ffffff" stroke-width="12.0" stroke-linejoin="round" stroke-linecap="butt" d="m411.48294 270.81366l182.77426 -65.55119" fill-rule="evenodd"/><path fill="#000000" fill-opacity="0.0" d="m439.7139 388.03937l210.52493 -82.776886" fill-rule="evenodd"/><path stroke="#ffffff" stroke-width="12.0" stroke-linejoin="round" stroke-linecap="butt" d="m439.7139 388.03937l210.52493 -82.776886" fill-rule="evenodd"/><path fill="#000000" fill-opacity="0.0" d="m417.7034 479.4252l84.68768 -30.141724l10.527557 -14.35434l137.32019 -48.32547" fill-rule="evenodd"/><path stroke="#ffffff" stroke-width="12.0" stroke-linejoin="round" stroke-linecap="butt" d="m417.7034 479.4252l84.68768 -30.141724l10.527557 -14.35434l137.32019 -48.32547" fill-rule="evenodd"/><path fill="#000000" fill-opacity="0.0" d="m349.76117 236.84251l68.90024 -26.314957l14.832031 2.8687744l126.31497 -43.540695" fill-rule="evenodd"/><path stroke="#ffffff" stroke-width="12.0" stroke-linejoin="round" stroke-linecap="butt" d="m349.76117 236.84251l68.90024 -26.314957l14.832031 2.8687744l126.31497 -43.540695" fill-rule="evenodd"/><path fill="#000000" fill-opacity="0.0" d="m457.89502 567.94226l33.97113 14.832031l113.87665 -43.54071" fill-rule="evenodd"/><path stroke="#ffffff" stroke-width="12.0" stroke-linejoin="round" stroke-linecap="butt" d="m457.89502 567.94226l33.97113 14.832031l113.87665 -43.54071" fill-rule="evenodd"/><path fill="#000000" fill-opacity="0.0" d="m468.90027 128.23097l66.02887 14.832016l11.48291 6.2204742l52.152283 -8.614166l8.13385 5.2624664l3.34906 14.354324l-8.611572 12.4409485l26.795288 11.005249l42.10498 26.314957l11.0026245 9.56955l1.9160156 11.482941l8.611572 -0.47769165l4.307068 8.611557l11.960632 -0.9553833l8.13385 4.3044586l-0.47766113 13.876648l-9.091858 2.871399l4.784729 10.047241l-4.307068 6.6981506l7.656189 11.482941l0.9580078 20.574799l-3.8294067 11.960632l-1.9133911 31.102356l-12.91864 34.448822l16.748047 -3.8267517l12.91864 21.05249l-39.71393 17.7034l-11.960632 44.496063l-63.160095 64.5932" fill-rule="evenodd"/><path stroke="#ffffff" stroke-width="12.0" stroke-linejoin="round" stroke-linecap="butt" d="m468.90027 128.23097l66.02887 14.832016l11.48291 6.2204742l52.152283 -8.614166l8.13385 5.2624664l3.34906 14.354324l-8.611572 12.4409485l26.795288 11.005249l42.10498 26.314957l11.0026245 9.56955l1.9160156 11.482941l8.611572 -0.47769165l4.307068 8.611557l11.960632 -0.9553833l8.13385 4.3044586l-0.47766113 13.876648l-9.091858 2.871399l4.784729 10.047241l-4.307068 6.6981506l7.656189 11.482941l0.9580078 20.574799l-3.8294067 11.960632l-1.9133911 31.102356l-12.91864 34.448822l16.748047 -3.8267517l12.91864 21.05249l-39.71393 17.7034l-11.960632 44.496063l-63.160095 64.5932" fill-rule="evenodd"/><path fill="#000000" fill-opacity="0.0" d="m701.43567 383.73227l-37.32019 13.876648l-18.183716 42.582672l38.758545 -14.832001" fill-rule="evenodd"/><path stroke="#ffffff" stroke-width="12.0" stroke-linejoin="round" stroke-linecap="butt" d="m701.43567 383.73227l-37.32019 13.876648l-18.183716 42.582672l38.758545 -14.832001" fill-rule="evenodd"/><path fill="#000000" fill-opacity="0.0" d="m601.43567 171.29134l-29.666626 -5.740158l-24.401611 -15.790024" fill-rule="evenodd"/><path stroke="#ffffff" stroke-width="12.0" stroke-linejoin="round" stroke-linecap="butt" d="m601.43567 171.29134l-29.666626 -5.740158l-24.401611 -15.790024" fill-rule="evenodd"/><path fill="#000000" fill-opacity="0.0" d="m683.7323 220.5748l-30.62207 1.9133911l-4.307068 11.482941l13.398926 29.18634l17.223083 11.482941l30.14441 -1.4356995" fill-rule="evenodd"/><path stroke="#ffffff" stroke-width="12.0" stroke-linejoin="round" stroke-linecap="butt" d="m683.7323 220.5748l-30.62207 1.9133911l-4.307068 11.482941l13.398926 29.18634l17.223083 11.482941l30.14441 -1.4356995" fill-rule="evenodd"/><path fill="#000000" fill-opacity="0.0" d="m694.73755 239.2336l-9.091858 6.698166l3.8267212 10.049866l17.70343 2.8687744" fill-rule="evenodd"/><path stroke="#ffffff" stroke-width="12.0" stroke-linejoin="round" stroke-linecap="butt" d="m694.73755 239.2336l-9.091858 6.698166l3.8267212 10.049866l17.70343 2.8687744" fill-rule="evenodd"/><path fill="#000000" fill-opacity="0.0" d="m342.76642 320.7454l-7.6588135 19.147003l9.572174 32.553802l20.107635 16.278198l103.404175 -40.212585l2.871399 -15.320221l-15.317596 -44.041992l-11.490784 -7.6614075z" fill-rule="evenodd"/><path stroke="#ffffff" stroke-width="12.0" stroke-linejoin="round" stroke-linecap="butt" d="m342.76642 320.7454l-7.6588135 19.147003l9.572174 32.553802l20.107635 16.278198l103.404175 -40.212585l2.871399 -15.320221l-15.317596 -44.041992l-11.490784 -7.6614075z" fill-rule="evenodd"/></g></svg>