<svg version="1.1" viewBox="0.0 0.0 960.0 720.0" fill="none" stroke="none" stroke-linecap="square" stroke-miterlimit="10" xmlns:xlink="http://www.w3.org/1999/xlink" xmlns="http://www.w3.org/2000/svg"><clipPath id="p.0"><path d="m0 0l960.0 0l0 720.0l-960.0 0l0 -720.0z" clip-rule="nonzero"/></clipPath><g clip-path="url(#p.0)"><path fill="#000000" fill-opacity="0.0" d="m0 0l960.0 0l0 720.0l-960.0 0z" fill-rule="evenodd"/><path fill="#000000" fill-opacity="0.0" d="m178.17711 331.07693l146.5996 -93.996826l233.61801 -86.766464l123.86664 11.247467l26.652893 38.56337l17.248535 -2.4093933l15.6796875 10.4436035l21.950745 -1.607727l20.381836 33.7424l-14.895264 24.906494l-16.461975 16.870117l11.757629 16.872284l21.168457 41.77661l3.9199219 12.051331l-114.457886 109.26138l-229.70029 88.37198l-39.197113 4.820984l-126.21768 9.641968l-43.901443 -1.607727l-20.384033 6.4264526l-10.975357 -7.2303467l-8.622116 -55.43344l5.486603 -13.659058l47.036957 -17.67395l2.353241 -10.4436035l-16.464111 -16.06845l-7.055435 -36.151764l4.7043304 -16.872284l-43.90143 -10.4436035l-10.1909485 -7.230377l-7.8398438 -45.7937z" fill-rule="evenodd"/><path stroke="#ffffff" stroke-width="12.0" stroke-linejoin="round" stroke-linecap="butt" d="m178.17711 331.07693l146.5996 -93.996826l233.61801 -86.766464l123.86664 11.247467l26.652893 38.56337l17.248535 -2.4093933l15.6796875 10.4436035l21.950745 -1.607727l20.381836 33.7424l-14.895264 24.906494l-16.461975 16.870117l11.757629 16.872284l21.168457 41.77661l3.9199219 12.051331l-114.457886 109.26138l-229.70029 88.37198l-39.197113 4.820984l-126.21768 9.641968l-43.901443 -1.607727l-20.384033 6.4264526l-10.975357 -7.2303467l-8.622116 -55.43344l5.486603 -13.659058l47.036957 -17.67395l2.353241 -10.4436035l-16.464111 -16.06845l-7.055435 -36.151764l4.7043304 -16.872284l-43.90143 -10.4436035l-10.1909485 -7.230377l-7.8398438 -45.7937z" fill-rule="evenodd"/><path fill="#000000" fill-opacity="0.0" d="m230.6993 393.7417l2.353241 -14.460693l18.030792 -11.247467l69.77208 -29.72528l19.597473 5.6226196l7.0575867 -17.67395l108.96915 -43.38434l15.679718 4.0171204l197.55643 -75.51901l3.135559 -8.03421l33.71045 -5.622635" fill-rule="evenodd"/><path stroke="#ffffff" stroke-width="12.0" stroke-linejoin="round" stroke-linecap="butt" d="m230.6993 393.7417l2.353241 -14.460693l18.030792 -11.247467l69.77208 -29.72528l19.597473 5.6226196l7.0575867 -17.67395l108.96915 -43.38434l15.679718 4.0171204l197.55643 -75.51901l3.135559 -8.03421l33.71045 -5.622635" fill-rule="evenodd"/><path fill="#000000" fill-opacity="0.0" d="m248.72968 470.06238l96.427124 -38.563354l13.328613 -15.264587l14.11087 4.820984l21.950714 -6.428711l9.406525 -11.247467l86.236176 -32.938507l40.76593 -20.887207l116.80902 -42.580475l52.525696 -4.820984l31.357239 -4.01709l24.303955 -16.06845" fill-rule="evenodd"/><path stroke="#ffffff" stroke-width="12.0" stroke-linejoin="round" stroke-linecap="butt" d="m248.72968 470.06238l96.427124 -38.563354l13.328613 -15.264587l14.11087 4.820984l21.950714 -6.428711l9.406525 -11.247467l86.236176 -32.938507l40.76593 -20.887207l116.80902 -42.580475l52.525696 -4.820984l31.357239 -4.01709l24.303955 -16.06845" fill-rule="evenodd"/><path fill="#000000" fill-opacity="0.0" d="m356.1301 414.62506l-17.246368 -69.0903" fill-rule="evenodd"/><path stroke="#ffffff" stroke-width="12.0" stroke-linejoin="round" stroke-linecap="butt" d="m356.1301 414.62506l-17.246368 -69.0903" fill-rule="evenodd"/><path fill="#000000" fill-opacity="0.0" d="m700.2807 302.9578l11.759766 -13.65683l3.135498 -21.693268l-29.006104 -54.62961l-13.328613 -2.4115906" fill-rule="evenodd"/><path stroke="#ffffff" stroke-width="12.0" stroke-linejoin="round" stroke-linecap="butt" d="m700.2807 302.9578l11.759766 -13.65683l3.135498 -21.693268l-29.006104 -54.62961l-13.328613 -2.4115906" fill-rule="evenodd"/><path fill="#000000" fill-opacity="0.0" d="m345.15512 327.86145l-19.597473 -73.911285l-3.1376648 -17.67395" fill-rule="evenodd"/><path stroke="#ffffff" stroke-width="12.0" stroke-linejoin="round" stroke-linecap="butt" d="m345.15512 327.86145l-19.597473 -73.911285l-3.1376648 -17.67395" fill-rule="evenodd"/><path fill="#000000" fill-opacity="0.0" d="m373.37784 421.0518l22.733002 99.61948l14.113007 35.350098" fill-rule="evenodd"/><path stroke="#ffffff" stroke-width="12.0" stroke-linejoin="round" stroke-linecap="butt" d="m373.37784 421.0518l22.733002 99.61948l14.113007 35.350098" fill-rule="evenodd"/><path fill="#000000" fill-opacity="0.0" d="m238.53896 294.12103l85.45177 -44.989853l243.81116 -89.17584l116.80902 0.8038635" fill-rule="evenodd"/><path stroke="#ffffff" stroke-width="12.0" stroke-linejoin="round" stroke-linecap="butt" d="m238.53896 294.12103l85.45177 -44.989853l243.81116 -89.17584l116.80902 0.8038635" fill-rule="evenodd"/><path fill="#000000" fill-opacity="0.0" d="m611.6959 237.88387l-48.605774 -83.55321" fill-rule="evenodd"/><path stroke="#ffffff" stroke-width="12.0" stroke-linejoin="round" stroke-linecap="butt" d="m611.6959 237.88387l-48.605774 -83.55321" fill-rule="evenodd"/><path fill="#000000" fill-opacity="0.0" d="m644.6201 310.18555l41.550354 98.81781l10.975342 35.3479" fill-rule="evenodd"/><path stroke="#ffffff" stroke-width="12.0" stroke-linejoin="round" stroke-linecap="butt" d="m644.6201 310.18555l41.550354 98.81781l10.975342 35.3479" fill-rule="evenodd"/><path fill="#000000" fill-opacity="0.0" d="m250.01694 563.3825l145.69266 -41.29016l290.59943 -112.53583l97.12628 -72.055786" fill-rule="evenodd"/><path stroke="#ffffff" stroke-width="12.0" stroke-linejoin="round" stroke-linecap="butt" d="m250.01694 563.3825l145.69266 -41.29016l290.59943 -112.53583l97.12628 -72.055786" fill-rule="evenodd"/><path fill="#000000" fill-opacity="0.0" d="m250.01694 472.48236l17.942627 -1.6232605l10.768066 11.356049l10.765564 53.53595l-12.561066 18.656189" fill-rule="evenodd"/><path stroke="#ffffff" stroke-width="12.0" stroke-linejoin="round" stroke-linecap="butt" d="m250.01694 472.48236l17.942627 -1.6232605l10.768066 11.356049l10.765564 53.53595l-12.561066 18.656189" fill-rule="evenodd"/><path fill="#000000" fill-opacity="0.0" d="m253.4344 366.42316l1.5688324 -16.870087l-9.408676 -41.77661l-14.11087 -8.838074" fill-rule="evenodd"/><path stroke="#ffffff" stroke-width="12.0" stroke-linejoin="round" stroke-linecap="butt" d="m253.4344 366.42316l1.5688324 -16.870087l-9.408676 -41.77661l-14.11087 -8.838074" fill-rule="evenodd"/><path fill="#000000" fill-opacity="0.0" d="m739.47626 207.35335l21.950745 40.972748l-15.6796875 38.56337" fill-rule="evenodd"/><path stroke="#ffffff" stroke-width="12.0" stroke-linejoin="round" stroke-linecap="butt" d="m739.47626 207.35335l21.950745 40.972748l-15.6796875 38.56337" fill-rule="evenodd"/></g></svg>