<svg version="1.1" viewBox="0.0 0.0 960.0 720.0" fill="none" stroke="none" stroke-linecap="square" stroke-miterlimit="10" xmlns:xlink="http://www.w3.org/1999/xlink" xmlns="http://www.w3.org/2000/svg"><clipPath id="p.0"><path d="m0 0l960.0 0l0 720.0l-960.0 0l0 -720.0z" clip-rule="nonzero"/></clipPath><g clip-path="url(#p.0)"><path fill="#000000" fill-opacity="0.0" d="m0 0l960.0 0l0 720.0l-960.0 0z" fill-rule="evenodd"/><path fill="#000000" fill-opacity="0.0" d="m209.6798 271.91602l13.40419 -87.12862l94.787415 -29.679794l34.46982 5.7427826l9.574799 23.937012l10.530182 -10.532806l-5.742798 -16.275589l41.168 -23.937012l94.787384 2.8740234l16.278229 6.700775l165.63782 6.703415l22.979004 35.4252l-26.80841 17.233597l19.146973 32.553802l35.427795 1.9133911l23.934387 43.08661l-116.80841 126.38321l-6.7007446 21.062988l-76.595825 84.25458l-72.76639 -10.530182l-7.6588135 -23.936981l-12.4487915 -6.70343l-3.8294067 14.362213l10.532806 23.937012l-35.4252 42.125946l-105.32022 35.427856l-19.149597 -7.661438l-12.4461975 -33.509155l-58.40419 -118.72443l-1.9133911 -16.275604l-7.6614075 -7.6614075l-5.7427826 -21.062988l-16.278214 -7.658783l6.7033997 -33.51181l-16.278214 -11.48819l11.490814 -8.616821l-2.8740082 -26.80838" fill-rule="evenodd"/><path stroke="#ffffff" stroke-width="12.0" stroke-linejoin="round" stroke-linecap="butt" d="m209.6798 271.91602l13.40419 -87.12862l94.787415 -29.679794l34.46982 5.7427826l9.574799 23.937012l10.530182 -10.532806l-5.742798 -16.275589l41.168 -23.937012l94.787384 2.8740234l16.278229 6.700775l165.63782 6.703415l22.979004 35.4252l-26.80841 17.233597l19.146973 32.553802l35.427795 1.9133911l23.934387 43.08661l-116.80841 126.38321l-6.7007446 21.062988l-76.595825 84.25458l-72.76639 -10.530182l-7.6588135 -23.936981l-12.4487915 -6.70343l-3.8294067 14.362213l10.532806 23.937012l-35.4252 42.125946l-105.32022 35.427856l-19.149597 -7.661438l-12.4461975 -33.509155l-58.40419 -118.72443l-1.9133911 -16.275604l-7.6614075 -7.6614075l-5.7427826 -21.062988l-16.278214 -7.658783l6.7033997 -33.51181l-16.278214 -11.48819l11.490814 -8.616821l-2.8740082 -26.80838" fill-rule="evenodd"/><path fill="#000000" fill-opacity="0.0" d="m209.44357 297.36896l4.7873993 -12.20871l-4.7873993 -15.5408325" fill-rule="evenodd"/><path stroke="#ffffff" stroke-width="12.0" stroke-linejoin="round" stroke-linecap="butt" d="m209.44357 297.36896l4.7873993 -12.20871l-4.7873993 -15.5408325" fill-rule="evenodd"/><path fill="#000000" fill-opacity="0.0" d="m409.33334 559.3333l-28.666687 -14.666626l-20.0 2.666626l-22.0 -2.666626l-57.333313 -123.33334l-12.0 -40.666687l95.33331 -34.666656l69.33334 -55.333344l-8.6666565 -26.0l-78.66669 4.666687l-94.66666 35.333313l-8.666672 -45.333313l3.3333435 -80.66667" fill-rule="evenodd"/><path stroke="#ffffff" stroke-width="12.0" stroke-linejoin="round" stroke-linecap="butt" d="m409.33334 559.3333l-28.666687 -14.666626l-20.0 2.666626l-22.0 -2.666626l-57.333313 -123.33334l-12.0 -40.666687l95.33331 -34.666656l69.33334 -55.333344l-8.6666565 -26.0l-78.66669 4.666687l-94.66666 35.333313l-8.666672 -45.333313l3.3333435 -80.66667" fill-rule="evenodd"/><path fill="#000000" fill-opacity="0.0" d="m248.0 250.0l66.0 -25.333328l46.666656 -40.66667" fill-rule="evenodd"/><path stroke="#ffffff" stroke-width="12.0" stroke-linejoin="round" stroke-linecap="butt" d="m248.0 250.0l66.0 -25.333328l46.666656 -40.66667" fill-rule="evenodd"/><path fill="#000000" fill-opacity="0.0" d="m246.0 238.0l58.0 -22.0l50.0 -42.66667" fill-rule="evenodd"/><path stroke="#ffffff" stroke-width="12.0" stroke-linejoin="round" stroke-linecap="butt" d="m246.0 238.0l58.0 -22.0l50.0 -42.66667" fill-rule="evenodd"/><path fill="#000000" fill-opacity="0.0" d="m311.33334 483.33334l59.333313 -23.333344l91.33334 25.333344" fill-rule="evenodd"/><path stroke="#ffffff" stroke-width="12.0" stroke-linejoin="round" stroke-linecap="butt" d="m311.33334 483.33334l59.333313 -23.333344l91.33334 25.333344" fill-rule="evenodd"/><path fill="#000000" fill-opacity="0.0" d="m465.33334 470.0l-90.0 -28.666656l-70.0 26.0" fill-rule="evenodd"/><path stroke="#ffffff" stroke-width="12.0" stroke-linejoin="round" stroke-linecap="butt" d="m465.33334 470.0l-90.0 -28.666656l-70.0 26.0" fill-rule="evenodd"/><path fill="#000000" fill-opacity="0.0" d="m481.33334 478.66666l241.33334 -194.66666l18.666626 -33.33333" fill-rule="evenodd"/><path stroke="#ffffff" stroke-width="12.0" stroke-linejoin="round" stroke-linecap="butt" d="m481.33334 478.66666l241.33334 -194.66666l18.666626 -33.33333" fill-rule="evenodd"/><path fill="#000000" fill-opacity="0.0" d="m372.66666 167.33333l286.00003 -3.3333282l40.666626 8.666672" fill-rule="evenodd"/><path stroke="#ffffff" stroke-width="12.0" stroke-linejoin="round" stroke-linecap="butt" d="m372.66666 167.33333l286.00003 -3.3333282l40.666626 8.666672" fill-rule="evenodd"/><path fill="#000000" fill-opacity="0.0" d="m347.33334 271.33334l19.333313 -30.000015l30.0 -10.0l52.0 7.3333435l88.66666 -34.0l14.666687 4.0l69.33331 -25.333344l-10.666626 -16.666656" fill-rule="evenodd"/><path stroke="#ffffff" stroke-width="12.0" stroke-linejoin="round" stroke-linecap="butt" d="m347.33334 271.33334l19.333313 -30.000015l30.0 -10.0l52.0 7.3333435l88.66666 -34.0l14.666687 4.0l69.33331 -25.333344l-10.666626 -16.666656" fill-rule="evenodd"/><path fill="#000000" fill-opacity="0.0" d="m686.6667 313.33334l-15.333374 -31.333344l-82.666626 6.6666565l-7.333374 14.0l-103.99997 10.666687l-36.666687 42.0l-33.333313 13.333313l-27.333344 -12.0l-6.0 -15.333313" fill-rule="evenodd"/><path stroke="#ffffff" stroke-width="12.0" stroke-linejoin="round" stroke-linecap="butt" d="m686.6667 313.33334l-15.333374 -31.333344l-82.666626 6.6666565l-7.333374 14.0l-103.99997 10.666687l-36.666687 42.0l-33.333313 13.333313l-27.333344 -12.0l-6.0 -15.333313" fill-rule="evenodd"/><path fill="#000000" fill-opacity="0.0" d="m369.33334 442.66666l30.0 -76.0" fill-rule="evenodd"/><path stroke="#ffffff" stroke-width="12.0" stroke-linejoin="round" stroke-linecap="butt" d="m369.33334 442.66666l30.0 -76.0" fill-rule="evenodd"/><path fill="#000000" fill-opacity="0.0" d="m364.66666 244.66667l-48.0 -20.666672" fill-rule="evenodd"/><path stroke="#ffffff" stroke-width="12.0" stroke-linejoin="round" stroke-linecap="butt" d="m364.66666 244.66667l-48.0 -20.666672" fill-rule="evenodd"/><path fill="#000000" fill-opacity="0.0" d="m500.0 312.0l-24.0 88.66666l37.333313 0.666687l80.0 -69.33334l20.666687 8.6666565l65.33331 -47.333313" fill-rule="evenodd"/><path stroke="#ffffff" stroke-width="12.0" stroke-linejoin="round" stroke-linecap="butt" d="m500.0 312.0l-24.0 88.66666l37.333313 0.666687l80.0 -69.33334l20.666687 8.6666565l65.33331 -47.333313" fill-rule="evenodd"/><path fill="#000000" fill-opacity="0.0" d="m469.33334 232.66667l-64.66669 -32.0l18.0 -11.3333435l109.33334 -0.6666565l8.666687 -12.0l76.666626 0" fill-rule="evenodd"/><path stroke="#ffffff" stroke-width="12.0" stroke-linejoin="round" stroke-linecap="butt" d="m469.33334 232.66667l-64.66669 -32.0l18.0 -11.3333435l109.33334 -0.6666565l8.666687 -12.0l76.666626 0" fill-rule="evenodd"/><path fill="#000000" fill-opacity="0.0" d="m423.33334 262.66666l33.333313 -6.6666565l136.00003 -47.33333l19.333313 33.33333l-0.666687 21.333344l-121.99997 14.6666565l-28.666687 8.0l-17.333313 13.3333435l-14.0 -0.666687" fill-rule="evenodd"/><path stroke="#ffffff" stroke-width="12.0" stroke-linejoin="round" stroke-linecap="butt" d="m423.33334 262.66666l33.333313 -6.6666565l136.00003 -47.33333l19.333313 33.33333l-0.666687 21.333344l-121.99997 14.6666565l-28.666687 8.0l-17.333313 13.3333435l-14.0 -0.666687" fill-rule="evenodd"/><path fill="#000000" fill-opacity="0.0" d="m434.66666 288.0l62.666687 -20.666656l111.99997 -24.000015" fill-rule="evenodd"/><path stroke="#ffffff" stroke-width="12.0" stroke-linejoin="round" stroke-linecap="butt" d="m434.66666 288.0l62.666687 -20.666656l111.99997 -24.000015" fill-rule="evenodd"/><path fill="#000000" fill-opacity="0.0" d="m597.3333 212.66667l21.333374 -10.0l48.666626 4.6666565l11.333374 22.666672l-22.0 20.666672l-44.666687 7.3333282" fill-rule="evenodd"/><path stroke="#ffffff" stroke-width="12.0" stroke-linejoin="round" stroke-linecap="butt" d="m597.3333 212.66667l21.333374 -10.0l48.666626 4.6666565l11.333374 22.666672l-22.0 20.666672l-44.666687 7.3333282" fill-rule="evenodd"/><path fill="#000000" fill-opacity="0.0" d="m625.3333 205.33333l17.333374 30.666672l-2.666687 17.333328" fill-rule="evenodd"/><path stroke="#ffffff" stroke-width="12.0" stroke-linejoin="round" stroke-linecap="butt" d="m625.3333 205.33333l17.333374 30.666672l-2.666687 17.333328" fill-rule="evenodd"/><path fill="#000000" fill-opacity="0.0" d="m690.6667 233.33333l56.0 -21.333328" fill-rule="evenodd"/><path stroke="#ffffff" stroke-width="12.0" stroke-linejoin="round" stroke-linecap="butt" d="m690.6667 233.33333l56.0 -21.333328" fill-rule="evenodd"/><path fill="#000000" fill-opacity="0.0" d="m270.66666 382.0l-4.0 -17.333344l-45.33333 13.3333435" fill-rule="evenodd"/><path stroke="#ffffff" stroke-width="12.0" stroke-linejoin="round" stroke-linecap="butt" d="m270.66666 382.0l-4.0 -17.333344l-45.33333 13.3333435" fill-rule="evenodd"/><path fill="#000000" fill-opacity="0.0" d="m209.44357 318.66666l39.33333 -15.333313" fill-rule="evenodd"/><path stroke="#ffffff" stroke-width="12.0" stroke-linejoin="round" stroke-linecap="butt" d="m209.44357 318.66666l39.33333 -15.333313" fill-rule="evenodd"/><path fill="#000000" fill-opacity="0.0" d="m308.0 566.0l-24.0 6.666687l-11.3333435 -23.333374l2.0 -31.333313l11.3333435 -4.666687" fill-rule="evenodd"/><path stroke="#ffffff" stroke-width="12.0" stroke-linejoin="round" stroke-linecap="butt" d="m308.0 566.0l-24.0 6.666687l-11.3333435 -23.333374l2.0 -31.333313l11.3333435 -4.666687" fill-rule="evenodd"/><path fill="#000000" fill-opacity="0.0" d="m212.66667 242.66667l-7.3333435 -12.0l2.0 -16.666672l10.666672 -4.0" fill-rule="evenodd"/><path stroke="#ffffff" stroke-width="12.0" stroke-linejoin="round" stroke-linecap="butt" d="m212.66667 242.66667l-7.3333435 -12.0l2.0 -16.666672l10.666672 -4.0" fill-rule="evenodd"/></g></svg>