<svg version="1.1" viewBox="0.0 0.0 960.0 720.0" fill="none" stroke="none" stroke-linecap="square" stroke-miterlimit="10" xmlns:xlink="http://www.w3.org/1999/xlink" xmlns="http://www.w3.org/2000/svg"><clipPath id="p.0"><path d="m0 0l960.0 0l0 720.0l-960.0 0l0 -720.0z" clip-rule="nonzero"/></clipPath><g clip-path="url(#p.0)"><path fill="#000000" fill-opacity="0.0" d="m0 0l960.0 0l0 720.0l-960.0 0z" fill-rule="evenodd"/><path fill="#000000" fill-opacity="0.0" d="m313.33334 210.66667l65.33331 -55.333344l284.66666 -7.3333282l48.666687 9.333328l6.666687 11.3333435l-4.666687 6.0l-20.0 10.6666565l19.333313 34.66667l38.0 1.3333282l6.0 14.0l-22.0 32.66667l-245.33331 196.66666l-112.66666 -34.666656l-69.33334 24.666656l-26.666656 -36.0l-9.3333435 0.666687l-33.33333 -42.666687l-33.333344 -16.0l5.3333435 -36.0l-15.3333435 -12.0l23.333344 -15.333313l11.333328 -36.666687l12.0 -2.6666565l7.3333282 -26.0z" fill-rule="evenodd"/><path stroke="#ffffff" stroke-width="12.0" stroke-linejoin="round" stroke-linecap="butt" d="m313.33334 210.66667l65.33331 -55.333344l284.66666 -7.3333282l48.666687 9.333328l6.666687 11.3333435l-4.666687 6.0l-20.0 10.6666565l19.333313 34.66667l38.0 1.3333282l6.0 14.0l-22.0 32.66667l-245.33331 196.66666l-112.66666 -34.666656l-69.33334 24.666656l-26.666656 -36.0l-9.3333435 0.666687l-33.33333 -42.666687l-33.333344 -16.0l5.3333435 -36.0l-15.3333435 -12.0l23.333344 -15.333313l11.333328 -36.666687l12.0 -2.6666565l7.3333282 -26.0z" fill-rule="evenodd"/><path fill="#000000" fill-opacity="0.0" d="m285.33334 483.33334l85.33331 -32.0l99.33334 27.333313l6.6666565 20.666687l-35.333313 45.333344l-115.33334 37.333313l-31.333344 -53.333313z" fill-rule="evenodd"/><path stroke="#ffffff" stroke-width="12.0" stroke-linejoin="round" stroke-linecap="butt" d="m285.33334 483.33334l85.33331 -32.0l99.33334 27.333313l6.6666565 20.666687l-35.333313 45.333344l-115.33334 37.333313l-31.333344 -53.333313z" fill-rule="evenodd"/><path fill="#000000" fill-opacity="0.0" d="m362.0 164.0l-7.3333435 -18.666672l-37.333313 -7.3333282l-90.000015 33.33333l-10.6666565 22.666672l8.6666565 36.0l20.666672 12.666672" fill-rule="evenodd"/><path stroke="#ffffff" stroke-width="12.0" stroke-linejoin="round" stroke-linecap="butt" d="m362.0 164.0l-7.3333435 -18.666672l-37.333313 -7.3333282l-90.000015 33.33333l-10.6666565 22.666672l8.6666565 36.0l20.666672 12.666672" fill-rule="evenodd"/><path fill="#000000" fill-opacity="0.0" d="m228.66667 229.33333l71.33333 -26.666656l58.0 -44.66667" fill-rule="evenodd"/><path stroke="#ffffff" stroke-width="12.0" stroke-linejoin="round" stroke-linecap="butt" d="m228.66667 229.33333l71.33333 -26.666656l58.0 -44.66667" fill-rule="evenodd"/><path fill="#000000" fill-opacity="0.0" d="m322.66666 471.33334l-3.333313 -18.666687" fill-rule="evenodd"/><path stroke="#ffffff" stroke-width="12.0" stroke-linejoin="round" stroke-linecap="butt" d="m322.66666 471.33334l-3.333313 -18.666687" fill-rule="evenodd"/><path fill="#000000" fill-opacity="0.0" d="m466.0 476.66666l3.3333435 -18.666656" fill-rule="evenodd"/><path stroke="#ffffff" stroke-width="12.0" stroke-linejoin="round" stroke-linecap="butt" d="m466.0 476.66666l3.3333435 -18.666656" fill-rule="evenodd"/><path fill="#000000" fill-opacity="0.0" d="m288.66666 502.0l-18.0 9.3333435l-2.0 22.666656l6.666687 16.666687l8.6666565 16.666626l28.666656 -4.666626" fill-rule="evenodd"/><path stroke="#ffffff" stroke-width="12.0" stroke-linejoin="round" stroke-linecap="butt" d="m288.66666 502.0l-18.0 9.3333435l-2.0 22.666656l6.666687 16.666687l8.6666565 16.666626l28.666656 -4.666626" fill-rule="evenodd"/><path fill="#000000" fill-opacity="0.0" d="m228.66667 234.0l-18.666672 0.66667175l-8.0 -14.666672l1.3333282 -23.333328l12.666672 -9.3333435" fill-rule="evenodd"/><path stroke="#ffffff" stroke-width="12.0" stroke-linejoin="round" stroke-linecap="butt" d="m228.66667 234.0l-18.666672 0.66667175l-8.0 -14.666672l1.3333282 -23.333328l12.666672 -9.3333435" fill-rule="evenodd"/><path fill="#000000" fill-opacity="0.0" d="m282.0 416.66666l56.666656 -21.333313l27.333344 -68.0l72.0 -52.666687l-9.3333435 -28.666656l-88.66666 7.3333282l-43.333344 -16.0l-52.666656 16.0" fill-rule="evenodd"/><path stroke="#ffffff" stroke-width="12.0" stroke-linejoin="round" stroke-linecap="butt" d="m282.0 416.66666l56.666656 -21.333313l27.333344 -68.0l72.0 -52.666687l-9.3333435 -28.666656l-88.66666 7.3333282l-43.333344 -16.0l-52.666656 16.0" fill-rule="evenodd"/><path fill="#000000" fill-opacity="0.0" d="m236.0 375.33334l128.66666 -47.333344" fill-rule="evenodd"/><path stroke="#ffffff" stroke-width="12.0" stroke-linejoin="round" stroke-linecap="butt" d="m236.0 375.33334l128.66666 -47.333344" fill-rule="evenodd"/><path fill="#000000" fill-opacity="0.0" d="m340.0 256.0l-122.66667 40.0" fill-rule="evenodd"/><path stroke="#ffffff" stroke-width="12.0" stroke-linejoin="round" stroke-linecap="butt" d="m340.0 256.0l-122.66667 40.0" fill-rule="evenodd"/><path fill="#000000" fill-opacity="0.0" d="m429.33334 286.0l46.0 -20.666656l153.99997 -22.666672l-4.666626 -16.666672l-21.333374 -33.33333l-153.33331 46.666656l-36.0 6.0" fill-rule="evenodd"/><path stroke="#ffffff" stroke-width="12.0" stroke-linejoin="round" stroke-linecap="butt" d="m429.33334 286.0l46.0 -20.666656l153.99997 -22.666672l-4.666626 -16.666672l-21.333374 -33.33333l-153.33331 46.666656l-36.0 6.0" fill-rule="evenodd"/><path fill="#000000" fill-opacity="0.0" d="m633.3333 244.66667l58.0 -28.0l-14.0 -27.333344l-48.666626 -4.0l-31.333374 8.0" fill-rule="evenodd"/><path stroke="#ffffff" stroke-width="12.0" stroke-linejoin="round" stroke-linecap="butt" d="m633.3333 244.66667l58.0 -28.0l-14.0 -27.333344l-48.666626 -4.0l-31.333374 8.0" fill-rule="evenodd"/><path fill="#000000" fill-opacity="0.0" d="m636.0 188.66667l16.0 25.333328l-2.0 22.666672" fill-rule="evenodd"/><path stroke="#ffffff" stroke-width="12.0" stroke-linejoin="round" stroke-linecap="butt" d="m636.0 188.66667l16.0 25.333328l-2.0 22.666672" fill-rule="evenodd"/><path fill="#000000" fill-opacity="0.0" d="m379.33334 430.0l28.0 -78.66666l38.0 -12.0l38.666656 -45.333344l106.0 -6.6666565l10.0 -14.666687l85.33331 -8.0l17.333374 31.333344" fill-rule="evenodd"/><path stroke="#ffffff" stroke-width="12.0" stroke-linejoin="round" stroke-linecap="butt" d="m379.33334 430.0l28.0 -78.66666l38.0 -12.0l38.666656 -45.333344l106.0 -6.6666565l10.0 -14.666687l85.33331 -8.0l17.333374 31.333344" fill-rule="evenodd"/><path fill="#000000" fill-opacity="0.0" d="m319.33334 209.33333l46.0 15.3333435l33.333313 -10.666672l52.666687 6.6666718l127.33334 -47.333344l16.666626 5.3333435l35.333374 -14.0l-9.333374 -16.0" fill-rule="evenodd"/><path stroke="#ffffff" stroke-width="12.0" stroke-linejoin="round" stroke-linecap="butt" d="m319.33334 209.33333l46.0 15.3333435l33.333313 -10.666672l52.666687 6.6666718l127.33334 -47.333344l16.666626 5.3333435l35.333374 -14.0l-9.333374 -16.0" fill-rule="evenodd"/><path fill="#000000" fill-opacity="0.0" d="m508.0 293.33334l-26.666656 94.0l35.99997 1.333313l87.333374 -70.0l21.333313 8.666687l66.66669 -49.333344" fill-rule="evenodd"/><path stroke="#ffffff" stroke-width="12.0" stroke-linejoin="round" stroke-linecap="butt" d="m508.0 293.33334l-26.666656 94.0l35.99997 1.333313l87.333374 -70.0l21.333313 8.666687l66.66669 -49.333344" fill-rule="evenodd"/><path fill="#000000" fill-opacity="0.0" d="m471.33334 214.0l-62.0 -31.333328l24.0 -12.666672l103.99997 2.6666718l9.333374 -11.3333435l79.33331 -0.6666565" fill-rule="evenodd"/><path stroke="#ffffff" stroke-width="12.0" stroke-linejoin="round" stroke-linecap="butt" d="m471.33334 214.0l-62.0 -31.333328l24.0 -12.666672l103.99997 2.6666718l9.333374 -11.3333435l79.33331 -0.6666565" fill-rule="evenodd"/><path fill="#000000" fill-opacity="0.0" d="m710.0 214.66667l50.0 -18.0" fill-rule="evenodd"/><path stroke="#ffffff" stroke-width="12.0" stroke-linejoin="round" stroke-linecap="butt" d="m710.0 214.66667l50.0 -18.0" fill-rule="evenodd"/></g></svg>