<svg version="1.1" viewBox="0.0 0.0 960.0 720.0" fill="none" stroke="none" stroke-linecap="square" stroke-miterlimit="10" xmlns:xlink="http://www.w3.org/1999/xlink" xmlns="http://www.w3.org/2000/svg"><clipPath id="p.0"><path d="m0 0l960.0 0l0 720.0l-960.0 0l0 -720.0z" clip-rule="nonzero"/></clipPath><g clip-path="url(#p.0)"><path fill="#000000" fill-opacity="0.0" d="m0 0l960.0 0l0 720.0l-960.0 0z" fill-rule="evenodd"/><path fill="#000000" fill-opacity="0.0" d="m222.3517 294.70602l-4.7033997 18.236237l6.469803 4.706024l47.05774 -11.766388l6.4724426 30.587921l7.0577393 -1.1758423l6.469818 7.648285l-0.58792114 10.0l-9.412079 3.5275574l3.530182 18.824158l-50.58792 24.118103l8.824158 14.706024l17.05774 10.0l106.46982 145.8819l92.94226 -46.469788l32.939636 -12.942291l81.1785 -119.41208l74.1181 -27.64566l15.881897 7.6456604l77.05774 -91.17584l2.9422607 -22.94226l-4.7060547 -7.6456604l-8.824158 7.6456604l-27.648315 7.060364l9.412109 -15.881882l9.412048 -7.060364l0.58795166 -12.939636l-17.05774 -27.6483l2.9422607 -7.0577393l-22.94226 -17.648285l-114.1181 -20.0l-7.645691 11.175842l-7.6483154 -2.3516998l-82.94223 8.236221l-131.7638 -21.178482l-75.293945 10.587921l-31.175873 131.17848z" fill-rule="evenodd"/><path stroke="#ffffff" stroke-width="12.0" stroke-linejoin="round" stroke-linecap="butt" d="m222.3517 294.70602l-4.7033997 18.236237l6.469803 4.706024l47.05774 -11.766388l6.4724426 30.587921l7.0577393 -1.1758423l6.469818 7.648285l-0.58792114 10.0l-9.412079 3.5275574l3.530182 18.824158l-50.58792 24.118103l8.824158 14.706024l17.05774 10.0l106.46982 145.8819l92.94226 -46.469788l32.939636 -12.942291l81.1785 -119.41208l74.1181 -27.64566l15.881897 7.6456604l77.05774 -91.17584l2.9422607 -22.94226l-4.7060547 -7.6456604l-8.824158 7.6456604l-27.648315 7.060364l9.412109 -15.881882l9.412048 -7.060364l0.58795166 -12.939636l-17.05774 -27.6483l2.9422607 -7.0577393l-22.94226 -17.648285l-114.1181 -20.0l-7.645691 11.175842l-7.6483154 -2.3516998l-82.94223 8.236221l-131.7638 -21.178482l-75.293945 10.587921l-31.175873 131.17848z" fill-rule="evenodd"/><path fill="#000000" fill-opacity="0.0" d="m283.53018 375.29398l146.46982 -70.0l114.1181 -42.351715l78.23358 -13.530182l22.94226 10.0l23.530212 4.706024l-1.1758423 18.824158l-50.590576 10.587921l-89.409424 21.175842l-14.706055 -6.469818l-60.0 20.587952l-193.53018 94.1181" fill-rule="evenodd"/><path stroke="#ffffff" stroke-width="12.0" stroke-linejoin="round" stroke-linecap="butt" d="m283.53018 375.29398l146.46982 -70.0l114.1181 -42.351715l78.23358 -13.530182l22.94226 10.0l23.530212 4.706024l-1.1758423 18.824158l-50.590576 10.587921l-89.409424 21.175842l-14.706055 -6.469818l-60.0 20.587952l-193.53018 94.1181" fill-rule="evenodd"/><path fill="#000000" fill-opacity="0.0" d="m264.70602 307.05774l148.23624 -38.23358l93.52756 -32.35434l77.060394 -14.706039l12.351685 10.0l11.175842 -16.469818l-7.645691 -8.236221l-27.648254 0l-78.23361 11.178482l-78.82416 30.0l-179.41206 41.175858" fill-rule="evenodd"/><path stroke="#ffffff" stroke-width="12.0" stroke-linejoin="round" stroke-linecap="butt" d="m264.70602 307.05774l148.23624 -38.23358l93.52756 -32.35434l77.060394 -14.706039l12.351685 10.0l11.175842 -16.469818l-7.645691 -8.236221l-27.648254 0l-78.23361 11.178482l-78.82416 30.0l-179.41206 41.175858" fill-rule="evenodd"/><path fill="#000000" fill-opacity="0.0" d="m427.6483 308.2362l-12.942261 -38.236206" fill-rule="evenodd"/><path stroke="#ffffff" stroke-width="12.0" stroke-linejoin="round" stroke-linecap="butt" d="m427.6483 308.2362l-12.942261 -38.236206" fill-rule="evenodd"/><path fill="#000000" fill-opacity="0.0" d="m508.82416 275.8819l-12.942261 -34.11812" fill-rule="evenodd"/><path stroke="#ffffff" stroke-width="12.0" stroke-linejoin="round" stroke-linecap="butt" d="m508.82416 275.8819l-12.942261 -34.11812" fill-rule="evenodd"/><path fill="#000000" fill-opacity="0.0" d="m601.17584 207.6483l8.236206 -13.530197l21.175903 4.1181183l4.118103 6.469818l8.236206 -4.1181183l36.469788 -2.939621l14.706055 -4.1181183l15.881897 1.7637787" fill-rule="evenodd"/><path stroke="#ffffff" stroke-width="12.0" stroke-linejoin="round" stroke-linecap="butt" d="m601.17584 207.6483l8.236206 -13.530197l21.175903 4.1181183l4.118103 6.469818l8.236206 -4.1181183l36.469788 -2.939621l14.706055 -4.1181183l15.881897 1.7637787" fill-rule="evenodd"/><path fill="#000000" fill-opacity="0.0" d="m667.05774 265.8819l20.590576 -4.118103l17.05774 0.58792114" fill-rule="evenodd"/><path stroke="#ffffff" stroke-width="12.0" stroke-linejoin="round" stroke-linecap="butt" d="m667.05774 265.8819l20.590576 -4.118103l17.05774 0.58792114" fill-rule="evenodd"/><path fill="#000000" fill-opacity="0.0" d="m624.1181 248.82414l10.0 -17.648285l-7.6483154 -15.293961l6.472473 -12.351715" fill-rule="evenodd"/><path stroke="#ffffff" stroke-width="12.0" stroke-linejoin="round" stroke-linecap="butt" d="m624.1181 248.82414l10.0 -17.648285l-7.6483154 -15.293961l6.472473 -12.351715" fill-rule="evenodd"/><path fill="#000000" fill-opacity="0.0" d="m635.29395 231.76378l26.469849 6.4724426l35.293945 -5.8845215l-8.233582 20.0l0.5878906 9.412094" fill-rule="evenodd"/><path stroke="#ffffff" stroke-width="12.0" stroke-linejoin="round" stroke-linecap="butt" d="m635.29395 231.76378l26.469849 6.4724426l35.293945 -5.8845215l-8.233582 20.0l0.5878906 9.412094" fill-rule="evenodd"/><path fill="#000000" fill-opacity="0.0" d="m650.0 261.17584l10.587952 -18.824142" fill-rule="evenodd"/><path stroke="#ffffff" stroke-width="12.0" stroke-linejoin="round" stroke-linecap="butt" d="m650.0 261.17584l10.587952 -18.824142" fill-rule="evenodd"/><path fill="#000000" fill-opacity="0.0" d="m612.3517 250.58792l-11.175842 -24.706024" fill-rule="evenodd"/><path stroke="#ffffff" stroke-width="12.0" stroke-linejoin="round" stroke-linecap="butt" d="m612.3517 250.58792l-11.175842 -24.706024" fill-rule="evenodd"/><path fill="#000000" fill-opacity="0.0" d="m696.4698 232.94226l-15.881836 -34.11812" fill-rule="evenodd"/><path stroke="#ffffff" stroke-width="12.0" stroke-linejoin="round" stroke-linecap="butt" d="m696.4698 232.94226l-15.881836 -34.11812" fill-rule="evenodd"/><path fill="#000000" fill-opacity="0.0" d="m698.2362 234.1181l22.939636 7.6456757" fill-rule="evenodd"/><path stroke="#ffffff" stroke-width="12.0" stroke-linejoin="round" stroke-linecap="butt" d="m698.2362 234.1181l22.939636 7.6456757" fill-rule="evenodd"/><path fill="#000000" fill-opacity="0.0" d="m695.29395 231.76378l19.41211 -12.939636" fill-rule="evenodd"/><path stroke="#ffffff" stroke-width="12.0" stroke-linejoin="round" stroke-linecap="butt" d="m695.29395 231.76378l19.41211 -12.939636" fill-rule="evenodd"/><path fill="#000000" fill-opacity="0.0" d="m657.05774 286.46982l5.2939453 37.060364l-16.469788 32.939636l1.1758423 8.236206" fill-rule="evenodd"/><path stroke="#ffffff" stroke-width="12.0" stroke-linejoin="round" stroke-linecap="butt" d="m657.05774 286.46982l5.2939453 37.060364l-16.469788 32.939636l1.1758423 8.236206" fill-rule="evenodd"/><path fill="#000000" fill-opacity="0.0" d="m607.05774 198.23622l-17.05774 -21.766403l-24.706055 -8.233597" fill-rule="evenodd"/><path stroke="#ffffff" stroke-width="12.0" stroke-linejoin="round" stroke-linecap="butt" d="m607.05774 198.23622l-17.05774 -21.766403l-24.706055 -8.233597" fill-rule="evenodd"/><path fill="#000000" fill-opacity="0.0" d="m281.17584 415.29398l75.293976 94.1181l88.236206 -7.648285l121.76376 -102.351715" fill-rule="evenodd"/><path stroke="#ffffff" stroke-width="12.0" stroke-linejoin="round" stroke-linecap="butt" d="m281.17584 415.29398l75.293976 94.1181l88.236206 -7.648285l121.76376 -102.351715" fill-rule="evenodd"/><path fill="#000000" fill-opacity="0.0" d="m255.8819 286.46982l21.766388 -88.2336l63.527557 -30.587921l121.17587 5.8818817" fill-rule="evenodd"/><path stroke="#ffffff" stroke-width="12.0" stroke-linejoin="round" stroke-linecap="butt" d="m255.8819 286.46982l21.766388 -88.2336l63.527557 -30.587921l121.17587 5.8818817" fill-rule="evenodd"/><path fill="#000000" fill-opacity="0.0" d="m263.53018 260.0l206.46982 -88.23622" fill-rule="evenodd"/><path stroke="#ffffff" stroke-width="12.0" stroke-linejoin="round" stroke-linecap="butt" d="m263.53018 260.0l206.46982 -88.23622" fill-rule="evenodd"/><path fill="#000000" fill-opacity="0.0" d="m302.3517 439.41208l242.94223 -55.881897l-29.412048 -72.94226" fill-rule="evenodd"/><path stroke="#ffffff" stroke-width="12.0" stroke-linejoin="round" stroke-linecap="butt" d="m302.3517 439.41208l242.94223 -55.881897l-29.412048 -72.94226" fill-rule="evenodd"/><path fill="#000000" fill-opacity="0.0" d="m302.94226 439.41208l264.11548 -38.824158" fill-rule="evenodd"/><path stroke="#ffffff" stroke-width="12.0" stroke-linejoin="round" stroke-linecap="butt" d="m302.94226 439.41208l264.11548 -38.824158" fill-rule="evenodd"/><path fill="#000000" fill-opacity="0.0" d="m548.2362 382.3517l97.64569 -30.0" fill-rule="evenodd"/><path stroke="#ffffff" stroke-width="12.0" stroke-linejoin="round" stroke-linecap="butt" d="m548.2362 382.3517l97.64569 -30.0" fill-rule="evenodd"/><path fill="#000000" fill-opacity="0.0" d="m485.29398 224.1181l-17.05777 -50.0" fill-rule="evenodd"/><path stroke="#ffffff" stroke-width="12.0" stroke-linejoin="round" stroke-linecap="butt" d="m485.29398 224.1181l-17.05777 -50.0" fill-rule="evenodd"/><path fill="#000000" fill-opacity="0.0" d="m250.0 418.2362l192.94226 -100.58792l80.0 -27.060364l24.115479 -18.824127l81.17847 -17.057755" fill-rule="evenodd"/><path stroke="#ffffff" stroke-width="12.0" stroke-linejoin="round" stroke-linecap="butt" d="m250.0 418.2362l192.94226 -100.58792l80.0 -27.060364l24.115479 -18.824127l81.17847 -17.057755" fill-rule="evenodd"/><path fill="#000000" fill-opacity="0.0" d="m650.0 348.82416l23.530212 8.824127" fill-rule="evenodd"/><path stroke="#ffffff" stroke-width="12.0" stroke-linejoin="round" stroke-linecap="butt" d="m650.0 348.82416l23.530212 8.824127" fill-rule="evenodd"/><path fill="#000000" fill-opacity="0.0" d="m312.3517 361.17584l-11.175873 -49.41205l57.648315 -14.115509l11.175842 35.293976" fill-rule="evenodd"/><path stroke="#ffffff" stroke-width="12.0" stroke-linejoin="round" stroke-linecap="butt" d="m312.3517 361.17584l-11.175873 -49.41205l57.648315 -14.115509l11.175842 35.293976" fill-rule="evenodd"/></g></svg>